mtllib SM_WindowGlassCube03.mtl
g SM_WindowGlassCube03
#Vertices 124
#Indices 192
#Section 0 Offset 0 NumIndices 192 MaterialIndex 0 MI_Window
v -0.307901 -0.025981 0.392815
v -0.307901 -0.016117 0.414424
v -0.307901 -0.025981 0.414424
v -0.307901 -0.050220 0.414424
v -0.307901 -0.035844 0.392815
v -0.307901 -0.035844 0.414424
v -0.307901 -0.050220 -0.535691
v -0.307901 -0.035844 -0.535691
v -0.307901 -0.035844 -0.515440
v -0.307901 -0.025981 -0.535691
v -0.307901 -0.016117 -0.535691
v -0.307901 -0.025981 -0.515440
v -0.307901 -0.016117 0.414424
v -0.307901 -0.016117 -0.535691
v -0.260259 -0.016117 0.363651
v -0.260259 -0.016117 -0.487988
v -0.307901 -0.025981 0.392815
v -0.307901 -0.016117 -0.535691
v -0.307901 -0.016117 0.414424
v -0.307901 -0.025981 -0.515440
v -0.307901 -0.050220 -0.535691
v -0.260259 -0.050220 0.363651
v -0.260259 -0.050220 -0.487988
v -0.307901 -0.050220 0.414424
v -0.260259 -0.050220 -0.487988
v -0.260259 -0.016117 0.363651
v -0.260259 -0.016117 -0.487988
v -0.260259 -0.050220 0.363651
v -0.307901 -0.035844 0.392815
v -0.307901 -0.050220 -0.535691
v -0.307901 -0.035844 -0.515440
v -0.307901 -0.050220 0.414424
v -0.307901 -0.025981 0.392815
v -0.307901 -0.035844 -0.515440
v -0.307901 -0.025981 -0.515440
v -0.307901 -0.035844 0.392815
v 0.303879 -0.050220 0.414424
v -0.307901 -0.050220 0.414424
v 0.303879 -0.035844 0.414424
v -0.307901 -0.035844 0.414424
v 0.303879 -0.016117 -0.535691
v 0.303879 -0.016117 0.414424
v 0.256238 -0.016117 0.363651
v 0.256238 -0.016117 -0.487988
v 0.303879 -0.050220 -0.535691
v 0.256238 -0.050220 0.363651
v 0.303879 -0.050220 0.414424
v 0.256238 -0.050220 -0.487988
v 0.303879 -0.016117 0.414424
v -0.307901 -0.016117 0.414424
v 0.256238 -0.016117 0.363651
v -0.260259 -0.016117 0.363651
v -0.307901 -0.016117 -0.535691
v 0.303879 -0.025981 -0.535691
v 0.303879 -0.016117 -0.535691
v -0.307901 -0.025981 -0.535691
v 0.303879 -0.016117 -0.535691
v -0.260259 -0.016117 -0.487988
v -0.307901 -0.016117 -0.535691
v 0.256238 -0.016117 -0.487988
v 0.256238 -0.050220 -0.487988
v -0.260259 -0.050220 -0.487988
v 0.256238 -0.016117 -0.487988
v -0.260259 -0.016117 -0.487988
v -0.307901 -0.035844 -0.535691
v 0.303879 -0.050220 -0.535691
v 0.303879 -0.035844 -0.535691
v -0.307901 -0.050220 -0.535691
v 0.256238 -0.016117 0.363651
v 0.256238 -0.050220 -0.487988
v 0.256238 -0.016117 -0.487988
v 0.256238 -0.050220 0.363651
v 0.303879 -0.025981 0.414424
v -0.307901 -0.025981 0.414424
v 0.303879 -0.016117 0.414424
v -0.307901 -0.016117 0.414424
v -0.260259 -0.016117 0.363651
v 0.256238 -0.050220 0.363651
v 0.256238 -0.016117 0.363651
v -0.260259 -0.050220 0.363651
v 0.303879 -0.050220 0.414424
v -0.260259 -0.050220 0.363651
v -0.307901 -0.050220 0.414424
v 0.256238 -0.050220 0.363651
v 0.303879 -0.035844 0.414424
v -0.307901 -0.035844 0.414424
v -0.307901 -0.035844 0.392815
v 0.303879 -0.035844 0.392815
v 0.303879 -0.025981 0.392815
v -0.307901 -0.025981 0.392815
v -0.307901 -0.025981 0.414424
v 0.303879 -0.025981 0.414424
v -0.307901 -0.025981 0.392815
v 0.303879 -0.025981 0.392815
v 0.303879 -0.035844 0.392815
v -0.307901 -0.035844 0.392815
v 0.303879 -0.050220 -0.535691
v -0.307901 -0.050220 -0.535691
v 0.256238 -0.050220 -0.487988
v -0.260259 -0.050220 -0.487988
v 0.303879 -0.025981 -0.535691
v -0.307901 -0.025981 -0.535691
v -0.307901 -0.025981 -0.515440
v 0.303879 -0.025981 -0.515440
v 0.303879 -0.035844 -0.515440
v -0.307901 -0.035844 -0.515440
v -0.307901 -0.035844 -0.535691
v 0.303879 -0.035844 -0.535691
v 0.303879 -0.025981 -0.515440
v -0.307901 -0.025981 -0.515440
v -0.307901 -0.035844 -0.515440
v 0.303879 -0.035844 -0.515440
v 0.303879 -0.050220 0.414424
v 0.303879 -0.035844 0.414424
v 0.303879 -0.035844 0.392815
v 0.303879 -0.050220 -0.535691
v 0.303879 -0.035844 -0.515440
v 0.303879 -0.035844 -0.535691
v 0.303879 -0.025981 0.392815
v 0.303879 -0.025981 -0.515440
v 0.303879 -0.025981 -0.535691
v 0.303879 -0.016117 -0.535691
v 0.303879 -0.016117 0.414424
v 0.303879 -0.025981 0.414424
vt 0.813477 0.499023
vt 0.822266 0.510498
vt 0.816406 0.511719
vt 0.796875 0.511719
vt 0.805176 0.499023
vt 0.805176 0.511719
vt 0.796387 0.007812
vt 0.804688 0.007324
vt 0.805176 0.018555
vt 0.813477 0.000488
vt 0.822266 0.000488
vt 0.813477 0.018555
vt 0.822266 0.510498
vt 0.822266 0.000488
vt 0.848145 0.483398
vt 0.848145 0.026367
vt 0.813477 0.499023
vt 0.822266 0.000488
vt 0.822266 0.510498
vt 0.813477 0.018555
vt 0.891602 0.000488
vt 0.866211 0.483398
vt 0.866211 0.026367
vt 0.891602 0.510498
vt 0.866211 0.026367
vt 0.848145 0.483398
vt 0.848145 0.026367
vt 0.866211 0.483398
vt 0.805176 0.499023
vt 0.796387 0.007812
vt 0.805176 0.018555
vt 0.796875 0.511719
vt 0.813477 0.499023
vt 0.805176 0.018555
vt 0.813477 0.018555
vt 0.805176 0.499023
vt 0.700684 0.853638
vt 0.700684 0.513184
vt 0.708496 0.853638
vt 0.708496 0.513184
vt 0.726562 0.510742
vt 0.726562 0.000488
vt 0.751953 0.027832
vt 0.751953 0.485352
vt 0.795898 0.510742
vt 0.770020 0.027832
vt 0.795898 0.000488
vt 0.770020 0.485352
vt 0.744629 0.853638
vt 0.744629 0.513184
vt 0.772949 0.827148
vt 0.772949 0.539551
vt 0.000391 0.749023
vt 0.340820 0.743164
vt 0.340820 0.749023
vt 0.000399 0.743164
vt 0.340820 0.749023
vt 0.026901 0.775513
vt 0.000391 0.749023
vt 0.314453 0.775513
vt 0.314453 0.794434
vt 0.026901 0.794434
vt 0.314453 0.775513
vt 0.026901 0.775513
vt 0.000392 0.714600
vt 0.340820 0.706543
vt 0.340820 0.714600
vt 0.000392 0.706543
vt 0.751953 0.027832
vt 0.770020 0.485352
vt 0.751953 0.485352
vt 0.770020 0.027832
vt 0.738770 0.853638
vt 0.738770 0.513184
vt 0.744629 0.853638
vt 0.744629 0.513184
vt 0.772949 0.539551
vt 0.791992 0.827148
vt 0.772949 0.827148
vt 0.791992 0.539551
vt 0.820312 0.853638
vt 0.791992 0.539551
vt 0.820312 0.513184
vt 0.791992 0.827148
vt 0.708496 0.853638
vt 0.708496 0.513184
vt 0.720703 0.513184
vt 0.720703 0.853638
vt 0.726562 0.853638
vt 0.726562 0.513184
vt 0.738770 0.513184
vt 0.738770 0.853638
vt 0.726562 0.513184
vt 0.726562 0.853638
vt 0.720703 0.853638
vt 0.720703 0.513184
vt 0.340820 0.821045
vt 0.000391 0.821045
vt 0.314453 0.794434
vt 0.026901 0.794434
vt 0.340820 0.743164
vt 0.000399 0.743164
vt 0.000399 0.731689
vt 0.340820 0.731689
vt 0.340820 0.725830
vt 0.000392 0.725830
vt 0.000392 0.714600
vt 0.340820 0.714600
vt 0.340820 0.731689
vt 0.000399 0.731689
vt 0.000392 0.725830
vt 0.340820 0.725830
vt 0.700684 0.008301
vt 0.708496 0.007812
vt 0.709473 0.019531
vt 0.700684 0.512207
vt 0.709473 0.500244
vt 0.709473 0.512207
vt 0.717773 0.019531
vt 0.717773 0.500244
vt 0.720703 0.512207
vt 0.726562 0.510742
vt 0.726562 0.000488
vt 0.717773 0.000488
vt1 0.621582 0.032928
vt1 0.638184 0.010521
vt1 0.626953 0.008064
vt1 0.588867 0.008156
vt1 0.604980 0.033020
vt1 0.604980 0.008163
vt1 0.588379 0.978027
vt1 0.603516 0.979004
vt1 0.604980 0.957520
vt1 0.621582 0.991699
vt1 0.638184 0.991699
vt1 0.621094 0.957520
vt1 0.638184 0.010521
vt1 0.638184 0.991699
vt1 0.687500 0.062927
vt1 0.687500 0.942383
vt1 0.621582 0.032928
vt1 0.638184 0.991699
vt1 0.638184 0.010521
vt1 0.621094 0.957520
vt1 0.771484 0.991699
vt1 0.722656 0.062927
vt1 0.722656 0.942383
vt1 0.771484 0.010521
vt1 0.722656 0.942383
vt1 0.687500 0.062927
vt1 0.687500 0.942383
vt1 0.722656 0.062927
vt1 0.604980 0.033020
vt1 0.588379 0.978027
vt1 0.604980 0.957520
vt1 0.588867 0.008156
vt1 0.621582 0.032928
vt1 0.604980 0.957520
vt1 0.621094 0.957520
vt1 0.604980 0.033020
vt1 0.008064 0.008064
vt1 0.008064 0.794922
vt1 0.026398 0.008064
vt1 0.026398 0.794922
vt1 0.847656 0.010933
vt1 0.847656 0.991699
vt1 0.896484 0.939453
vt1 0.896484 0.060181
vt1 0.980957 0.010933
vt1 0.932129 0.939453
vt1 0.980957 0.991699
vt1 0.932129 0.060181
vt1 0.108765 0.008064
vt1 0.108765 0.794922
vt1 0.173584 0.069336
vt1 0.173584 0.733398
vt1 0.463379 0.794922
vt1 0.477051 0.008064
vt1 0.463379 0.008080
vt1 0.477051 0.794922
vt1 0.463379 0.008080
vt1 0.402588 0.733887
vt1 0.463379 0.794922
vt1 0.402588 0.069336
vt1 0.359131 0.069336
vt1 0.359131 0.733887
vt1 0.402588 0.069336
vt1 0.402588 0.733887
vt1 0.542480 0.794922
vt1 0.560547 0.008080
vt1 0.542480 0.008080
vt1 0.560547 0.794922
vt1 0.896484 0.939453
vt1 0.932129 0.060181
vt1 0.896484 0.060181
vt1 0.932129 0.939453
vt1 0.095154 0.008080
vt1 0.095154 0.794922
vt1 0.108765 0.008064
vt1 0.108765 0.794922
vt1 0.173584 0.733398
vt1 0.217041 0.069336
vt1 0.173584 0.069336
vt1 0.217041 0.733398
vt1 0.281738 0.008064
vt1 0.217041 0.733398
vt1 0.281738 0.794922
vt1 0.217041 0.069336
vt1 0.026398 0.008064
vt1 0.026398 0.794922
vt1 0.053986 0.794922
vt1 0.053986 0.008064
vt1 0.067566 0.008080
vt1 0.067566 0.794922
vt1 0.095154 0.794922
vt1 0.095154 0.008080
vt1 0.067566 0.794922
vt1 0.067566 0.008080
vt1 0.053986 0.008064
vt1 0.053986 0.794922
vt1 0.298340 0.008080
vt1 0.298340 0.794922
vt1 0.359131 0.069336
vt1 0.359131 0.733887
vt1 0.477051 0.008064
vt1 0.477051 0.794922
vt1 0.502930 0.794922
vt1 0.502930 0.008064
vt1 0.516602 0.008080
vt1 0.516602 0.794922
vt1 0.542480 0.794922
vt1 0.542480 0.008080
vt1 0.502930 0.008064
vt1 0.502930 0.794922
vt1 0.516602 0.794922
vt1 0.516602 0.008080
vt1 0.798340 0.977051
vt1 0.813477 0.978027
vt1 0.814453 0.955078
vt1 0.798340 0.008087
vt1 0.814941 0.031342
vt1 0.814941 0.008064
vt1 0.830566 0.955078
vt1 0.831055 0.031433
vt1 0.836426 0.008369
vt1 0.847656 0.010933
vt1 0.847656 0.991699
vt1 0.830566 0.991699
vn -1.000000 0.000000 0.000000
vn -1.000000 0.000000 0.000000
vn -1.000000 0.000000 0.000000
vn -1.000000 0.000000 0.000000
vn -1.000000 0.000000 0.000000
vn -1.000000 0.000000 0.000000
vn -1.000000 0.000000 0.000000
vn -1.000000 0.000000 0.000000
vn -1.000000 0.000000 0.000000
vn -1.000000 0.000000 0.000000
vn -1.000000 0.000000 0.000000
vn -1.000000 0.000000 0.000000
vn 0.000000 1.000000 0.000000
vn 0.000000 1.000000 0.000000
vn 0.000000 1.000000 0.000000
vn 0.000000 1.000000 0.000000
vn -1.000000 0.000000 0.000000
vn -1.000000 0.000000 0.000000
vn -1.000000 0.000000 0.000000
vn -1.000000 0.000000 0.000000
vn 0.000000 -1.000000 0.000000
vn 0.000000 -1.000000 0.000000
vn 0.000000 -1.000000 0.000000
vn 0.000000 -1.000000 0.000000
vn 1.000000 0.000000 0.000000
vn 1.000000 0.000000 0.000000
vn 1.000000 0.000000 0.000000
vn 1.000000 0.000000 0.000000
vn -1.000000 0.000000 0.000000
vn -1.000000 0.000000 0.000000
vn -1.000000 0.000000 0.000000
vn -1.000000 0.000000 0.000000
vn -1.000000 0.000000 0.000000
vn -1.000000 0.000000 0.000000
vn -1.000000 0.000000 0.000000
vn -1.000000 0.000000 0.000000
vn 0.000000 0.000000 1.000000
vn 0.000000 0.000000 1.000000
vn 0.000000 0.000000 1.000000
vn 0.000000 0.000000 1.000000
vn 0.000000 1.000000 0.000000
vn 0.000000 1.000000 0.000000
vn 0.000000 1.000000 0.000000
vn 0.000000 1.000000 0.000000
vn 0.000000 -1.000000 0.000000
vn 0.000000 -1.000000 0.000000
vn 0.000000 -1.000000 0.000000
vn 0.000000 -1.000000 0.000000
vn 0.000000 1.000000 0.000000
vn 0.000000 1.000000 0.000000
vn 0.000000 1.000000 0.000000
vn 0.000000 1.000000 0.000000
vn 0.000000 0.000000 -1.000000
vn 0.000000 0.000000 -1.000000
vn 0.000000 0.000000 -1.000000
vn 0.000000 0.000000 -1.000000
vn 0.000000 1.000000 0.000000
vn 0.000000 1.000000 0.000000
vn 0.000000 1.000000 0.000000
vn 0.000000 1.000000 0.000000
vn 0.000000 0.000000 1.000000
vn 0.000000 0.000000 1.000000
vn 0.000000 0.000000 1.000000
vn 0.000000 0.000000 1.000000
vn 0.000000 0.000000 -1.000000
vn 0.000000 0.000000 -1.000000
vn 0.000000 0.000000 -1.000000
vn 0.000000 0.000000 -1.000000
vn -1.000000 0.000000 0.000000
vn -1.000000 0.000000 0.000000
vn -1.000000 0.000000 0.000000
vn -1.000000 0.000000 0.000000
vn 0.000000 0.000000 1.000000
vn 0.000000 0.000000 1.000000
vn 0.000000 0.000000 1.000000
vn 0.000000 0.000000 1.000000
vn 0.000000 0.000000 -1.000000
vn 0.000000 0.000000 -1.000000
vn 0.000000 0.000000 -1.000000
vn 0.000000 0.000000 -1.000000
vn 0.000000 -1.000000 0.000000
vn 0.000000 -1.000000 0.000000
vn 0.000000 -1.000000 0.000000
vn 0.000000 -1.000000 0.000000
vn 0.000000 1.000000 0.000000
vn 0.000000 1.000000 0.000000
vn 0.000000 1.000000 0.000000
vn 0.000000 1.000000 0.000000
vn 0.000000 -1.000000 0.000000
vn 0.000000 -1.000000 0.000000
vn 0.000000 -1.000000 0.000000
vn 0.000000 -1.000000 0.000000
vn 0.000000 0.000000 1.000000
vn 0.000000 0.000000 1.000000
vn 0.000000 0.000000 1.000000
vn 0.000000 0.000000 1.000000
vn 0.000000 -1.000000 0.000000
vn 0.000000 -1.000000 0.000000
vn 0.000000 -1.000000 0.000000
vn 0.000000 -1.000000 0.000000
vn 0.000000 -1.000000 0.000000
vn 0.000000 -1.000000 0.000000
vn 0.000000 -1.000000 0.000000
vn 0.000000 -1.000000 0.000000
vn 0.000000 1.000000 0.000000
vn 0.000000 1.000000 0.000000
vn 0.000000 1.000000 0.000000
vn 0.000000 1.000000 0.000000
vn 0.000000 0.000000 -1.000000
vn 0.000000 0.000000 -1.000000
vn 0.000000 0.000000 -1.000000
vn 0.000000 0.000000 -1.000000
vn 1.000000 0.000000 0.000000
vn 1.000000 0.000000 0.000000
vn 1.000000 0.000000 0.000000
vn 1.000000 0.000000 0.000000
vn 1.000000 0.000000 0.000000
vn 1.000000 0.000000 0.000000
vn 1.000000 0.000000 0.000000
vn 1.000000 0.000000 0.000000
vn 1.000000 0.000000 0.000000
vn 1.000000 0.000000 0.000000
vn 1.000000 0.000000 0.000000
vn 1.000000 0.000000 0.000000
tan 0.000000 0.212598 -0.976378 1.000000
tan 0.000000 0.212598 -0.976378 1.000000
tan 0.000000 0.212598 -0.976378 1.000000
tan 0.000000 0.000000 -1.000000 1.000000
tan 0.000000 0.000000 -1.000000 1.000000
tan 0.000000 0.000000 -1.000000 1.000000
tan 0.000000 0.055118 -1.000000 1.000000
tan 0.000000 0.055118 -1.000000 1.000000
tan 0.000000 0.055118 -1.000000 1.000000
tan -0.000000 -0.007874 -1.000000 1.000000
tan -0.000000 -0.007874 -1.000000 1.000000
tan -0.000000 -0.007874 -1.000000 1.000000
tan 0.000000 0.000000 -1.000000 1.000000
tan 0.000000 0.000000 -1.000000 1.000000
tan 0.000000 0.000000 -1.000000 1.000000
tan 0.000000 0.000000 -1.000000 1.000000
tan -0.000000 -0.007874 -1.000000 1.000000
tan 0.000000 0.795276 -0.606299 1.000000
tan -0.000000 -0.007874 -1.000000 1.000000
tan 0.000000 0.803150 -0.590551 1.000000
tan -0.000000 -0.000000 -1.000000 1.000000
tan -0.000000 -0.000000 -1.000000 1.000000
tan -0.000000 -0.000000 -1.000000 1.000000
tan -0.000000 -0.000000 -1.000000 1.000000
tan 0.000000 0.000000 -1.000000 1.000000
tan 0.000000 0.000000 -1.000000 1.000000
tan 0.000000 0.000000 -1.000000 1.000000
tan 0.000000 0.000000 -1.000000 1.000000
tan 0.000000 0.188976 -0.984252 1.000000
tan 0.000000 0.007874 -1.000000 1.000000
tan 0.000000 0.000000 -1.000000 1.000000
tan 0.000000 0.188976 -0.984252 1.000000
tan -0.000000 -0.007874 -1.000000 1.000000
tan -0.000000 -0.007874 -1.000000 1.000000
tan -0.000000 -0.007874 -1.000000 1.000000
tan -0.000000 -0.007874 -1.000000 1.000000
tan -1.000000 0.000000 0.000000 1.000000
tan -1.000000 0.000000 0.000000 1.000000
tan -1.000000 0.000000 0.000000 1.000000
tan -1.000000 0.000000 0.000000 1.000000
tan 0.000000 -0.000000 1.000000 1.000000
tan 0.000000 -0.000000 1.000000 1.000000
tan 0.000000 -0.000000 1.000000 1.000000
tan 0.000000 -0.000000 1.000000 1.000000
tan -0.000000 0.000000 1.000000 1.000000
tan -0.000000 0.000000 1.000000 1.000000
tan -0.000000 0.000000 1.000000 1.000000
tan -0.000000 0.000000 1.000000 1.000000
tan -1.000000 0.000000 0.000000 1.000000
tan -1.000000 0.000000 0.000000 1.000000
tan -1.000000 0.000000 0.000000 1.000000
tan -1.000000 0.000000 0.000000 1.000000
tan 0.000000 -1.000000 0.000000 1.000000
tan 0.000000 -1.000000 0.000000 1.000000
tan 0.000000 -1.000000 0.000000 1.000000
tan 0.000000 -1.000000 0.000000 1.000000
tan 0.000000 0.000000 -1.000000 1.000000
tan 0.000000 0.000000 -1.000000 1.000000
tan 0.000000 0.000000 -1.000000 1.000000
tan 0.000000 0.000000 -1.000000 1.000000
tan 0.000000 1.000000 0.000000 1.000000
tan 0.000000 1.000000 0.000000 1.000000
tan 0.000000 1.000000 0.000000 1.000000
tan 0.000000 1.000000 0.000000 1.000000
tan 0.000000 -1.000000 0.000000 1.000000
tan 0.000000 -1.000000 0.000000 1.000000
tan 0.000000 -1.000000 0.000000 1.000000
tan 0.000000 -1.000000 0.000000 1.000000
tan 0.000000 0.000000 1.000000 1.000000
tan 0.000000 0.000000 1.000000 1.000000
tan 0.000000 0.000000 1.000000 1.000000
tan 0.000000 0.000000 1.000000 1.000000
tan -1.000000 0.000000 0.000000 1.000000
tan -1.000000 0.000000 0.000000 1.000000
tan -1.000000 0.000000 0.000000 1.000000
tan -1.000000 0.000000 0.000000 1.000000
tan -1.000000 -0.000000 -0.000000 1.000000
tan -1.000000 -0.000000 -0.000000 1.000000
tan -1.000000 -0.000000 -0.000000 1.000000
tan -1.000000 -0.000000 -0.000000 1.000000
tan -1.000000 0.000000 0.000000 1.000000
tan -1.000000 0.000000 0.000000 1.000000
tan -1.000000 0.000000 0.000000 1.000000
tan -1.000000 0.000000 0.000000 1.000000
tan -1.000000 0.000000 0.000000 1.000000
tan -1.000000 0.000000 0.000000 1.000000
tan -1.000000 0.000000 0.000000 1.000000
tan -1.000000 0.000000 0.000000 1.000000
tan -1.000000 0.000000 0.000000 1.000000
tan -1.000000 0.000000 0.000000 1.000000
tan -1.000000 0.000000 0.000000 1.000000
tan -1.000000 0.000000 0.000000 1.000000
tan -1.000000 0.000000 0.000000 1.000000
tan -1.000000 0.000000 0.000000 1.000000
tan -1.000000 0.000000 0.000000 1.000000
tan -1.000000 0.000000 0.000000 1.000000
tan -0.000000 0.000000 1.000000 1.000000
tan -0.000000 0.000000 1.000000 1.000000
tan -0.000000 0.000000 1.000000 1.000000
tan -0.000000 0.000000 1.000000 1.000000
tan -0.000000 0.000000 1.000000 1.000000
tan -0.000000 0.000000 1.000000 1.000000
tan -0.000000 0.000000 1.000000 1.000000
tan -0.000000 0.000000 1.000000 1.000000
tan 0.000000 0.000000 -1.000000 1.000000
tan 0.000000 0.000000 -1.000000 1.000000
tan 0.000000 0.000000 -1.000000 1.000000
tan 0.000000 0.000000 -1.000000 1.000000
tan 0.000000 -1.000000 0.000000 1.000000
tan 0.000000 -1.000000 0.000000 1.000000
tan 0.000000 -1.000000 0.000000 1.000000
tan 0.000000 -1.000000 0.000000 1.000000
tan -0.000000 0.031496 1.000000 1.000000
tan -0.000000 0.055118 1.000000 1.000000
tan -0.000000 0.007874 1.000000 1.000000
tan -0.000000 0.070866 1.000000 1.000000
tan -0.000000 0.102362 0.992126 1.000000
tan 0.000000 0.000000 1.000000 1.000000
tan -0.000000 0.527559 0.850394 1.000000
tan -0.000000 0.031496 1.000000 1.000000
tan -0.000000 0.220472 0.976378 1.000000
tan -0.000000 0.165354 0.984252 1.000000
tan -0.000000 0.244094 0.968504 1.000000
tan 0.000000 0.000000 1.000000 1.000000
f 3/3/3 2/2/2 1/1/1
f 6/6/6 5/5/5 4/4/4
f 9/9/9 8/8/8 7/7/7
f 12/12/12 11/11/11 10/10/10
f 15/15/15 14/14/14 13/13/13
f 16/16/16 14/14/14 15/15/15
f 19/19/19 18/18/18 17/17/17
f 20/20/20 17/17/17 18/18/18
f 23/23/23 22/22/22 21/21/21
f 24/24/24 21/21/21 22/22/22
f 27/27/27 26/26/26 25/25/25
f 28/28/28 25/25/25 26/26/26
f 31/31/31 30/30/30 29/29/29
f 29/29/29 30/30/30 32/32/32
f 35/35/35 34/34/34 33/33/33
f 36/36/36 33/33/33 34/34/34
f 39/39/39 38/38/38 37/37/37
f 38/38/38 39/39/39 40/40/40
f 43/43/43 42/42/42 41/41/41
f 44/44/44 43/43/43 41/41/41
f 47/47/47 46/46/46 45/45/45
f 48/48/48 45/45/45 46/46/46
f 51/51/51 50/50/50 49/49/49
f 52/52/52 50/50/50 51/51/51
f 55/55/55 54/54/54 53/53/53
f 56/56/56 53/53/53 54/54/54
f 59/59/59 58/58/58 57/57/57
f 60/60/60 57/57/57 58/58/58
f 63/63/63 62/62/62 61/61/61
f 62/62/62 63/63/63 64/64/64
f 67/67/67 66/66/66 65/65/65
f 68/68/68 65/65/65 66/66/66
f 71/71/71 70/70/70 69/69/69
f 72/72/72 69/69/69 70/70/70
f 75/75/75 74/74/74 73/73/73
f 74/74/74 75/75/75 76/76/76
f 79/79/79 78/78/78 77/77/77
f 80/80/80 77/77/77 78/78/78
f 83/83/83 82/82/82 81/81/81
f 84/84/84 81/81/81 82/82/82
f 87/87/87 86/86/86 85/85/85
f 88/88/88 87/87/87 85/85/85
f 91/91/91 90/90/90 89/89/89
f 92/92/92 91/91/91 89/89/89
f 95/95/95 94/94/94 93/93/93
f 96/96/96 95/95/95 93/93/93
f 99/99/99 98/98/98 97/97/97
f 100/100/100 98/98/98 99/99/99
f 103/103/103 102/102/102 101/101/101
f 104/104/104 103/103/103 101/101/101
f 107/107/107 106/106/106 105/105/105
f 108/108/108 107/107/107 105/105/105
f 111/111/111 110/110/110 109/109/109
f 112/112/112 111/111/111 109/109/109
f 115/115/115 114/114/114 113/113/113
f 115/115/115 113/113/113 116/116/116
f 117/117/117 115/115/115 116/116/116
f 118/118/118 117/117/117 116/116/116
f 115/115/115 117/117/117 119/119/119
f 117/117/117 120/120/120 119/119/119
f 122/122/122 120/120/120 121/121/121
f 120/120/120 122/122/122 119/119/119
f 123/123/123 119/119/119 122/122/122
f 123/123/123 124/124/124 119/119/119
