mtllib SM_WindowGlassCube01.mtl
g SM_WindowGlassCube01
#Vertices 52
#Indices 96
#Section 0 Offset 0 NumIndices 96 MaterialIndex 0 MI_WindowStain_01
v 0.461895 -0.036389 0.193323
v 0.477924 -0.036620 0.297123
v 0.461895 -0.036389 0.363651
v 0.477924 -0.036620 0.297123
v 0.510583 -0.036389 0.335835
v 0.461895 -0.036389 0.363651
v 0.978677 -0.036389 -0.243330
v 0.962648 -0.036620 -0.347129
v 0.978677 -0.036389 -0.488872
v 0.710225 -0.036389 -0.488872
v 0.703971 -0.036389 -0.445108
v 0.666670 -0.036389 -0.488872
v 0.962648 -0.036620 -0.347129
v 0.952511 -0.036389 -0.351665
v 0.978677 -0.036389 -0.488872
v 0.666670 -0.036389 -0.488872
v 0.703971 -0.036389 -0.445108
v 0.670265 -0.036389 -0.474010
v 0.581263 -0.036389 0.363651
v 0.461895 -0.036389 0.363651
v 0.510583 -0.036389 0.335835
v 0.552412 -0.036389 0.331429
v 0.978677 -0.036389 -0.488872
v 0.952511 -0.036389 -0.351665
v 0.914229 -0.036389 -0.456650
v 0.859310 -0.036389 -0.488872
v 0.786858 -0.036389 0.363651
v 0.804285 -0.036389 0.346855
v 0.808609 -0.036389 0.363651
v 0.816930 -0.036389 0.363651
v 0.814287 -0.036389 0.287190
v 0.829853 -0.036389 0.321350
v 0.837274 -0.036389 0.363651
v 0.860898 -0.036389 0.327340
v 0.876383 -0.036389 0.352032
v 0.978392 -0.036389 0.363651
v 0.897809 -0.036389 0.335985
v 0.901297 -0.036389 0.316659
v 0.947332 -0.036389 0.329860
v 0.978392 -0.036389 0.304130
v 0.626286 -0.036389 -0.452323
v 0.666670 -0.036389 -0.488872
v 0.670265 -0.036389 -0.474010
v 0.603298 -0.036389 -0.488872
v 0.610720 -0.036389 -0.371915
v 0.579674 -0.036389 -0.377904
v 0.564190 -0.036389 -0.402597
v 0.462181 -0.036389 -0.488872
v 0.535144 -0.036389 -0.386550
v 0.508985 -0.036389 -0.293596
v 0.493241 -0.036389 -0.306798
v 0.462181 -0.036389 -0.281067
vt 0.395020 0.706543
vt 0.369629 0.757935
vt 0.341553 0.782715
vt 0.369629 0.757935
vt 0.372070 0.785522
vt 0.341553 0.782715
vt 0.951172 0.602295
vt 0.934570 0.657227
vt 0.892578 0.722900
vt 0.813477 0.990181
vt 0.789551 0.985924
vt 0.813965 0.966431
vt 0.934570 0.657227
vt 0.937988 0.661865
vt 0.892578 0.722900
vt 0.813965 0.966278
vt 0.789551 0.985924
vt 0.806152 0.968109
vt 0.395020 0.820068
vt 0.341553 0.782715
vt 0.372070 0.785522
vt 0.392334 0.796631
vt 0.892578 0.722900
vt 0.937988 0.661865
vt 0.932129 0.722412
vt 0.951172 0.751343
vt 0.395752 0.748291
vt 0.405273 0.739258
vt 0.407715 0.748291
vt 0.412354 0.748291
vt 0.410889 0.706543
vt 0.419189 0.725098
vt 0.423340 0.748291
vt 0.436279 0.728516
vt 0.444824 0.741943
vt 0.500488 0.748291
vt 0.456299 0.733154
vt 0.458252 0.722656
vt 0.483398 0.729980
vt 0.500488 0.715820
vt 0.793945 0.944092
vt 0.813965 0.966156
vt 0.806152 0.968109
vt 0.813965 0.931580
vt 0.750000 0.935547
vt 0.753418 0.918640
vt 0.767090 0.910156
vt 0.813965 0.854492
vt 0.758301 0.894287
vt 0.707520 0.880005
vt 0.714844 0.871460
vt 0.700684 0.854492
vt1 0.614746 0.636719
vt1 0.339844 0.772461
vt1 0.207886 0.921875
vt1 0.339844 0.772461
vt1 0.192871 0.759277
vt1 0.207886 0.921875
vt1 0.950195 0.804199
vt1 0.859863 0.511719
vt1 0.636719 0.160278
vt1 0.135010 0.008064
vt1 0.008064 0.030823
vt1 0.139526 0.135010
vt1 0.859863 0.511719
vt1 0.880371 0.486816
vt1 0.636719 0.160278
vt1 0.115173 0.220581
vt1 0.008064 0.088684
vt1 0.105286 0.176880
vt1 0.008064 0.636719
vt1 0.207886 0.921875
vt1 0.192871 0.759277
vt1 0.133301 0.651855
vt1 0.636719 0.160278
vt1 0.880371 0.486816
vt1 0.847168 0.162598
vt1 0.950195 0.008064
vt1 0.969727 0.988770
vt1 0.918945 0.939941
vt1 0.906250 0.988770
vt1 0.882324 0.988770
vt1 0.889648 0.766113
vt1 0.844238 0.865723
vt1 0.822754 0.988770
vt1 0.753906 0.882812
vt1 0.708496 0.955078
vt1 0.411133 0.988770
vt1 0.645996 0.908203
vt1 0.636230 0.852051
vt1 0.501465 0.890625
vt1 0.411133 0.815430
vt1 0.507324 0.136353
vt1 0.613770 0.018524
vt1 0.570312 0.008064
vt1 0.613770 0.203369
vt1 0.272705 0.181885
vt1 0.290283 0.272461
vt1 0.362305 0.317627
vt1 0.614258 0.614746
vt1 0.315674 0.402344
vt1 0.044525 0.478760
vt1 0.083069 0.524414
vt1 0.008064 0.615234
vn 0.015748 1.000000 0.000000
vn 0.015748 1.000000 0.000000
vn 0.015748 1.000000 0.000000
vn 0.000000 1.000000 -0.007874
vn 0.000000 1.000000 -0.007874
vn 0.000000 1.000000 -0.007874
vn -0.015748 1.000000 0.000000
vn -0.015748 1.000000 0.000000
vn -0.015748 1.000000 0.000000
vn 0.000000 1.000000 0.000000
vn 0.000000 1.000000 0.000000
vn 0.000000 1.000000 0.000000
vn 0.023622 1.000000 0.007874
vn 0.023622 1.000000 0.007874
vn 0.023622 1.000000 0.007874
vn 0.000000 1.000000 0.000000
vn 0.000000 1.000000 0.000000
vn 0.000000 1.000000 0.000000
vn 0.000000 1.000000 0.000000
vn 0.000000 1.000000 0.000000
vn 0.000000 1.000000 0.000000
vn 0.000000 1.000000 0.000000
vn 0.000000 1.000000 0.000000
vn 0.000000 1.000000 0.000000
vn 0.000000 1.000000 0.000000
vn 0.000000 1.000000 0.000000
vn 0.000000 1.000000 0.000000
vn 0.000000 1.000000 0.000000
vn 0.000000 1.000000 0.000000
vn 0.000000 1.000000 0.000000
vn 0.000000 1.000000 0.000000
vn 0.000000 1.000000 0.000000
vn 0.000000 1.000000 0.000000
vn 0.000000 1.000000 0.000000
vn 0.000000 1.000000 0.000000
vn 0.000000 1.000000 0.000000
vn 0.000000 1.000000 0.000000
vn 0.000000 1.000000 0.000000
vn 0.000000 1.000000 0.000000
vn 0.000000 1.000000 0.000000
vn 0.000000 1.000000 0.000000
vn 0.000000 1.000000 0.000000
vn 0.000000 1.000000 0.000000
vn 0.000000 1.000000 0.000000
vn 0.000000 1.000000 0.000000
vn 0.000000 1.000000 0.000000
vn 0.000000 1.000000 0.000000
vn 0.000000 1.000000 0.000000
vn 0.000000 1.000000 0.000000
vn 0.000000 1.000000 0.000000
vn 0.000000 1.000000 0.000000
vn 0.000000 1.000000 0.000000
tan -0.574803 0.009052 -0.819146 1.000000
tan -0.574803 0.009052 -0.819146 1.000000
tan -0.574803 0.009052 -0.819146 1.000000
tan -0.574803 -0.006448 -0.818898 1.000000
tan -0.574803 -0.006448 -0.818898 1.000000
tan -0.574803 -0.006448 -0.818898 1.000000
tan 0.440945 0.006944 0.897886 1.000000
tan 0.440945 0.006944 0.897886 1.000000
tan 0.440945 0.006944 0.897886 1.000000
tan -1.000000 0.000000 0.039370 1.000000
tan -1.000000 0.000000 0.039370 1.000000
tan -1.000000 0.000000 0.039370 1.000000
tan 0.440821 -0.017484 0.898010 1.000000
tan 0.440821 -0.017484 0.898010 1.000000
tan 0.440821 -0.017484 0.898010 1.000000
tan -1.000000 0.000000 0.015748 1.000000
tan -1.000000 0.000000 0.015748 1.000000
tan -1.000000 0.000000 0.015748 1.000000
tan -0.574803 0.000000 -0.818898 1.000000
tan -0.574803 0.000000 -0.818898 1.000000
tan -0.574803 0.000000 -0.818898 1.000000
tan -0.574803 0.000000 -0.818898 1.000000
tan 0.440945 -0.000000 0.897638 1.000000
tan 0.440945 -0.000000 0.897638 1.000000
tan 0.440945 -0.000000 0.897638 1.000000
tan 0.440945 -0.000000 0.897638 1.000000
tan 0.000000 0.000000 -1.000000 1.000000
tan 0.000000 0.000000 -1.000000 1.000000
tan 0.000000 0.000000 -1.000000 1.000000
tan 0.000000 0.000000 -1.000000 1.000000
tan 0.000000 0.000000 -1.000000 1.000000
tan 0.000000 0.000000 -1.000000 1.000000
tan 0.000000 0.000000 -1.000000 1.000000
tan 0.000000 0.000000 -1.000000 1.000000
tan 0.000000 0.000000 -1.000000 1.000000
tan 0.000000 0.000000 -1.000000 1.000000
tan 0.000000 0.000000 -1.000000 1.000000
tan 0.000000 0.000000 -1.000000 1.000000
tan 0.000000 0.000000 -1.000000 1.000000
tan 0.000000 0.000000 -1.000000 1.000000
tan -1.000000 0.000000 0.000000 1.000000
tan -1.000000 0.000000 0.000000 1.000000
tan -1.000000 0.000000 0.000000 1.000000
tan -1.000000 0.000000 0.000000 1.000000
tan -1.000000 0.000000 0.000000 1.000000
tan -1.000000 0.000000 0.000000 1.000000
tan -1.000000 0.000000 0.000000 1.000000
tan -1.000000 0.000000 0.000000 1.000000
tan -1.000000 0.000000 0.000000 1.000000
tan -1.000000 0.000000 0.000000 1.000000
tan -1.000000 0.000000 0.000000 1.000000
tan -1.000000 0.000000 0.000000 1.000000
f 3/3/3 2/2/2 1/1/1
f 6/6/6 5/5/5 4/4/4
f 9/9/9 8/8/8 7/7/7
f 12/12/12 11/11/11 10/10/10
f 15/15/15 14/14/14 13/13/13
f 18/18/18 17/17/17 16/16/16
f 21/21/21 20/20/20 19/19/19
f 22/22/22 21/21/21 19/19/19
f 25/25/25 24/24/24 23/23/23
f 23/23/23 26/26/26 25/25/25
f 29/29/29 28/28/28 27/27/27
f 29/29/29 30/30/30 28/28/28
f 28/28/28 30/30/30 31/31/31
f 32/32/32 31/31/31 30/30/30
f 33/33/33 32/32/32 30/30/30
f 33/33/33 34/34/34 32/32/32
f 33/33/33 35/35/35 34/34/34
f 36/36/36 35/35/35 33/33/33
f 36/36/36 37/37/37 35/35/35
f 36/36/36 38/38/38 37/37/37
f 36/36/36 39/39/39 38/38/38
f 36/36/36 40/40/40 39/39/39
f 43/43/43 42/42/42 41/41/41
f 42/42/42 44/44/44 41/41/41
f 41/41/41 44/44/44 45/45/45
f 44/44/44 46/46/46 45/45/45
f 44/44/44 47/47/47 46/46/46
f 48/48/48 47/47/47 44/44/44
f 48/48/48 49/49/49 47/47/47
f 48/48/48 50/50/50 49/49/49
f 48/48/48 51/51/51 50/50/50
f 48/48/48 52/52/52 51/51/51
