mtllib SM_BostonFern_01_LOD4.mtl
g SM_BostonFern_01_LOD4
#Vertices 8
#Indices 12
#Section 0 Offset 0 NumIndices 12 MaterialIndex 1 MI_BostonFernBillboard
v 0.059225 0.000000 0.057667 1.000000 0.000000 0.000000 1.000000
v -0.065424 0.000000 0.057667 1.000000 0.000000 0.000000 1.000000
v -0.065424 -0.000000 -0.004171 0.000000 1.000000 0.000000 1.000000
v 0.059225 -0.000000 -0.004171 0.000000 1.000000 0.000000 1.000000
v 0.000000 0.058762 -0.004609 0.000000 1.000000 0.000000 1.000000
v -0.000000 -0.051766 0.057229 1.000000 0.000000 0.000000 1.000000
v 0.000000 -0.051766 -0.004609 0.000000 1.000000 0.000000 1.000000
v -0.000000 0.058762 0.057229 1.000000 0.000000 0.000000 1.000000
vt 0.530273 0.276367
vt 0.061371 0.276367
vt 0.061371 0.043457
vt 0.530273 0.043457
vt 0.965820 0.043457
vt 0.550293 0.276367
vt 0.550293 0.043457
vt 0.965820 0.276367
vt1 0.049988 0.949707
vt1 0.841309 0.949707
vt1 0.841309 0.557129
vt1 0.049988 0.557129
vt1 0.049988 0.049988
vt1 0.751465 0.442383
vt1 0.751465 0.049988
vt1 0.049988 0.442383
vn 0.000000 1.000000 0.000000
vn 0.000000 1.000000 0.000000
vn 0.000000 1.000000 0.000000
vn 0.000000 1.000000 0.000000
vn -1.000000 0.000000 0.000000
vn -1.000000 0.000000 0.000000
vn -1.000000 0.000000 0.000000
vn -1.000000 0.000000 0.000000
tan 0.000000 0.000000 -1.000000 1.000000
tan 0.000000 0.000000 -1.000000 1.000000
tan 0.000000 0.000000 -1.000000 1.000000
tan 0.000000 0.000000 -1.000000 1.000000
tan 0.000000 0.000000 -1.000000 1.000000
tan 0.000000 0.000000 -1.000000 1.000000
tan 0.000000 0.000000 -1.000000 1.000000
tan 0.000000 0.000000 -1.000000 1.000000
f 3/3/3 2/2/2 1/1/1
f 4/4/4 3/3/3 1/1/1
f 7/7/7 6/6/6 5/5/5
f 8/8/8 5/5/5 6/6/6
