mtllib SM_WoodDebris01_LOD2.mtl
g SM_WoodDebris01_LOD2
#Vertices 89
#Indices 192
#Section 0 Offset 0 NumIndices 192 MaterialIndex 0 MI_WoodDebris01
v 0.143384 0.014355 -0.008052
v 0.147601 0.004175 -0.009603
v 0.148134 0.010520 0.005612
v -0.000633 0.013844 0.007899
v -0.024211 0.014379 0.008159
v 0.037415 0.014563 0.007715
v 0.003517 -0.014021 0.006877
v 0.139074 -0.014288 0.006888
v 0.131914 -0.014258 -0.007903
v 0.000633 -0.014168 -0.007326
v 0.131914 -0.014258 -0.007903
v 0.139074 -0.014288 0.006888
v 0.159787 -0.011096 -0.005754
v 0.155201 -0.003153 0.003014
v -0.155834 -0.005751 -0.009509
v -0.157010 0.007766 -0.009692
v -0.154770 -0.011677 0.002631
v -0.142123 -0.014402 -0.006448
v -0.158870 0.014299 -0.006959
v -0.095401 0.013602 -0.009625
v -0.022972 0.013900 -0.007513
v -0.156102 0.014998 0.006594
v -0.024211 0.014379 0.008159
v -0.106003 0.014107 0.008091
v -0.063576 0.013468 0.008075
v 0.148134 0.010520 0.005612
v 0.147601 0.004175 -0.009603
v 0.149967 -0.006563 -0.009834
v 0.155201 -0.003153 0.003014
v 0.159787 -0.011096 -0.005754
v -0.158870 0.014299 -0.006959
v -0.156102 0.014998 0.006594
v -0.157010 0.007766 -0.009692
v -0.154770 -0.011677 0.002631
v -0.152628 -0.013046 0.008573
v -0.022972 0.013900 -0.007513
v 0.066111 0.013859 -0.008373
v -0.024211 0.014379 0.008159
v 0.037415 0.014563 0.007715
v 0.143384 0.014355 -0.008052
v 0.143633 0.013928 0.008618
v 0.148134 0.010520 0.005612
v -0.152628 -0.013046 0.008573
v -0.142123 -0.014402 -0.006448
v -0.154770 -0.011677 0.002631
v -0.107843 -0.014079 0.007275
v -0.087564 -0.014509 -0.007935
v -0.026658 -0.012008 0.008967
v 0.003517 -0.014021 0.006877
v 0.000633 -0.014168 -0.007326
v -0.024211 0.014379 0.008159
v -0.026658 -0.012008 0.008967
v -0.063576 0.013468 0.008075
v -0.106003 0.014107 0.008091
v -0.152628 -0.013046 0.008573
v -0.156102 0.014998 0.006594
v -0.107843 -0.014079 0.007275
v 0.148134 0.010520 0.005612
v 0.155201 -0.003153 0.003014
v 0.139074 -0.014288 0.006888
v 0.143633 0.013928 0.008618
v 0.102694 -0.011551 0.008608
v 0.003517 -0.014021 0.006877
v 0.037415 0.014563 0.007715
v -0.026658 -0.012008 0.008967
v -0.000633 0.013844 0.007899
v -0.024211 0.014379 0.008159
v -0.022972 0.013900 -0.007513
v -0.004122 0.010433 -0.009779
v 0.066111 0.013859 -0.008373
v 0.057150 0.010580 -0.009800
v 0.143384 0.014355 -0.008052
v 0.147601 0.004175 -0.009603
v -0.001937 -0.010595 -0.009512
v 0.149967 -0.006563 -0.009834
v 0.085884 -0.012446 -0.009366
v 0.000633 -0.014168 -0.007326
v 0.131914 -0.014258 -0.007903
v 0.159787 -0.011096 -0.005754
v -0.087564 -0.014509 -0.007935
v 0.000633 -0.014168 -0.007326
v -0.001937 -0.010595 -0.009512
v -0.142123 -0.014402 -0.006448
v -0.155834 -0.005751 -0.009509
v -0.095401 0.013602 -0.009625
v -0.004122 0.010433 -0.009779
v -0.022972 0.013900 -0.007513
v -0.157010 0.007766 -0.009692
v -0.158870 0.014299 -0.006959
vt 0.106934 0.594482
vt 0.074341 0.628906
vt 0.052338 0.561523
vt 0.182617 0.515137
vt 0.081421 0.516113
vt 0.345947 0.513916
vt 0.929688 0.765625
vt 0.347900 0.767700
vt 0.378418 0.704346
vt 0.941895 0.704590
vt 0.820801 0.855591
vt 0.861816 0.799194
vt 0.932617 0.880127
vt 0.948242 0.833740
vt 0.666016 0.838135
vt 0.619629 0.803955
vt 0.724121 0.815796
vt 0.724609 0.885376
vt 0.918945 0.034180
vt 0.927734 0.307617
vt 0.917969 0.618164
vt 0.860840 0.046387
vt 0.851074 0.612305
vt 0.853027 0.261230
vt 0.851074 0.443359
vt 0.155762 0.750000
vt 0.086853 0.768555
vt 0.055634 0.735840
vt 0.108398 0.702881
vt 0.045166 0.689209
vt 0.211792 0.761230
vt 0.208862 0.706299
vt 0.235962 0.775879
vt 0.322998 0.728271
vt 0.328125 0.696045
vt 0.086731 0.448730
vt 0.469238 0.445312
vt 0.081421 0.516113
vt 0.345947 0.514404
vt 0.800781 0.445801
vt 0.802246 0.517090
vt 0.825684 0.504639
vt 0.711426 0.260254
vt 0.666016 0.195801
vt 0.721680 0.234863
vt 0.519043 0.254395
vt 0.432129 0.188965
vt 0.170532 0.262207
vt 0.041016 0.252930
vt 0.053375 0.191895
vt 0.611816 0.796509
vt 0.601562 0.909729
vt 0.442871 0.800903
vt 0.260498 0.798584
vt 0.061188 0.915771
vt 0.044891 0.795776
vt 0.252930 0.921326
vt 0.782227 0.048828
vt 0.812500 0.110840
vt 0.739258 0.153809
vt 0.759277 0.032227
vt 0.583008 0.142578
vt 0.157959 0.160156
vt 0.301758 0.033691
vt 0.028137 0.151367
vt 0.138306 0.039062
vt 0.036987 0.038574
vt 0.841309 0.284668
vt 0.760254 0.302246
vt 0.458496 0.285645
vt 0.497070 0.300781
vt 0.126709 0.283691
vt 0.108582 0.327637
vt 0.750488 0.392578
vt 0.098328 0.374023
vt 0.373291 0.399414
vt 0.739258 0.410645
vt 0.175903 0.408691
vt 0.055206 0.397949
vt 0.508789 0.672607
vt 0.130371 0.669922
vt 0.141602 0.652100
vt 0.743164 0.675293
vt 0.802734 0.636230
vt 0.543457 0.551270
vt 0.151733 0.561768
vt 0.232788 0.544922
vt 0.807617 0.577393
vt 0.814941 0.546387
vn 0.346457 0.700787 -0.622047
vn 0.677165 0.196850 -0.708661
vn 0.905512 0.291339 0.307087
vn 0.007874 -0.039370 1.000000
vn 0.000000 0.724409 0.692913
vn -0.015748 0.913386 0.409449
vn -0.015748 -0.913386 0.417323
vn 0.118110 -0.881890 0.456693
vn 0.015748 -0.889764 -0.456693
vn 0.000000 -0.874016 -0.488189
vn 0.023622 -0.818898 -0.574803
vn 0.291339 -0.834646 0.464567
vn 0.669291 -0.740157 0.086614
vn 0.795276 -0.362205 0.480315
vn -0.614173 -0.464567 -0.629921
vn -0.897638 0.141732 -0.417323
vn -0.842520 -0.535433 -0.086614
vn -0.488189 -0.803150 -0.346457
vn -0.559055 0.614173 -0.559055
vn 0.196850 0.503937 -0.842520
vn 0.007874 0.984252 -0.188976
vn -0.590551 0.614173 0.527559
vn 0.000000 0.724409 0.692913
vn 0.000000 0.574803 0.818898
vn 0.000000 -0.015748 1.000000
vn 0.732283 0.062992 0.677165
vn 0.677165 0.196850 -0.708661
vn 0.299213 0.149606 -0.944882
vn 0.622047 0.724409 0.299213
vn 0.921260 -0.338583 -0.196850
vn -0.929134 0.283465 -0.244094
vn -0.755906 0.314961 0.582677
vn -0.929134 0.133858 -0.338583
vn -0.850394 -0.519685 0.039370
vn -0.448819 -0.645669 0.622047
vn 0.000000 0.984252 -0.196850
vn -0.015748 0.834646 -0.559055
vn 0.000000 0.724409 0.692913
vn -0.110236 0.740157 0.661417
vn 0.417323 0.787402 -0.464567
vn 0.133858 0.685039 0.716535
vn 0.850394 0.377953 0.362205
vn -0.472441 -0.590551 0.653543
vn -0.362205 -0.803150 -0.472441
vn -0.645669 -0.685039 -0.338583
vn 0.007874 -0.897638 0.433071
vn 0.000000 -0.944882 -0.338583
vn -0.007874 -0.779528 0.629921
vn 0.000000 -0.968504 0.251969
vn 0.000000 -0.874016 -0.488189
vn 0.000000 0.724409 0.692913
vn 0.000000 -0.267717 0.960630
vn 0.000000 -0.015748 1.000000
vn 0.000000 0.574803 0.818898
vn -0.212598 -0.574803 0.795276
vn -0.267717 0.393701 0.881890
vn 0.007874 -0.897638 0.433071
vn 0.692913 0.102362 0.716535
vn 0.858268 0.251969 0.448819
vn 0.149606 -0.692913 0.700787
vn 0.149606 0.677165 0.716535
vn -0.007874 -0.291339 0.960630
vn 0.000000 -0.866142 0.496063
vn -0.023622 0.535433 0.842520
vn 0.000000 -0.251969 0.968504
vn 0.007874 -0.039370 1.000000
vn 0.000000 0.724409 0.692913
vn 0.007874 0.866142 -0.503937
vn 0.000000 0.236220 -0.968504
vn -0.015748 0.708661 -0.700787
vn 0.000000 0.204724 -0.976378
vn 0.307087 0.692913 -0.653543
vn 0.677165 0.196850 -0.708661
vn 0.000000 -0.275591 -0.960630
vn 0.299213 0.149606 -0.944882
vn -0.007874 -0.401575 -0.921260
vn 0.000000 -0.874016 -0.488189
vn 0.015748 -0.842520 -0.535433
vn 0.692913 -0.606299 -0.377953
vn -0.086614 -0.874016 -0.472441
vn 0.000000 -0.874016 -0.488189
vn 0.000000 -0.275591 -0.960630
vn -0.393701 -0.763780 -0.511811
vn -0.614173 -0.464567 -0.629921
vn 0.000000 0.385827 -0.921260
vn 0.000000 0.236220 -0.968504
vn 0.007874 0.842520 -0.535433
vn -0.251969 0.125984 -0.960630
vn -0.582677 0.606299 -0.543307
tan -0.029512 0.655899 0.722487 1.000000
tan 0.504061 0.581065 0.643065 1.000000
tan -0.397483 0.361213 0.829376 1.000000
tan 0.149606 -0.992126 -0.040238 1.000000
tan 0.050344 -0.692913 0.724409 1.000000
tan 0.039928 -0.408705 0.913262 1.000000
tan -0.000000 -0.417323 -0.913386 1.000000
tan -0.020832 -0.459483 -0.881890 1.000000
tan 0.000000 0.456693 -0.889764 1.000000
tan 0.000000 0.488189 -0.874016 1.000000
tan -0.043214 -0.575919 0.818712 1.000000
tan -0.140244 0.419617 0.841838 1.000000
tan -0.610825 -0.488437 0.546097 1.000000
tan -0.525079 -0.052080 0.830120 1.000000
tan -0.779714 0.319425 0.524645 1.000000
tan -0.360717 0.257735 0.863414 1.000000
tan -0.474115 0.654535 0.565627 1.000000
tan -0.694897 0.216504 0.477277 1.000000
tan -0.717775 -0.695517 -0.046314 1.000000
tan -0.823858 0.282845 -0.023312 1.000000
tan -0.984252 0.000434 -0.038750 1.000000
tan -0.720193 -0.669167 -0.027156 1.000000
tan -1.000434 -0.010912 0.011408 1.000000
tan -0.963854 -0.051584 0.036208 1.000000
tan -1.000000 0.007874 0.000124 1.000000
tan -0.643933 -0.239692 0.718643 1.000000
tan 0.725401 -0.309133 0.607291 1.000000
tan 0.947238 -0.027032 0.295679 1.000000
tan 0.610453 -0.665323 0.341683 1.000000
tan 0.030070 -0.412921 0.850952 1.000000
tan -0.271189 -0.095108 0.921818 1.000000
tan 0.628061 0.117180 0.751442 1.000000
tan -0.337529 0.007316 0.929134 1.000000
tan 0.096348 -0.090644 0.884618 1.000000
tan 0.545043 0.282659 0.686651 1.000000
tan 0.000000 -0.196850 -0.984252 1.000000
tan 0.000000 -0.559055 -0.834646 1.000000
tan 0.000000 0.692913 -0.724409 1.000000
tan -0.011036 0.660549 -0.741026 1.000000
tan 0.072478 -0.516771 -0.810776 1.000000
tan 0.023064 0.718643 -0.691363 1.000000
tan 0.187860 0.353773 -0.810218 1.000000
tan -0.044082 -0.724285 -0.686341 1.000000
tan -0.114204 0.524893 -0.804762 1.000000
tan 0.028024 0.408023 -0.878976 1.000000
tan -0.000000 -0.433071 -0.897638 1.000000
tan 0.000000 0.338583 -0.944882 1.000000
tan -0.000000 -0.629921 -0.779528 1.000000
tan -0.000000 -0.251969 -0.968504 1.000000
tan 0.000000 0.488189 -0.874016 1.000000
tan 0.000000 0.692913 -0.724409 1.000000
tan -0.000000 0.960630 0.267717 1.000000
tan -0.000000 1.000000 0.015748 1.000000
tan 0.000000 0.818898 -0.574803 1.000000
tan -0.020894 0.805320 0.576477 1.000000
tan 0.050220 0.892430 -0.383161 1.000000
tan 0.007068 0.433133 0.897638 1.000000
tan 0.066092 0.958336 -0.200818 1.000000
tan -0.273173 0.858268 0.040548 1.000000
tan -0.016616 0.701965 0.697625 1.000000
tan -0.015376 0.722425 -0.679521 1.000000
tan 0.007564 0.960630 0.291401 1.000000
tan -0.000000 0.496063 0.866142 1.000000
tan 0.000000 0.842520 -0.535433 1.000000
tan 0.015252 0.968504 0.251969 1.000000
tan 0.015748 1.000000 0.039246 1.000000
tan 0.000000 0.692913 -0.724409 1.000000
tan 0.000000 0.503937 0.866142 1.000000
tan 0.000000 0.968504 0.236220 1.000000
tan 0.000000 0.700787 0.708661 1.000000
tan 0.000000 0.976378 0.204724 1.000000
tan 0.007502 0.670159 0.714055 1.000000
tan 0.110980 0.924174 0.362763 1.000000
tan 0.000000 0.960630 -0.275591 1.000000
tan 0.038750 0.956662 0.163742 1.000000
tan 0.000000 0.921260 -0.401575 1.000000
tan 0.000000 0.488189 -0.874016 1.000000
tan 0.006634 0.535557 -0.842520 1.000000
tan 0.195610 0.663153 -0.705189 1.000000
tan -0.023808 0.475169 -0.874698 1.000000
tan 0.006882 0.488189 -0.874016 1.000000
tan 0.000000 0.960630 -0.275591 1.000000
tan -0.080042 0.563581 -0.779466 1.000000
tan 0.013888 0.795586 -0.600285 1.000000
tan 0.000000 0.921260 0.385827 1.000000
tan 0.007626 0.968504 0.236220 1.000000
tan 0.000000 0.535433 0.842520 1.000000
tan -0.066092 0.964598 0.143840 1.000000
tan 0.374853 0.791494 0.481245 1.000000
f 3/3/3 2/2/2 1/1/1
f 6/6/6 5/5/5 4/4/4
f 9/9/9 8/8/8 7/7/7
f 7/7/7 10/10/10 9/9/9
f 13/13/13 12/12/12 11/11/11
f 13/13/13 14/14/14 12/12/12
f 17/17/17 16/16/16 15/15/15
f 18/18/18 17/17/17 15/15/15
f 21/21/21 20/20/20 19/19/19
f 19/19/19 22/22/22 21/21/21
f 23/23/23 21/21/21 22/22/22
f 22/22/22 24/24/24 23/23/23
f 23/23/23 24/24/24 25/25/25
f 28/28/28 27/27/27 26/26/26
f 26/26/26 29/29/29 28/28/28
f 30/30/30 28/28/28 29/29/29
f 33/33/33 32/32/32 31/31/31
f 32/32/32 33/33/33 34/34/34
f 34/34/34 35/35/35 32/32/32
f 38/38/38 37/37/37 36/36/36
f 37/37/37 38/38/38 39/39/39
f 40/40/40 37/37/37 39/39/39
f 40/40/40 39/39/39 41/41/41
f 42/42/42 40/40/40 41/41/41
f 45/45/45 44/44/44 43/43/43
f 44/44/44 46/46/46 43/43/43
f 46/46/46 44/44/44 47/47/47
f 48/48/48 46/46/46 47/47/47
f 48/48/48 47/47/47 49/49/49
f 47/47/47 50/50/50 49/49/49
f 53/53/53 52/52/52 51/51/51
f 54/54/54 52/52/52 53/53/53
f 55/55/55 52/52/52 54/54/54
f 56/56/56 55/55/55 54/54/54
f 52/52/52 55/55/55 57/57/57
f 60/60/60 59/59/59 58/58/58
f 61/61/61 60/60/60 58/58/58
f 62/62/62 60/60/60 61/61/61
f 63/63/63 60/60/60 62/62/62
f 64/64/64 62/62/62 61/61/61
f 63/63/63 62/62/62 65/65/65
f 62/62/62 64/64/64 65/65/65
f 65/65/65 64/64/64 66/66/66
f 67/67/67 65/65/65 66/66/66
f 70/70/70 69/69/69 68/68/68
f 69/69/69 70/70/70 71/71/71
f 71/71/71 70/70/70 72/72/72
f 73/73/73 71/71/71 72/72/72
f 74/74/74 69/69/69 71/71/71
f 73/73/73 75/75/75 71/71/71
f 76/76/76 74/74/74 71/71/71
f 71/71/71 75/75/75 76/76/76
f 74/74/74 76/76/76 77/77/77
f 76/76/76 78/78/78 77/77/77
f 75/75/75 78/78/78 76/76/76
f 79/79/79 78/78/78 75/75/75
f 82/82/82 81/81/81 80/80/80
f 82/82/82 80/80/80 83/83/83
f 84/84/84 82/82/82 83/83/83
f 82/82/82 84/84/84 85/85/85
f 85/85/85 86/86/86 82/82/82
f 86/86/86 85/85/85 87/87/87
f 88/88/88 85/85/85 84/84/84
f 89/89/89 85/85/85 88/88/88
