mtllib SM_WoodDebris03_LOD2.mtl
g SM_WoodDebris03_LOD2
#Vertices 92
#Indices 192
#Section 0 Offset 0 NumIndices 192 MaterialIndex 0 MI_WoodDebris03
v -0.010004 -0.024097 -0.008589
v -0.042881 -0.023919 -0.008210
v -0.004925 -0.023822 0.002530
v -0.061588 -0.023740 0.001880
v -0.061588 -0.023740 0.001880
v -0.101426 -0.023491 -0.008283
v -0.100278 -0.023516 0.001393
v -0.042881 -0.023919 -0.008210
v -0.102303 -0.013802 -0.011208
v -0.104042 0.023061 -0.010066
v -0.103473 0.022597 0.002777
v -0.101426 -0.023491 -0.008283
v -0.100278 -0.023516 0.001393
v 0.088335 -0.022747 0.002880
v 0.094030 -0.021938 -0.008088
v 0.063838 -0.024530 -0.006496
v 0.038312 -0.023744 0.002633
v -0.010004 -0.024097 -0.008589
v -0.004925 -0.023822 0.002530
v 0.090047 -0.013325 0.003117
v 0.094030 -0.021938 -0.008088
v 0.088335 -0.022747 0.002880
v 0.094967 -0.014624 -0.010515
v 0.100187 -0.011013 0.001902
v 0.101077 -0.010535 -0.006342
v 0.097384 -0.002492 -0.011276
v 0.091162 -0.001144 -0.010627
v 0.098900 0.019275 -0.010479
v 0.091162 -0.001144 -0.010627
v 0.097384 -0.002492 -0.011276
v 0.075787 0.023279 -0.009655
v 0.078888 0.001757 -0.010888
v -0.104042 0.023061 -0.010066
v -0.050107 0.022539 0.002247
v -0.103473 0.022597 0.002777
v -0.028915 0.022705 -0.009245
v -0.000643 0.022493 0.000784
v -0.000336 0.023178 -0.008525
v 0.098900 0.019275 -0.010479
v 0.101688 0.005982 -0.004863
v 0.101484 0.023879 -0.007230
v 0.097384 -0.002492 -0.011276
v 0.101077 -0.010535 -0.006342
v -0.000643 0.022493 0.000784
v -0.006260 0.020514 0.002664
v -0.050107 0.022539 0.002247
v -0.103473 0.022597 0.002777
v -0.004925 -0.023822 0.002530
v -0.061588 -0.023740 0.001880
v -0.100278 -0.023516 0.001393
v -0.032104 0.012637 -0.011210
v -0.028915 0.022705 -0.009245
v -0.104042 0.023061 -0.010066
v -0.102303 -0.013802 -0.011208
v -0.028251 -0.015722 -0.010969
v -0.042881 -0.023919 -0.008210
v -0.101426 -0.023491 -0.008283
v 0.101077 -0.010535 -0.006342
v 0.100187 -0.011013 0.001902
v 0.101688 0.005982 -0.004863
v 0.098457 0.002802 0.003668
v 0.102595 0.022211 0.002997
v 0.101484 0.023879 -0.007230
v -0.000336 0.023178 -0.008525
v 0.040176 0.022832 0.001486
v -0.000643 0.022493 0.000784
v 0.075787 0.023279 -0.009655
v 0.101484 0.023879 -0.007230
v 0.102595 0.022211 0.002997
v 0.098900 0.019275 -0.010479
v -0.028915 0.022705 -0.009245
v -0.032104 0.012637 -0.011210
v -0.000336 0.023178 -0.008525
v 0.075787 0.023279 -0.009655
v 0.078888 0.001757 -0.010888
v -0.028251 -0.015722 -0.010969
v -0.042881 -0.023919 -0.008210
v -0.010004 -0.024097 -0.008589
v 0.094967 -0.014624 -0.010515
v 0.091162 -0.001144 -0.010627
v 0.063838 -0.024530 -0.006496
v 0.094030 -0.021938 -0.008088
v 0.100187 -0.011013 0.001902
v 0.090047 -0.013325 0.003117
v 0.098457 0.002802 0.003668
v -0.006260 0.020514 0.002664
v 0.102595 0.022211 0.002997
v 0.088335 -0.022747 0.002880
v 0.040176 0.022832 0.001486
v -0.000643 0.022493 0.000784
v 0.038312 -0.023744 0.002633
v -0.004925 -0.023822 0.002530
vt 0.781738 0.174316
vt 0.626953 0.173340
vt 0.805664 0.122559
vt 0.538574 0.126465
vt 0.374512 0.881958
vt 0.187256 0.930298
vt 0.192261 0.884277
vt 0.462891 0.929199
vt 0.694336 0.092773
vt 0.520020 0.088867
vt 0.521973 0.028320
vt 0.739746 0.079102
vt 0.740723 0.032715
vt 0.887207 0.872925
vt 0.915527 0.925293
vt 0.770996 0.916992
vt 0.651367 0.873657
vt 0.423340 0.924866
vt 0.447754 0.873047
vt 0.085388 0.798584
vt 0.036621 0.846558
vt 0.042969 0.790527
vt 0.064514 0.867798
vt 0.116272 0.829102
vt 0.106506 0.865967
vt 0.100159 0.912903
vt 0.076233 0.927917
vt 0.062622 0.390137
vt 0.164429 0.373535
vt 0.165405 0.403320
vt 0.065491 0.280273
vt 0.161987 0.313965
vt 0.139038 0.788452
vt 0.393555 0.844604
vt 0.141968 0.848755
vt 0.492920 0.789917
vt 0.626465 0.835571
vt 0.627441 0.791626
vt 0.702148 0.807495
vt 0.764648 0.837402
vt 0.678223 0.826294
vt 0.805664 0.803955
vt 0.846191 0.829346
vt 0.006474 0.250000
vt 0.033112 0.236816
vt 0.239990 0.249023
vt 0.491455 0.251465
vt 0.029419 0.027832
vt 0.296143 0.031250
vt 0.478027 0.033691
vt 0.603516 0.587646
vt 0.589844 0.539062
vt 0.943848 0.551025
vt 0.929199 0.724854
vt 0.580078 0.720459
vt 0.647461 0.763306
vt 0.923340 0.772339
vt 0.050262 0.510254
vt 0.041168 0.467285
vt 0.124512 0.495117
vt 0.104614 0.447754
vt 0.198730 0.451660
vt 0.212402 0.497070
vt 0.895020 0.510742
vt 0.937988 0.318848
vt 0.938965 0.511230
vt 0.882812 0.152344
vt 0.892090 0.030762
vt 0.940918 0.025391
vt 0.865234 0.043945
vt 0.245605 0.500488
vt 0.231812 0.452148
vt 0.380371 0.506592
vt 0.738770 0.514404
vt 0.755859 0.413574
vt 0.252930 0.318848
vt 0.185181 0.277344
vt 0.340088 0.280762
vt 0.833984 0.337891
vt 0.813965 0.402344
vt 0.687988 0.284180
vt 0.830566 0.299316
vt 0.547852 0.703369
vt 0.500000 0.713379
vt 0.539551 0.636719
vt 0.046265 0.553223
vt 0.557617 0.544434
vt 0.491455 0.757446
vt 0.264893 0.540771
vt 0.072632 0.539307
vt 0.255859 0.761719
vt 0.052307 0.761841
vn 0.000000 -0.803150 -0.598425
vn -0.007874 -0.811024 -0.582677
vn 0.000000 -0.700787 0.716535
vn -0.015748 -0.716535 0.700787
vn -0.015748 -0.716535 0.700787
vn -0.598425 -0.661417 -0.448819
vn -0.519685 -0.606299 0.598425
vn -0.007874 -0.811024 -0.582677
vn -0.700787 -0.141732 -0.700787
vn -0.606299 0.582677 -0.543307
vn -0.582677 0.551181 0.606299
vn -0.598425 -0.661417 -0.448819
vn -0.519685 -0.606299 0.598425
vn 0.385827 -0.637795 0.661417
vn 0.685039 -0.629921 -0.362205
vn 0.023622 -0.881890 -0.472441
vn -0.007874 -0.685039 0.724409
vn 0.000000 -0.803150 -0.598425
vn 0.000000 -0.700787 0.716535
vn 0.307087 -0.259843 0.913386
vn 0.685039 -0.629921 -0.362205
vn 0.385827 -0.637795 0.661417
vn 0.519685 -0.425197 -0.740157
vn 0.653543 -0.496063 0.574803
vn 0.866142 -0.409449 -0.283465
vn 0.401575 -0.023622 -0.913386
vn -0.031496 0.015748 -1.000000
vn 0.409449 0.173228 -0.897638
vn -0.031496 0.015748 -1.000000
vn 0.401575 -0.023622 -0.913386
vn -0.007874 0.716535 -0.692913
vn 0.015748 0.023622 -1.000000
vn -0.606299 0.582677 -0.543307
vn 0.007874 0.826772 0.559055
vn -0.582677 0.551181 0.606299
vn 0.007874 0.771654 -0.629921
vn -0.015748 0.913386 0.409449
vn -0.015748 0.826772 -0.566929
vn 0.409449 0.173228 -0.897638
vn 0.984252 -0.055118 -0.141732
vn 0.614173 0.685039 -0.377953
vn 0.401575 -0.023622 -0.913386
vn 0.866142 -0.409449 -0.283465
vn -0.015748 0.913386 0.409449
vn 0.007874 0.346457 0.937008
vn 0.007874 0.826772 0.559055
vn -0.582677 0.551181 0.606299
vn 0.000000 -0.700787 0.716535
vn -0.015748 -0.716535 0.700787
vn -0.519685 -0.606299 0.598425
vn 0.007874 0.094488 -0.992126
vn 0.007874 0.771654 -0.629921
vn -0.606299 0.582677 -0.543307
vn -0.700787 -0.141732 -0.700787
vn 0.000000 -0.157480 -0.984252
vn -0.007874 -0.811024 -0.582677
vn -0.598425 -0.661417 -0.448819
vn 0.866142 -0.409449 -0.283465
vn 0.653543 -0.496063 0.574803
vn 0.984252 -0.055118 -0.141732
vn 0.527559 -0.023622 0.850394
vn 0.637795 0.503937 0.582677
vn 0.614173 0.685039 -0.377953
vn -0.015748 0.826772 -0.566929
vn -0.007874 0.897638 0.440945
vn -0.015748 0.913386 0.409449
vn -0.007874 0.716535 -0.692913
vn 0.614173 0.685039 -0.377953
vn 0.637795 0.503937 0.582677
vn 0.409449 0.173228 -0.897638
vn 0.007874 0.771654 -0.629921
vn 0.007874 0.094488 -0.992126
vn -0.015748 0.826772 -0.566929
vn -0.007874 0.716535 -0.692913
vn 0.015748 0.023622 -1.000000
vn 0.000000 -0.157480 -0.984252
vn -0.007874 -0.811024 -0.582677
vn 0.000000 -0.803150 -0.598425
vn 0.519685 -0.425197 -0.740157
vn -0.031496 0.015748 -1.000000
vn 0.023622 -0.881890 -0.472441
vn 0.685039 -0.629921 -0.362205
vn 0.653543 -0.496063 0.574803
vn 0.307087 -0.259843 0.913386
vn 0.527559 -0.023622 0.850394
vn 0.007874 0.346457 0.937008
vn 0.637795 0.503937 0.582677
vn 0.385827 -0.637795 0.661417
vn -0.007874 0.897638 0.440945
vn -0.015748 0.913386 0.409449
vn -0.007874 -0.685039 0.724409
vn 0.000000 -0.700787 0.716535
tan 0.000000 -0.598425 0.803150 1.000000
tan 0.006386 -0.582739 0.811024 1.000000
tan 0.005642 0.716535 0.700787 1.000000
tan -0.000124 0.700911 0.716659 1.000000
tan 0.011036 0.700787 0.716783 1.000000
tan -0.003906 -0.558373 0.828074 1.000000
tan 0.006572 0.697129 0.712009 1.000000
tan -0.004588 -0.582677 0.811086 1.000000
tan -0.704197 -0.049662 0.714241 1.000000
tan -0.688387 -0.039618 0.725711 1.000000
tan 0.736066 0.028334 0.681629 1.000000
tan -0.564883 -0.047120 0.822618 1.000000
tan 0.728935 0.046996 0.680637 1.000000
tan -0.052452 0.700477 0.706057 1.000000
tan 0.036828 -0.467357 0.882448 1.000000
tan 0.007936 -0.472627 0.882634 1.000000
tan -0.005394 0.724471 0.685039 1.000000
tan 0.000000 -0.598425 0.803150 1.000000
tan -0.005518 0.716535 0.700787 1.000000
tan -0.885486 0.272925 0.375349 1.000000
tan 0.310621 -0.196416 0.929072 1.000000
tan -0.866948 -0.012586 0.493583 1.000000
tan 0.279993 -0.735321 0.619009 1.000000
tan -0.570835 0.181598 0.805754 1.000000
tan -0.050096 -0.638477 0.769174 1.000000
tan 0.401575 -0.890260 0.199578 1.000000
tan 0.353835 -0.938000 -0.025916 1.000000
tan -0.910286 0.188604 -0.378821 1.000000
tan -0.984376 0.196602 0.034100 1.000000
tan -0.897700 0.187550 -0.399529 1.000000
tan -0.960258 0.185504 0.202740 1.000000
tan -0.984810 0.197222 -0.010850 1.000000
tan 0.005270 -0.680327 -0.735507 1.000000
tan 0.004402 0.559055 -0.826834 1.000000
tan 0.004774 0.744063 -0.671833 1.000000
tan 0.007192 -0.630045 -0.771716 1.000000
tan 0.003968 0.409573 -0.913510 1.000000
tan 0.019902 -0.566805 -0.827144 1.000000
tan -0.914874 0.045880 -0.408457 1.000000
tan -0.141732 0.007812 -0.987290 1.000000
tan -0.538099 0.019716 -0.838676 1.000000
tan -0.913944 -0.009486 -0.401575 1.000000
tan -0.316945 -0.013392 -0.949098 1.000000
tan 0.024056 -0.409201 0.913758 1.000000
tan 0.002728 -0.937070 0.346457 1.000000
tan 0.013020 -0.559179 0.826772 1.000000
tan 0.004340 -0.739475 0.676421 1.000000
tan 0.011160 -0.716535 -0.700787 1.000000
tan 0.016926 -0.701159 -0.716535 1.000000
tan 0.012400 -0.705313 -0.703825 1.000000
tan 0.039060 0.992126 0.094798 1.000000
tan 0.020956 0.629859 0.771840 1.000000
tan 0.030194 0.699423 0.716411 1.000000
tan 0.036456 0.976688 -0.233988 1.000000
tan 0.038750 0.984252 -0.157480 1.000000
tan 0.032922 0.582491 -0.811210 1.000000
tan 0.030132 0.540703 -0.837002 1.000000
tan 0.339513 0.067828 0.939426 1.000000
tan -0.618947 0.093930 0.784798 1.000000
tan 0.144770 0.046438 0.987290 1.000000
tan -0.843140 0.086118 0.525451 1.000000
tan -0.710397 0.091822 0.698183 1.000000
tan 0.438031 0.097092 0.887780 1.000000
tan 1.004960 0.035340 0.023622 1.000000
tan 1.000186 0.000124 0.017608 1.000000
tan 1.001922 0.007936 0.020832 1.000000
tan 0.993552 0.027466 0.017112 1.000000
tan 0.772088 -0.597805 0.171120 1.000000
tan 0.680017 -0.727881 -0.114824 1.000000
tan 0.904582 -0.198896 0.374233 1.000000
tan 0.001116 -0.629983 -0.771716 1.000000
tan -0.022692 -0.992188 -0.094674 1.000000
tan -0.026040 -0.567425 -0.826772 1.000000
tan -0.011284 -0.693037 -0.716535 1.000000
tan -0.031124 -1.000248 -0.024118 1.000000
tan -0.023250 -0.984252 0.157480 1.000000
tan -0.010974 -0.582615 0.811086 1.000000
tan -0.022072 -0.598425 0.803150 1.000000
tan -0.019344 -0.872590 0.487693 1.000000
tan -0.055614 -1.000992 -0.014012 1.000000
tan -0.031000 -0.473371 0.882076 1.000000
tan 0.016244 -0.483539 0.871660 1.000000
tan 0.069750 0.794718 0.606547 1.000000
tan -0.001364 0.962118 0.274165 1.000000
tan -0.000930 1.001488 0.028396 1.000000
tan -0.002728 0.937070 -0.346457 1.000000
tan 0.001116 0.755967 -0.655031 1.000000
tan -0.011532 0.712629 0.693905 1.000000
tan 0.014136 0.441069 -0.897638 1.000000
tan 0.003968 0.409573 -0.913510 1.000000
tan -0.005394 0.724471 0.685039 1.000000
tan -0.000000 0.716535 0.700787 1.000000
f 3/3/3 2/2/2 1/1/1
f 4/4/4 2/2/2 3/3/3
f 7/7/7 6/6/6 5/5/5
f 6/6/6 8/8/8 5/5/5
f 11/11/11 10/10/10 9/9/9
f 12/12/12 11/11/11 9/9/9
f 13/13/13 11/11/11 12/12/12
f 16/16/16 15/15/15 14/14/14
f 17/17/17 16/16/16 14/14/14
f 16/16/16 17/17/17 18/18/18
f 19/19/19 18/18/18 17/17/17
f 22/22/22 21/21/21 20/20/20
f 23/23/23 20/20/20 21/21/21
f 24/24/24 20/20/20 23/23/23
f 23/23/23 25/25/25 24/24/24
f 25/25/25 23/23/23 26/26/26
f 27/27/27 26/26/26 23/23/23
f 30/30/30 29/29/29 28/28/28
f 31/31/31 28/28/28 29/29/29
f 32/32/32 31/31/31 29/29/29
f 35/35/35 34/34/34 33/33/33
f 36/36/36 33/33/33 34/34/34
f 37/37/37 36/36/36 34/34/34
f 38/38/38 36/36/36 37/37/37
f 41/41/41 40/40/40 39/39/39
f 40/40/40 42/42/42 39/39/39
f 42/42/42 40/40/40 43/43/43
f 46/46/46 45/45/45 44/44/44
f 45/45/45 46/46/46 47/47/47
f 45/45/45 47/47/47 48/48/48
f 47/47/47 49/49/49 48/48/48
f 49/49/49 47/47/47 50/50/50
f 53/53/53 52/52/52 51/51/51
f 53/53/53 51/51/51 54/54/54
f 51/51/51 55/55/55 54/54/54
f 56/56/56 54/54/54 55/55/55
f 56/56/56 57/57/57 54/54/54
f 60/60/60 59/59/59 58/58/58
f 59/59/59 60/60/60 61/61/61
f 61/61/61 60/60/60 62/62/62
f 60/60/60 63/63/63 62/62/62
f 66/66/66 65/65/65 64/64/64
f 65/65/65 67/67/67 64/64/64
f 68/68/68 67/67/67 65/65/65
f 69/69/69 68/68/68 65/65/65
f 67/67/67 68/68/68 70/70/70
f 73/73/73 72/72/72 71/71/71
f 72/72/72 73/73/73 74/74/74
f 75/75/75 72/72/72 74/74/74
f 72/72/72 75/75/75 76/76/76
f 76/76/76 78/78/78 77/77/77
f 76/76/76 75/75/75 79/79/79
f 79/79/79 78/78/78 76/76/76
f 75/75/75 80/80/80 79/79/79
f 78/78/78 79/79/79 81/81/81
f 82/82/82 81/81/81 79/79/79
f 85/85/85 84/84/84 83/83/83
f 84/84/84 85/85/85 86/86/86
f 87/87/87 86/86/86 85/85/85
f 84/84/84 86/86/86 88/88/88
f 86/86/86 87/87/87 89/89/89
f 90/90/90 86/86/86 89/89/89
f 91/91/91 88/88/88 86/86/86
f 91/91/91 86/86/86 92/92/92
