mtllib SM_DovesFoot_06_LOD4.mtl
g SM_DovesFoot_06_LOD4
#Vertices 4
#Indices 6
#Section 0 Offset 0 NumIndices 6 MaterialIndex 1 MI_DovesfootBillboard
v 0.116149 0.000000 0.103385 1.000000 0.000000 0.000000 1.000000
v -0.123477 0.000000 0.103385 1.000000 0.000000 0.000000 1.000000
v -0.123477 -0.000000 -0.012854 0.000000 1.000000 0.000000 1.000000
v 0.116149 -0.000000 -0.012854 0.000000 1.000000 0.000000 1.000000
vt 0.943848 0.870972
vt 0.691895 0.870972
vt 0.691895 0.748779
vt 0.943848 0.748779
vt1 0.994629 0.514648
vt1 0.004997 0.514648
vt1 0.004997 0.994629
vt1 0.994629 0.994629
vn 0.000000 1.000000 0.000000
vn 0.000000 1.000000 0.000000
vn 0.000000 1.000000 0.000000
vn 0.000000 1.000000 0.000000
tan 0.000000 0.000000 -1.000000 1.000000
tan 0.000000 0.000000 -1.000000 1.000000
tan 0.000000 0.000000 -1.000000 1.000000
tan 0.000000 0.000000 -1.000000 1.000000
f 3/3/3 2/2/2 1/1/1
f 1/1/1 4/4/4 3/3/3
