mtllib SM_DovesFoot_05_LOD4.mtl
g SM_DovesFoot_05_LOD4
#Vertices 4
#Indices 6
#Section 0 Offset 0 NumIndices 6 MaterialIndex 1 MI_DovesfootBillboard
v 0.132556 0.000000 0.188780 1.000000 0.000000 0.000000 1.000000
v -0.085006 0.000000 0.182706 1.000000 0.000000 0.000000 1.000000
v -0.143705 -0.000000 -0.013488 0.000000 1.000000 0.000000 1.000000
v 0.132191 -0.000000 0.000352 0.000000 1.000000 0.000000 1.000000
vt 0.882324 0.268555
vt 0.650391 0.262207
vt 0.587891 0.053223
vt 0.882324 0.067871
vt1 0.729492 0.994629
vt1 0.708008 0.215332
vt1 0.004997 0.004997
vt1 0.054565 0.993652
vn 0.000000 1.000000 0.000000
vn 0.000000 1.000000 0.000000
vn 0.000000 1.000000 0.000000
vn 0.000000 1.000000 0.000000
tan 0.000000 0.000000 -1.000000 1.000000
tan 0.000000 0.000000 -1.000000 1.000000
tan 0.000000 0.000000 -1.000000 1.000000
tan 0.000000 0.000000 -1.000000 1.000000
f 3/3/3 2/2/2 1/1/1
f 1/1/1 4/4/4 3/3/3
