mtllib SM_DovesFoot_05_LOD3.mtl
g SM_DovesFoot_05_LOD3
#Vertices 120
#Indices 216
#Section 0 Offset 0 NumIndices 216 MaterialIndex 0 MI_DovesFoot
v -0.007044 -0.064877 0.118704 0.776471 0.219608 0.000000 1.000000
v -0.087628 -0.059022 0.152302 0.878431 0.117647 0.000000 1.000000
v -0.101346 0.028798 0.120122 0.768628 0.227451 0.000000 1.000000
v 0.008281 0.005219 0.121090 0.709804 0.286275 0.000000 1.000000
v -0.079079 0.098648 0.135203 0.898039 0.098039 0.000000 1.000000
v -0.023304 0.146117 0.136686 0.941177 0.054902 0.000000 1.000000
v 0.026316 0.082329 0.152720 0.874510 0.121569 0.000000 1.000000
v -0.059497 0.043455 0.162470 0.894118 0.101961 0.000000 1.000000
v 0.141832 -0.030604 0.139149 0.823529 0.172549 0.000000 1.000000
v 0.084167 -0.086237 0.169690 0.913726 0.082353 0.000000 1.000000
v 0.059540 -0.041683 0.180315 0.909804 0.086275 0.000000 1.000000
v 0.107855 0.030524 0.174031 0.882353 0.113725 0.000000 1.000000
v 0.041755 -0.092234 0.158307 0.909804 0.086275 0.000000 1.000000
v -0.023639 -0.124904 0.163073 0.941177 0.054902 0.000000 1.000000
v -0.057848 -0.050470 0.154269 0.870588 0.125490 0.000000 1.000000
v 0.033443 -0.028781 0.167140 0.878431 0.117647 0.000000 1.000000
v -0.128141 -0.023333 -0.033207 0.000000 1.000000 0.000000 1.000000
v -0.124621 0.021540 0.022581 0.396078 0.600000 0.000000 1.000000
v -0.091671 -0.028803 0.062367 0.498039 0.498039 0.000000 1.000000
v -0.118597 -0.064026 0.000050 0.309804 0.686275 0.000000 1.000000
v -0.047770 0.062437 0.068474 0.596078 0.400000 0.000000 1.000000
v -0.009066 0.066871 0.113113 0.749020 0.247059 0.000000 1.000000
v -0.024654 0.012138 0.133212 0.784314 0.211765 0.000000 1.000000
v -0.066339 0.028237 0.087323 0.603922 0.392157 0.000000 1.000000
v 0.028387 0.077721 0.062151 0.545098 0.450980 0.000000 1.000000
v 0.050323 0.046722 0.105576 0.635294 0.360784 0.000000 1.000000
v -0.003571 0.036627 0.126710 0.756863 0.239216 0.000000 1.000000
v -0.008999 0.079189 0.081454 0.662745 0.333333 0.000000 1.000000
v 0.121149 0.017720 -0.016147 0.000000 1.000000 0.000000 1.000000
v 0.111612 -0.017028 0.041601 0.364706 0.631373 0.000000 1.000000
v 0.076094 0.035955 0.068786 0.470588 0.525490 0.000000 1.000000
v 0.106157 0.059621 0.005930 0.274510 0.721569 0.000000 1.000000
v 0.068280 -0.080837 0.068666 0.619608 0.376471 0.000000 1.000000
v 0.022520 -0.082389 0.113454 0.780392 0.215686 0.000000 1.000000
v 0.038327 -0.022188 0.133025 0.756863 0.239216 0.000000 1.000000
v 0.087104 -0.042903 0.088458 0.600000 0.396078 0.000000 1.000000
v -0.088128 0.005819 0.035587 0.376471 0.619608 0.000000 1.000000
v -0.059076 0.049826 0.031716 0.396078 0.600000 0.000000 1.000000
v -0.073263 0.071284 0.050767 0.580392 0.415686 0.000000 1.000000
v -0.112079 0.025306 0.065828 0.560784 0.435294 0.000000 1.000000
v -0.047412 0.045562 0.055800 0.466667 0.529412 0.000000 1.000000
v 0.007015 0.051769 0.055723 0.403922 0.592157 0.000000 1.000000
v 0.013542 0.076768 0.076005 0.603922 0.392157 0.000000 1.000000
v -0.049855 0.077412 0.087824 0.705882 0.290196 0.000000 1.000000
v 0.019675 0.087733 0.013758 0.450980 0.545098 0.000000 1.000000
v 0.060667 0.052008 0.015118 0.278431 0.717647 0.000000 1.000000
v 0.087022 0.067938 0.027335 0.384314 0.611765 0.000000 1.000000
v 0.049493 0.120484 0.026175 0.611765 0.384314 0.000000 1.000000
v -0.006205 -0.000044 -0.003947 0.000000 1.000000 0.000000 1.000000
v -0.028452 -0.006744 0.057204 0.341176 0.654902 0.000000 1.000000
v -0.003615 -0.005135 -0.003515 0.000000 1.000000 0.000000 1.000000
v -0.026030 -0.011509 0.057611 0.345098 0.650980 0.000000 1.000000
v -0.048765 -0.011745 0.119878 0.721569 0.274510 0.000000 1.000000
v -0.046201 -0.016424 0.119339 0.721569 0.274510 0.000000 1.000000
v 0.000297 0.007853 -0.003166 0.000000 1.000000 0.000000 1.000000
v -0.015968 0.056549 0.066768 0.541176 0.454902 0.000000 1.000000
v -0.004440 0.006438 -0.003322 0.000000 1.000000 0.000000 1.000000
v -0.021416 0.054922 0.066592 0.545098 0.450980 0.000000 1.000000
v -0.026584 0.082437 0.148684 0.894118 0.101961 0.000000 1.000000
v -0.031394 0.081044 0.148663 0.898039 0.098039 0.000000 1.000000
v 0.036700 -0.012563 0.089428 0.549020 0.447059 0.000000 1.000000
v 0.008179 -0.005814 -0.002582 0.000000 1.000000 0.000000 1.000000
v 0.009987 -0.000602 -0.002798 0.000000 1.000000 0.000000 1.000000
v 0.038781 -0.006570 0.089182 0.541176 0.454902 0.000000 1.000000
v 0.085488 -0.025880 0.171922 0.890196 0.105882 0.000000 1.000000
v 0.087391 -0.020625 0.171846 0.886275 0.109804 0.000000 1.000000
v -0.001817 -0.007911 -0.002375 0.000000 1.000000 0.000000 1.000000
v -0.003319 -0.049659 0.073643 0.552941 0.443137 0.000000 1.000000
v 0.003114 -0.007596 -0.002141 0.000000 1.000000 0.000000 1.000000
v 0.002351 -0.049298 0.073915 0.549020 0.447059 0.000000 1.000000
v -0.006375 -0.062507 0.158768 0.894118 0.101961 0.000000 1.000000
v -0.001391 -0.062190 0.159149 0.894118 0.101961 0.000000 1.000000
v -0.050879 -0.008482 0.040185 0.282353 0.713726 0.000000 1.000000
v 0.000324 0.003413 -0.003588 0.000000 1.000000 0.000000 1.000000
v 0.002101 -0.002727 -0.003142 0.000000 1.000000 0.000000 1.000000
v -0.049356 -0.014261 0.040677 0.286275 0.709804 0.000000 1.000000
v -0.113008 -0.026102 0.018961 0.290196 0.705882 0.000000 1.000000
v -0.110541 -0.031570 0.018899 0.294118 0.701961 0.000000 1.000000
v -0.014234 0.017917 0.053361 0.321569 0.674510 0.000000 1.000000
v 0.002036 0.001953 -0.003297 0.000000 1.000000 0.000000 1.000000
v -0.001660 -0.001884 -0.003248 0.000000 1.000000 0.000000 1.000000
v -0.017694 0.014328 0.053409 0.313726 0.682353 0.000000 1.000000
v -0.037167 0.038321 0.104945 0.690196 0.305882 0.000000 1.000000
v -0.039879 0.034212 0.104145 0.678431 0.317647 0.000000 1.000000
v 0.006830 0.026411 0.049682 0.278431 0.717647 0.000000 1.000000
v 0.002758 -0.001076 -0.002843 0.000000 1.000000 0.000000 1.000000
v -0.002267 0.000178 -0.003136 0.000000 1.000000 0.000000 1.000000
v 0.002133 0.027619 0.049473 0.282353 0.713726 0.000000 1.000000
v 0.012990 0.058522 0.098390 0.650980 0.345098 0.000000 1.000000
v 0.008211 0.059068 0.097725 0.654902 0.341176 0.000000 1.000000
v 0.039161 0.011566 0.047809 0.270588 0.725490 0.000000 1.000000
v 0.000352 -0.003540 -0.003224 0.000000 1.000000 0.000000 1.000000
v -0.001328 0.002331 -0.003640 0.000000 1.000000 0.000000 1.000000
v 0.037557 0.017050 0.047408 0.266667 0.729412 0.000000 1.000000
v 0.101204 0.027419 0.030541 0.266667 0.729412 0.000000 1.000000
v 0.098948 0.032612 0.029662 0.274510 0.721569 0.000000 1.000000
v 0.024710 -0.026926 0.051489 0.309804 0.686275 0.000000 1.000000
v -0.002859 -0.001548 -0.002890 0.000000 1.000000 0.000000 1.000000
v 0.001137 0.002599 -0.002926 0.000000 1.000000 0.000000 1.000000
v 0.028430 -0.023026 0.051414 0.301961 0.694118 0.000000 1.000000
v 0.053950 -0.052374 0.105409 0.674510 0.321569 0.000000 1.000000
v 0.057004 -0.048017 0.104534 0.662745 0.333333 0.000000 1.000000
v -0.008099 0.005978 -0.002863 0.000000 1.000000 0.000000 1.000000
v -0.050957 0.023672 0.031904 0.274510 0.721569 0.000000 1.000000
v -0.009945 0.001275 -0.002679 0.000000 1.000000 0.000000 1.000000
v -0.052686 0.019272 0.032077 0.270588 0.725490 0.000000 1.000000
v -0.092990 0.040909 0.050678 0.513726 0.482353 0.000000 1.000000
v -0.094353 0.036474 0.051613 0.509804 0.486275 0.000000 1.000000
v -0.010838 0.036086 0.045086 0.301961 0.694118 0.000000 1.000000
v 0.002305 0.002256 -0.002842 0.000000 1.000000 0.000000 1.000000
v -0.002675 0.000618 -0.003001 0.000000 1.000000 0.000000 1.000000
v -0.015499 0.034555 0.044940 0.309804 0.686275 0.000000 1.000000
v -0.023845 0.072877 0.073831 0.647059 0.349020 0.000000 1.000000
v -0.028343 0.071019 0.074482 0.643137 0.352941 0.000000 1.000000
v 0.035134 0.054271 0.022162 0.274510 0.721569 0.000000 1.000000
v 0.007418 0.006268 -0.001315 0.000000 1.000000 0.000000 1.000000
v 0.002991 0.009066 -0.001708 0.000000 1.000000 0.000000 1.000000
v 0.030993 0.056893 0.021796 0.278431 0.717647 0.000000 1.000000
v 0.060208 0.093504 0.019213 0.490196 0.505882 0.000000 1.000000
v 0.055994 0.095987 0.019712 0.498039 0.498039 0.000000 1.000000
vt 0.468994 0.854004
vt 0.421631 0.734863
vt 0.544434 0.670898
vt 0.571777 0.834961
vt 0.595703 0.317383
vt 0.599609 0.424316
vt 0.479248 0.425781
vt 0.505371 0.289551
vt 0.167725 0.305176
vt 0.097473 0.429688
vt 0.029968 0.375977
vt 0.058960 0.233887
vt 0.595703 0.317383
vt 0.599609 0.424316
vt 0.479248 0.425781
vt 0.505371 0.289551
vt 0.425049 0.995113
vt 0.381348 0.922852
vt 0.454102 0.876648
vt 0.478271 0.964661
vt 0.425049 0.995113
vt 0.381348 0.922852
vt 0.454102 0.876648
vt 0.478271 0.964661
vt 0.425049 0.995113
vt 0.381348 0.922852
vt 0.454102 0.876648
vt 0.478271 0.964661
vt 0.425049 0.995113
vt 0.381348 0.922852
vt 0.454102 0.876648
vt 0.478271 0.964661
vt 0.425049 0.995113
vt 0.381348 0.922852
vt 0.454102 0.876648
vt 0.478271 0.964661
vt 0.799316 0.749512
vt 0.790527 0.828125
vt 0.743164 0.836792
vt 0.732910 0.743896
vt 0.799316 0.749512
vt 0.790527 0.828125
vt 0.743164 0.836792
vt 0.732910 0.743896
vt 0.799316 0.749512
vt 0.790527 0.828125
vt 0.743164 0.836792
vt 0.732910 0.743896
vt 0.716309 0.322754
vt 0.715820 0.194824
vt 0.705078 0.322754
vt 0.705078 0.194824
vt 0.715820 0.065918
vt 0.705566 0.067871
vt 0.028717 0.452637
vt 0.029541 0.263672
vt 0.017975 0.453125
vt 0.017181 0.263672
vt 0.028793 0.075195
vt 0.017914 0.074707
vt 0.029541 0.263672
vt 0.028717 0.452637
vt 0.017975 0.453125
vt 0.017181 0.263672
vt 0.028793 0.075195
vt 0.017914 0.074707
vt 0.028717 0.452637
vt 0.029541 0.263672
vt 0.017975 0.453125
vt 0.017181 0.263672
vt 0.028793 0.075195
vt 0.017914 0.074707
vt 0.715820 0.194824
vt 0.716309 0.322754
vt 0.705078 0.322754
vt 0.705078 0.194824
vt 0.715820 0.065918
vt 0.705566 0.067871
vt 0.715820 0.194824
vt 0.716309 0.322754
vt 0.705078 0.322754
vt 0.705078 0.194824
vt 0.715820 0.065918
vt 0.705566 0.067871
vt 0.715820 0.194824
vt 0.716309 0.322754
vt 0.705078 0.322754
vt 0.705078 0.194824
vt 0.715820 0.065918
vt 0.705566 0.067871
vt 0.715820 0.194824
vt 0.716309 0.322754
vt 0.705078 0.322754
vt 0.705078 0.194824
vt 0.715820 0.065918
vt 0.705566 0.067871
vt 0.715820 0.194824
vt 0.716309 0.322754
vt 0.705078 0.322754
vt 0.705078 0.194824
vt 0.715820 0.065918
vt 0.705566 0.067871
vt 0.716309 0.322754
vt 0.715820 0.194824
vt 0.705078 0.322754
vt 0.705078 0.194824
vt 0.715820 0.065918
vt 0.705566 0.067871
vt 0.715820 0.194824
vt 0.716309 0.322754
vt 0.705078 0.322754
vt 0.705078 0.194824
vt 0.715820 0.065918
vt 0.705566 0.067871
vt 0.715820 0.194824
vt 0.716309 0.322754
vt 0.705078 0.322754
vt 0.705078 0.194824
vt 0.715820 0.065918
vt 0.705566 0.067871
vt1 0.009735 0.248047
vt1 0.296875 0.307617
vt1 0.391846 0.004997
vt1 0.011818 0.008720
vt1 0.344971 0.484863
vt1 0.098389 0.475098
vt1 0.095032 0.752930
vt1 0.409180 0.692383
vt1 0.405029 0.006599
vt1 0.322510 0.284424
vt1 0.495605 0.307617
vt1 0.662109 0.065002
vt1 0.725586 0.739746
vt1 0.715820 0.986816
vt1 0.994141 0.990234
vt1 0.933594 0.675781
vt1 0.972168 0.479492
vt1 0.731445 0.474609
vt1 0.720703 0.719727
vt1 0.973145 0.654297
vt1 0.715820 0.354492
vt1 0.516113 0.350342
vt1 0.507324 0.553711
vt1 0.716797 0.499756
vt1 0.507324 0.534180
vt1 0.511230 0.339844
vt1 0.312988 0.331055
vt1 0.365723 0.535156
vt1 0.735352 0.464111
vt1 0.965332 0.468750
vt1 0.975586 0.234863
vt1 0.734863 0.297119
vt1 0.970215 0.068115
vt1 0.753906 0.063843
vt1 0.744141 0.283691
vt1 0.970703 0.225220
vt1 0.080750 0.463867
vt1 0.253174 0.425537
vt1 0.261719 0.318115
vt1 0.052399 0.317139
vt1 0.563965 0.550781
vt1 0.604004 0.729980
vt1 0.715332 0.738770
vt1 0.716309 0.521484
vt1 0.554688 0.777832
vt1 0.594727 0.957520
vt1 0.706543 0.966309
vt1 0.707520 0.748535
vt1 0.114014 0.894531
vt1 0.335449 0.895996
vt1 0.114014 0.914062
vt1 0.335449 0.914062
vt1 0.558594 0.895508
vt1 0.555176 0.913574
vt1 0.006279 0.961426
vt1 0.004997 0.668457
vt1 0.022934 0.961426
vt1 0.024155 0.668457
vt1 0.006161 0.375488
vt1 0.023026 0.375000
vt1 0.336914 0.973145
vt1 0.009773 0.974609
vt1 0.009735 0.993164
vt1 0.336914 0.994629
vt1 0.663574 0.974609
vt1 0.664062 0.993652
vt1 0.051270 0.376465
vt1 0.052551 0.668945
vt1 0.034637 0.376465
vt1 0.033417 0.668945
vt1 0.051392 0.960938
vt1 0.034576 0.961426
vt1 0.080750 0.728516
vt1 0.082153 0.497070
vt1 0.061981 0.497070
vt1 0.061859 0.728516
vt1 0.081177 0.961426
vt1 0.062561 0.958008
vt1 0.328857 0.889160
vt1 0.532715 0.890625
vt1 0.532715 0.872559
vt1 0.328857 0.872559
vt1 0.123474 0.889648
vt1 0.126343 0.873047
vt1 0.312988 0.845703
vt1 0.114014 0.844727
vt1 0.114014 0.861816
vt1 0.312988 0.861816
vt1 0.513672 0.845215
vt1 0.510742 0.861328
vt1 0.318848 0.943359
vt1 0.095032 0.941895
vt1 0.095093 0.961426
vt1 0.318848 0.961426
vt1 0.544434 0.942871
vt1 0.541504 0.960938
vt1 0.327148 0.919922
vt1 0.104492 0.918457
vt1 0.104553 0.937988
vt1 0.327393 0.937988
vt1 0.551758 0.919434
vt1 0.548828 0.937012
vt1 0.114014 0.760742
vt1 0.295898 0.761719
vt1 0.114014 0.776367
vt1 0.296143 0.776855
vt1 0.479736 0.761719
vt1 0.477051 0.775879
vt1 0.299072 0.818359
vt1 0.114014 0.817383
vt1 0.114014 0.833496
vt1 0.299072 0.833496
vt1 0.485840 0.818359
vt1 0.483154 0.833008
vt1 0.296143 0.790039
vt1 0.114014 0.789062
vt1 0.114014 0.805176
vt1 0.296143 0.805176
vt1 0.479736 0.790039
vt1 0.477051 0.804688
vn 0.165354 0.149606 0.976378
vn 0.377953 0.370079 0.850394
vn 0.212598 0.204724 0.952756
vn -0.015748 -0.031496 1.000000
vn -0.110236 0.291339 0.952756
vn -0.141732 0.133858 0.984252
vn -0.118110 0.267717 0.952756
vn -0.086614 0.417323 0.905512
vn 0.456693 -0.141732 0.874016
vn 0.440945 0.031496 0.897638
vn 0.456693 -0.086614 0.889764
vn 0.456693 -0.236220 0.858268
vn -0.055118 -0.031496 1.000000
vn 0.007874 0.125984 0.992126
vn -0.039370 0.000000 1.000000
vn -0.102362 -0.149606 0.984252
vn -0.929134 -0.125984 0.346457
vn -0.889764 -0.330709 0.322835
vn -0.921260 -0.165354 0.346457
vn -0.929134 0.078740 0.362205
vn -0.590551 0.519685 0.614173
vn -0.708661 0.409449 0.574803
vn -0.622047 0.496063 0.606299
vn -0.472441 0.606299 0.637795
vn 0.212598 0.771654 0.598425
vn 0.062992 0.826772 0.559055
vn 0.181102 0.787402 0.590551
vn 0.346457 0.700787 0.622047
vn 0.881890 0.228346 0.417323
vn 0.850394 0.377953 0.370079
vn 0.874016 0.259843 0.409449
vn 0.889764 0.078740 0.456693
vn 0.535433 -0.488189 0.692913
vn 0.653543 -0.385827 0.653543
vn 0.559055 -0.464567 0.685039
vn 0.409449 -0.574803 0.708661
vn -0.614173 0.307087 -0.724409
vn -0.566929 0.307087 -0.763780
vn -0.598425 0.307087 -0.740157
vn -0.637795 0.307087 -0.708661
vn -0.110236 0.685039 -0.724409
vn -0.070866 0.637795 -0.763780
vn -0.094488 0.669291 -0.740157
vn -0.125984 0.700787 -0.700787
vn 0.244094 0.181102 -0.952756
vn 0.267717 0.267717 -0.929134
vn 0.251969 0.212598 -0.944882
vn 0.236220 0.149606 -0.960630
vn -0.826772 -0.448819 -0.346457
vn -0.826772 -0.448819 -0.330709
vn -0.826772 -0.448819 -0.346457
vn -0.834646 -0.448819 -0.330709
vn -0.850394 -0.433071 -0.314961
vn -0.850394 -0.425197 -0.314961
vn -0.212598 0.779528 -0.590551
vn -0.236220 0.850394 -0.464567
vn -0.212598 0.779528 -0.590551
vn -0.236220 0.850394 -0.464567
vn -0.259843 0.913386 -0.322835
vn -0.259843 0.913386 -0.322835
vn -0.850394 0.314961 0.417323
vn -0.897638 0.322835 0.299213
vn -0.897638 0.322835 0.299213
vn -0.858268 0.314961 0.417323
vn -0.803150 0.299213 0.519685
vn -0.803150 0.299213 0.519685
vn 0.078740 -0.874016 -0.480315
vn 0.078740 -0.944882 -0.314961
vn 0.078740 -0.874016 -0.480315
vn 0.078740 -0.944882 -0.314961
vn 0.070866 -0.984252 -0.149606
vn 0.070866 -0.984252 -0.149606
vn 0.165354 0.125984 0.976378
vn 0.598425 0.228346 0.763780
vn 0.598425 0.228346 0.763780
vn 0.157480 0.118110 0.976378
vn -0.299213 -0.133858 0.944882
vn -0.299213 -0.141732 0.944882
vn 0.645669 -0.622047 0.440945
vn 0.669291 -0.637795 0.370079
vn 0.669291 -0.637795 0.370079
vn 0.645669 -0.614173 0.440945
vn 0.669291 -0.543307 0.503937
vn 0.669291 -0.543307 0.503937
vn -0.236220 -0.826772 0.511811
vn -0.236220 -0.850394 0.464567
vn -0.236220 -0.850394 0.464567
vn -0.236220 -0.826772 0.511811
vn -0.173228 -0.811024 0.551181
vn -0.173228 -0.818898 0.551181
vn -0.307087 -0.023622 0.952756
vn -0.755906 -0.173228 0.629921
vn -0.755906 -0.173228 0.629921
vn -0.314961 -0.023622 0.944882
vn 0.212598 0.244094 0.944882
vn 0.212598 0.251969 0.944882
vn -0.582677 0.566929 0.574803
vn -0.590551 0.574803 0.566929
vn -0.590551 0.574803 0.566929
vn -0.590551 0.566929 0.574803
vn -0.606299 0.543307 0.582677
vn -0.606299 0.543307 0.582677
vn -0.566929 0.188976 -0.803150
vn -0.472441 0.149606 -0.866142
vn -0.566929 0.188976 -0.803150
vn -0.472441 0.149606 -0.866142
vn -0.440945 -0.047244 -0.897638
vn -0.440945 -0.055118 -0.897638
vn 0.196850 -0.677165 0.708661
vn 0.228346 -0.763780 0.606299
vn 0.228346 -0.763780 0.606299
vn 0.204724 -0.669291 0.708661
vn 0.322835 -0.527559 0.787402
vn 0.330709 -0.519685 0.787402
vn -0.149606 -0.102362 0.984252
vn -0.267717 -0.291339 0.921260
vn -0.267717 -0.291339 0.921260
vn -0.149606 -0.110236 0.984252
vn 0.102362 -0.007874 0.992126
vn 0.110236 -0.015748 0.992126
tan -0.922438 0.379813 0.098022 1.000000
tan -0.883750 0.425569 0.207576 1.000000
tan -0.910038 0.387005 0.119908 1.000000
tan -0.922252 0.386323 -0.002356 1.000000
tan -0.807366 -0.588133 0.086428 1.000000
tan -0.793602 -0.609151 -0.031434 1.000000
tan -0.796082 -0.588629 0.066712 1.000000
tan -0.816976 -0.546779 0.173848 1.000000
tan 0.370885 0.928204 -0.043276 1.000000
tan 0.305413 0.933350 -0.182776 1.000000
tan 0.347821 0.937194 -0.087296 1.000000
tan 0.411495 0.909542 0.031372 1.000000
tan 0.913386 0.409449 0.063240 1.000000
tan 0.912270 0.397545 -0.057722 1.000000
tan 0.913386 0.410069 0.035960 1.000000
tan 0.905388 0.401079 0.155124 1.000000
tan 0.321409 0.187116 0.930002 1.000000
tan 0.284333 0.158968 0.946494 1.000000
tan 0.316015 0.185194 0.928700 1.000000
tan 0.370389 0.200384 0.906566 1.000000
tan 0.442309 -0.425011 0.784922 1.000000
tan 0.417819 -0.409573 0.806870 1.000000
tan 0.434869 -0.425631 0.794408 1.000000
tan 0.459793 -0.448633 0.767066 1.000000
tan -0.160208 -0.574865 0.798190 1.000000
tan -0.157356 -0.544299 0.822680 1.000000
tan -0.158100 -0.567673 0.805382 1.000000
tan -0.174406 -0.603075 0.776552 1.000000
tan -0.416765 -0.046686 0.906256 1.000000
tan -0.385579 -0.033604 0.920330 1.000000
tan -0.411743 -0.044454 0.907124 1.000000
tan -0.452477 -0.050158 0.890198 1.000000
tan -0.503565 0.478889 0.726517 1.000000
tan -0.479323 0.463141 0.752743 1.000000
tan -0.497799 0.470705 0.725463 1.000000
tan -0.517453 0.496993 0.702089 1.000000
tan -0.587699 -0.787526 0.164424 1.000000
tan -0.602393 -0.790130 0.129456 1.000000
tan -0.591171 -0.787402 0.151280 1.000000
tan -0.578647 -0.794036 0.176700 1.000000
tan -0.999752 -0.058404 0.096906 1.000000
tan -0.990142 -0.033170 0.064170 1.000000
tan -0.995784 -0.045756 0.085746 1.000000
tan -0.987724 -0.066216 0.111352 1.000000
tan -0.670779 0.742638 -0.030690 1.000000
tan -0.679149 0.737677 0.016864 1.000000
tan -0.672949 0.738050 -0.013392 1.000000
tan -0.669043 0.745862 -0.048360 1.000000
tan -0.340071 -0.096906 0.937070 1.000000
tan -0.326059 -0.089838 0.937070 1.000000
tan -0.340071 -0.096906 0.937070 1.000000
tan -0.326059 -0.089280 0.944076 1.000000
tan -0.313411 -0.076136 0.950896 1.000000
tan -0.312853 -0.076136 0.947486 1.000000
tan -0.191952 0.560605 0.809102 1.000000
tan -0.158472 0.438837 0.883874 1.000000
tan -0.191952 0.560605 0.809102 1.000000
tan -0.158472 0.438837 0.883874 1.000000
tan -0.120280 0.301941 0.951082 1.000000
tan -0.120280 0.301941 0.951082 1.000000
tan 0.406721 -0.104532 0.907682 1.000000
tan 0.295431 -0.063612 0.954926 1.000000
tan 0.295431 -0.063612 0.954926 1.000000
tan 0.406721 -0.104222 0.915122 1.000000
tan 0.502821 -0.140244 0.857834 1.000000
tan 0.502821 -0.140244 0.857834 1.000000
tan -0.011036 -0.484035 0.878976 1.000000
tan -0.024800 -0.318681 0.949842 1.000000
tan -0.011036 -0.484035 0.878976 1.000000
tan -0.024800 -0.318681 0.949842 1.000000
tan -0.035898 -0.152954 0.989274 1.000000
tan -0.035898 -0.152954 0.989274 1.000000
tan -0.947858 -0.240684 0.191580 1.000000
tan -0.749891 -0.168082 0.637795 1.000000
tan -0.749891 -0.168082 0.637795 1.000000
tan -0.947238 -0.241304 0.181970 1.000000
tan -0.915060 -0.236468 -0.323269 1.000000
tan -0.916610 -0.234112 -0.325377 1.000000
tan -0.314527 0.310621 0.898754 1.000000
tan -0.263067 0.261703 0.926778 1.000000
tan -0.263067 0.261703 0.926778 1.000000
tan -0.314589 0.310621 0.893298 1.000000
tan -0.401389 0.306901 0.863972 1.000000
tan -0.401389 0.302933 0.859694 1.000000
tan 0.085870 0.506851 0.858392 1.000000
tan 0.066526 0.462955 0.881270 1.000000
tan 0.066526 0.462955 0.881270 1.000000
tan 0.085870 0.506851 0.858392 1.000000
tan 0.123566 0.536797 0.828694 1.000000
tan 0.123628 0.536797 0.836382 1.000000
tan 0.913572 0.291835 0.301693 1.000000
tan 0.592845 0.227168 0.773886 1.000000
tan 0.592845 0.227168 0.773886 1.000000
tan 0.906008 0.290161 0.309257 1.000000
tan 0.946370 0.190464 -0.262137 1.000000
tan 0.949842 0.181350 -0.262075 1.000000
tan 0.425321 -0.389113 0.814930 1.000000
tan 0.415215 -0.388183 0.826090 1.000000
tan 0.415215 -0.388183 0.826090 1.000000
tan 0.425321 -0.384463 0.816170 1.000000
tan 0.449005 -0.375845 0.817658 1.000000
tan 0.453283 -0.366483 0.813380 1.000000
tan -0.740281 0.308761 0.595201 1.000000
tan -0.798872 0.332321 0.493149 1.000000
tan -0.740281 0.308761 0.595201 1.000000
tan -0.798872 0.332321 0.493149 1.000000
tan -0.803150 0.475169 0.369521 1.000000
tan -0.798438 0.478641 0.362825 1.000000
tan -0.244529 0.668981 0.707173 1.000000
tan -0.215016 0.570463 0.799616 1.000000
tan -0.215016 0.570463 0.799616 1.000000
tan -0.239010 0.670345 0.702151 1.000000
tan -0.102796 0.810094 0.584909 1.000000
tan -0.100316 0.808110 0.575485 1.000000
tan 0.518941 0.841032 0.166346 1.000000
tan 0.470333 0.797260 0.388803 1.000000
tan 0.470333 0.797260 0.388803 1.000000
tan 0.519189 0.839854 0.172980 1.000000
tan 0.610019 0.790068 -0.056668 1.000000
tan 0.610825 0.783806 -0.055428 1.000000
f 3/3/3 2/2/2 1/1/1
f 1/1/1 4/4/4 3/3/3
f 7/7/7 6/6/6 5/5/5
f 5/5/5 8/8/8 7/7/7
f 11/11/11 10/10/10 9/9/9
f 9/9/9 12/12/12 11/11/11
f 15/15/15 14/14/14 13/13/13
f 13/13/13 16/16/16 15/15/15
f 19/19/19 18/18/18 17/17/17
f 17/17/17 20/20/20 19/19/19
f 23/23/23 22/22/22 21/21/21
f 21/21/21 24/24/24 23/23/23
f 27/27/27 26/26/26 25/25/25
f 25/25/25 28/28/28 27/27/27
f 31/31/31 30/30/30 29/29/29
f 29/29/29 32/32/32 31/31/31
f 35/35/35 34/34/34 33/33/33
f 33/33/33 36/36/36 35/35/35
f 39/39/39 38/38/38 37/37/37
f 37/37/37 40/40/40 39/39/39
f 43/43/43 42/42/42 41/41/41
f 41/41/41 44/44/44 43/43/43
f 47/47/47 46/46/46 45/45/45
f 45/45/45 48/48/48 47/47/47
f 51/51/51 50/50/50 49/49/49
f 50/50/50 51/51/51 52/52/52
f 52/52/52 53/53/53 50/50/50
f 53/53/53 52/52/52 54/54/54
f 57/57/57 56/56/56 55/55/55
f 56/56/56 57/57/57 58/58/58
f 58/58/58 59/59/59 56/56/56
f 59/59/59 58/58/58 60/60/60
f 63/63/63 62/62/62 61/61/61
f 61/61/61 64/64/64 63/63/63
f 64/64/64 61/61/61 65/65/65
f 65/65/65 66/66/66 64/64/64
f 69/69/69 68/68/68 67/67/67
f 68/68/68 69/69/69 70/70/70
f 70/70/70 71/71/71 68/68/68
f 71/71/71 70/70/70 72/72/72
f 75/75/75 74/74/74 73/73/73
f 73/73/73 76/76/76 75/75/75
f 76/76/76 73/73/73 77/77/77
f 77/77/77 78/78/78 76/76/76
f 81/81/81 80/80/80 79/79/79
f 79/79/79 82/82/82 81/81/81
f 82/82/82 79/79/79 83/83/83
f 83/83/83 84/84/84 82/82/82
f 87/87/87 86/86/86 85/85/85
f 85/85/85 88/88/88 87/87/87
f 88/88/88 85/85/85 89/89/89
f 89/89/89 90/90/90 88/88/88
f 93/93/93 92/92/92 91/91/91
f 91/91/91 94/94/94 93/93/93
f 94/94/94 91/91/91 95/95/95
f 95/95/95 96/96/96 94/94/94
f 99/99/99 98/98/98 97/97/97
f 97/97/97 100/100/100 99/99/99
f 100/100/100 97/97/97 101/101/101
f 101/101/101 102/102/102 100/100/100
f 105/105/105 104/104/104 103/103/103
f 104/104/104 105/105/105 106/106/106
f 106/106/106 107/107/107 104/104/104
f 107/107/107 106/106/106 108/108/108
f 111/111/111 110/110/110 109/109/109
f 109/109/109 112/112/112 111/111/111
f 112/112/112 109/109/109 113/113/113
f 113/113/113 114/114/114 112/112/112
f 117/117/117 116/116/116 115/115/115
f 115/115/115 118/118/118 117/117/117
f 118/118/118 115/115/115 119/119/119
f 119/119/119 120/120/120 118/118/118
