mtllib SM_CeilingPlate.mtl
g SM_CeilingPlate
#Vertices 90
#Indices 288
#Section 0 Offset 0 NumIndices 288 MaterialIndex 0 MI_CeilingModule
v 3.620440 0.100434 0.092969
v 3.620440 -0.023586 0.092969
v 3.620440 -0.023586 0.083020
v 3.620440 0.100434 0.083020
v 3.620440 0.224455 0.083020
v 3.620440 0.224455 0.092969
v 3.620440 0.348476 0.083020
v 3.620440 0.348476 0.092969
v 3.620440 0.472496 0.092969
v 3.620440 0.472496 0.083020
v 4.116522 -0.023586 0.083020
v 3.992502 -0.023586 0.092969
v 4.116522 -0.023586 0.092969
v 3.992502 -0.023586 0.083020
v 3.868481 -0.023586 0.083020
v 3.868481 -0.023586 0.092969
v 3.744461 -0.023586 0.083020
v 3.744461 -0.023586 0.092969
v 3.620440 -0.023586 0.092969
v 3.620440 -0.023586 0.083020
v 4.116522 0.472496 0.083020
v 4.116522 0.348476 0.092969
v 4.116522 0.472496 0.092969
v 4.116522 0.348476 0.083020
v 4.116522 0.224455 0.083020
v 4.116522 0.224455 0.092969
v 4.116522 0.100434 0.083020
v 4.116522 0.100434 0.092969
v 4.116522 -0.023586 0.092969
v 4.116522 -0.023586 0.083020
v 3.744461 0.472496 0.092969
v 3.620440 0.472496 0.092969
v 3.620440 0.472496 0.083020
v 3.744461 0.472496 0.083020
v 3.868481 0.472496 0.083020
v 3.868481 0.472496 0.092969
v 3.992502 0.472496 0.083020
v 3.992502 0.472496 0.092969
v 4.116522 0.472496 0.092969
v 4.116522 0.472496 0.083020
v 3.992502 0.472496 0.083020
v 4.116522 0.348476 0.083020
v 4.116522 0.472496 0.083020
v 3.992502 0.348476 0.083020
v 4.116522 0.224455 0.083020
v 3.868481 0.472496 0.083020
v 3.992502 0.224455 0.083020
v 4.116522 0.100434 0.083020
v 3.868481 0.348476 0.083020
v 3.744461 0.472496 0.083020
v 3.868481 0.224455 0.083020
v 3.992502 0.100434 0.083020
v 4.116522 -0.023586 0.083020
v 3.992502 -0.023586 0.083020
v 3.868481 0.100434 0.083020
v 3.868481 -0.023586 0.083020
v 3.744461 0.224455 0.083020
v 3.744461 0.100434 0.083020
v 3.744461 -0.023586 0.083020
v 3.620440 0.100434 0.083020
v 3.620440 -0.023586 0.083020
v 3.620440 0.224455 0.083020
v 3.620440 0.348476 0.083020
v 3.744461 0.348476 0.083020
v 3.620440 0.472496 0.083020
v 3.992502 -0.023586 0.092969
v 4.116522 0.100434 0.092969
v 4.116522 -0.023586 0.092969
v 3.992502 0.100434 0.092969
v 4.116522 0.224455 0.092969
v 3.868481 -0.023586 0.092969
v 3.992502 0.224455 0.092969
v 4.116522 0.348476 0.092969
v 3.868481 0.100434 0.092969
v 3.744461 -0.023586 0.092969
v 3.992502 0.348476 0.092969
v 4.116522 0.472496 0.092969
v 3.992502 0.472496 0.092969
v 3.868481 0.472496 0.092969
v 3.868481 0.224455 0.092969
v 3.744461 0.100434 0.092969
v 3.620440 -0.023586 0.092969
v 3.620440 0.100434 0.092969
v 3.868481 0.348476 0.092969
v 3.744461 0.472496 0.092969
v 3.744461 0.224455 0.092969
v 3.620440 0.224455 0.092969
v 3.744461 0.348476 0.092969
v 3.620440 0.348476 0.092969
v 3.620440 0.472496 0.092969
vt 0.091858 0.978333
vt 0.038177 0.978333
vt 0.038177 0.974030
vt 0.091858 0.974030
vt 0.145508 0.974030
vt 0.145508 0.978333
vt 0.199219 0.974030
vt 0.199219 0.978333
vt 0.252686 0.978333
vt 0.252686 0.974030
vt 0.038177 0.759399
vt 0.033875 0.812988
vt 0.033875 0.759399
vt 0.038177 0.812988
vt 0.038177 0.866699
vt 0.033875 0.866699
vt 0.038177 0.920349
vt 0.033875 0.920349
vt 0.033875 0.974030
vt 0.038177 0.974030
vt 0.252686 0.759399
vt 0.199219 0.755005
vt 0.252686 0.755005
vt 0.199219 0.759399
vt 0.145508 0.759399
vt 0.145508 0.755005
vt 0.091858 0.759399
vt 0.091858 0.755005
vt 0.038177 0.755005
vt 0.038177 0.759399
vt 0.257080 0.920349
vt 0.257080 0.974030
vt 0.252686 0.974030
vt 0.252686 0.920349
vt 0.252686 0.866699
vt 0.257080 0.866699
vt 0.252686 0.812988
vt 0.257080 0.812988
vt 0.257080 0.759399
vt 0.252686 0.759399
vt 0.252686 0.812988
vt 0.199219 0.759399
vt 0.252686 0.759399
vt 0.199219 0.812988
vt 0.145508 0.759399
vt 0.252686 0.866699
vt 0.145508 0.812988
vt 0.091858 0.759399
vt 0.199219 0.866699
vt 0.252686 0.920349
vt 0.145508 0.866699
vt 0.091858 0.812988
vt 0.038177 0.759399
vt 0.038177 0.812988
vt 0.091858 0.866699
vt 0.038177 0.866699
vt 0.145508 0.920349
vt 0.091858 0.920349
vt 0.038177 0.920349
vt 0.091858 0.974030
vt 0.038177 0.974030
vt 0.145508 0.974030
vt 0.199219 0.974030
vt 0.199219 0.920349
vt 0.252686 0.974030
vt 0.471924 0.812988
vt 0.418213 0.759399
vt 0.471924 0.759399
vt 0.418213 0.812988
vt 0.364502 0.759399
vt 0.471924 0.866699
vt 0.364502 0.812988
vt 0.310791 0.759399
vt 0.418213 0.866699
vt 0.471924 0.920349
vt 0.310791 0.812988
vt 0.257080 0.759399
vt 0.257080 0.812988
vt 0.257080 0.866699
vt 0.364502 0.866699
vt 0.418213 0.920349
vt 0.471924 0.974030
vt 0.418213 0.974030
vt 0.310791 0.866699
vt 0.257080 0.920349
vt 0.364502 0.920349
vt 0.364502 0.974030
vt 0.310791 0.920349
vt 0.310791 0.974030
vt 0.257080 0.974030
vt1 0.138184 0.008064
vt1 0.017731 0.008064
vt1 0.017731 0.027023
vt1 0.138184 0.027023
vt1 0.258789 0.027023
vt1 0.258789 0.008064
vt1 0.379395 0.027023
vt1 0.379395 0.008064
vt1 0.499756 0.008064
vt1 0.499756 0.027023
vt1 0.017731 0.972656
vt1 0.008064 0.736328
vt1 0.008064 0.972656
vt1 0.017731 0.736328
vt1 0.017731 0.500000
vt1 0.008064 0.500000
vt1 0.017731 0.263428
vt1 0.008064 0.263428
vt1 0.008064 0.027023
vt1 0.017731 0.027023
vt1 0.500000 0.972656
vt1 0.379395 0.991699
vt1 0.500000 0.991699
vt1 0.379395 0.972656
vt1 0.258789 0.972656
vt1 0.258789 0.991699
vt1 0.138184 0.972656
vt1 0.138184 0.991699
vt1 0.017731 0.991699
vt1 0.017731 0.972656
vt1 0.509277 0.263428
vt1 0.509277 0.027023
vt1 0.499756 0.027023
vt1 0.499756 0.263428
vt1 0.499756 0.500000
vt1 0.509277 0.500000
vt1 0.500000 0.736328
vt1 0.509277 0.736328
vt1 0.509277 0.972656
vt1 0.500000 0.972656
vt1 0.500000 0.736328
vt1 0.379395 0.972656
vt1 0.500000 0.972656
vt1 0.379395 0.736328
vt1 0.258789 0.972656
vt1 0.499756 0.500000
vt1 0.258789 0.736328
vt1 0.138184 0.972656
vt1 0.379395 0.499756
vt1 0.499756 0.263428
vt1 0.258789 0.500000
vt1 0.138184 0.736328
vt1 0.017731 0.972656
vt1 0.017731 0.736328
vt1 0.138184 0.500000
vt1 0.017731 0.500000
vt1 0.258789 0.263428
vt1 0.138184 0.263428
vt1 0.017731 0.263428
vt1 0.138184 0.027023
vt1 0.017731 0.027023
vt1 0.258789 0.027023
vt1 0.379395 0.027023
vt1 0.379395 0.263428
vt1 0.499756 0.027023
vt1 0.991699 0.736328
vt1 0.871094 0.972656
vt1 0.991699 0.972656
vt1 0.871094 0.736328
vt1 0.750488 0.972656
vt1 0.991699 0.499756
vt1 0.750488 0.736328
vt1 0.629883 0.972656
vt1 0.871094 0.499756
vt1 0.991699 0.263428
vt1 0.629883 0.736328
vt1 0.509277 0.972656
vt1 0.509277 0.736328
vt1 0.509277 0.500000
vt1 0.750488 0.499756
vt1 0.871094 0.263428
vt1 0.991699 0.027023
vt1 0.871094 0.027023
vt1 0.629883 0.499756
vt1 0.509277 0.263428
vt1 0.750488 0.263428
vt1 0.750488 0.027023
vt1 0.629883 0.263428
vt1 0.629883 0.027023
vt1 0.509277 0.027023
vn -1.000000 0.000000 0.000000
vn -1.000000 0.000000 0.000000
vn -1.000000 0.000000 0.000000
vn -1.000000 0.000000 0.000000
vn -1.000000 0.000000 0.000000
vn -1.000000 0.000000 0.000000
vn -1.000000 0.000000 0.000000
vn -1.000000 0.000000 0.000000
vn -1.000000 0.000000 0.000000
vn -1.000000 0.000000 0.000000
vn 0.000000 -1.000000 0.000000
vn 0.000000 -1.000000 0.000000
vn 0.000000 -1.000000 0.000000
vn 0.000000 -1.000000 0.000000
vn 0.000000 -1.000000 0.000000
vn 0.000000 -1.000000 0.000000
vn 0.000000 -1.000000 0.000000
vn 0.000000 -1.000000 0.000000
vn 0.000000 -1.000000 0.000000
vn 0.000000 -1.000000 0.000000
vn 1.000000 0.000000 0.000000
vn 1.000000 0.000000 0.000000
vn 1.000000 0.000000 0.000000
vn 1.000000 0.000000 0.000000
vn 1.000000 0.000000 0.000000
vn 1.000000 0.000000 0.000000
vn 1.000000 0.000000 0.000000
vn 1.000000 0.000000 0.000000
vn 1.000000 0.000000 0.000000
vn 1.000000 0.000000 0.000000
vn 0.000000 1.000000 0.000000
vn 0.000000 1.000000 0.000000
vn 0.000000 1.000000 0.000000
vn 0.000000 1.000000 0.000000
vn 0.000000 1.000000 0.000000
vn 0.000000 1.000000 0.000000
vn 0.000000 1.000000 0.000000
vn 0.000000 1.000000 0.000000
vn 0.000000 1.000000 0.000000
vn 0.000000 1.000000 0.000000
vn 0.000000 0.000000 -1.000000
vn 0.000000 0.000000 -1.000000
vn 0.000000 0.000000 -1.000000
vn 0.000000 0.000000 -1.000000
vn 0.000000 0.000000 -1.000000
vn 0.000000 0.000000 -1.000000
vn 0.000000 0.000000 -1.000000
vn 0.000000 0.000000 -1.000000
vn 0.000000 0.000000 -1.000000
vn 0.000000 0.000000 -1.000000
vn 0.000000 0.000000 -1.000000
vn 0.000000 0.000000 -1.000000
vn 0.000000 0.000000 -1.000000
vn 0.000000 0.000000 -1.000000
vn 0.000000 0.000000 -1.000000
vn 0.000000 0.000000 -1.000000
vn 0.000000 0.000000 -1.000000
vn 0.000000 0.000000 -1.000000
vn 0.000000 0.000000 -1.000000
vn 0.000000 0.000000 -1.000000
vn 0.000000 0.000000 -1.000000
vn 0.000000 0.000000 -1.000000
vn 0.000000 0.000000 -1.000000
vn 0.000000 0.000000 -1.000000
vn 0.000000 0.000000 -1.000000
vn 0.000000 0.000000 1.000000
vn 0.000000 0.000000 1.000000
vn 0.000000 0.000000 1.000000
vn 0.000000 0.000000 1.000000
vn 0.000000 0.000000 1.000000
vn 0.000000 0.000000 1.000000
vn 0.000000 0.000000 1.000000
vn 0.000000 0.000000 1.000000
vn 0.000000 0.000000 1.000000
vn 0.000000 0.000000 1.000000
vn 0.000000 0.000000 1.000000
vn 0.000000 0.000000 1.000000
vn 0.000000 0.000000 1.000000
vn 0.000000 0.000000 1.000000
vn 0.000000 0.000000 1.000000
vn 0.000000 0.000000 1.000000
vn 0.000000 0.000000 1.000000
vn 0.000000 0.000000 1.000000
vn 0.000000 0.000000 1.000000
vn 0.000000 0.000000 1.000000
vn 0.000000 0.000000 1.000000
vn 0.000000 0.000000 1.000000
vn 0.000000 0.000000 1.000000
vn 0.000000 0.000000 1.000000
vn 0.000000 0.000000 1.000000
tan 0.000000 0.000000 -1.000000 1.000000
tan 0.000000 0.000000 -1.000000 1.000000
tan 0.000000 0.000000 -1.000000 1.000000
tan 0.000000 0.000000 -1.000000 1.000000
tan 0.000000 0.000000 -1.000000 1.000000
tan 0.000000 0.000000 -1.000000 1.000000
tan 0.000000 0.000000 -1.000000 1.000000
tan 0.000000 0.000000 -1.000000 1.000000
tan 0.000000 0.000000 -1.000000 1.000000
tan 0.000000 0.000000 -1.000000 1.000000
tan 1.000000 0.000000 0.000000 1.000000
tan 1.000000 0.000000 0.000000 1.000000
tan 1.000000 0.000000 0.000000 1.000000
tan 1.000000 0.000000 0.000000 1.000000
tan 1.000000 0.000000 0.000000 1.000000
tan 1.000000 0.000000 0.000000 1.000000
tan 1.000000 0.000000 0.000000 1.000000
tan 1.000000 0.000000 0.000000 1.000000
tan 1.000000 0.000000 0.000000 1.000000
tan 1.000000 0.000000 0.000000 1.000000
tan 0.000000 0.000000 1.000000 1.000000
tan 0.000000 0.000000 1.000000 1.000000
tan 0.000000 0.000000 1.000000 1.000000
tan 0.000000 0.000000 1.000000 1.000000
tan 0.000000 0.000000 1.000000 1.000000
tan 0.000000 0.000000 1.000000 1.000000
tan 0.000000 0.000000 1.000000 1.000000
tan 0.000000 0.000000 1.000000 1.000000
tan 0.000000 0.000000 1.000000 1.000000
tan 0.000000 0.000000 1.000000 1.000000
tan 1.000000 0.000000 0.000000 1.000000
tan 1.000000 0.000000 0.000000 1.000000
tan 1.000000 0.000000 0.000000 1.000000
tan 1.000000 0.000000 0.000000 1.000000
tan 1.000000 0.000000 0.000000 1.000000
tan 1.000000 0.000000 0.000000 1.000000
tan 1.000000 0.000000 0.000000 1.000000
tan 1.000000 0.000000 0.000000 1.000000
tan 1.000000 0.000000 0.000000 1.000000
tan 1.000000 0.000000 0.000000 1.000000
tan 1.000000 -0.000000 0.000000 1.000000
tan 1.000000 -0.000000 0.000000 1.000000
tan 1.000000 -0.000000 0.000000 1.000000
tan 1.000000 -0.000000 0.000000 1.000000
tan 1.000000 -0.000000 0.000000 1.000000
tan 1.000000 -0.000000 0.000000 1.000000
tan 1.000000 -0.000000 0.000000 1.000000
tan 1.000000 -0.000000 0.000000 1.000000
tan 1.000000 -0.000000 0.000000 1.000000
tan 1.000000 -0.000000 0.000000 1.000000
tan 1.000000 -0.000000 0.000000 1.000000
tan 1.000000 -0.000000 0.000000 1.000000
tan 1.000000 -0.000000 0.000000 1.000000
tan 1.000000 -0.000000 0.000000 1.000000
tan 1.000000 -0.000000 0.000000 1.000000
tan 1.000000 -0.000000 0.000000 1.000000
tan 1.000000 -0.000000 0.000000 1.000000
tan 1.000000 -0.000000 0.000000 1.000000
tan 1.000000 -0.000000 0.000000 1.000000
tan 1.000000 -0.000000 0.000000 1.000000
tan 1.000000 -0.000000 0.000000 1.000000
tan 1.000000 -0.000000 0.000000 1.000000
tan 1.000000 -0.000000 0.000000 1.000000
tan 1.000000 -0.000000 0.000000 1.000000
tan 1.000000 -0.000000 0.000000 1.000000
tan 1.000000 0.000000 -0.000000 1.000000
tan 1.000000 0.000000 -0.000000 1.000000
tan 1.000000 0.000000 -0.000000 1.000000
tan 1.000000 0.000000 -0.000000 1.000000
tan 1.000000 0.000000 -0.000000 1.000000
tan 1.000000 0.000000 -0.000000 1.000000
tan 1.000000 0.000000 -0.000000 1.000000
tan 1.000000 0.000000 -0.000000 1.000000
tan 1.000000 0.000000 -0.000000 1.000000
tan 1.000000 0.000000 -0.000000 1.000000
tan 1.000000 0.000000 -0.000000 1.000000
tan 1.000000 0.000000 -0.000000 1.000000
tan 1.000000 0.000000 -0.000000 1.000000
tan 1.000000 0.000000 -0.000000 1.000000
tan 1.000000 0.000000 -0.000000 1.000000
tan 1.000000 0.000000 -0.000000 1.000000
tan 1.000000 0.000000 -0.000000 1.000000
tan 1.000000 0.000000 -0.000000 1.000000
tan 1.000000 0.000000 -0.000000 1.000000
tan 1.000000 0.000000 -0.000000 1.000000
tan 1.000000 0.000000 -0.000000 1.000000
tan 1.000000 0.000000 -0.000000 1.000000
tan 1.000000 0.000000 -0.000000 1.000000
tan 1.000000 0.000000 -0.000000 1.000000
tan 1.000000 0.000000 -0.000000 1.000000
f 3/3/3 2/2/2 1/1/1
f 1/1/1 4/4/4 3/3/3
f 4/4/4 1/1/1 5/5/5
f 6/6/6 5/5/5 1/1/1
f 5/5/5 6/6/6 7/7/7
f 8/8/8 7/7/7 6/6/6
f 7/7/7 8/8/8 9/9/9
f 9/9/9 10/10/10 7/7/7
f 13/13/13 12/12/12 11/11/11
f 12/12/12 14/14/14 11/11/11
f 14/14/14 12/12/12 15/15/15
f 16/16/16 15/15/15 12/12/12
f 15/15/15 16/16/16 17/17/17
f 18/18/18 17/17/17 16/16/16
f 18/18/18 19/19/19 17/17/17
f 19/19/19 20/20/20 17/17/17
f 23/23/23 22/22/22 21/21/21
f 24/24/24 21/21/21 22/22/22
f 24/24/24 22/22/22 25/25/25
f 26/26/26 25/25/25 22/22/22
f 25/25/25 26/26/26 27/27/27
f 28/28/28 27/27/27 26/26/26
f 28/28/28 29/29/29 27/27/27
f 30/30/30 27/27/27 29/29/29
f 33/33/33 32/32/32 31/31/31
f 34/34/34 33/33/33 31/31/31
f 34/34/34 31/31/31 35/35/35
f 36/36/36 35/35/35 31/31/31
f 35/35/35 36/36/36 37/37/37
f 38/38/38 37/37/37 36/36/36
f 37/37/37 38/38/38 39/39/39
f 40/40/40 37/37/37 39/39/39
f 43/43/43 42/42/42 41/41/41
f 44/44/44 41/41/41 42/42/42
f 42/42/42 45/45/45 44/44/44
f 41/41/41 44/44/44 46/46/46
f 47/47/47 44/44/44 45/45/45
f 45/45/45 48/48/48 47/47/47
f 49/49/49 46/46/46 44/44/44
f 46/46/46 49/49/49 50/50/50
f 47/47/47 51/51/51 44/44/44
f 49/49/49 44/44/44 51/51/51
f 52/52/52 47/47/47 48/48/48
f 47/47/47 52/52/52 51/51/51
f 48/48/48 53/53/53 52/52/52
f 54/54/54 52/52/52 53/53/53
f 52/52/52 54/54/54 55/55/55
f 55/55/55 51/51/51 52/52/52
f 56/56/56 55/55/55 54/54/54
f 51/51/51 55/55/55 57/57/57
f 51/51/51 57/57/57 49/49/49
f 55/55/55 56/56/56 58/58/58
f 58/58/58 57/57/57 55/55/55
f 59/59/59 58/58/58 56/56/56
f 61/61/61 60/60/60 59/59/59
f 58/58/58 59/59/59 60/60/60
f 60/60/60 62/62/62 58/58/58
f 57/57/57 58/58/58 62/62/62
f 62/62/62 63/63/63 57/57/57
f 64/64/64 57/57/57 63/63/63
f 64/64/64 49/49/49 57/57/57
f 64/64/64 50/50/50 49/49/49
f 63/63/63 65/65/65 64/64/64
f 50/50/50 64/64/64 65/65/65
f 68/68/68 67/67/67 66/66/66
f 69/69/69 66/66/66 67/67/67
f 67/67/67 70/70/70 69/69/69
f 66/66/66 69/69/69 71/71/71
f 72/72/72 69/69/69 70/70/70
f 70/70/70 73/73/73 72/72/72
f 74/74/74 71/71/71 69/69/69
f 69/69/69 72/72/72 74/74/74
f 71/71/71 74/74/74 75/75/75
f 76/76/76 72/72/72 73/73/73
f 73/73/73 77/77/77 76/76/76
f 78/78/78 76/76/76 77/77/77
f 78/78/78 79/79/79 76/76/76
f 80/80/80 74/74/74 72/72/72
f 72/72/72 76/76/76 80/80/80
f 81/81/81 75/75/75 74/74/74
f 74/74/74 80/80/80 81/81/81
f 75/75/75 81/81/81 82/82/82
f 83/83/83 82/82/82 81/81/81
f 84/84/84 76/76/76 79/79/79
f 84/84/84 80/80/80 76/76/76
f 79/79/79 85/85/85 84/84/84
f 86/86/86 81/81/81 80/80/80
f 81/81/81 86/86/86 83/83/83
f 80/80/80 84/84/84 86/86/86
f 87/87/87 83/83/83 86/86/86
f 88/88/88 86/86/86 84/84/84
f 86/86/86 88/88/88 87/87/87
f 88/88/88 84/84/84 85/85/85
f 89/89/89 87/87/87 88/88/88
f 88/88/88 85/85/85 89/89/89
f 90/90/90 89/89/89 85/85/85
