mtllib SM_PurpleWoodsorrel_03_LOD3.mtl
g SM_PurpleWoodsorrel_03_LOD3
#Vertices 7
#Indices 18
#Section 0 Offset 0 NumIndices 18 MaterialIndex 1 MI_PurpleWoodsorrelBillboard
v 0.220194 0.118480 0.063788 0.333333 0.666667 0.000000 1.000000
v 0.283255 -0.069567 0.046753 0.333333 0.666667 0.000000 1.000000
v -0.002960 -0.032815 0.108437 1.000000 0.000000 0.000000 1.000000
v -0.070980 0.227209 0.075969 0.333333 0.666667 0.000000 1.000000
v 0.018888 -0.300416 0.070844 0.333333 0.666667 0.000000 1.000000
v -0.188978 0.053872 0.038390 0.333333 0.666667 0.000000 1.000000
v -0.239450 -0.192144 0.061764 0.333333 0.666667 0.000000 1.000000
vt 0.067566 0.677734
vt 0.194824 0.575195
vt 0.246826 0.807983
vt 0.065247 0.931641
vt 0.447021 0.716309
vt 0.233276 0.980652
vt 0.437744 0.948181
vt1 0.744141 0.989258
vt1 0.994629 0.678711
vt1 0.426514 0.551270
vt1 0.124634 0.994629
vt1 0.650391 0.062988
vt1 0.004997 0.584473
vt1 0.084167 0.085632
vn 0.165354 0.055118 0.984252
vn 0.204724 -0.062992 0.976378
vn -0.023622 0.007874 1.000000
vn -0.118110 0.094488 0.992126
vn 0.039370 -0.133858 0.992126
vn -0.314961 0.086614 0.944882
vn -0.181102 -0.015748 0.984252
tan 0.927894 -0.350177 -0.136276 1.000000
tan 0.914378 -0.332197 -0.213156 1.000000
tan 0.944820 -0.338769 0.024986 1.000000
tan 0.941906 -0.314713 0.142104 1.000000
tan 0.945440 -0.331267 -0.082212 1.000000
tan 0.890756 -0.319921 0.326245 1.000000
tan 0.923492 -0.347511 0.164362 1.000000
f 3/3/3 2/2/2 1/1/1
f 3/3/3 1/1/1 4/4/4
f 3/3/3 5/5/5 2/2/2
f 3/3/3 4/4/4 6/6/6
f 3/3/3 7/7/7 5/5/5
f 3/3/3 6/6/6 7/7/7
