mtllib SM_PurpleWoodsorrel_01_LOD2.mtl
g SM_PurpleWoodsorrel_01_LOD2
#Vertices 98
#Indices 210
#Section 0 Offset 0 NumIndices 210 MaterialIndex 0 MI_PurpleWoodsorrel
v -0.000969 -0.000452 0.000321 0.000000 1.000000 0.000000 1.000000
v 0.001314 0.000613 0.000325 0.000000 1.000000 0.000000 1.000000
v 0.000780 0.000364 0.024150 0.529412 0.466667 0.000000 1.000000
v -0.000664 -0.000310 0.024157 0.529412 0.466667 0.000000 1.000000
v 0.099140 0.012863 0.000633 0.000000 1.000000 0.000000 1.000000
v 0.100513 0.014813 0.000201 0.000000 1.000000 0.000000 1.000000
v 0.100312 0.015285 0.014634 0.450980 0.545098 0.000000 1.000000
v 0.099398 0.013976 0.014700 0.450980 0.545098 0.000000 1.000000
v -0.025977 0.051004 0.000569 0.000000 1.000000 0.000000 1.000000
v -0.024001 0.050644 0.000006 0.000000 1.000000 0.000000 1.000000
v -0.023410 0.050974 0.014151 0.447059 0.549020 0.000000 1.000000
v -0.025025 0.051258 0.014240 0.447059 0.549020 0.000000 1.000000
v 0.057429 0.027469 -0.001836 0.000000 1.000000 0.000000 1.000000
v 0.058080 0.025124 -0.001836 0.000000 1.000000 0.000000 1.000000
v 0.053256 0.023473 0.023251 0.545098 0.450980 0.000000 1.000000
v 0.052554 0.026026 0.023214 0.545098 0.450980 0.000000 1.000000
v -0.113014 0.038775 0.019476 0.490196 0.505882 0.000000 1.000000
v -0.114371 0.038996 0.019007 0.486275 0.509804 0.000000 1.000000
v -0.113944 0.038660 0.010438 0.427451 0.568627 0.000000 1.000000
v -0.112224 0.038360 0.010401 0.427451 0.568627 0.000000 1.000000
v -0.115275 0.038579 0.000235 0.000000 1.000000 0.000000 1.000000
v -0.112696 0.038115 -0.000261 0.000000 1.000000 0.000000 1.000000
v 0.018740 -0.040311 -0.000609 0.000000 1.000000 0.000000 1.000000
v 0.017007 -0.041659 -0.000447 0.000000 1.000000 0.000000 1.000000
v 0.018203 -0.040729 0.026167 0.556863 0.439216 0.000000 1.000000
v 0.020676 -0.038806 0.026058 0.556863 0.439216 0.000000 1.000000
v 0.017055 -0.041622 0.052109 0.823529 0.172549 0.000000 1.000000
v 0.018726 -0.040322 0.052441 0.827451 0.168627 0.000000 1.000000
v -0.017105 -0.007088 -0.003159 0.000000 1.000000 0.000000 1.000000
v -0.015104 -0.006217 -0.001658 0.000000 1.000000 0.000000 1.000000
v -0.027036 -0.011391 0.023285 0.572549 0.423529 0.000000 1.000000
v -0.030081 -0.012714 0.022137 0.580392 0.415686 0.000000 1.000000
v -0.032663 -0.012715 0.049676 0.843137 0.152941 0.000000 1.000000
v -0.034888 -0.013639 0.049714 0.847059 0.149020 0.000000 1.000000
v 0.087636 -0.039107 -0.001835 0.000000 1.000000 0.000000 1.000000
v 0.086658 -0.041570 -0.000395 0.000000 1.000000 0.000000 1.000000
v 0.085078 -0.045157 0.018462 0.490196 0.505882 0.000000 1.000000
v 0.085820 -0.043250 0.018875 0.490196 0.505882 0.000000 1.000000
v 0.083723 -0.048181 0.036758 0.678431 0.317647 0.000000 1.000000
v 0.084360 -0.046543 0.037266 0.678431 0.317647 0.000000 1.000000
v 0.030775 0.082469 -0.001458 0.000000 1.000000 0.000000 1.000000
v 0.032482 0.080804 -0.000837 0.000000 1.000000 0.000000 1.000000
v 0.033906 0.077737 0.017781 0.486275 0.509804 0.000000 1.000000
v 0.032358 0.079175 0.018025 0.486275 0.509804 0.000000 1.000000
v 0.033617 0.076318 0.035601 0.666667 0.329412 0.000000 1.000000
v 0.032174 0.077652 0.035887 0.666667 0.329412 0.000000 1.000000
v 0.099881 0.014678 0.014688 0.450980 0.545098 0.000000 1.000000
v 0.083520 0.040097 0.012934 0.619608 0.376471 0.000000 1.000000
v 0.122141 0.045335 0.015495 0.705882 0.290196 0.000000 1.000000
v 0.137177 -0.011558 0.022974 0.803922 0.192157 0.000000 1.000000
v 0.072848 -0.010212 0.016837 0.674510 0.321569 0.000000 1.000000
v -0.033621 -0.012689 0.049720 0.843137 0.152941 0.000000 1.000000
v -0.029842 0.021302 0.045611 0.835294 0.160784 0.000000 1.000000
v -0.004949 -0.038749 0.070921 0.917647 0.078431 0.000000 1.000000
v -0.060059 -0.036895 0.048292 0.917647 0.078431 0.000000 1.000000
v -0.072022 -0.004933 0.047075 0.917647 0.078431 0.000000 1.000000
v -0.066566 -0.052013 0.006765 0.901961 0.094118 0.000000 1.000000
v -0.094088 -0.062434 0.010819 0.960784 0.035294 0.000000 1.000000
v -0.076826 -0.027559 0.010784 0.894118 0.101961 0.000000 1.000000
v -0.048736 -0.027193 0.009018 0.694118 0.301961 0.000000 1.000000
v -0.044834 -0.069297 0.011542 0.905882 0.090196 0.000000 1.000000
v 0.017731 -0.041176 0.052121 0.823529 0.172549 0.000000 1.000000
v 0.036984 -0.013468 0.056891 0.898039 0.098039 0.000000 1.000000
v 0.049335 -0.062385 0.058370 0.909804 0.086275 0.000000 1.000000
v 0.018192 -0.073810 0.054101 0.890196 0.105882 0.000000 1.000000
v -0.020562 -0.039158 0.050317 0.886275 0.109804 0.000000 1.000000
v 0.053017 0.024490 0.023479 0.549020 0.447059 0.000000 1.000000
v 0.077322 0.013145 0.023803 0.611765 0.384314 0.000000 1.000000
v 0.038262 0.001134 0.029121 0.741176 0.254902 0.000000 1.000000
v 0.028103 0.029295 0.027721 0.717647 0.278431 0.000000 1.000000
v 0.056785 0.046383 0.024562 0.619608 0.376471 0.000000 1.000000
v -0.024088 0.050959 0.014203 0.447059 0.549020 0.000000 1.000000
v -0.050331 0.043126 0.017913 0.600000 0.396078 0.000000 1.000000
v -0.018353 0.074919 0.014444 0.576471 0.419608 0.000000 1.000000
v 0.005842 0.048830 0.018231 0.647059 0.349020 0.000000 1.000000
v -0.013149 0.025937 0.015959 0.607843 0.388235 0.000000 1.000000
v 0.002980 0.001642 0.023260 0.521569 0.474510 0.000000 1.000000
v -0.021575 0.011239 0.029791 0.662745 0.333333 0.000000 1.000000
v 0.016320 0.022306 0.017927 0.611765 0.384314 0.000000 1.000000
v 0.030762 -0.015891 0.018964 0.631373 0.364706 0.000000 1.000000
v -0.006344 -0.029337 0.030732 0.709804 0.286275 0.000000 1.000000
v -0.113614 0.038733 0.018777 0.482353 0.513726 0.000000 1.000000
v -0.096100 0.050330 0.019622 0.576471 0.419608 0.000000 1.000000
v -0.096593 0.020277 0.021796 0.619608 0.376471 0.000000 1.000000
v -0.126181 0.012493 0.019730 0.639216 0.356863 0.000000 1.000000
v -0.132802 0.051650 0.021705 0.600000 0.396078 0.000000 1.000000
v 0.083741 -0.047514 0.036612 0.674510 0.321569 0.000000 1.000000
v 0.097895 -0.028767 0.038779 0.729412 0.266667 0.000000 1.000000
v 0.121753 -0.057136 0.041290 0.854902 0.141176 0.000000 1.000000
v 0.075471 -0.083428 0.044994 0.890196 0.105882 0.000000 1.000000
v 0.063844 -0.021304 0.048111 0.858824 0.137255 0.000000 1.000000
v 0.050283 -0.066809 0.043488 0.878431 0.117647 0.000000 1.000000
v 0.032826 0.076862 0.035914 0.666667 0.329412 0.000000 1.000000
v 0.036958 0.104898 0.033270 0.721569 0.274510 0.000000 1.000000
v 0.075125 0.087424 0.046266 0.894118 0.101961 0.000000 1.000000
v 0.046798 0.040158 0.047176 0.815686 0.180392 0.000000 1.000000
v -0.006296 0.092083 0.030165 0.800000 0.196078 0.000000 1.000000
v 0.014264 0.037684 0.043575 0.866667 0.129412 0.000000 1.000000
vt 0.815430 0.132812
vt 0.803711 0.132812
vt 0.805664 0.023926
vt 0.812988 0.023926
vt 0.815918 0.131836
vt 0.802246 0.131836
vt 0.805176 0.055176
vt 0.813965 0.054199
vt 0.815430 0.131836
vt 0.803711 0.133301
vt 0.805176 0.053711
vt 0.814453 0.052734
vt 0.936523 0.376465
vt 0.948730 0.376465
vt 0.950195 0.507080
vt 0.937012 0.506836
vt 0.806152 0.023438
vt 0.814453 0.025391
vt 0.814453 0.074707
vt 0.804688 0.074707
vt 0.817383 0.134277
vt 0.802246 0.134766
vt 0.539551 0.046875
vt 0.549805 0.047363
vt 0.542969 0.169434
vt 0.528320 0.168945
vt 0.549316 0.288086
vt 0.540039 0.289551
vt 0.538574 0.046875
vt 0.549805 0.047363
vt 0.542969 0.169922
vt 0.527832 0.170410
vt 0.550781 0.287109
vt 0.540527 0.289062
vt 0.937988 0.376953
vt 0.948242 0.385254
vt 0.948730 0.471191
vt 0.939453 0.471191
vt 0.947266 0.553711
vt 0.938965 0.554443
vt 0.938477 0.377930
vt 0.948242 0.383301
vt 0.949219 0.471191
vt 0.938965 0.471191
vt 0.947266 0.553955
vt 0.938477 0.555420
vt 0.146729 0.821777
vt 0.177490 0.684570
vt 0.317871 0.795288
vt 0.180298 1.032745
vt -0.020981 0.813599
vt 0.791016 0.714355
vt 0.655273 0.791504
vt 0.803223 0.521729
vt 0.952148 0.743896
vt 0.866699 0.875854
vt 0.526367 0.839478
vt 0.403320 0.728271
vt 0.625000 0.723389
vt 0.700684 0.864624
vt 0.495605 0.994503
vt 0.526367 0.839478
vt 0.417480 0.729980
vt 0.648926 0.714355
vt 0.673828 0.864258
vt 0.486816 1.010628
vt 0.479004 0.372559
vt 0.518066 0.256348
vt 0.598633 0.425781
vt 0.475830 0.489746
vt 0.378662 0.370117
vt 0.225708 0.340820
vt 0.112488 0.288574
vt 0.315918 0.272949
vt 0.324951 0.436035
vt 0.190186 0.459961
vt 0.369873 0.480469
vt 0.350830 0.394043
vt 0.452637 0.483887
vt 0.371338 0.589111
vt 0.265137 0.505127
vt 0.118469 0.187500
vt 0.203369 0.147461
vt 0.185059 0.279785
vt 0.046326 0.298828
vt 0.040466 0.119629
vt 0.791016 0.714355
vt 0.709961 0.646973
vt 0.841797 0.546387
vt 0.952637 0.762573
vt 0.666992 0.805420
vt 0.867676 0.870117
vt 0.526367 0.839478
vt 0.427490 0.857910
vt 0.443359 0.705566
vt 0.636719 0.744385
vt 0.520996 0.989967
vt 0.682129 0.853027
vt1 0.361816 0.018860
vt1 0.361816 0.004997
vt1 0.230713 0.007389
vt1 0.230591 0.016159
vt1 0.333740 0.932129
vt1 0.333496 0.945801
vt1 0.411621 0.942871
vt1 0.412598 0.934082
vt1 0.011147 0.640137
vt1 0.009903 0.651367
vt1 0.086609 0.650391
vt1 0.087708 0.641113
vt1 0.425537 0.994629
vt1 0.425537 0.981445
vt1 0.284424 0.979492
vt1 0.284668 0.994141
vt1 0.304199 0.958984
vt1 0.305664 0.967285
vt1 0.353516 0.967285
vt1 0.353760 0.957520
vt1 0.411133 0.970215
vt1 0.411377 0.955566
vt1 0.436523 0.928711
vt1 0.437500 0.940918
vt1 0.583984 0.932617
vt1 0.583496 0.915039
vt1 0.726562 0.940430
vt1 0.728516 0.928711
vt1 0.730957 0.960938
vt1 0.729980 0.946777
vt1 0.574219 0.955566
vt1 0.573242 0.975098
vt1 0.424316 0.945801
vt1 0.421875 0.958496
vt1 0.009903 0.352295
vt1 0.022629 0.341553
vt1 0.023224 0.235596
vt1 0.011818 0.235596
vt1 0.021042 0.133179
vt1 0.011017 0.132324
vt1 0.836914 0.994629
vt1 0.830566 0.982910
vt1 0.727051 0.981934
vt1 0.727051 0.993652
vt1 0.629395 0.983887
vt1 0.627930 0.994629
vt1 0.841309 0.466309
vt1 0.700684 0.373779
vt1 0.671875 0.585938
vt1 0.987793 0.675781
vt1 0.979004 0.319580
vt1 0.812988 0.835449
vt1 0.627930 0.882812
vt1 0.987305 0.994629
vt1 0.929688 0.672363
vt1 0.742188 0.628906
vt1 0.140991 0.537598
vt1 0.283447 0.612793
vt1 0.214355 0.409180
vt1 0.060303 0.386963
vt1 0.009903 0.617188
vt1 0.532715 0.113525
vt1 0.372803 0.017746
vt1 0.422119 0.293457
vt1 0.604980 0.278809
vt1 0.721680 0.016861
vt1 0.589844 0.572754
vt1 0.671387 0.449951
vt1 0.451172 0.499268
vt1 0.481689 0.662598
vt1 0.666504 0.666016
vt1 0.556152 0.750977
vt1 0.688477 0.678223
vt1 0.441406 0.676758
vt1 0.444336 0.874023
vt1 0.608887 0.891602
vt1 0.834961 0.113037
vt1 0.961426 0.034851
vt1 0.733887 0.016418
vt1 0.701172 0.238647
vt1 0.927246 0.268799
vt1 0.365967 0.398682
vt1 0.320312 0.504395
vt1 0.481934 0.476318
vt1 0.499023 0.305664
vt1 0.279541 0.306152
vt1 0.186890 0.142456
vt1 0.214355 0.015381
vt1 0.009903 0.017807
vt1 0.066589 0.312012
vt1 0.376465 0.136841
vt1 0.230469 0.352295
vt1 0.188721 0.850586
vt1 0.255859 0.991699
vt1 0.432861 0.832520
vt1 0.207642 0.625000
vt1 0.004997 0.994629
vt1 0.029877 0.667480
vn -0.425197 0.905512 0.000000
vn -0.425197 0.905512 0.000000
vn -0.425197 0.905512 0.000000
vn -0.425197 0.905512 0.000000
vn -0.818898 0.574803 -0.031496
vn -0.818898 0.574803 -0.031496
vn -0.818898 0.574803 -0.031496
vn -0.818898 0.574803 -0.031496
vn 0.173228 0.984252 -0.031496
vn 0.173228 0.984252 -0.031496
vn 0.173228 0.984252 -0.031496
vn 0.173228 0.984252 -0.031496
vn 0.944882 0.259843 0.196850
vn 0.944882 0.259843 0.196850
vn 0.944882 0.259843 0.196850
vn 0.944882 0.259843 0.196850
vn 0.173228 0.984252 -0.031496
vn 0.173228 0.984252 -0.031496
vn 0.173228 0.984252 -0.031496
vn 0.173228 0.984252 -0.031496
vn 0.173228 0.984252 -0.031496
vn 0.173228 0.984252 -0.031496
vn 0.614173 -0.787402 0.000000
vn 0.614173 -0.787402 0.000000
vn 0.614173 -0.787402 0.000000
vn 0.614173 -0.787402 0.000000
vn 0.614173 -0.787402 0.000000
vn 0.614173 -0.787402 0.000000
vn -0.401575 0.913386 0.000000
vn -0.401575 0.913386 0.000000
vn -0.393701 0.921260 -0.015748
vn -0.393701 0.921260 -0.015748
vn -0.385827 0.921260 -0.039370
vn -0.385827 0.921260 -0.039370
vn 0.929134 -0.362205 0.007874
vn 0.929134 -0.362205 0.007874
vn 0.929134 -0.362205 0.007874
vn 0.929134 -0.362205 0.007874
vn 0.929134 -0.362205 0.007874
vn 0.929134 -0.362205 0.007874
vn 0.685039 0.724409 0.070866
vn 0.685039 0.724409 0.070866
vn 0.685039 0.724409 0.070866
vn 0.685039 0.724409 0.070866
vn 0.685039 0.724409 0.070866
vn 0.685039 0.724409 0.070866
vn -0.078740 0.102362 0.992126
vn -0.039370 0.047244 1.000000
vn -0.118110 0.055118 0.992126
vn -0.125984 0.133858 0.984252
vn -0.047244 0.133858 0.992126
vn -0.291339 0.181102 0.937008
vn -0.220472 0.141732 0.968504
vn -0.409449 0.259843 0.874016
vn -0.188976 0.149606 0.968504
vn -0.055118 0.062992 1.000000
vn 0.015748 0.070866 1.000000
vn 0.118110 0.070866 0.992126
vn 0.110236 -0.118110 0.984252
vn -0.047244 -0.055118 1.000000
vn -0.102362 0.149606 0.984252
vn -0.102362 -0.023622 0.992126
vn -0.149606 -0.062992 0.984252
vn -0.181102 0.023622 0.984252
vn -0.110236 0.055118 0.992126
vn -0.047244 -0.023622 1.000000
vn 0.086614 0.039370 0.992126
vn 0.031496 0.086614 0.992126
vn 0.141732 0.149606 0.976378
vn 0.173228 0.039370 0.984252
vn 0.070866 -0.062992 0.992126
vn 0.023622 0.023622 1.000000
vn 0.125984 0.047244 0.992126
vn -0.031496 0.000000 1.000000
vn -0.133858 0.015748 0.992126
vn -0.039370 0.055118 1.000000
vn 0.267717 0.110236 0.960630
vn 0.291339 0.110236 0.952756
vn 0.244094 0.094488 0.968504
vn 0.236220 0.133858 0.960630
vn 0.267717 0.149606 0.952756
vn 0.015748 -0.023622 1.000000
vn -0.039370 -0.015748 1.000000
vn -0.094488 0.078740 0.992126
vn 0.000000 0.031496 1.000000
vn 0.102362 -0.078740 0.992126
vn 0.086614 -0.015748 1.000000
vn 0.023622 -0.133858 0.992126
vn -0.086614 0.125984 0.984252
vn 0.023622 0.220472 0.976378
vn 0.259843 -0.220472 0.944882
vn 0.173228 0.047244 0.984252
vn -0.165354 0.173228 0.968504
vn -0.188976 0.118110 0.976378
vn -0.275591 0.157480 0.952756
vn -0.188976 0.220472 0.952756
vn -0.078740 0.173228 0.984252
vn -0.094488 0.236220 0.968504
tan -0.007130 -0.003348 1.000744 1.000000
tan -0.007130 -0.003348 1.000744 1.000000
tan -0.007130 -0.003348 1.000744 1.000000
tan -0.007130 -0.003348 1.000744 1.000000
tan 0.055924 0.133920 0.990018 1.000000
tan 0.064976 0.146816 0.990018 1.000000
tan -0.052948 -0.020832 0.996466 1.000000
tan -0.066526 -0.040176 0.996466 1.000000
tan 0.152706 0.004836 0.991010 1.000000
tan 0.168206 0.001860 0.983260 1.000000
tan -0.033294 0.037820 0.998760 1.000000
tan -0.056792 0.041912 0.997396 1.000000
tan 0.189100 0.052700 -0.977246 1.000000
tan 0.189100 0.052700 -0.977246 1.000000
tan 0.189100 0.052700 -0.977246 1.000000
tan 0.189100 0.052700 -0.977246 1.000000
tan -0.118792 0.052576 0.989646 1.000000
tan -0.134292 0.055304 0.989646 1.000000
tan -0.002294 0.032364 0.998760 1.000000
tan 0.020956 0.028272 0.998760 1.000000
tan 0.152706 0.004836 0.991010 1.000000
tan 0.168206 0.001860 0.983260 1.000000
tan 0.000000 -0.000000 -0.997210 1.000000
tan 0.000000 -0.000000 -0.997210 1.000000
tan 0.000000 -0.000000 -0.997210 1.000000
tan 0.000000 -0.000000 -0.997210 1.000000
tan 0.000000 -0.000000 -0.997210 1.000000
tan 0.000000 -0.000000 -0.997210 1.000000
tan 0.445905 0.196044 -0.872714 1.000000
tan 0.453097 0.199206 -0.865522 1.000000
tan 0.339513 0.129084 -0.936388 1.000000
tan 0.332259 0.125984 -0.936388 1.000000
tan 0.196540 0.040300 -0.983074 1.000000
tan 0.182032 0.034224 -0.983074 1.000000
tan 0.078492 0.180110 -0.976998 1.000000
tan 0.078492 0.180110 -0.976998 1.000000
tan 0.078492 0.180110 -0.976998 1.000000
tan 0.078492 0.180110 -0.976998 1.000000
tan 0.078492 0.180110 -0.976998 1.000000
tan 0.078492 0.180110 -0.976998 1.000000
tan -0.112840 0.201810 -0.972162 1.000000
tan -0.119102 0.207204 -0.966768 1.000000
tan -0.031868 0.126852 -0.988654 1.000000
tan -0.026164 0.121458 -0.988654 1.000000
tan 0.048546 0.051336 -0.994048 1.000000
tan 0.054250 0.045942 -0.994048 1.000000
tan -0.704693 0.694029 -0.127534 1.000000
tan -0.709033 0.700477 -0.061008 1.000000
tan -0.700911 0.699919 -0.122326 1.000000
tan -0.698555 0.688759 -0.183086 1.000000
tan -0.711513 0.692293 -0.127286 1.000000
tan 0.755657 -0.552855 0.341807 1.000000
tan 0.791990 -0.558435 0.262013 1.000000
tan 0.700663 -0.529047 0.485523 1.000000
tan 0.770228 -0.587203 0.240994 1.000000
tan 0.804142 -0.597557 0.081964 1.000000
tan -0.886912 0.457809 -0.018476 1.000000
tan -0.883316 0.467047 0.071796 1.000000
tan -0.881332 0.452043 0.152954 1.000000
tan -0.885796 0.460041 -0.016492 1.000000
tan -0.880960 0.440635 -0.158596 1.000000
tan 0.976688 0.178870 0.105028 1.000000
tan 0.971232 0.172360 0.158658 1.000000
tan 0.970054 0.188232 0.173972 1.000000
tan 0.980842 0.188356 0.098518 1.000000
tan 0.984438 0.180730 0.050778 1.000000
tan 0.986484 -0.137578 -0.080662 1.000000
tan 0.984686 -0.135780 -0.019406 1.000000
tan 0.978052 -0.146444 -0.119536 1.000000
tan 0.978982 -0.142662 -0.166594 1.000000
tan 0.987290 -0.137268 -0.079236 1.000000
tan -0.646413 0.764524 -0.002790 1.000000
tan -0.646537 0.758013 0.046004 1.000000
tan -0.645669 0.764524 -0.020336 1.000000
tan -0.631285 0.770414 -0.097402 1.000000
tan -0.653977 0.763470 -0.067828 1.000000
tan -0.835390 0.532209 0.171740 1.000000
tan -0.822122 0.536239 0.189348 1.000000
tan -0.835328 0.530411 0.158782 1.000000
tan -0.833406 0.524769 0.131812 1.000000
tan -0.835266 0.529295 0.151590 1.000000
tan -0.125798 0.992250 0.025420 1.000000
tan -0.142352 0.993676 0.010044 1.000000
tan -0.118792 0.991754 -0.090024 1.000000
tan -0.118358 0.992126 -0.031248 1.000000
tan -0.118172 0.993180 0.091016 1.000000
tan 1.000248 0.040734 -0.085994 1.000000
tan 1.002232 0.034410 -0.019220 1.000000
tan 0.993366 0.073594 0.077996 1.000000
tan 1.001922 0.063984 -0.038688 1.000000
tan 0.972906 0.066774 -0.251969 1.000000
tan 0.986112 0.039680 -0.175460 1.000000
tan 0.926592 -0.302065 0.212226 1.000000
tan 0.929072 -0.304793 0.216690 1.000000
tan 0.910162 -0.297725 0.312481 1.000000
tan 0.918222 -0.301817 0.251969 1.000000
tan 0.937690 -0.314961 0.130448 1.000000
tan 0.936884 -0.317689 0.168888 1.000000
f 3/3/3 2/2/2 1/1/1
f 1/1/1 4/4/4 3/3/3
f 7/7/7 6/6/6 5/5/5
f 5/5/5 8/8/8 7/7/7
f 11/11/11 10/10/10 9/9/9
f 9/9/9 12/12/12 11/11/11
f 15/15/15 14/14/14 13/13/13
f 13/13/13 16/16/16 15/15/15
f 19/19/19 18/18/18 17/17/17
f 17/17/17 20/20/20 19/19/19
f 21/21/21 19/19/19 20/20/20
f 20/20/20 22/22/22 21/21/21
f 25/25/25 24/24/24 23/23/23
f 23/23/23 26/26/26 25/25/25
f 27/27/27 25/25/25 26/26/26
f 26/26/26 28/28/28 27/27/27
f 31/31/31 30/30/30 29/29/29
f 29/29/29 32/32/32 31/31/31
f 33/33/33 31/31/31 32/32/32
f 32/32/32 34/34/34 33/33/33
f 37/37/37 36/36/36 35/35/35
f 35/35/35 38/38/38 37/37/37
f 39/39/39 37/37/37 38/38/38
f 38/38/38 40/40/40 39/39/39
f 43/43/43 42/42/42 41/41/41
f 41/41/41 44/44/44 43/43/43
f 45/45/45 43/43/43 44/44/44
f 44/44/44 46/46/46 45/45/45
f 49/49/49 48/48/48 47/47/47
f 50/50/50 49/49/49 47/47/47
f 48/48/48 51/51/51 47/47/47
f 51/51/51 50/50/50 47/47/47
f 54/54/54 53/53/53 52/52/52
f 55/55/55 54/54/54 52/52/52
f 53/53/53 56/56/56 52/52/52
f 56/56/56 55/55/55 52/52/52
f 59/59/59 58/58/58 57/57/57
f 60/60/60 59/59/59 57/57/57
f 58/58/58 61/61/61 57/57/57
f 61/61/61 60/60/60 57/57/57
f 64/64/64 63/63/63 62/62/62
f 65/65/65 64/64/64 62/62/62
f 63/63/63 66/66/66 62/62/62
f 66/66/66 65/65/65 62/62/62
f 69/69/69 68/68/68 67/67/67
f 70/70/70 69/69/69 67/67/67
f 68/68/68 71/71/71 67/67/67
f 71/71/71 70/70/70 67/67/67
f 74/74/74 73/73/73 72/72/72
f 75/75/75 74/74/74 72/72/72
f 73/73/73 76/76/76 72/72/72
f 76/76/76 75/75/75 72/72/72
f 79/79/79 78/78/78 77/77/77
f 80/80/80 79/79/79 77/77/77
f 78/78/78 81/81/81 77/77/77
f 81/81/81 80/80/80 77/77/77
f 84/84/84 83/83/83 82/82/82
f 85/85/85 84/84/84 82/82/82
f 83/83/83 86/86/86 82/82/82
f 86/86/86 85/85/85 82/82/82
f 89/89/89 88/88/88 87/87/87
f 90/90/90 89/89/89 87/87/87
f 88/88/88 91/91/91 87/87/87
f 92/92/92 90/90/90 87/87/87
f 91/91/91 92/92/92 87/87/87
f 95/95/95 94/94/94 93/93/93
f 96/96/96 95/95/95 93/93/93
f 94/94/94 97/97/97 93/93/93
f 98/98/98 96/96/96 93/93/93
f 97/97/97 98/98/98 93/93/93
