mtllib SM_DeadLeaves_01_LOD3.mtl
g SM_DeadLeaves_01_LOD3
#Vertices 9
#Indices 24
#Section 0 Offset 0 NumIndices 24 MaterialIndex 1 MI_DeadLeavesBillboard_02
v 0.840875 0.010059 -0.015495
v 0.001873 0.878330 -0.000001
v 0.840875 0.878330 -0.000001
v -0.819463 0.010059 -0.006271
v -0.819463 0.878330 -0.000001
v 0.001873 0.010059 -0.072819
v 0.840875 -0.840564 0.000001
v -0.819463 -0.840564 0.000001
v 0.001873 -0.840564 -0.013321
vt 0.489014 0.256836
vt 0.257080 0.497070
vt 0.489014 0.497070
vt 0.029953 0.256836
vt 0.029953 0.497070
vt 0.257080 0.256836
vt 0.489014 0.021484
vt 0.029953 0.021484
vt 0.257080 0.021484
vt1 0.961914 0.504883
vt1 0.477783 0.003967
vt1 0.961914 0.003967
vt1 0.003832 0.504883
vt1 0.003832 0.003967
vt1 0.477783 0.504883
vt1 0.961914 0.995605
vt1 0.003832 0.995605
vt1 0.477783 0.995605
vn -0.039370 0.000000 1.000000
vn 0.000000 -0.047244 1.000000
vn -0.031496 -0.047244 1.000000
vn 0.047244 0.000000 1.000000
vn 0.039370 -0.047244 1.000000
vn 0.000000 0.000000 1.000000
vn -0.039370 0.047244 1.000000
vn 0.047244 0.039370 1.000000
vn 0.000000 0.039370 1.000000
tan -0.000000 -1.001550 0.000000 1.000000
tan 0.000000 -1.000000 -0.047244 1.000000
tan 0.001488 -1.000992 -0.047244 1.000000
tan 0.000000 -1.002232 -0.000000 1.000000
tan -0.001860 -1.001550 -0.047244 1.000000
tan -0.000000 -1.000000 -0.000000 1.000000
tan -0.001860 -1.001550 0.047244 1.000000
tan 0.001860 -1.002232 0.039370 1.000000
tan -0.000000 -1.000000 0.039370 1.000000
f 3/3/3 2/2/2 1/1/1
f 5/5/5 4/4/4 2/2/2
f 6/6/6 1/1/1 2/2/2
f 6/6/6 2/2/2 4/4/4
f 1/1/1 6/6/6 7/7/7
f 4/4/4 8/8/8 6/6/6
f 9/9/9 7/7/7 6/6/6
f 9/9/9 6/6/6 8/8/8
