mtllib SM_ExteriorFloorWallPlane.mtl
g SM_ExteriorFloorWallPlane
#Vertices 56
#Indices 252
#Section 0 Offset 0 NumIndices 252 MaterialIndex 0 MI_WornPavement
v -3.416522 3.171499 0.035205
v -3.416522 2.815857 0.035205
v -3.804584 3.171499 0.035205
v -3.804584 2.815857 0.035116
v -4.192646 3.171499 0.034889
v -3.416522 2.460215 0.035205
v -4.192646 2.815857 0.021520
v -4.580707 3.171499 0.032430
v -3.804584 2.460215 0.030664
v -3.416522 2.104573 0.035205
v -4.580707 2.815857 0.010918
v -4.968769 3.171499 0.034889
v -4.192646 2.460215 0.001877
v -3.804584 2.104573 0.027566
v -3.416522 1.748932 0.035205
v -4.968769 2.815857 0.021520
v -5.356831 3.171499 0.035205
v -3.804584 1.748932 0.030664
v -3.416522 1.393290 0.035205
v -4.192646 2.104573 -0.007304
v -4.580707 2.460215 -0.016085
v -3.804584 1.393290 0.035116
v -3.416522 1.037648 0.035205
v -3.804584 1.037648 0.035205
v -4.192646 1.748932 0.001877
v -4.192646 1.393290 0.021520
v -4.192646 1.037648 0.034889
v -4.580707 2.104573 -0.029357
v -4.580707 1.748932 -0.016085
v -4.580707 1.393290 0.010918
v -4.580707 1.037648 0.032430
v -4.968769 2.460215 0.001877
v -4.968769 2.104573 -0.007304
v -4.968769 1.748932 0.001877
v -4.968769 1.393290 0.021520
v -4.968769 1.037648 0.034889
v -5.356831 2.104573 0.027566
v -5.356831 1.393290 0.035116
v -5.356831 1.037648 0.035205
v -5.356831 1.748932 0.030664
v -5.744893 1.393290 0.035205
v -5.744893 1.037648 0.035205
v -6.116556 1.037648 0.035205
v -6.116556 1.393290 0.035205
v -5.744893 1.748932 0.035205
v -6.116556 1.748932 0.035205
v -5.744893 2.104573 0.035205
v -6.116556 2.104573 0.035205
v -5.356831 2.460215 0.030664
v -5.744893 2.460215 0.035205
v -6.116556 2.460215 0.035205
v -5.356831 2.815857 0.035116
v -5.744893 2.815857 0.035205
v -6.116556 2.815857 0.035205
v -5.744893 3.171499 0.035205
v -6.116556 3.171499 0.035205
vt 0.479980 0.999828
vt 0.399902 0.999852
vt 0.479980 0.912537
vt 0.399902 0.912598
vt 0.479980 0.825317
vt 0.320068 0.999874
vt 0.399902 0.825317
vt 0.479980 0.738037
vt 0.320068 0.912598
vt 0.240112 0.999890
vt 0.399902 0.738037
vt 0.479980 0.650879
vt 0.319824 0.825195
vt 0.240112 0.912598
vt 0.160034 0.999874
vt 0.399902 0.650879
vt 0.479980 0.563477
vt 0.160034 0.912598
vt 0.080078 0.999851
vt 0.240112 0.825073
vt 0.319824 0.738037
vt 0.080078 0.912598
vt 0.000110 0.999826
vt 0.000137 0.912537
vt 0.160156 0.825195
vt 0.080200 0.825317
vt 0.000166 0.825317
vt 0.240112 0.738037
vt 0.160400 0.738037
vt 0.080261 0.738037
vt 0.000183 0.738037
vt 0.319824 0.650879
vt 0.240112 0.650879
vt 0.160156 0.650879
vt 0.080200 0.650879
vt 0.000171 0.650879
vt 0.240112 0.563477
vt 0.080139 0.563477
vt 0.000149 0.563477
vt 0.160034 0.563477
vt 0.080078 0.476074
vt 0.000131 0.476074
vt 0.000116 0.392578
vt 0.080078 0.392578
vt 0.160034 0.476074
vt 0.160034 0.392578
vt 0.240112 0.476074
vt 0.240112 0.392578
vt 0.320068 0.563477
vt 0.320068 0.476074
vt 0.320068 0.392578
vt 0.399902 0.563477
vt 0.399902 0.476074
vt 0.399902 0.392578
vt 0.479980 0.476074
vt 0.479980 0.392578
vt1 0.991699 0.008163
vt1 0.827637 0.008125
vt1 0.991699 0.149536
vt1 0.827637 0.149414
vt1 0.991699 0.290771
vt1 0.663574 0.008087
vt1 0.827637 0.290771
vt1 0.991699 0.432129
vt1 0.663574 0.149414
vt1 0.500000 0.008064
vt1 0.827148 0.432129
vt1 0.991699 0.573242
vt1 0.663574 0.291016
vt1 0.500000 0.149414
vt1 0.335938 0.008087
vt1 0.827637 0.573242
vt1 0.991699 0.714844
vt1 0.335938 0.149414
vt1 0.171997 0.008125
vt1 0.500000 0.291016
vt1 0.663086 0.432129
vt1 0.171997 0.149414
vt1 0.008064 0.008163
vt1 0.008118 0.149536
vt1 0.336182 0.291016
vt1 0.172241 0.290771
vt1 0.008179 0.290771
vt1 0.500000 0.432129
vt1 0.336426 0.432129
vt1 0.172363 0.432129
vt1 0.008209 0.432129
vt1 0.663574 0.573242
vt1 0.500000 0.573242
vt1 0.336182 0.573242
vt1 0.172241 0.573242
vt1 0.008186 0.573242
vt1 0.500000 0.714844
vt1 0.171997 0.714844
vt1 0.008141 0.714844
vt1 0.335938 0.714844
vt1 0.171997 0.856445
vt1 0.008102 0.856445
vt1 0.008072 0.991699
vt1 0.171997 0.991699
vt1 0.335938 0.856445
vt1 0.335938 0.991699
vt1 0.500000 0.856445
vt1 0.500000 0.991699
vt1 0.663574 0.714844
vt1 0.663574 0.856445
vt1 0.663574 0.991699
vt1 0.827637 0.714844
vt1 0.827637 0.856445
vt1 0.827637 0.991699
vt1 0.991699 0.856445
vt1 0.991699 0.991699
vn 0.000000 0.000000 1.000000
vn 0.000000 0.000000 1.000000
vn -0.007874 -0.007874 1.000000
vn -0.015748 -0.015748 1.000000
vn -0.015748 -0.031496 1.000000
vn -0.007874 -0.007874 1.000000
vn -0.031496 -0.039370 1.000000
vn 0.000000 -0.047244 1.000000
vn -0.039370 -0.015748 1.000000
vn -0.015748 0.000000 1.000000
vn 0.000000 -0.055118 1.000000
vn 0.015748 -0.031496 1.000000
vn -0.055118 -0.039370 1.000000
vn -0.047244 0.000000 1.000000
vn -0.007874 0.007874 1.000000
vn 0.031496 -0.039370 1.000000
vn 0.007874 -0.007874 1.000000
vn -0.039370 0.015748 1.000000
vn 0.000000 0.000000 1.000000
vn -0.062992 0.000000 1.000000
vn 0.000000 -0.047244 1.000000
vn -0.015748 0.015748 1.000000
vn 0.000000 0.000000 1.000000
vn -0.007874 0.007874 1.000000
vn -0.055118 0.039370 1.000000
vn -0.031496 0.039370 1.000000
vn -0.015748 0.031496 1.000000
vn 0.000000 0.000000 1.000000
vn 0.000000 0.047244 1.000000
vn 0.000000 0.055118 1.000000
vn 0.000000 0.047244 1.000000
vn 0.055118 -0.039370 1.000000
vn 0.062992 0.000000 1.000000
vn 0.055118 0.039370 1.000000
vn 0.031496 0.039370 1.000000
vn 0.015748 0.031496 1.000000
vn 0.047244 0.000000 1.000000
vn 0.015748 0.015748 1.000000
vn 0.007874 0.007874 1.000000
vn 0.039370 0.015748 1.000000
vn 0.000000 0.000000 1.000000
vn 0.000000 0.000000 1.000000
vn 0.000000 0.000000 1.000000
vn 0.000000 0.000000 1.000000
vn 0.007874 0.000000 1.000000
vn 0.000000 0.000000 1.000000
vn 0.007874 0.000000 1.000000
vn 0.000000 0.000000 1.000000
vn 0.039370 -0.015748 1.000000
vn 0.007874 0.000000 1.000000
vn 0.000000 0.000000 1.000000
vn 0.015748 -0.015748 1.000000
vn 0.000000 0.000000 1.000000
vn 0.000000 0.000000 1.000000
vn 0.000000 0.000000 1.000000
vn 0.000000 0.000000 1.000000
tan -1.000000 0.000000 0.000000 1.000000
tan -1.000000 0.000000 0.000000 1.000000
tan -1.000062 0.000062 -0.007874 1.000000
tan -1.000248 0.000248 -0.015748 1.000000
tan -1.000992 0.000496 -0.015748 1.000000
tan -1.000062 0.000062 -0.007874 1.000000
tan -1.001550 0.001240 -0.031496 1.000000
tan -1.002232 0.000000 0.000000 1.000000
tan -1.000248 0.000620 -0.039370 1.000000
tan -1.000000 0.000000 -0.015748 1.000000
tan -1.003038 0.000000 0.000000 1.000000
tan -1.000992 -0.000496 0.015748 1.000000
tan -1.001550 0.002170 -0.055118 1.000000
tan -1.000000 0.000000 -0.047244 1.000000
tan -1.000062 -0.000062 -0.007874 1.000000
tan -1.001550 -0.001240 0.031496 1.000000
tan -1.000062 -0.000062 0.007874 1.000000
tan -1.000248 -0.000620 -0.039370 1.000000
tan -1.000000 0.000000 0.000000 1.000000
tan -1.000000 0.000000 -0.062992 1.000000
tan -1.002232 0.000000 0.000000 1.000000
tan -1.000248 -0.000248 -0.015748 1.000000
tan -1.000000 0.000000 0.000000 1.000000
tan -1.000062 -0.000062 -0.007874 1.000000
tan -1.001550 -0.002170 -0.055118 1.000000
tan -1.001550 -0.001240 -0.031496 1.000000
tan -1.000992 -0.000496 -0.015748 1.000000
tan -1.000000 0.000000 0.000000 1.000000
tan -1.002232 0.000000 0.000000 1.000000
tan -1.003038 0.000000 0.000000 1.000000
tan -1.002232 0.000000 0.000000 1.000000
tan -1.001550 -0.002170 0.055118 1.000000
tan -1.000000 0.000000 0.062992 1.000000
tan -1.001550 0.002170 0.055118 1.000000
tan -1.001550 0.001240 0.031496 1.000000
tan -1.000992 0.000496 0.015748 1.000000
tan -1.000000 0.000000 0.047244 1.000000
tan -1.000248 0.000248 0.015748 1.000000
tan -1.000062 0.000062 0.007874 1.000000
tan -1.000248 0.000620 0.039370 1.000000
tan -1.000000 0.000000 0.000000 1.000000
tan -1.000000 0.000000 0.000000 1.000000
tan -1.000000 0.000000 0.000000 1.000000
tan -1.000000 0.000000 0.000000 1.000000
tan -1.000000 0.000000 0.007874 1.000000
tan -1.000000 0.000000 0.000000 1.000000
tan -1.000000 0.000000 0.007874 1.000000
tan -1.000000 0.000000 0.000000 1.000000
tan -1.000248 -0.000620 0.039370 1.000000
tan -1.000000 0.000000 0.007874 1.000000
tan -1.000000 0.000000 0.000000 1.000000
tan -1.000248 -0.000248 0.015748 1.000000
tan -1.000000 0.000000 0.000000 1.000000
tan -1.000000 0.000000 0.000000 1.000000
tan -1.000000 0.000000 0.000000 1.000000
tan -1.000000 0.000000 0.000000 1.000000
f 3/3/3 2/2/2 1/1/1
f 4/4/4 2/2/2 3/3/3
f 3/3/3 5/5/5 4/4/4
f 4/4/4 6/6/6 2/2/2
f 7/7/7 4/4/4 5/5/5
f 8/8/8 7/7/7 5/5/5
f 9/9/9 6/6/6 4/4/4
f 7/7/7 9/9/9 4/4/4
f 9/9/9 10/10/10 6/6/6
f 11/11/11 7/7/7 8/8/8
f 12/12/12 11/11/11 8/8/8
f 13/13/13 9/9/9 7/7/7
f 11/11/11 13/13/13 7/7/7
f 14/14/14 10/10/10 9/9/9
f 13/13/13 14/14/14 9/9/9
f 10/10/10 14/14/14 15/15/15
f 16/16/16 11/11/11 12/12/12
f 17/17/17 16/16/16 12/12/12
f 18/18/18 15/15/15 14/14/14
f 18/18/18 19/19/19 15/15/15
f 20/20/20 14/14/14 13/13/13
f 20/20/20 18/18/18 14/14/14
f 21/21/21 13/13/13 11/11/11
f 21/21/21 20/20/20 13/13/13
f 16/16/16 21/21/21 11/11/11
f 22/22/22 19/19/19 18/18/18
f 22/22/22 23/23/23 19/19/19
f 24/24/24 23/23/23 22/22/22
f 18/18/18 25/25/25 22/22/22
f 25/25/25 18/18/18 20/20/20
f 26/26/26 24/24/24 22/22/22
f 26/26/26 22/22/22 25/25/25
f 27/27/27 24/24/24 26/26/26
f 28/28/28 25/25/25 20/20/20
f 28/28/28 20/20/20 21/21/21
f 29/29/29 26/26/26 25/25/25
f 29/29/29 25/25/25 28/28/28
f 30/30/30 27/27/27 26/26/26
f 30/30/30 26/26/26 29/29/29
f 31/31/31 27/27/27 30/30/30
f 21/21/21 32/32/32 28/28/28
f 32/32/32 21/21/21 16/16/16
f 33/33/33 29/29/29 28/28/28
f 33/33/33 28/28/28 32/32/32
f 34/34/34 30/30/30 29/29/29
f 34/34/34 29/29/29 33/33/33
f 35/35/35 31/31/31 30/30/30
f 35/35/35 30/30/30 34/34/34
f 36/36/36 31/31/31 35/35/35
f 37/37/37 34/34/34 33/33/33
f 38/38/38 36/36/36 35/35/35
f 39/39/39 36/36/36 38/38/38
f 40/40/40 35/35/35 34/34/34
f 38/38/38 35/35/35 40/40/40
f 40/40/40 34/34/34 37/37/37
f 41/41/41 39/39/39 38/38/38
f 38/38/38 40/40/40 41/41/41
f 42/42/42 39/39/39 41/41/41
f 43/43/43 42/42/42 41/41/41
f 43/43/43 41/41/41 44/44/44
f 45/45/45 41/41/41 40/40/40
f 44/44/44 41/41/41 45/45/45
f 40/40/40 37/37/37 45/45/45
f 44/44/44 45/45/45 46/46/46
f 46/46/46 45/45/45 47/47/47
f 47/47/47 45/45/45 37/37/37
f 46/46/46 47/47/47 48/48/48
f 37/37/37 49/49/49 47/47/47
f 37/37/37 33/33/33 49/49/49
f 32/32/32 49/49/49 33/33/33
f 48/48/48 47/47/47 50/50/50
f 50/50/50 47/47/47 49/49/49
f 48/48/48 50/50/50 51/51/51
f 49/49/49 32/32/32 52/52/52
f 49/49/49 52/52/52 50/50/50
f 16/16/16 52/52/52 32/32/32
f 52/52/52 16/16/16 17/17/17
f 51/51/51 50/50/50 53/53/53
f 53/53/53 50/50/50 52/52/52
f 52/52/52 17/17/17 53/53/53
f 51/51/51 53/53/53 54/54/54
f 55/55/55 53/53/53 17/17/17
f 54/54/54 53/53/53 55/55/55
f 54/54/54 55/55/55 56/56/56
