mtllib SM_NoddingViolet_01_LOD4.mtl
g SM_NoddingViolet_01_LOD4
#Vertices 6
#Indices 12
#Section 0 Offset 0 NumIndices 12 MaterialIndex 1 MI_NoddingVioletBillboard
v 0.285587 -0.000000 1.425081 1.000000 0.000000 0.000000 1.000000
v -0.145460 -0.000000 1.443509 1.000000 0.000000 0.000000 1.000000
v -0.130411 -0.000000 0.934587 1.000000 0.000000 0.000000 1.000000
v 0.216674 -0.000000 0.899146 1.000000 0.000000 0.000000 1.000000
v -0.112491 -0.000000 -0.010961 0.000000 1.000000 0.000000 1.000000
v 0.120867 -0.000000 -0.025137 0.000000 1.000000 0.000000 1.000000
vt 0.281738 0.922363
vt 0.023285 0.933472
vt 0.032318 0.628174
vt 0.240479 0.606934
vt 0.043060 0.061035
vt 0.182983 0.052246
vt1 0.007290 0.701660
vt1 0.004997 0.994629
vt1 0.349854 0.972656
vt1 0.365479 0.736328
vt1 0.990723 0.937988
vt1 0.994629 0.779297
vn 0.000000 1.000000 0.000000
vn 0.000000 1.000000 0.000000
vn 0.000000 1.000000 0.000000
vn 0.000000 1.000000 0.000000
vn 0.000000 1.000000 0.000000
vn 0.000000 1.000000 0.000000
tan 0.000000 0.000000 -1.000000 1.000000
tan 0.000000 0.000000 -1.000000 1.000000
tan 0.000000 0.000000 -1.000000 1.000000
tan 0.000000 0.000000 -1.000000 1.000000
tan 0.000000 0.000000 -1.000000 1.000000
tan 0.000000 0.000000 -1.000000 1.000000
f 3/3/3 2/2/2 1/1/1
f 1/1/1 4/4/4 3/3/3
f 5/5/5 3/3/3 4/4/4
f 4/4/4 6/6/6 5/5/5
