mtllib SM_AcaciaDeadLeaves_03_LOD2.mtl
g SM_AcaciaDeadLeaves_03_LOD2
#Vertices 61
#Indices 99
#Section 0 Offset 0 NumIndices 99 MaterialIndex 0 MI_Acacia_01
v -0.082384 0.165657 0.000000 0.000000 0.427451 0.000000 1.000000
v -0.061115 0.257587 0.007441 0.000000 0.427451 0.000000 1.000000
v -0.108454 0.190796 0.000000 0.000000 0.427451 0.000000 1.000000
v -0.015634 0.191807 0.005128 0.000000 0.427451 0.000000 1.000000
v -0.081553 -0.126972 0.000000 0.000000 0.427451 0.000000 1.000000
v -0.184244 -0.084914 0.007382 0.000000 0.427451 0.000000 1.000000
v -0.120418 -0.144531 0.000000 0.000000 0.427451 0.000000 1.000000
v -0.125426 -0.021791 0.013814 0.000000 0.427451 0.000000 1.000000
v -0.166910 0.205469 0.013599 0.000000 0.427451 0.000000 1.000000
v -0.122810 0.072941 0.000000 0.000000 0.427451 0.000000 1.000000
v -0.067159 0.190076 0.017323 0.000000 0.427451 0.000000 1.000000
v -0.171303 0.088379 0.000000 0.000000 0.427451 0.000000 1.000000
v 0.450975 -0.121271 0.062535 0.000000 0.427451 0.000000 1.000000
v 0.230076 0.010743 -0.000000 0.000000 0.427451 0.000000 1.000000
v 0.452492 -0.051768 0.050435 0.000000 0.427451 0.000000 1.000000
v 0.243885 0.041441 -0.000000 0.000000 0.427451 0.000000 1.000000
v -0.174994 0.009107 -0.000000 0.000000 0.427451 0.000000 1.000000
v -0.160023 -0.043632 -0.000000 0.000000 0.427451 0.000000 1.000000
v -0.201927 0.013328 0.010054 0.000000 0.427451 0.000000 1.000000
v -0.152167 -0.037121 -0.000000 0.000000 0.427451 0.000000 1.000000
v -0.222500 0.161969 0.017209 0.000000 0.427451 0.000000 1.000000
v -0.247625 0.082766 -0.000000 0.000000 0.427451 0.000000 1.000000
v -0.260660 0.181069 0.026671 0.000000 0.427451 0.000000 1.000000
v -0.233006 0.083662 -0.000000 0.000000 0.427451 0.000000 1.000000
v -0.099000 0.216427 -0.000000 0.000000 0.427451 0.000000 1.000000
v -0.180964 0.168016 0.016352 0.000000 0.427451 0.000000 1.000000
v -0.192096 0.197157 0.017682 0.000000 0.427451 0.000000 1.000000
v -0.095472 0.202556 -0.000000 0.000000 0.427451 0.000000 1.000000
v 0.144549 0.024097 -0.000000 0.000000 0.427451 0.000000 1.000000
v 0.212752 -0.035497 0.017821 0.000000 0.427451 0.000000 1.000000
v 0.184090 -0.057983 0.019639 0.000000 0.427451 0.000000 1.000000
v 0.156244 0.031396 -0.000000 0.000000 0.427451 0.000000 1.000000
v 0.355094 0.103125 0.000860 0.000000 0.427451 0.000000 1.000000
v 0.384370 0.024443 -0.000000 0.000000 0.427451 0.000000 1.000000
v 0.313433 0.096938 0.004537 0.000000 0.427451 0.000000 1.000000
v 0.395125 0.033644 -0.000000 0.000000 0.427451 0.000000 1.000000
v 0.132798 -0.019502 0.002377 0.000000 0.427451 0.000000 1.000000
v 0.095095 0.041144 -0.000000 0.000000 0.427451 0.000000 1.000000
v 0.159912 -0.004627 0.004996 0.000000 0.427451 0.000000 1.000000
v 0.088865 0.033980 -0.000000 0.000000 0.427451 0.000000 1.000000
v 0.140516 -0.064214 -0.000000 0.000000 0.427451 0.000000 1.000000
v 0.076512 -0.028894 0.009588 0.000000 0.427451 0.000000 1.000000
v 0.142472 -0.054432 -0.000000 0.000000 0.427451 0.000000 1.000000
v 0.060377 -0.056757 0.014744 0.000000 0.427451 0.000000 1.000000
v 0.102490 -0.109999 -0.000000 0.000000 0.427451 0.000000 1.000000
v -0.036855 -0.078874 0.017492 0.000000 0.427451 0.000000 1.000000
v 0.108189 -0.102558 -0.000000 0.000000 0.427451 0.000000 1.000000
v 0.015492 0.098059 0.030351 0.000000 0.427451 0.000000 1.000000
v -0.147427 0.042881 0.004220 0.000000 0.427451 0.000000 1.000000
v 0.088649 0.283404 -0.000000 0.000000 0.427451 0.000000 1.000000
v 0.213688 0.005013 0.033838 0.000000 0.427451 0.000000 1.000000
v 0.045721 0.098913 -0.000000 0.000000 0.427451 0.000000 1.000000
v 0.341315 0.324617 0.054025 0.000000 0.427451 0.000000 1.000000
v 0.377929 0.134101 0.003018 0.000000 0.427451 0.000000 1.000000
v 0.327993 -0.005176 0.022156 0.000000 0.427451 0.000000 1.000000
v -0.162534 -0.058108 0.000000 0.000000 0.427451 0.000000 1.000000
v -0.087909 0.067077 0.021694 0.000000 0.427451 0.000000 1.000000
v -0.182250 -0.047875 0.000000 0.000000 0.427451 0.000000 1.000000
v -0.069145 0.058148 0.021895 0.000000 0.427451 0.000000 1.000000
v -0.046180 0.190632 0.004993 0.000000 0.427451 0.000000 1.000000
v -0.058027 0.195791 0.004979 0.000000 0.427451 0.000000 1.000000
vt 0.202271 0.216309
vt 0.242920 0.240723
vt 0.202271 0.234375
vt 0.234985 0.201660
vt 0.261963 0.207520
vt 0.302490 0.245605
vt 0.261963 0.229004
vt 0.319336 0.206055
vt 0.348633 0.191406
vt 0.392822 0.245605
vt 0.327881 0.237305
vt 0.399414 0.221191
vt 0.850098 0.372559
vt 0.863281 0.239746
vt 0.881836 0.357422
vt 0.880371 0.239746
vt 0.108948 0.076172
vt 0.124207 0.041016
vt 0.121826 0.092285
vt 0.117004 0.041016
vt 0.197876 0.085938
vt 0.216919 0.032227
vt 0.222290 0.101074
vt 0.207397 0.032715
vt 0.131592 0.037598
vt 0.147461 0.091309
vt 0.129761 0.093750
vt 0.139771 0.037109
vt 0.165649 0.044922
vt 0.179688 0.091309
vt 0.161133 0.093750
vt 0.172729 0.044922
vt 0.197876 0.085938
vt 0.216919 0.032227
vt 0.222290 0.101074
vt 0.207397 0.032715
vt 0.063110 0.091309
vt 0.075500 0.048828
vt 0.080933 0.097656
vt 0.069702 0.049316
vt 0.075500 0.048828
vt 0.063110 0.091309
vt 0.069702 0.049316
vt 0.080933 0.097656
vt 0.698242 0.253418
vt 0.728516 0.318848
vt 0.693359 0.253906
vt 0.643066 0.354492
vt 0.714844 0.403809
vt 0.556152 0.189941
vt 0.435791 0.285645
vt 0.461426 0.190918
vt 0.605957 0.312012
vt 0.518066 0.365234
vt 0.444336 0.353027
vt 0.754395 0.162598
vt 0.680664 0.166992
vt 0.754395 0.151367
vt 0.680176 0.177246
vt 0.612305 0.156738
vt 0.612793 0.150391
vt1 0.855957 0.027603
vt1 0.994629 0.228394
vt1 0.844238 0.106628
vt1 0.989746 0.038757
vt1 0.058350 0.075928
vt1 0.187378 0.192505
vt1 0.036835 0.140259
vt1 0.296631 0.073181
vt1 0.974609 0.669922
vt1 0.905762 0.984375
vt1 0.818848 0.706543
vt1 0.981934 0.947754
vt1 0.727539 0.874023
vt1 0.929199 0.369385
vt1 0.640625 0.702148
vt1 0.869141 0.303955
vt1 0.565430 0.404297
vt1 0.690430 0.427734
vt1 0.555176 0.362061
vt1 0.674805 0.439941
vt1 0.771973 0.021027
vt1 0.599609 0.057037
vt1 0.813477 0.075684
vt1 0.601562 0.036072
vt1 0.419922 0.266113
vt1 0.274170 0.135376
vt1 0.254395 0.214111
vt1 0.426270 0.228760
vt1 0.608887 0.670410
vt1 0.695312 0.514648
vt1 0.643066 0.467773
vt1 0.629395 0.685059
vt1 0.489014 0.924805
vt1 0.301025 0.986816
vt1 0.511719 0.989746
vt1 0.311035 0.960449
vt1 0.068176 0.992676
vt1 0.017059 0.833008
vt1 0.008759 0.993164
vt1 0.036865 0.840332
vt1 0.385498 0.920898
vt1 0.507812 0.818359
vt1 0.381836 0.892578
vt1 0.538574 0.899414
vt1 0.399902 0.038239
vt1 0.476074 0.262695
vt1 0.417969 0.029053
vt1 0.909180 0.178345
vt1 0.774414 0.440918
vt1 0.471436 0.290039
vt1 0.275146 0.954590
vt1 0.538574 0.730469
vt1 0.074768 0.191772
vt1 0.017273 0.646484
vt1 0.095642 0.979004
vt1 0.690430 0.941895
vt1 0.580078 0.660156
vt1 0.719238 0.918457
vt1 0.552246 0.680176
vt1 0.518066 0.382812
vt1 0.535645 0.371094
vn 0.055118 0.070866 -1.000000
vn 0.055118 0.070866 -1.000000
vn 0.055118 0.070866 -1.000000
vn 0.055118 0.070866 -1.000000
vn -0.023622 0.110236 -0.992126
vn -0.023622 0.110236 -0.992126
vn -0.023622 0.110236 -0.992126
vn -0.023622 0.110236 -0.992126
vn 0.047244 0.118110 -0.992126
vn 0.047244 0.118110 -0.992126
vn 0.047244 0.118110 -0.992126
vn 0.047244 0.118110 -0.992126
vn -0.181102 0.141732 0.976378
vn -0.181102 0.141732 0.976378
vn -0.181102 0.141732 0.976378
vn -0.181102 0.141732 0.976378
vn 0.275591 0.078740 0.960630
vn 0.275591 0.078740 0.960630
vn 0.275591 0.078740 0.960630
vn 0.275591 0.078740 0.960630
vn 0.094488 -0.236220 0.968504
vn 0.094488 -0.236220 0.968504
vn 0.094488 -0.236220 0.968504
vn 0.094488 -0.236220 0.968504
vn 0.181102 0.031496 0.984252
vn 0.181102 0.031496 0.984252
vn 0.181102 0.031496 0.984252
vn 0.181102 0.031496 0.984252
vn -0.094488 0.188976 0.976378
vn -0.094488 0.188976 0.976378
vn -0.094488 0.188976 0.976378
vn -0.094488 0.188976 0.976378
vn 0.062992 0.015748 1.000000
vn 0.062992 0.015748 1.000000
vn 0.062992 0.015748 1.000000
vn 0.062992 0.015748 1.000000
vn -0.070866 -0.007874 1.000000
vn -0.070866 -0.007874 1.000000
vn -0.070866 -0.007874 1.000000
vn -0.070866 -0.007874 1.000000
vn 0.173228 0.047244 0.984252
vn 0.173228 0.047244 0.984252
vn 0.173228 0.047244 0.984252
vn 0.173228 0.047244 0.984252
vn 0.102362 -0.102362 0.992126
vn 0.102362 -0.102362 0.992126
vn 0.102362 -0.102362 0.992126
vn 0.102362 -0.102362 0.992126
vn -0.149606 -0.031496 0.992126
vn -0.204724 0.031496 0.976378
vn -0.204724 0.031496 0.976378
vn -0.204724 0.031496 0.976378
vn -0.204724 0.031496 0.976378
vn 0.259843 -0.102362 0.960630
vn 0.259843 -0.102362 0.960630
vn 0.070866 0.125984 -0.992126
vn 0.070866 0.125984 -0.992126
vn 0.070866 0.125984 -0.992126
vn 0.070866 0.125984 -0.992126
vn -0.047244 -0.118110 -0.992126
vn -0.047244 -0.118110 -0.992126
tan 0.722673 -0.697687 -0.009610 1.000000
tan 0.722673 -0.697687 -0.009610 1.000000
tan 0.722673 -0.697687 -0.009610 1.000000
tan 0.722673 -0.697687 -0.009610 1.000000
tan 0.910534 0.408829 0.023746 1.000000
tan 0.910534 0.408829 0.023746 1.000000
tan 0.910534 0.408829 0.023746 1.000000
tan 0.910534 0.408829 0.023746 1.000000
tan -0.842954 0.537169 0.023808 1.000000
tan -0.842954 0.537169 0.023808 1.000000
tan -0.842954 0.537169 0.023808 1.000000
tan -0.842954 0.537169 0.023808 1.000000
tan -0.884246 0.412859 -0.223944 1.000000
tan -0.884246 0.412859 -0.223944 1.000000
tan -0.884246 0.412859 -0.223944 1.000000
tan -0.884246 0.412859 -0.223944 1.000000
tan 0.655217 -0.750202 -0.126480 1.000000
tan 0.633145 -0.767500 -0.118730 1.000000
tan 0.655217 -0.742638 -0.127100 1.000000
tan 0.625581 -0.775064 -0.115940 1.000000
tan 0.042408 -0.968318 -0.240312 1.000000
tan 0.050034 -0.968318 -0.241056 1.000000
tan 0.042408 -0.968318 -0.240312 1.000000
tan 0.050034 -0.968318 -0.241056 1.000000
tan 0.952756 0.235352 -0.182838 1.000000
tan 0.952756 0.235352 -0.182838 1.000000
tan 0.952756 0.235352 -0.182838 1.000000
tan 0.952756 0.235352 -0.182838 1.000000
tan -0.510385 0.836506 -0.211296 1.000000
tan -0.510385 0.836506 -0.211296 1.000000
tan -0.510385 0.836506 -0.211296 1.000000
tan -0.510385 0.836506 -0.211296 1.000000
tan 0.646661 -0.767748 -0.028644 1.000000
tan 0.646661 -0.767748 -0.028644 1.000000
tan 0.646661 -0.767748 -0.028644 1.000000
tan 0.646661 -0.767748 -0.028644 1.000000
tan -0.748465 0.665323 -0.047802 1.000000
tan -0.748465 0.665323 -0.047802 1.000000
tan -0.748465 0.665323 -0.047802 1.000000
tan -0.748465 0.665323 -0.047802 1.000000
tan 0.965094 -0.201004 -0.160208 1.000000
tan 0.965094 -0.201004 -0.160208 1.000000
tan 0.965094 -0.201004 -0.160208 1.000000
tan 0.965094 -0.193254 -0.160580 1.000000
tan 0.782814 -0.615537 -0.144274 1.000000
tan 0.782814 -0.607725 -0.143468 1.000000
tan 0.775002 -0.615537 -0.143468 1.000000
tan 0.782814 -0.607725 -0.143468 1.000000
tan 0.777110 -0.627007 0.097278 1.000000
tan -0.952818 0.226176 -0.207080 1.000000
tan -0.952818 0.218488 -0.206832 1.000000
tan -0.945130 0.233864 -0.205716 1.000000
tan -0.944882 0.243164 -0.205964 1.000000
tan -0.934404 0.224254 0.276645 1.000000
tan -0.934404 0.231818 0.277451 1.000000
tan -0.893794 0.463699 -0.004960 1.000000
tan -0.893794 0.463699 -0.004960 1.000000
tan -0.893794 0.463699 -0.004960 1.000000
tan -0.893794 0.463699 -0.004960 1.000000
tan -0.889826 0.459049 -0.012276 1.000000
tan -0.889826 0.459049 -0.012276 1.000000
f 3/3/3 2/2/2 1/1/1
f 4/4/4 1/1/1 2/2/2
f 7/7/7 6/6/6 5/5/5
f 8/8/8 5/5/5 6/6/6
f 11/11/11 10/10/10 9/9/9
f 12/12/12 9/9/9 10/10/10
f 15/15/15 14/14/14 13/13/13
f 16/16/16 14/14/14 15/15/15
f 19/19/19 18/18/18 17/17/17
f 20/20/20 17/17/17 18/18/18
f 23/23/23 22/22/22 21/21/21
f 24/24/24 21/21/21 22/22/22
f 27/27/27 26/26/26 25/25/25
f 28/28/28 25/25/25 26/26/26
f 31/31/31 30/30/30 29/29/29
f 32/32/32 29/29/29 30/30/30
f 35/35/35 34/34/34 33/33/33
f 36/36/36 33/33/33 34/34/34
f 39/39/39 38/38/38 37/37/37
f 40/40/40 37/37/37 38/38/38
f 43/43/43 42/42/42 41/41/41
f 44/44/44 41/41/41 42/42/42
f 47/47/47 46/46/46 45/45/45
f 47/47/47 48/48/48 46/46/46
f 49/49/49 46/46/46 48/48/48
f 52/52/52 51/51/51 50/50/50
f 53/53/53 50/50/50 51/51/51
f 54/54/54 53/53/53 51/51/51
f 55/55/55 54/54/54 51/51/51
f 58/58/58 57/57/57 56/56/56
f 59/59/59 56/56/56 57/57/57
f 59/59/59 57/57/57 60/60/60
f 60/60/60 57/57/57 61/61/61
