mtllib SM_Acacia_05_LOD3.mtl
g SM_Acacia_05_LOD3
#Vertices 4
#Indices 6
#Section 0 Offset 0 NumIndices 6 MaterialIndex 1 MI_AcaciaBillboard
v -0.100833 0.000000 0.542992 0.905882 0.478431 0.000000 1.000000
v 0.148791 -0.000000 -0.003112 0.000000 1.000000 0.000000 1.000000
v 0.238988 0.000000 0.526110 0.905882 0.478431 0.000000 1.000000
v -0.124581 -0.000000 -0.003112 0.000000 0.439216 0.000000 1.000000
vt 0.652344 0.683105
vt 0.769043 0.426270
vt 0.811523 0.675293
vt 0.641113 0.426270
vt1 0.009995 0.925781
vt1 0.989746 0.252930
vt1 0.040283 0.009995
vt1 0.989746 0.989746
vn 0.000000 1.000000 0.000000
vn 0.000000 1.000000 0.000000
vn 0.000000 1.000000 0.000000
vn 0.000000 1.000000 0.000000
tan 0.000000 0.000000 -1.000000 1.000000
tan 0.000000 0.000000 -1.000000 1.000000
tan 0.000000 0.000000 -1.000000 1.000000
tan 0.000000 0.000000 -1.000000 1.000000
f 3/3/3 2/2/2 1/1/1
f 4/4/4 1/1/1 2/2/2
