mtllib SM_Acacia_02_LOD1.mtl
g SM_Acacia_02_LOD1
#Vertices 117
#Indices 321
#Section 0 Offset 0 NumIndices 321 MaterialIndex 0 MI_Acacia_01
v -0.054399 -0.001578 0.197154 1.000000 1.000000 0.000000 1.000000
v -0.075120 0.119254 0.180767 1.000000 1.000000 0.000000 1.000000
v -0.000559 0.027169 0.114218 0.000000 1.000000 0.000000 1.000000
v 0.013239 0.160096 0.488004 0.000000 0.000000 0.000000 1.000000
v -0.021362 0.201478 0.579967 0.000000 0.000000 0.000000 1.000000
v 0.097616 0.131941 0.492927 0.000000 0.000000 0.000000 1.000000
v 0.032307 0.137291 0.437325 0.000000 0.000000 0.000000 1.000000
v 0.145653 0.094743 0.429386 0.000000 0.000000 0.000000 1.000000
v 0.068163 0.095702 0.357762 0.000000 0.000000 0.000000 1.000000
v 0.017794 0.113939 0.358816 0.000000 0.000000 0.000000 1.000000
v 0.012304 0.072752 0.267148 0.000000 0.000000 0.000000 1.000000
v -0.002221 0.077776 0.266892 0.000000 0.000000 0.000000 1.000000
v -0.051594 0.068990 0.477806 0.000000 0.000000 0.000000 1.000000
v -0.019162 -0.030501 0.438581 0.000000 0.000000 0.000000 1.000000
v -0.053154 0.003953 0.564841 0.000000 0.000000 0.000000 1.000000
v -0.030396 0.071363 0.373805 0.000000 0.000000 0.000000 1.000000
v -0.011135 0.008048 0.358848 0.000000 0.000000 0.000000 1.000000
v 0.008023 0.064657 0.242882 0.000000 0.000000 0.000000 1.000000
v 0.005687 0.074723 0.242239 0.000000 0.000000 0.000000 1.000000
v 0.024714 -0.085371 0.223041 1.000000 0.788235 0.000000 1.000000
v -0.028451 -0.002442 0.343105 1.000000 0.788235 0.000000 1.000000
v -0.040488 0.062830 0.232219 1.000000 0.788235 0.000000 1.000000
v -0.013953 0.022315 0.179800 0.588235 0.788235 0.000000 1.000000
v 0.016592 -0.043547 0.164878 0.513726 0.788235 0.000000 1.000000
v 0.007238 0.008638 0.102905 0.000000 0.788235 0.000000 1.000000
v -0.005284 0.033345 0.114130 0.000000 0.788235 0.000000 1.000000
v -0.021199 0.147855 0.315795 1.000000 0.788235 0.000000 1.000000
v -0.091492 0.211273 0.307173 1.000000 0.788235 0.000000 1.000000
v -0.037073 0.183590 0.367972 1.000000 0.788235 0.000000 1.000000
v 0.001883 0.088858 0.236684 0.560784 0.788235 0.000000 1.000000
v -0.095099 0.171075 0.203385 0.572549 0.788235 0.000000 1.000000
v -0.009612 0.048235 0.149687 0.000000 0.788235 0.000000 1.000000
v 0.003987 0.040884 0.162189 0.000000 0.788235 0.000000 1.000000
v 0.115526 0.080176 0.421498 1.000000 0.345098 0.000000 1.000000
v 0.094317 0.061924 0.525247 1.000000 0.345098 0.000000 1.000000
v 0.020593 0.037122 0.467125 1.000000 0.345098 0.000000 1.000000
v -0.031691 0.023976 0.379252 1.000000 0.345098 0.000000 1.000000
v 0.189019 0.118806 0.329038 1.000000 0.345098 0.000000 1.000000
v 0.028303 0.059467 0.277396 0.486275 0.345098 0.000000 1.000000
v 0.147895 0.111888 0.238514 0.490196 0.341176 0.000000 1.000000
v 0.009666 0.062294 0.201570 0.000000 0.345098 0.000000 1.000000
v -0.002003 0.056914 0.207459 0.000000 0.345098 0.000000 1.000000
v -0.033998 0.038198 0.526777 0.000000 0.000000 0.000000 1.000000
v 0.028690 0.134524 0.526975 0.000000 0.000000 0.000000 1.000000
v -0.041314 0.037235 0.642272 0.000000 0.000000 0.000000 1.000000
v 0.009948 0.095106 0.410414 0.000000 0.000000 0.000000 1.000000
v 0.024191 0.117070 0.410950 0.000000 0.000000 0.000000 1.000000
v 0.012395 0.081480 0.267122 0.000000 0.000000 0.000000 1.000000
v 0.004306 0.069311 0.269734 0.000000 0.000000 0.000000 1.000000
v 0.108929 0.071142 0.182489 1.000000 0.788235 0.000000 1.000000
v 0.113214 -0.049688 0.279639 1.000000 0.788235 0.000000 1.000000
v 0.037315 -0.074138 0.175727 1.000000 0.788235 0.000000 1.000000
v 0.034568 -0.013860 0.136733 0.588235 0.788235 0.000000 1.000000
v 0.063126 0.054332 0.131464 0.513726 0.788235 0.000000 1.000000
v -0.004481 0.007156 0.085735 0.000000 0.788235 0.000000 1.000000
v 0.004054 0.035192 0.079874 0.000000 0.788235 0.000000 1.000000
v -0.041871 0.030977 0.352175 1.000000 0.788235 0.000000 1.000000
v 0.020806 0.148899 0.430218 1.000000 0.788235 0.000000 1.000000
v 0.045419 0.156012 0.297587 1.000000 0.788235 0.000000 1.000000
v 0.014222 0.097127 0.267997 0.588235 0.788235 0.000000 1.000000
v -0.026176 0.037973 0.287030 0.513726 0.788235 0.000000 1.000000
v -0.006904 0.043440 0.210547 0.000000 0.788235 0.000000 1.000000
v 0.009317 0.068125 0.205990 0.000000 0.788235 0.000000 1.000000
v 0.130300 -0.022027 0.506907 1.000000 0.478431 0.000000 1.000000
v 0.072825 0.131697 0.346799 0.478431 0.478431 0.000000 1.000000
v 0.128398 0.166469 0.496182 1.000000 0.478431 0.000000 1.000000
v 0.076331 -0.014114 0.360062 0.462745 0.478431 0.000000 1.000000
v 0.006076 0.056927 0.218745 0.000000 0.478431 0.000000 1.000000
v 0.005586 0.079189 0.216956 0.000000 0.478431 0.000000 1.000000
v 0.015043 0.086542 0.347644 0.592157 0.788235 0.000000 1.000000
v -0.125917 0.082403 0.481091 1.000000 0.788235 0.000000 1.000000
v 0.071063 0.102701 0.418795 1.000000 0.788235 0.000000 1.000000
v -0.089458 0.070868 0.333638 0.462745 0.788235 0.000000 1.000000
v -0.004645 0.069531 0.250538 0.000000 0.788235 0.000000 1.000000
v 0.015512 0.072713 0.254350 0.000000 0.788235 0.000000 1.000000
v 0.049856 0.046907 0.202909 0.000000 0.000000 0.000000 1.000000
v -0.001684 0.049585 0.245730 0.000000 0.000000 0.000000 1.000000
v -0.013339 0.030632 0.219099 0.000000 0.000000 0.000000 1.000000
v 0.054237 0.067644 0.238392 0.000000 0.000000 0.000000 1.000000
v 0.015881 0.072776 0.275006 0.000000 0.000000 0.000000 1.000000
v 0.003339 0.067827 0.275006 0.000000 0.000000 0.000000 1.000000
v -0.002073 0.013237 0.060961 1.000000 0.478431 0.000000 1.000000
v -0.006434 0.001064 -0.000357 1.000000 0.478431 0.000000 1.000000
v -0.000944 0.006411 -0.000818 1.000000 0.478431 0.000000 1.000000
v -0.007789 0.009569 0.062444 1.000000 0.478431 0.000000 1.000000
v -0.000477 0.032962 0.114574 1.000000 0.478431 0.000000 1.000000
v -0.003033 -0.005754 0.000596 1.000000 0.478431 0.000000 1.000000
v -0.006133 0.030382 0.115589 1.000000 0.478431 0.000000 1.000000
v 0.000405 0.052068 0.166595 1.000000 0.478431 0.000000 1.000000
v -0.005794 0.003335 0.064786 1.000000 0.478431 0.000000 1.000000
v -0.004957 0.050690 0.167803 1.000000 0.478431 0.000000 1.000000
v 0.007504 0.068502 0.218326 1.000000 0.478431 0.000000 1.000000
v -0.005244 0.024554 0.117810 1.000000 0.478431 0.000000 1.000000
v 0.002734 0.067276 0.219401 1.000000 0.478431 0.000000 1.000000
v 0.010245 0.079180 0.275690 1.000000 0.478431 0.000000 1.000000
v 0.005867 0.079137 0.275850 1.000000 0.478431 0.000000 1.000000
v -0.005025 0.045309 0.169577 1.000000 0.478431 0.000000 1.000000
v 0.002674 0.062489 0.220979 1.000000 0.478431 0.000000 1.000000
v 0.004586 0.075041 0.276727 1.000000 0.478431 0.000000 1.000000
v 0.000961 0.023533 0.118167 1.000000 0.478431 0.000000 1.000000
v 0.007407 0.060757 0.220880 1.000000 0.478431 0.000000 1.000000
v 0.008171 0.072553 0.277108 1.000000 0.478431 0.000000 1.000000
v 0.011668 0.075111 0.276467 1.000000 0.478431 0.000000 1.000000
v 0.000295 0.043361 0.169465 1.000000 0.478431 0.000000 1.000000
v 0.010392 0.064473 0.219240 1.000000 0.478431 0.000000 1.000000
v 0.010245 0.079180 0.275690 1.000000 0.478431 0.000000 1.000000
v 0.007504 0.068502 0.218326 1.000000 0.478431 0.000000 1.000000
v 0.000405 0.052068 0.166595 1.000000 0.478431 0.000000 1.000000
v 0.003651 0.047539 0.167622 1.000000 0.478431 0.000000 1.000000
v -0.000477 0.032962 0.114574 1.000000 0.478431 0.000000 1.000000
v 0.003907 0.028729 0.116167 1.000000 0.478431 0.000000 1.000000
v 0.001155 0.003150 0.064751 1.000000 0.478431 0.000000 1.000000
v 0.004560 -0.004620 0.000723 1.000000 0.478431 0.000000 1.000000
v 0.003455 0.009270 0.062387 1.000000 0.478431 0.000000 1.000000
v -0.002073 0.013237 0.060961 1.000000 0.478431 0.000000 1.000000
v 0.005851 0.002898 -0.000151 1.000000 0.478431 0.000000 1.000000
v -0.000944 0.006411 -0.000818 1.000000 0.478431 0.000000 1.000000
vt 0.401855 0.570801
vt 0.340088 0.573975
vt 0.383057 0.522461
vt 0.805664 0.352539
vt 0.829102 0.400391
vt 0.761230 0.354980
vt 0.792969 0.325684
vt 0.732422 0.321777
vt 0.769531 0.283691
vt 0.795898 0.284180
vt 0.791992 0.234375
vt 0.799805 0.233887
vt 0.764648 0.525635
vt 0.815918 0.502930
vt 0.798340 0.568359
vt 0.763184 0.472656
vt 0.795898 0.462891
vt 0.766602 0.404297
vt 0.761719 0.404297
vt 0.819824 0.927185
vt 0.758301 0.973770
vt 0.740723 0.909302
vt 0.771484 0.890320
vt 0.808594 0.894714
vt 0.795410 0.857178
vt 0.780273 0.857300
vt 0.281250 0.345215
vt 0.325684 0.361816
vt 0.285645 0.377441
vt 0.276611 0.292969
vt 0.339600 0.311035
vt 0.297363 0.248535
vt 0.287598 0.248535
vt 0.080017 0.532471
vt 0.053741 0.579346
vt 0.023804 0.541016
vt 0.009636 0.490234
vt 0.131958 0.499512
vt 0.058441 0.450684
vt 0.126343 0.454102
vt 0.065491 0.412109
vt 0.058472 0.412109
vt 0.929688 0.532227
vt 0.986816 0.538330
vt 0.921387 0.589600
vt 0.971680 0.478027
vt 0.984375 0.479980
vt 0.976562 0.406250
vt 0.969238 0.406250
vt 0.819824 0.927185
vt 0.758301 0.973770
vt 0.740723 0.909302
vt 0.771484 0.890320
vt 0.808594 0.894714
vt 0.780273 0.857300
vt 0.795410 0.857178
vt 0.819824 0.927185
vt 0.758301 0.973770
vt 0.740723 0.909302
vt 0.771484 0.890320
vt 0.808594 0.894714
vt 0.795410 0.857178
vt 0.780273 0.857300
vt 0.321045 0.968170
vt 0.401611 0.886536
vt 0.415527 0.966705
vt 0.328369 0.889954
vt 0.368408 0.812500
vt 0.379639 0.812378
vt 0.276611 0.516602
vt 0.338379 0.591309
vt 0.243530 0.548828
vt 0.329834 0.516846
vt 0.295166 0.469727
vt 0.284912 0.469727
vt 0.242676 0.233398
vt 0.218750 0.209961
vt 0.233643 0.201172
vt 0.222778 0.239258
vt 0.202271 0.222656
vt 0.202271 0.215820
vt 0.750000 0.037598
vt 0.773438 0.038086
vt 0.773438 0.039551
vt 0.750000 0.036133
vt 0.729492 0.037598
vt 0.773926 0.036621
vt 0.729492 0.036133
vt 0.709473 0.037598
vt 0.750000 0.034668
vt 0.709473 0.036133
vt 0.691406 0.039551
vt 0.729492 0.034668
vt 0.691406 0.038086
vt 0.672363 0.041504
vt 0.671875 0.040039
vt 0.709473 0.034668
vt 0.691406 0.036621
vt 0.671875 0.038574
vt 0.729492 0.033203
vt 0.690918 0.035156
vt 0.671875 0.037109
vt 0.671875 0.035645
vt 0.709473 0.033203
vt 0.690918 0.033691
vt 0.671875 0.034180
vt 0.690918 0.032227
vt 0.708984 0.030273
vt 0.708984 0.031738
vt 0.729492 0.030273
vt 0.729492 0.031738
vt 0.750000 0.032715
vt 0.773926 0.035156
vt 0.750000 0.031250
vt 0.750000 0.030273
vt 0.773926 0.033691
vt 0.774414 0.032227
vt1 0.541504 0.437988
vt1 0.488281 0.261230
vt1 0.388184 0.437500
vt1 0.055878 0.837402
vt1 0.009995 0.989746
vt1 0.188232 0.824219
vt1 0.081055 0.753906
vt1 0.257080 0.712402
vt1 0.130493 0.618164
vt1 0.051910 0.633301
vt1 0.038574 0.484131
vt1 0.015854 0.487549
vt1 0.349854 0.989746
vt1 0.412598 0.835449
vt1 0.219482 0.893555
vt1 0.508301 0.988770
vt1 0.533203 0.890625
vt1 0.710938 0.969727
vt1 0.711914 0.984863
vt1 0.730469 0.094421
vt1 0.747559 0.325439
vt1 0.921875 0.242676
vt1 0.907715 0.136963
vt1 0.831543 0.057190
vt1 0.948242 0.023224
vt1 0.972656 0.060547
vt1 0.984375 0.565430
vt1 0.858398 0.630859
vt1 0.983398 0.662598
vt1 0.988281 0.414307
vt1 0.801758 0.474854
vt1 0.937012 0.279541
vt1 0.966309 0.283936
vt1 0.107056 0.302979
vt1 0.108582 0.463379
vt1 0.241821 0.406494
vt1 0.350342 0.297607
vt1 0.020218 0.139282
vt1 0.286865 0.124695
vt1 0.111450 0.021881
vt1 0.337402 0.019653
vt1 0.353760 0.032776
vt1 0.481201 0.238159
vt1 0.331787 0.144531
vt1 0.395752 0.391846
vt1 0.479004 0.032928
vt1 0.481934 0.023438
vt1 0.428467 0.243774
vt1 0.405029 0.239258
vt1 0.467773 0.682129
vt1 0.532227 0.459961
vt1 0.337646 0.478271
vt1 0.315186 0.583008
vt1 0.362305 0.683105
vt1 0.229736 0.636230
vt1 0.241943 0.679199
vt1 0.500488 0.110962
vt1 0.520996 0.340820
vt1 0.699707 0.247681
vt1 0.678223 0.140991
vt1 0.592773 0.070984
vt1 0.699707 0.021423
vt1 0.730957 0.053223
vt1 0.986328 0.682617
vt1 0.749023 0.928711
vt1 0.989746 0.964355
vt1 0.754395 0.709961
vt1 0.526367 0.831543
vt1 0.525879 0.864746
vt1 0.735840 0.554688
vt1 0.474854 0.680176
vt1 0.784668 0.683105
vt1 0.592773 0.485840
vt1 0.750488 0.405518
vt1 0.777832 0.420410
vt1 0.195923 0.884277
vt1 0.168091 0.980469
vt1 0.219849 0.981445
vt1 0.135864 0.897949
vt1 0.107056 0.972168
vt1 0.116943 0.989746
vt1 0.358643 0.816406
vt1 0.281250 0.756348
vt1 0.281738 0.755859
vt1 0.359619 0.817383
vt1 0.429932 0.762207
vt1 0.280762 0.755859
vt1 0.429688 0.761719
vt1 0.488770 0.825684
vt1 0.360596 0.818359
vt1 0.489258 0.826172
vt1 0.521973 0.746582
vt1 0.429932 0.761719
vt1 0.522461 0.747070
vt1 0.612305 0.759277
vt1 0.612305 0.759277
vt1 0.489014 0.826172
vt1 0.522949 0.747070
vt1 0.611816 0.759277
vt1 0.430176 0.761719
vt1 0.522461 0.747070
vt1 0.612305 0.759766
vt1 0.612305 0.759766
vt1 0.488525 0.825684
vt1 0.521973 0.746582
vt1 0.612305 0.759277
vt1 0.521973 0.746582
vt1 0.488770 0.825684
vt1 0.488281 0.825684
vt1 0.429932 0.762207
vt1 0.429932 0.761719
vt1 0.360352 0.818359
vt1 0.280762 0.755371
vt1 0.359131 0.817383
vt1 0.358643 0.816406
vt1 0.281494 0.755371
vt1 0.281738 0.755859
vn 0.787402 0.212598 0.582677
vn 0.787402 0.212598 0.582677
vn 0.787402 0.212598 0.582677
vn -0.314961 -0.905512 0.283465
vn -0.314961 -0.905512 0.283465
vn -0.314961 -0.905512 0.283465
vn -0.314961 -0.889764 0.322835
vn -0.314961 -0.889764 0.322835
vn -0.307087 -0.881890 0.354331
vn -0.307087 -0.874016 0.370079
vn -0.307087 -0.858268 0.409449
vn -0.307087 -0.858268 0.409449
vn 0.952756 0.236220 0.204724
vn 0.952756 0.236220 0.204724
vn 0.952756 0.236220 0.188976
vn 0.944882 0.228346 0.228346
vn 0.944882 0.228346 0.228346
vn 0.937008 0.228346 0.259843
vn 0.937008 0.228346 0.259843
vn 0.905512 0.393701 0.141732
vn 0.913386 0.393701 0.133858
vn 0.913386 0.393701 0.141732
vn 0.905512 0.385827 0.165354
vn 0.905512 0.385827 0.165354
vn 0.905512 0.377953 0.181102
vn 0.905512 0.377953 0.181102
vn -0.669291 -0.685039 0.299213
vn -0.669291 -0.685039 0.299213
vn -0.661417 -0.692913 0.275591
vn -0.669291 -0.653543 0.346457
vn -0.669291 -0.669291 0.322835
vn -0.669291 -0.629921 0.385827
vn -0.669291 -0.629921 0.385827
vn -0.377953 0.921260 0.086614
vn -0.377953 0.921260 0.086614
vn -0.377953 0.921260 0.086614
vn -0.370079 0.921260 0.102362
vn -0.370079 0.921260 0.102362
vn -0.370079 0.921260 0.110236
vn -0.370079 0.921260 0.102362
vn -0.362205 0.921260 0.125984
vn -0.362205 0.921260 0.125984
vn -0.834646 0.543307 -0.047244
vn -0.834646 0.543307 -0.047244
vn -0.834646 0.543307 -0.047244
vn -0.834646 0.543307 -0.055118
vn -0.834646 0.543307 -0.055118
vn -0.834646 0.543307 -0.062992
vn -0.834646 0.543307 -0.062992
vn -0.763780 0.354331 0.535433
vn -0.787402 0.370079 0.488189
vn -0.771654 0.362205 0.527559
vn -0.724409 0.346457 0.598425
vn -0.724409 0.346457 0.598425
vn -0.677165 0.338583 0.653543
vn -0.677165 0.338583 0.653543
vn 0.842520 -0.527559 0.141732
vn 0.834646 -0.527559 0.125984
vn 0.842520 -0.527559 0.133858
vn 0.842520 -0.519685 0.157480
vn 0.842520 -0.519685 0.157480
vn 0.834646 -0.519685 0.173228
vn 0.834646 -0.519685 0.173228
vn -0.937008 0.007874 0.346457
vn -0.921260 0.015748 0.393701
vn -0.937008 0.007874 0.346457
vn -0.921260 0.015748 0.385827
vn -0.889764 0.015748 0.456693
vn -0.889764 0.015748 0.456693
vn 0.133858 -0.984252 0.125984
vn 0.133858 -0.984252 0.110236
vn 0.133858 -0.984252 0.110236
vn 0.133858 -0.984252 0.125984
vn 0.125984 -0.984252 0.149606
vn 0.125984 -0.984252 0.149606
vn -0.330709 0.834646 -0.448819
vn -0.330709 0.826772 -0.448819
vn -0.330709 0.834646 -0.448819
vn -0.330709 0.826772 -0.448819
vn -0.330709 0.826772 -0.456693
vn -0.330709 0.826772 -0.456693
vn 0.000000 0.976378 -0.228346
vn -0.968504 0.236220 -0.055118
vn -0.070866 0.992126 -0.110236
vn -0.960630 0.267717 -0.078740
vn 0.173228 0.921260 -0.346457
vn -0.527559 -0.842520 0.094488
vn -0.881890 0.440945 -0.149606
vn 0.259843 0.905512 -0.330709
vn -0.590551 -0.787402 0.196850
vn -0.826772 0.551181 -0.125984
vn 0.393701 0.881890 -0.259843
vn -0.716535 -0.645669 0.267717
vn -0.740157 0.669291 -0.094488
vn 0.456693 0.874016 -0.181102
vn -0.708661 0.700787 -0.110236
vn -0.803150 -0.535433 0.259843
vn -0.850394 -0.472441 0.212598
vn -0.889764 -0.433071 0.125984
vn 0.448819 -0.834646 0.322835
vn 0.251969 -0.937008 0.236220
vn 0.157480 -0.968504 0.204724
vn 0.984252 -0.157480 0.007874
vn 0.314961 -0.897638 0.307087
vn 0.992126 -0.070866 -0.062992
vn 0.456693 0.874016 -0.181102
vn 0.393701 0.881890 -0.259843
vn 0.259843 0.905512 -0.330709
vn 1.000000 0.015748 -0.070866
vn 0.173228 0.921260 -0.346457
vn 0.992126 0.133858 -0.047244
vn 0.543307 -0.803150 0.220472
vn 0.645669 -0.755906 0.125984
vn 0.968504 0.251969 -0.039370
vn 0.000000 0.976378 -0.228346
vn 0.921260 0.385827 0.000000
vn -0.070866 0.992126 -0.110236
tan 0.605741 -0.058404 -0.797260 1.000000
tan 0.605741 -0.058404 -0.797260 1.000000
tan 0.605741 -0.058404 -0.797260 1.000000
tan -0.093744 -0.267841 -0.959762 1.000000
tan -0.093744 -0.267841 -0.959762 1.000000
tan -0.093744 -0.267841 -0.959762 1.000000
tan -0.106764 -0.305041 -0.944882 1.000000
tan -0.106764 -0.305041 -0.944882 1.000000
tan -0.117180 -0.334801 -0.934838 1.000000
tan -0.122388 -0.349681 -0.927398 1.000000
tan -0.128650 -0.389299 -0.912518 1.000000
tan -0.128650 -0.389299 -0.912518 1.000000
tan 0.209436 0.001736 -0.976688 1.000000
tan 0.209436 0.001736 -0.976688 1.000000
tan 0.194184 -0.001860 -0.976688 1.000000
tan 0.235538 -0.001736 -0.972906 1.000000
tan 0.235538 -0.001736 -0.972906 1.000000
tan 0.268089 -0.003782 -0.963420 1.000000
tan 0.269887 -0.011160 -0.963420 1.000000
tan 0.011160 0.315829 -0.948602 1.000000
tan 0.011594 0.300391 -0.962614 1.000000
tan 0.017360 0.303677 -0.955422 1.000000
tan 0.026474 0.339947 -0.938186 1.000000
tan 0.016058 0.361337 -0.931056 1.000000
tan 0.024614 0.382169 -0.920640 1.000000
tan 0.012834 0.403559 -0.906380 1.000000
tan 0.117924 -0.493149 -0.865274 1.000000
tan 0.151962 -0.517143 -0.844070 1.000000
tan 0.141608 -0.477835 -0.861554 1.000000
tan 0.152644 -0.577717 -0.794904 1.000000
tan 0.176948 -0.565875 -0.806312 1.000000
tan 0.191146 -0.650629 -0.730671 1.000000
tan 0.244095 -0.681443 -0.689131 1.000000
tan -0.280055 -0.024800 -0.958274 1.000000
tan -0.272801 -0.021824 -0.958274 1.000000
tan -0.272801 -0.021824 -0.958274 1.000000
tan -0.293385 -0.011718 -0.955236 1.000000
tan -0.322401 -0.024180 -0.947982 1.000000
tan -0.332693 -0.021080 -0.940728 1.000000
tan -0.351417 -0.037448 -0.933474 1.000000
tan -0.396801 -0.030752 -0.915928 1.000000
tan -0.425817 -0.044144 -0.901420 1.000000
tan -0.016182 -0.111104 -0.991816 1.000000
tan -0.016182 -0.111104 -0.991816 1.000000
tan -0.016182 -0.111104 -0.991816 1.000000
tan -0.014322 -0.121954 -0.985244 1.000000
tan -0.014322 -0.121954 -0.985244 1.000000
tan -0.033976 -0.165664 -0.978672 1.000000
tan -0.038254 -0.172236 -0.978672 1.000000
tan -0.550499 0.058590 -0.824044 1.000000
tan -0.508959 0.047492 -0.856904 1.000000
tan -0.541509 0.065100 -0.836754 1.000000
tan -0.612561 0.080104 -0.787898 1.000000
tan -0.618017 0.063984 -0.785170 1.000000
tan -0.671027 0.078244 -0.735817 1.000000
tan -0.673693 0.067766 -0.733151 1.000000
tan 0.050716 -0.183148 -0.983198 1.000000
tan 0.042842 -0.167028 -0.983260 1.000000
tan 0.045260 -0.178870 -0.989832 1.000000
tan 0.060636 -0.198338 -0.978920 1.000000
tan 0.056544 -0.204972 -0.978920 1.000000
tan 0.065472 -0.218984 -0.972410 1.000000
tan 0.057288 -0.232128 -0.972410 1.000000
tan -0.346829 -0.046996 -0.936946 1.000000
tan -0.394445 -0.046624 -0.921136 1.000000
tan -0.346767 -0.039618 -0.936946 1.000000
tan -0.386571 -0.046562 -0.921136 1.000000
tan -0.457685 -0.059644 -0.889640 1.000000
tan -0.457809 -0.070246 -0.889516 1.000000
tan 0.150598 -0.105090 -0.981028 1.000000
tan 0.140492 -0.091636 -0.988778 1.000000
tan 0.124992 -0.093744 -0.988778 1.000000
tan 0.158348 -0.104036 -0.981028 1.000000
tan 0.177382 -0.126232 -0.979850 1.000000
tan 0.192882 -0.124248 -0.979850 1.000000
tan -0.936512 -0.371071 0.000000 1.000000
tan -0.922934 -0.368467 0.001302 1.000000
tan -0.936512 -0.371071 0.000000 1.000000
tan -0.922934 -0.368467 0.001302 1.000000
tan -0.929816 -0.369769 0.003906 1.000000
tan -0.929816 -0.369769 0.003906 1.000000
tan -0.997768 0.016182 0.069192 1.000000
tan -0.243102 -0.937132 0.255379 1.000000
tan -0.989522 -0.056730 0.125550 1.000000
tan -0.279249 -0.914626 0.297105 1.000000
tan -0.983260 0.167772 -0.045508 1.000000
tan 0.835328 -0.496807 0.234050 1.000000
tan -0.466179 -0.822804 0.322897 1.000000
tan -0.960444 0.248682 -0.073718 1.000000
tan 0.807552 -0.550251 0.221650 1.000000
tan -0.561845 -0.781760 0.266911 1.000000
tan -0.918780 0.382293 -0.094612 1.000000
tan 0.696881 -0.669973 0.249365 1.000000
tan -0.675863 -0.724781 0.160394 1.000000
tan -0.893298 0.440201 -0.128216 1.000000
tan -0.711761 -0.703949 0.100502 1.000000
tan 0.583669 -0.787526 0.181288 1.000000
tan 0.501457 -0.858764 0.097464 1.000000
tan 0.445099 -0.884680 0.102424 1.000000
tan 0.892430 0.417013 -0.162564 1.000000
tan 0.950462 0.199020 -0.224378 1.000000
tan 0.981524 0.134788 -0.117366 1.000000
tan 0.153388 0.945192 -0.269701 1.000000
tan 0.942836 0.261207 -0.203484 1.000000
tan 0.045074 0.934590 -0.341497 1.000000
tan -0.894724 0.438775 -0.138694 1.000000
tan -0.920826 0.378201 -0.111600 1.000000
tan -0.960444 0.248682 -0.073718 1.000000
tan -0.041850 0.925166 -0.384959 1.000000
tan -0.983260 0.162316 -0.060016 1.000000
tan -0.142166 0.929630 -0.351541 1.000000
tan 0.832786 0.546097 -0.062868 1.000000
tan 0.747970 0.655341 0.098704 1.000000
tan -0.254511 0.952942 -0.162130 1.000000
tan -0.997768 0.014384 0.061504 1.000000
tan -0.385827 0.921260 0.045384 1.000000
tan -0.989522 -0.053258 0.156798 1.000000
f 3/3/3 2/2/2 1/1/1
f 6/6/6 5/5/5 4/4/4
f 6/6/6 4/4/4 7/7/7
f 6/6/6 7/7/7 8/8/8
f 9/9/9 8/8/8 7/7/7
f 9/9/9 7/7/7 10/10/10
f 9/9/9 10/10/10 11/11/11
f 11/11/11 10/10/10 12/12/12
f 15/15/15 14/14/14 13/13/13
f 13/13/13 14/14/14 16/16/16
f 17/17/17 16/16/16 14/14/14
f 17/17/17 18/18/18 16/16/16
f 19/19/19 16/16/16 18/18/18
f 22/22/22 21/21/21 20/20/20
f 22/22/22 20/20/20 23/23/23
f 24/24/24 23/23/23 20/20/20
f 24/24/24 25/25/25 23/23/23
f 26/26/26 23/23/23 25/25/25
f 29/29/29 28/28/28 27/27/27
f 27/27/27 28/28/28 30/30/30
f 31/31/31 30/30/30 28/28/28
f 31/31/31 32/32/32 30/30/30
f 33/33/33 30/30/30 32/32/32
f 36/36/36 35/35/35 34/34/34
f 36/36/36 34/34/34 37/37/37
f 38/38/38 37/37/37 34/34/34
f 39/39/39 37/37/37 38/38/38
f 40/40/40 39/39/39 38/38/38
f 40/40/40 41/41/41 39/39/39
f 42/42/42 39/39/39 41/41/41
f 45/45/45 44/44/44 43/43/43
f 44/44/44 46/46/46 43/43/43
f 46/46/46 44/44/44 47/47/47
f 47/47/47 48/48/48 46/46/46
f 49/49/49 46/46/46 48/48/48
f 52/52/52 51/51/51 50/50/50
f 52/52/52 50/50/50 53/53/53
f 54/54/54 53/53/53 50/50/50
f 53/53/53 54/54/54 55/55/55
f 56/56/56 55/55/55 54/54/54
f 59/59/59 58/58/58 57/57/57
f 59/59/59 57/57/57 60/60/60
f 61/61/61 60/60/60 57/57/57
f 61/61/61 62/62/62 60/60/60
f 63/63/63 60/60/60 62/62/62
f 66/66/66 65/65/65 64/64/64
f 67/67/67 64/64/64 65/65/65
f 68/68/68 67/67/67 65/65/65
f 69/69/69 68/68/68 65/65/65
f 72/72/72 71/71/71 70/70/70
f 73/73/73 70/70/70 71/71/71
f 73/73/73 74/74/74 70/70/70
f 75/75/75 70/70/70 74/74/74
f 78/78/78 77/77/77 76/76/76
f 79/79/79 76/76/76 77/77/77
f 79/79/79 77/77/77 80/80/80
f 81/81/81 80/80/80 77/77/77
f 84/84/84 83/83/83 82/82/82
f 82/82/82 83/83/83 85/85/85
f 82/82/82 85/85/85 86/86/86
f 87/87/87 85/85/85 83/83/83
f 88/88/88 86/86/86 85/85/85
f 86/86/86 88/88/88 89/89/89
f 85/85/85 87/87/87 90/90/90
f 89/89/89 88/88/88 91/91/91
f 89/89/89 91/91/91 92/92/92
f 93/93/93 88/88/88 85/85/85
f 85/85/85 90/90/90 93/93/93
f 94/94/94 92/92/92 91/91/91
f 92/92/92 94/94/94 95/95/95
f 95/95/95 94/94/94 96/96/96
f 91/91/91 88/88/88 97/97/97
f 91/91/91 97/97/97 94/94/94
f 93/93/93 97/97/97 88/88/88
f 98/98/98 96/96/96 94/94/94
f 98/98/98 94/94/94 97/97/97
f 96/96/96 98/98/98 99/99/99
f 100/100/100 97/97/97 93/93/93
f 101/101/101 99/99/99 98/98/98
f 102/102/102 99/99/99 101/101/101
f 102/102/102 101/101/101 103/103/103
f 97/97/97 104/104/104 98/98/98
f 101/101/101 98/98/98 104/104/104
f 104/104/104 97/97/97 100/100/100
f 105/105/105 103/103/103 101/101/101
f 105/105/105 101/101/101 104/104/104
f 103/103/103 105/105/105 106/106/106
f 107/107/107 106/106/106 105/105/105
f 107/107/107 105/105/105 108/108/108
f 104/104/104 109/109/109 105/105/105
f 109/109/109 108/108/108 105/105/105
f 104/104/104 100/100/100 109/109/109
f 108/108/108 109/109/109 110/110/110
f 111/111/111 109/109/109 100/100/100
f 110/110/110 109/109/109 111/111/111
f 111/111/111 100/100/100 112/112/112
f 100/100/100 93/93/93 112/112/112
f 90/90/90 112/112/112 93/93/93
f 90/90/90 87/87/87 112/112/112
f 113/113/113 112/112/112 87/87/87
f 111/111/111 114/114/114 110/110/110
f 112/112/112 114/114/114 111/111/111
f 112/112/112 113/113/113 114/114/114
f 115/115/115 110/110/110 114/114/114
f 116/116/116 114/114/114 113/113/113
f 114/114/114 116/116/116 115/115/115
f 117/117/117 115/115/115 116/116/116
