mtllib SM_AcaciaDeadLeaves_03.mtl
g SM_AcaciaDeadLeaves_03
#Vertices 110
#Indices 246
#Section 0 Offset 0 NumIndices 246 MaterialIndex 0 MI_Acacia_01
v -0.091596 0.139814 0.006282 0.000000 0.427451 0.000000 1.000000
v -0.073056 0.176715 0.013827 0.000000 0.427451 0.000000 1.000000
v -0.120613 0.202373 0.016175 0.000000 0.427451 0.000000 1.000000
v -0.167516 0.171186 0.007284 0.000000 0.427451 0.000000 1.000000
v -0.143866 0.121564 0.002200 0.000000 0.427451 0.000000 1.000000
v -0.172024 0.125338 0.001838 0.000000 0.427451 0.000000 1.000000
v -0.150053 0.081614 0.000000 0.000000 0.427451 0.000000 1.000000
v -0.126290 0.074049 0.000000 0.000000 0.427451 0.000000 1.000000
v 0.447437 -0.123274 0.061447 0.000000 0.427451 0.000000 1.000000
v 0.401048 -0.081646 0.036905 0.000000 0.427451 0.000000 1.000000
v 0.453163 -0.069600 0.053846 0.000000 0.427451 0.000000 1.000000
v 0.411013 -0.057177 0.036576 0.000000 0.427451 0.000000 1.000000
v 0.368652 -0.037421 0.021814 0.000000 0.427451 0.000000 1.000000
v 0.371042 -0.029873 0.021558 0.000000 0.427451 0.000000 1.000000
v 0.316020 -0.015365 0.008881 0.000000 0.427451 0.000000 1.000000
v 0.327012 0.003353 0.009298 0.000000 0.427451 0.000000 1.000000
v 0.234526 0.020634 -0.000000 0.000000 0.427451 0.000000 1.000000
v 0.228309 0.006816 -0.000000 0.000000 0.427451 0.000000 1.000000
v -0.064162 0.020186 0.022839 0.000000 0.427451 0.000000 1.000000
v -0.127274 0.019707 0.008877 0.000000 0.427451 0.000000 1.000000
v -0.135786 0.050681 0.004913 0.000000 0.427451 0.000000 1.000000
v -0.067440 0.008633 0.024930 0.000000 0.427451 0.000000 1.000000
v -0.009570 -0.008257 0.023145 0.000000 0.427451 0.000000 1.000000
v 0.024995 -0.055340 0.009903 0.000000 0.427451 0.000000 1.000000
v -0.034920 -0.079663 0.016997 0.000000 0.427451 0.000000 1.000000
v -0.036399 -0.073690 0.018179 0.000000 0.427451 0.000000 1.000000
v 0.049125 -0.071362 0.005229 0.000000 0.427451 0.000000 1.000000
v 0.000021 -0.005307 0.021518 0.000000 0.427451 0.000000 1.000000
v -0.028329 0.074877 0.020981 0.000000 0.427451 0.000000 1.000000
v -0.016163 0.081550 0.023216 0.000000 0.427451 0.000000 1.000000
v 0.051019 -0.054367 0.006497 0.000000 0.427451 0.000000 1.000000
v 0.108189 -0.102558 -0.000000 0.000000 0.427451 0.000000 1.000000
v 0.102490 -0.109999 -0.000000 0.000000 0.427451 0.000000 1.000000
v 0.068348 -0.045606 0.005286 0.000000 0.427451 0.000000 1.000000
v 0.038054 0.017683 0.017305 0.000000 0.427451 0.000000 1.000000
v 0.029023 0.010576 0.018006 0.000000 0.427451 0.000000 1.000000
v 0.009990 0.088099 0.031149 0.000000 0.427451 0.000000 1.000000
v 0.018367 0.091678 0.033264 0.000000 0.427451 0.000000 1.000000
v -0.186674 0.192531 0.016164 0.000000 0.427451 0.000000 1.000000
v -0.140353 0.183235 0.000364 0.000000 0.427451 0.000000 1.000000
v -0.183761 0.174960 0.016720 0.000000 0.427451 0.000000 1.000000
v -0.148426 0.207413 0.000933 0.000000 0.427451 0.000000 1.000000
v -0.097109 0.208992 -0.000000 0.000000 0.427451 0.000000 1.000000
v -0.099000 0.216427 -0.000000 0.000000 0.427451 0.000000 1.000000
v 0.167496 -0.025153 0.001510 0.000000 0.427451 0.000000 1.000000
v 0.206350 -0.039069 0.017655 0.000000 0.427451 0.000000 1.000000
v 0.193896 -0.050643 0.019156 0.000000 0.427451 0.000000 1.000000
v 0.190528 -0.006724 -0.000000 0.000000 0.427451 0.000000 1.000000
v 0.150290 0.027680 -0.000000 0.000000 0.427451 0.000000 1.000000
v 0.156244 0.031396 -0.000000 0.000000 0.427451 0.000000 1.000000
v -0.051290 0.247403 0.007350 0.000000 0.427451 0.000000 1.000000
v -0.050475 0.180597 0.001684 0.000000 0.427451 0.000000 1.000000
v -0.017097 0.189570 0.004751 0.000000 0.427451 0.000000 1.000000
v -0.086995 0.227212 0.002327 0.000000 0.427451 0.000000 1.000000
v -0.091204 0.174162 0.000000 0.000000 0.427451 0.000000 1.000000
v -0.081498 0.164803 0.000000 0.000000 0.427451 0.000000 1.000000
v 0.243133 -0.004689 0.045228 0.000000 0.427451 0.000000 1.000000
v 0.367926 0.206564 0.031149 0.000000 0.427451 0.000000 1.000000
v 0.342959 0.031412 0.015463 0.000000 0.427451 0.000000 1.000000
v 0.334908 0.318970 0.051827 0.000000 0.427451 0.000000 1.000000
v 0.252975 0.248348 0.028288 0.000000 0.427451 0.000000 1.000000
v 0.201342 0.084341 0.024276 0.000000 0.427451 0.000000 1.000000
v 0.194480 0.299729 0.010729 0.000000 0.427451 0.000000 1.000000
v 0.122528 0.037810 0.008816 0.000000 0.427451 0.000000 1.000000
v 0.057401 0.149111 -0.000000 0.000000 0.427451 0.000000 1.000000
v 0.078485 0.239719 -0.000000 0.000000 0.427451 0.000000 1.000000
v -0.178974 -0.077880 0.008137 0.000000 0.427451 0.000000 1.000000
v -0.111083 -0.069370 0.005055 0.000000 0.427451 0.000000 1.000000
v -0.119709 -0.018109 0.014027 0.000000 0.427451 0.000000 1.000000
v -0.167454 -0.101582 0.004218 0.000000 0.427451 0.000000 1.000000
v -0.120038 -0.112103 0.001428 0.000000 0.427451 0.000000 1.000000
v -0.093171 -0.099716 0.001444 0.000000 0.427451 0.000000 1.000000
v -0.085159 -0.128601 0.000000 0.000000 0.427451 0.000000 1.000000
v -0.120418 -0.144531 0.000000 0.000000 0.427451 0.000000 1.000000
v -0.162534 -0.058108 0.000000 0.000000 0.427451 0.000000 1.000000
v -0.087909 0.067077 0.021694 0.000000 0.427451 0.000000 1.000000
v -0.182250 -0.047875 0.000000 0.000000 0.427451 0.000000 1.000000
v -0.069145 0.058148 0.021895 0.000000 0.427451 0.000000 1.000000
v -0.046180 0.190632 0.004993 0.000000 0.427451 0.000000 1.000000
v -0.058027 0.195791 0.004979 0.000000 0.427451 0.000000 1.000000
v -0.180309 -0.017606 -0.000000 0.000000 0.427451 0.000000 1.000000
v -0.201927 0.013328 0.010054 0.000000 0.427451 0.000000 1.000000
v -0.181039 0.010531 0.002113 0.000000 0.427451 0.000000 1.000000
v -0.166343 -0.005379 -0.000000 0.000000 0.427451 0.000000 1.000000
v -0.155669 -0.040023 -0.000000 0.000000 0.427451 0.000000 1.000000
v -0.158893 -0.042695 -0.000000 0.000000 0.427451 0.000000 1.000000
v -0.247088 0.131024 0.002137 0.000000 0.427451 0.000000 1.000000
v -0.260988 0.177952 0.025921 0.000000 0.427451 0.000000 1.000000
v -0.232927 0.169217 0.021168 0.000000 0.427451 0.000000 1.000000
v -0.224356 0.130334 0.001208 0.000000 0.427451 0.000000 1.000000
v -0.242682 0.083069 -0.000000 0.000000 0.427451 0.000000 1.000000
v -0.247625 0.082766 -0.000000 0.000000 0.427451 0.000000 1.000000
v 0.356398 0.062306 0.000012 0.000000 0.427451 0.000000 1.000000
v 0.315037 0.094295 0.004310 0.000000 0.427451 0.000000 1.000000
v 0.342328 0.103235 0.002356 0.000000 0.427451 0.000000 1.000000
v 0.374458 0.074862 0.000012 0.000000 0.427451 0.000000 1.000000
v 0.388006 0.027554 -0.000000 0.000000 0.427451 0.000000 1.000000
v 0.384370 0.024443 -0.000000 0.000000 0.427451 0.000000 1.000000
v 0.140120 -0.019094 0.003664 0.000000 0.427451 0.000000 1.000000
v 0.126258 0.019698 -0.000004 0.000000 0.427451 0.000000 1.000000
v 0.156274 -0.002045 0.003909 0.000000 0.427451 0.000000 1.000000
v 0.113768 0.002401 -0.000005 0.000000 0.427451 0.000000 1.000000
v 0.091431 0.036931 -0.000000 0.000000 0.427451 0.000000 1.000000
v 0.093928 0.039801 -0.000000 0.000000 0.427451 0.000000 1.000000
v 0.070496 -0.033169 0.012184 0.000000 0.427451 0.000000 1.000000
v 0.100913 -0.060867 -0.000000 0.000000 0.427451 0.000000 1.000000
v 0.064717 -0.057155 0.012678 0.000000 0.427451 0.000000 1.000000
v 0.103306 -0.038580 -0.000000 0.000000 0.427451 0.000000 1.000000
v 0.141666 -0.058462 -0.000000 0.000000 0.427451 0.000000 1.000000
v 0.140882 -0.062381 -0.000000 0.000000 0.427451 0.000000 1.000000
vt 0.356201 0.240723
vt 0.335205 0.238281
vt 0.337158 0.211426
vt 0.363525 0.200195
vt 0.378174 0.223633
vt 0.384033 0.210938
vt 0.396729 0.231934
vt 0.393311 0.243652
vt 0.848145 0.371094
vt 0.857422 0.338867
vt 0.874023 0.361816
vt 0.870605 0.338379
vt 0.870605 0.313965
vt 0.874512 0.313477
vt 0.869629 0.284668
vt 0.880371 0.285645
vt 0.868652 0.239746
vt 0.861328 0.239746
vt 0.698242 0.362793
vt 0.717773 0.388184
vt 0.708008 0.401367
vt 0.703613 0.360352
vt 0.692383 0.330078
vt 0.700195 0.301270
vt 0.728516 0.317871
vt 0.726562 0.320312
vt 0.699219 0.286621
vt 0.688477 0.327148
vt 0.665527 0.365723
vt 0.659180 0.362793
vt 0.691895 0.291016
vt 0.693359 0.253906
vt 0.698242 0.253418
vt 0.683105 0.287109
vt 0.667480 0.318848
vt 0.673340 0.320312
vt 0.648438 0.353516
vt 0.644531 0.351074
vt 0.133057 0.091309
vt 0.144409 0.064941
vt 0.143188 0.091797
vt 0.129883 0.066406
vt 0.135986 0.037109
vt 0.131592 0.037598
vt 0.162598 0.072754
vt 0.175903 0.091309
vt 0.167358 0.093262
vt 0.177612 0.070801
vt 0.169189 0.044922
vt 0.172729 0.044922
vt 0.242676 0.233398
vt 0.218750 0.209961
vt 0.233643 0.201172
vt 0.222778 0.239258
vt 0.202271 0.222656
vt 0.202271 0.215820
vt 0.434570 0.302246
vt 0.551758 0.345703
vt 0.463867 0.357422
vt 0.602539 0.309082
vt 0.558594 0.275391
vt 0.472656 0.269531
vt 0.576660 0.239746
vt 0.440918 0.235840
vt 0.487061 0.190918
vt 0.533691 0.190430
vt 0.304443 0.241699
vt 0.294434 0.209473
vt 0.319824 0.202637
vt 0.291260 0.241699
vt 0.276611 0.222168
vt 0.276611 0.207520
vt 0.261963 0.209473
vt 0.261963 0.229004
vt 0.754395 0.162598
vt 0.680664 0.166992
vt 0.754395 0.151367
vt 0.680176 0.177246
vt 0.612305 0.156738
vt 0.612793 0.150391
vt 0.123718 0.063965
vt 0.121826 0.092285
vt 0.111633 0.080078
vt 0.110657 0.064453
vt 0.120178 0.041016
vt 0.123169 0.041016
vt 0.214966 0.064453
vt 0.222534 0.099121
vt 0.204468 0.091797
vt 0.200195 0.062988
vt 0.213745 0.032715
vt 0.216919 0.032227
vt 0.214966 0.064453
vt 0.222534 0.099121
vt 0.204468 0.091797
vt 0.200195 0.062988
vt 0.213745 0.032715
vt 0.216919 0.032227
vt 0.066284 0.094238
vt 0.078369 0.072266
vt 0.080627 0.094727
vt 0.065369 0.073242
vt 0.072083 0.049316
vt 0.074463 0.049316
vt 0.066284 0.094238
vt 0.078369 0.072266
vt 0.080627 0.094727
vt 0.065369 0.073242
vt 0.072083 0.049316
vt 0.074463 0.049316
vt1 0.754395 0.733398
vt1 0.718750 0.624023
vt1 0.810059 0.547852
vt1 0.900391 0.640625
vt1 0.854980 0.787598
vt1 0.909180 0.776367
vt1 0.866699 0.905762
vt1 0.821289 0.928223
vt1 0.032318 0.482178
vt1 0.199585 0.464355
vt1 0.154785 0.355469
vt1 0.244995 0.394775
vt1 0.353271 0.418457
vt1 0.368164 0.398193
vt1 0.481689 0.453369
vt1 0.511719 0.395020
vt1 0.685059 0.502930
vt1 0.660645 0.542969
vt1 0.688477 0.346436
vt1 0.723633 0.459473
vt1 0.813965 0.447021
vt1 0.658203 0.362549
vt1 0.578125 0.274170
vt1 0.428711 0.254639
vt1 0.396484 0.383301
vt1 0.413818 0.380615
vt1 0.370605 0.225830
vt1 0.580566 0.254395
vt1 0.817871 0.233398
vt1 0.829102 0.205688
vt1 0.416260 0.207275
vt1 0.250244 0.148193
vt1 0.233276 0.165039
vt1 0.430420 0.168457
vt1 0.622070 0.166016
vt1 0.607910 0.188477
vt1 0.832031 0.153076
vt1 0.837402 0.134888
vt1 0.083313 0.498779
vt1 0.111816 0.590820
vt1 0.137207 0.504395
vt1 0.037659 0.574707
vt1 0.032806 0.677246
vt1 0.009995 0.673340
vt1 0.130371 0.331543
vt1 0.088989 0.256592
vt1 0.054657 0.280518
vt1 0.185059 0.287109
vt1 0.287109 0.364502
vt1 0.298340 0.353027
vt1 0.968262 0.208374
vt1 0.899902 0.035034
vt1 0.965332 0.035583
vt1 0.887207 0.180298
vt1 0.824707 0.046021
vt1 0.831543 0.015228
vt1 0.825195 0.785645
vt1 0.292969 0.989746
vt1 0.733887 0.948730
vt1 0.009995 0.935547
vt1 0.187866 0.801758
vt1 0.600586 0.717285
vt1 0.058441 0.706055
vt1 0.717773 0.588379
vt1 0.437744 0.482178
vt1 0.209595 0.516602
vt1 0.824707 0.539551
vt1 0.961914 0.537109
vt1 0.977539 0.693848
vt1 0.832031 0.464111
vt1 0.917480 0.413086
vt1 0.977539 0.439209
vt1 0.974609 0.349609
vt1 0.895996 0.316406
vt1 0.009995 0.213257
vt1 0.344238 0.083862
vt1 0.037323 0.247437
vt1 0.320557 0.051361
vt1 0.674316 0.011559
vt1 0.687988 0.032104
vt1 0.188477 0.279297
vt1 0.276855 0.308838
vt1 0.265381 0.272705
vt1 0.219238 0.251221
vt1 0.122742 0.242188
vt1 0.116028 0.248657
vt1 0.137695 0.051025
vt1 0.010010 0.026459
vt1 0.033783 0.075989
vt1 0.139526 0.091187
vt1 0.268066 0.058807
vt1 0.269043 0.050049
vt1 0.640137 0.103577
vt1 0.750488 0.119080
vt1 0.745605 0.066406
vt1 0.651855 0.059387
vt1 0.532715 0.106323
vt1 0.528809 0.116028
vt1 0.063721 0.877930
vt1 0.012680 0.777832
vt1 0.009995 0.860352
vt1 0.061707 0.800293
vt1 0.030334 0.699219
vt1 0.021591 0.695801
vt1 0.978027 0.874023
vt1 0.915039 0.962402
vt1 0.989746 0.950684
vt1 0.909668 0.891602
vt1 0.830566 0.955078
vt1 0.832031 0.967285
vn 0.047244 0.165354 -0.984252
vn 0.055118 0.181102 -0.984252
vn 0.055118 0.181102 -0.984252
vn 0.047244 0.149606 -0.992126
vn 0.023622 0.086614 -0.992126
vn 0.031496 0.094488 -0.992126
vn 0.015748 0.055118 -1.000000
vn 0.015748 0.055118 -1.000000
vn -0.338583 0.165354 0.929134
vn -0.314961 0.149606 0.937008
vn -0.338583 0.165354 0.929134
vn -0.307087 0.141732 0.944882
vn -0.244094 0.110236 0.960630
vn -0.228346 0.110236 0.968504
vn -0.141732 0.062992 0.992126
vn -0.149606 0.070866 0.984252
vn -0.094488 0.039370 0.992126
vn -0.094488 0.039370 0.992126
vn 0.078740 0.157480 0.984252
vn -0.212598 0.110236 0.968504
vn -0.212598 0.110236 0.968504
vn 0.078740 0.157480 0.984252
vn 0.078740 0.157480 0.984252
vn -0.062992 -0.314961 0.944882
vn 0.149606 -0.086614 0.984252
vn 0.149606 -0.086614 0.984252
vn 0.102362 -0.070866 0.992126
vn 0.157480 -0.149606 0.976378
vn -0.023622 0.000000 1.000000
vn -0.023622 0.000000 1.000000
vn 0.125984 -0.094488 0.984252
vn 0.062992 -0.047244 1.000000
vn 0.062992 -0.047244 1.000000
vn 0.102362 -0.086614 0.992126
vn 0.031496 -0.181102 0.984252
vn 0.031496 -0.181102 0.984252
vn 0.031496 -0.181102 0.984252
vn 0.031496 -0.181102 0.984252
vn 0.338583 0.086614 0.937008
vn 0.188976 0.039370 0.984252
vn 0.338583 0.086614 0.937008
vn 0.188976 0.039370 0.984252
vn 0.015748 -0.015748 1.000000
vn 0.015748 -0.015748 1.000000
vn -0.125984 0.228346 0.968504
vn -0.236220 0.370079 0.897638
vn -0.236220 0.370079 0.897638
vn -0.102362 0.196850 0.976378
vn 0.023622 0.031496 1.000000
vn 0.023622 0.031496 1.000000
vn 0.078740 0.086614 -0.992126
vn 0.062992 0.062992 -0.992126
vn 0.078740 0.086614 -0.992126
vn 0.062992 0.070866 -0.992126
vn 0.031496 0.039370 -1.000000
vn 0.031496 0.039370 -1.000000
vn -0.330709 0.078740 0.944882
vn 0.299213 -0.110236 0.944882
vn 0.299213 -0.110236 0.944882
vn -0.330709 0.078740 0.944882
vn -0.283465 0.062992 0.952756
vn -0.283465 0.062992 0.960630
vn -0.173228 0.039370 0.984252
vn -0.165354 0.039370 0.984252
vn -0.102362 0.023622 0.992126
vn -0.102362 0.023622 0.992126
vn -0.062992 0.149606 -0.984252
vn -0.055118 0.125984 -0.992126
vn -0.062992 0.149606 -0.984252
vn -0.055118 0.133858 -0.992126
vn -0.031496 0.070866 -1.000000
vn -0.031496 0.070866 -1.000000
vn -0.023622 0.047244 -1.000000
vn -0.023622 0.047244 -1.000000
vn 0.070866 0.125984 -0.992126
vn 0.070866 0.125984 -0.992126
vn 0.070866 0.125984 -0.992126
vn 0.070866 0.125984 -0.992126
vn -0.047244 -0.118110 -0.992126
vn -0.047244 -0.118110 -0.992126
vn 0.118110 -0.031496 0.992126
vn 0.236220 -0.062992 0.968504
vn 0.236220 -0.062992 0.968504
vn 0.141732 -0.039370 0.992126
vn 0.000000 0.000000 1.000000
vn 0.000000 0.000000 1.000000
vn 0.023622 -0.267717 0.960630
vn 0.015748 -0.448819 0.889764
vn 0.015748 -0.448819 0.889764
vn 0.023622 -0.259843 0.968504
vn 0.031496 -0.039370 1.000000
vn 0.031496 -0.039370 1.000000
vn 0.031496 -0.023622 1.000000
vn 0.062992 -0.039370 1.000000
vn 0.062992 -0.039370 1.000000
vn 0.031496 -0.015748 1.000000
vn 0.000000 0.000000 1.000000
vn 0.000000 0.000000 1.000000
vn -0.086614 0.062992 0.992126
vn -0.047244 0.031496 1.000000
vn -0.086614 0.062992 0.992126
vn -0.047244 0.039370 1.000000
vn 0.000000 0.000000 1.000000
vn 0.000000 0.000000 1.000000
vn 0.330709 -0.047244 0.944882
vn 0.173228 -0.023622 0.984252
vn 0.330709 -0.047244 0.944882
vn 0.196850 -0.031496 0.984252
vn 0.000000 0.000000 1.000000
vn 0.000000 0.000000 1.000000
tan -0.841094 0.534813 0.049476 1.000000
tan -0.846550 0.536983 0.051398 1.000000
tan -0.846550 0.536983 0.051398 1.000000
tan -0.850456 0.538285 0.040672 1.000000
tan -0.835576 0.533263 0.026660 1.000000
tan -0.837002 0.534193 0.024304 1.000000
tan -0.845558 0.536301 0.016244 1.000000
tan -0.845558 0.536301 0.016244 1.000000
tan -0.842644 0.392399 -0.376899 1.000000
tan -0.848472 0.391035 -0.347635 1.000000
tan -0.842644 0.392399 -0.376899 1.000000
tan -0.855602 0.394321 -0.337219 1.000000
tan -0.869862 0.400893 -0.267035 1.000000
tan -0.876992 0.404179 -0.252775 1.000000
tan -0.898382 0.414037 -0.154628 1.000000
tan -0.891252 0.410751 -0.165044 1.000000
tan -0.898072 0.414781 -0.101990 1.000000
tan -0.898072 0.414781 -0.101990 1.000000
tan 0.786782 -0.618141 0.035960 1.000000
tan 0.765020 -0.597247 0.235910 1.000000
tan 0.765020 -0.597247 0.235910 1.000000
tan 0.786782 -0.618141 0.035960 1.000000
tan 0.802282 -0.594891 0.031000 1.000000
tan 0.781202 -0.605617 -0.149792 1.000000
tan 0.772956 -0.608035 -0.170996 1.000000
tan 0.772956 -0.608035 -0.170996 1.000000
tan 0.780644 -0.610143 -0.124124 1.000000
tan 0.755781 -0.612561 -0.215760 1.000000
tan 0.787402 -0.614545 0.018600 1.000000
tan 0.787402 -0.614545 0.018600 1.000000
tan 0.775002 -0.604501 -0.157232 1.000000
tan 0.787402 -0.614173 -0.078616 1.000000
tan 0.787402 -0.614173 -0.078616 1.000000
tan 0.781884 -0.608531 -0.133796 1.000000
tan 0.780892 -0.608531 -0.136958 1.000000
tan 0.780892 -0.616281 -0.138384 1.000000
tan 0.813318 -0.569533 -0.130820 1.000000
tan 0.814744 -0.561535 -0.129394 1.000000
tan 0.908178 0.218674 -0.348379 1.000000
tan 0.952942 0.233988 -0.192324 1.000000
tan 0.908178 0.218674 -0.348379 1.000000
tan 0.952942 0.233988 -0.192324 1.000000
tan 0.968752 0.236468 -0.011532 1.000000
tan 0.968752 0.236468 -0.011532 1.000000
tan -0.506913 0.829252 -0.261455 1.000000
tan -0.463575 0.765206 -0.437473 1.000000
tan -0.463575 0.765206 -0.437473 1.000000
tan -0.510509 0.836382 -0.222146 1.000000
tan -0.520925 0.859198 -0.014756 1.000000
tan -0.520925 0.851324 -0.014508 1.000000
tan 0.721123 -0.696757 -0.003596 1.000000
tan 0.716845 -0.693409 0.001488 1.000000
tan 0.721123 -0.696757 -0.003596 1.000000
tan 0.717589 -0.693409 -0.003968 1.000000
tan 0.718705 -0.694649 -0.004712 1.000000
tan 0.718705 -0.694649 -0.004712 1.000000
tan -0.914502 0.233244 -0.339513 1.000000
tan -0.919462 0.218860 0.316697 1.000000
tan -0.919462 0.218860 0.316697 1.000000
tan -0.914502 0.233244 -0.339513 1.000000
tan -0.922748 0.225060 -0.289417 1.000000
tan -0.930374 0.226920 -0.289417 1.000000
tan -0.953252 0.232500 -0.177072 1.000000
tan -0.953252 0.232500 -0.169446 1.000000
tan -0.960878 0.234360 -0.104718 1.000000
tan -0.960878 0.234360 -0.104718 1.000000
tan 0.908240 0.413417 0.004712 1.000000
tan 0.915246 0.413603 0.001674 1.000000
tan 0.908240 0.413417 0.004712 1.000000
tan 0.917354 0.414037 0.004898 1.000000
tan 0.911092 0.411929 0.000496 1.000000
tan 0.911092 0.411929 0.000496 1.000000
tan 0.915618 0.410565 -0.002232 1.000000
tan 0.915618 0.410565 -0.002232 1.000000
tan -0.893794 0.463699 -0.004960 1.000000
tan -0.893794 0.463699 -0.004960 1.000000
tan -0.893794 0.463699 -0.004960 1.000000
tan -0.893794 0.463699 -0.004960 1.000000
tan -0.889826 0.459049 -0.012276 1.000000
tan -0.889826 0.459049 -0.012276 1.000000
tan 0.630541 -0.766136 -0.099386 1.000000
tan 0.624031 -0.757951 -0.201500 1.000000
tan 0.624031 -0.757951 -0.201500 1.000000
tan 0.629673 -0.768926 -0.120466 1.000000
tan 0.629921 -0.779528 0.000000 1.000000
tan 0.629921 -0.779528 0.000000 1.000000
tan 0.050840 -0.960816 -0.269019 1.000000
tan 0.045570 -0.889640 -0.449563 1.000000
tan 0.045570 -0.889640 -0.449563 1.000000
tan 0.051336 -0.968690 -0.261145 1.000000
tan 0.053878 -1.000992 -0.041106 1.000000
tan 0.053878 -1.000992 -0.041106 1.000000
tan 0.645297 -0.764276 -0.038378 1.000000
tan 0.644739 -0.765268 -0.070742 1.000000
tan 0.644739 -0.765268 -0.070742 1.000000
tan 0.645545 -0.764028 -0.032364 1.000000
tan 0.645669 -0.763780 0.000000 1.000000
tan 0.645669 -0.763780 0.000000 1.000000
tan -0.741645 0.656891 -0.106454 1.000000
tan -0.747783 0.661789 -0.056172 1.000000
tan -0.741645 0.656891 -0.106454 1.000000
tan -0.747721 0.661789 -0.061380 1.000000
tan -0.748031 0.661417 0.000000 1.000000
tan -0.748031 0.661417 0.000000 1.000000
tan 0.921446 -0.201252 -0.332569 1.000000
tan 0.960816 -0.202864 -0.173972 1.000000
tan 0.921446 -0.193812 -0.332197 1.000000
tan 0.960506 -0.204600 -0.198648 1.000000
tan 0.976378 -0.204724 0.000000 1.000000
tan 0.976378 -0.204724 0.000000 1.000000
f 3/3/3 2/2/2 1/1/1
f 1/1/1 4/4/4 3/3/3
f 1/1/1 5/5/5 4/4/4
f 6/6/6 4/4/4 5/5/5
f 5/5/5 7/7/7 6/6/6
f 5/5/5 8/8/8 7/7/7
f 11/11/11 10/10/10 9/9/9
f 12/12/12 10/10/10 11/11/11
f 12/12/12 13/13/13 10/10/10
f 14/14/14 13/13/13 12/12/12
f 14/14/14 15/15/15 13/13/13
f 14/14/14 16/16/16 15/15/15
f 16/16/16 17/17/17 15/15/15
f 18/18/18 15/15/15 17/17/17
f 21/21/21 20/20/20 19/19/19
f 22/22/22 19/19/19 20/20/20
f 19/19/19 22/22/22 23/23/23
f 23/23/23 22/22/22 24/24/24
f 26/26/26 25/25/25 24/24/24
f 27/27/27 24/24/24 25/25/25
f 23/23/23 24/24/24 28/28/28
f 23/23/23 28/28/28 29/29/29
f 29/29/29 28/28/28 30/30/30
f 31/31/31 28/28/28 24/24/24
f 31/31/31 24/24/24 27/27/27
f 33/33/33 32/32/32 27/27/27
f 34/34/34 27/27/27 32/32/32
f 27/27/27 34/34/34 31/31/31
f 31/31/31 34/34/34 35/35/35
f 36/36/36 31/31/31 35/35/35
f 36/36/36 35/35/35 37/37/37
f 37/37/37 35/35/35 38/38/38
f 41/41/41 40/40/40 39/39/39
f 42/42/42 39/39/39 40/40/40
f 40/40/40 43/43/43 42/42/42
f 44/44/44 42/42/42 43/43/43
f 47/47/47 46/46/46 45/45/45
f 48/48/48 45/45/45 46/46/46
f 48/48/48 49/49/49 45/45/45
f 49/49/49 48/48/48 50/50/50
f 53/53/53 52/52/52 51/51/51
f 54/54/54 51/51/51 52/52/52
f 54/54/54 52/52/52 55/55/55
f 56/56/56 55/55/55 52/52/52
f 59/59/59 58/58/58 57/57/57
f 58/58/58 60/60/60 57/57/57
f 61/61/61 57/57/57 60/60/60
f 62/62/62 57/57/57 61/61/61
f 61/61/61 63/63/63 62/62/62
f 63/63/63 64/64/64 62/62/62
f 64/64/64 63/63/63 65/65/65
f 66/66/66 65/65/65 63/63/63
f 69/69/69 68/68/68 67/67/67
f 67/67/67 68/68/68 70/70/70
f 70/70/70 68/68/68 71/71/71
f 72/72/72 71/71/71 68/68/68
f 72/72/72 73/73/73 71/71/71
f 74/74/74 71/71/71 73/73/73
f 77/77/77 76/76/76 75/75/75
f 78/78/78 75/75/75 76/76/76
f 78/78/78 76/76/76 79/79/79
f 79/79/79 76/76/76 80/80/80
f 83/83/83 82/82/82 81/81/81
f 84/84/84 83/83/83 81/81/81
f 84/84/84 81/81/81 85/85/85
f 86/86/86 85/85/85 81/81/81
f 89/89/89 88/88/88 87/87/87
f 87/87/87 90/90/90 89/89/89
f 90/90/90 87/87/87 91/91/91
f 92/92/92 91/91/91 87/87/87
f 95/95/95 94/94/94 93/93/93
f 96/96/96 95/95/95 93/93/93
f 96/96/96 93/93/93 97/97/97
f 98/98/98 97/97/97 93/93/93
f 101/101/101 100/100/100 99/99/99
f 100/100/100 102/102/102 99/99/99
f 100/100/100 103/103/103 102/102/102
f 104/104/104 103/103/103 100/100/100
f 107/107/107 106/106/106 105/105/105
f 108/108/108 105/105/105 106/106/106
f 106/106/106 109/109/109 108/108/108
f 109/109/109 106/106/106 110/110/110
