mtllib SM_AcaciaDeadLeaves_03_LOD1.mtl
g SM_AcaciaDeadLeaves_03_LOD1
#Vertices 90
#Indices 186
#Section 0 Offset 0 NumIndices 186 MaterialIndex 0 MI_Acacia_01
v 0.036910 -0.065731 0.007114 0.000000 0.427451 0.000000 1.000000
v 0.108189 -0.102558 -0.000000 0.000000 0.427451 0.000000 1.000000
v 0.102490 -0.109999 -0.000000 0.000000 0.427451 0.000000 1.000000
v 0.058945 -0.023764 0.008521 0.000000 0.427451 0.000000 1.000000
v -0.035077 -0.082381 0.016621 0.000000 0.427451 0.000000 1.000000
v 0.016178 0.099678 0.030143 0.000000 0.427451 0.000000 1.000000
v -0.067440 0.008633 0.024930 0.000000 0.427451 0.000000 1.000000
v -0.058031 0.055677 0.016975 0.000000 0.427451 0.000000 1.000000
v -0.126613 0.018254 0.009066 0.000000 0.427451 0.000000 1.000000
v -0.136529 0.049187 0.004967 0.000000 0.427451 0.000000 1.000000
v -0.186674 0.192531 0.016164 0.000000 0.427451 0.000000 1.000000
v -0.140353 0.183235 0.000364 0.000000 0.427451 0.000000 1.000000
v -0.183761 0.174960 0.016720 0.000000 0.427451 0.000000 1.000000
v -0.148426 0.207413 0.000933 0.000000 0.427451 0.000000 1.000000
v -0.097109 0.208992 -0.000000 0.000000 0.427451 0.000000 1.000000
v -0.099000 0.216427 -0.000000 0.000000 0.427451 0.000000 1.000000
v 0.167496 -0.025153 0.001510 0.000000 0.427451 0.000000 1.000000
v 0.206350 -0.039069 0.017655 0.000000 0.427451 0.000000 1.000000
v 0.193896 -0.050643 0.019156 0.000000 0.427451 0.000000 1.000000
v 0.190528 -0.006724 -0.000000 0.000000 0.427451 0.000000 1.000000
v 0.150290 0.027680 -0.000000 0.000000 0.427451 0.000000 1.000000
v 0.156244 0.031396 -0.000000 0.000000 0.427451 0.000000 1.000000
v -0.051290 0.247403 0.007350 0.000000 0.427451 0.000000 1.000000
v -0.050475 0.180597 0.001684 0.000000 0.427451 0.000000 1.000000
v -0.017097 0.189570 0.004751 0.000000 0.427451 0.000000 1.000000
v -0.086995 0.227212 0.002327 0.000000 0.427451 0.000000 1.000000
v -0.091204 0.174162 0.000000 0.000000 0.427451 0.000000 1.000000
v -0.081498 0.164803 0.000000 0.000000 0.427451 0.000000 1.000000
v 0.245152 -0.000441 0.045641 0.000000 0.427451 0.000000 1.000000
v 0.367926 0.206564 0.031149 0.000000 0.427451 0.000000 1.000000
v 0.342959 0.031412 0.015463 0.000000 0.427451 0.000000 1.000000
v 0.334908 0.318970 0.051827 0.000000 0.427451 0.000000 1.000000
v 0.194480 0.299729 0.010729 0.000000 0.427451 0.000000 1.000000
v 0.118527 0.045025 0.007831 0.000000 0.427451 0.000000 1.000000
v 0.057401 0.149111 -0.000000 0.000000 0.427451 0.000000 1.000000
v 0.078485 0.239719 -0.000000 0.000000 0.427451 0.000000 1.000000
v -0.183099 -0.084006 0.007445 0.000000 0.427451 0.000000 1.000000
v -0.105988 -0.076255 0.003976 0.000000 0.427451 0.000000 1.000000
v -0.123177 -0.019074 0.014143 0.000000 0.427451 0.000000 1.000000
v -0.149603 -0.117205 0.001978 0.000000 0.427451 0.000000 1.000000
v -0.120418 -0.144531 0.000000 0.000000 0.427451 0.000000 1.000000
v -0.081553 -0.126972 0.000000 0.000000 0.427451 0.000000 1.000000
v -0.070362 0.185591 0.015984 0.000000 0.427451 0.000000 1.000000
v -0.135609 0.202996 0.015165 0.000000 0.427451 0.000000 1.000000
v -0.093560 0.134662 0.005491 0.000000 0.427451 0.000000 1.000000
v -0.174682 0.156906 0.005001 0.000000 0.427451 0.000000 1.000000
v -0.159750 0.084701 0.000000 0.000000 0.427451 0.000000 1.000000
v -0.126290 0.074049 0.000000 0.000000 0.427451 0.000000 1.000000
v -0.162534 -0.058108 0.000000 0.000000 0.427451 0.000000 1.000000
v -0.087909 0.067077 0.021694 0.000000 0.427451 0.000000 1.000000
v -0.182250 -0.047875 0.000000 0.000000 0.427451 0.000000 1.000000
v -0.069145 0.058148 0.021895 0.000000 0.427451 0.000000 1.000000
v -0.046180 0.190632 0.004993 0.000000 0.427451 0.000000 1.000000
v -0.058027 0.195791 0.004979 0.000000 0.427451 0.000000 1.000000
v 0.447437 -0.123274 0.061447 0.000000 0.427451 0.000000 1.000000
v 0.319398 -0.017658 0.009597 0.000000 0.427451 0.000000 1.000000
v 0.454776 -0.073648 0.055263 0.000000 0.427451 0.000000 1.000000
v 0.328120 0.006353 0.009259 0.000000 0.427451 0.000000 1.000000
v 0.235258 0.022263 -0.000000 0.000000 0.427451 0.000000 1.000000
v 0.228309 0.006816 -0.000000 0.000000 0.427451 0.000000 1.000000
v -0.180309 -0.017606 -0.000000 0.000000 0.427451 0.000000 1.000000
v -0.201927 0.013328 0.010054 0.000000 0.427451 0.000000 1.000000
v -0.181039 0.010531 0.002113 0.000000 0.427451 0.000000 1.000000
v -0.166343 -0.005379 -0.000000 0.000000 0.427451 0.000000 1.000000
v -0.155669 -0.040023 -0.000000 0.000000 0.427451 0.000000 1.000000
v -0.158893 -0.042695 -0.000000 0.000000 0.427451 0.000000 1.000000
v -0.247088 0.131024 0.002137 0.000000 0.427451 0.000000 1.000000
v -0.260988 0.177952 0.025921 0.000000 0.427451 0.000000 1.000000
v -0.232927 0.169217 0.021168 0.000000 0.427451 0.000000 1.000000
v -0.224356 0.130334 0.001208 0.000000 0.427451 0.000000 1.000000
v -0.242682 0.083069 -0.000000 0.000000 0.427451 0.000000 1.000000
v -0.247625 0.082766 -0.000000 0.000000 0.427451 0.000000 1.000000
v 0.356398 0.062306 0.000012 0.000000 0.427451 0.000000 1.000000
v 0.315037 0.094295 0.004310 0.000000 0.427451 0.000000 1.000000
v 0.342328 0.103235 0.002356 0.000000 0.427451 0.000000 1.000000
v 0.374458 0.074862 0.000012 0.000000 0.427451 0.000000 1.000000
v 0.388006 0.027554 -0.000000 0.000000 0.427451 0.000000 1.000000
v 0.384370 0.024443 -0.000000 0.000000 0.427451 0.000000 1.000000
v 0.140120 -0.019094 0.003664 0.000000 0.427451 0.000000 1.000000
v 0.126258 0.019698 -0.000004 0.000000 0.427451 0.000000 1.000000
v 0.156274 -0.002045 0.003909 0.000000 0.427451 0.000000 1.000000
v 0.113768 0.002401 -0.000005 0.000000 0.427451 0.000000 1.000000
v 0.091431 0.036931 -0.000000 0.000000 0.427451 0.000000 1.000000
v 0.093928 0.039801 -0.000000 0.000000 0.427451 0.000000 1.000000
v 0.070496 -0.033169 0.012184 0.000000 0.427451 0.000000 1.000000
v 0.100913 -0.060867 -0.000000 0.000000 0.427451 0.000000 1.000000
v 0.064717 -0.057155 0.012678 0.000000 0.427451 0.000000 1.000000
v 0.103306 -0.038580 -0.000000 0.000000 0.427451 0.000000 1.000000
v 0.141666 -0.058462 -0.000000 0.000000 0.427451 0.000000 1.000000
v 0.140882 -0.062381 -0.000000 0.000000 0.427451 0.000000 1.000000
vt 0.700684 0.293457
vt 0.693359 0.253906
vt 0.698242 0.253418
vt 0.677246 0.297363
vt 0.729492 0.316895
vt 0.642090 0.354492
vt 0.703613 0.360352
vt 0.682129 0.371582
vt 0.718262 0.387695
vt 0.708984 0.401367
vt 0.133057 0.091309
vt 0.144409 0.064941
vt 0.143188 0.091797
vt 0.129883 0.066406
vt 0.135986 0.037109
vt 0.131592 0.037598
vt 0.162598 0.072754
vt 0.175903 0.091309
vt 0.167358 0.093262
vt 0.177612 0.070801
vt 0.169189 0.044922
vt 0.172729 0.044922
vt 0.242676 0.233398
vt 0.218750 0.209961
vt 0.233643 0.201172
vt 0.222778 0.239258
vt 0.202271 0.222656
vt 0.202271 0.215820
vt 0.436768 0.302734
vt 0.551758 0.345703
vt 0.463867 0.357422
vt 0.602539 0.309082
vt 0.576660 0.239746
vt 0.443848 0.232910
vt 0.487061 0.190918
vt 0.533691 0.190430
vt 0.302490 0.245117
vt 0.290039 0.208496
vt 0.320068 0.204590
vt 0.280273 0.236816
vt 0.261963 0.229004
vt 0.261963 0.207520
vt 0.330811 0.237305
vt 0.341064 0.205078
vt 0.358887 0.241211
vt 0.371338 0.201172
vt 0.397949 0.227051
vt 0.393311 0.243652
vt 0.754395 0.162598
vt 0.680664 0.166992
vt 0.754395 0.151367
vt 0.680176 0.177246
vt 0.612305 0.156738
vt 0.612793 0.150391
vt 0.848145 0.371094
vt 0.869141 0.286621
vt 0.872070 0.363281
vt 0.881836 0.285645
vt 0.869629 0.239746
vt 0.861328 0.239746
vt 0.123718 0.063965
vt 0.121826 0.092285
vt 0.111633 0.080078
vt 0.110657 0.064453
vt 0.120178 0.041016
vt 0.123169 0.041016
vt 0.214966 0.064453
vt 0.222534 0.099121
vt 0.204468 0.091797
vt 0.200195 0.062988
vt 0.213745 0.032715
vt 0.216919 0.032227
vt 0.214966 0.064453
vt 0.222534 0.099121
vt 0.204468 0.091797
vt 0.200195 0.062988
vt 0.213745 0.032715
vt 0.216919 0.032227
vt 0.066284 0.094238
vt 0.078369 0.072266
vt 0.080627 0.094727
vt 0.065369 0.073242
vt 0.072083 0.049316
vt 0.074463 0.049316
vt 0.066284 0.094238
vt 0.078369 0.072266
vt 0.080627 0.094727
vt 0.065369 0.073242
vt 0.072083 0.049316
vt 0.074463 0.049316
vt1 0.745605 0.379883
vt1 0.843750 0.502930
vt1 0.863770 0.493164
vt1 0.633301 0.417969
vt1 0.790039 0.255371
vt1 0.304199 0.343994
vt1 0.546875 0.199585
vt1 0.421631 0.215820
vt1 0.521484 0.097412
vt1 0.438965 0.080261
vt1 0.859863 0.282227
vt1 0.832520 0.193481
vt1 0.808105 0.276611
vt1 0.904297 0.208862
vt1 0.908691 0.110535
vt1 0.930664 0.114136
vt1 0.041901 0.567383
vt1 0.114014 0.527344
vt1 0.090881 0.494385
vt1 0.084656 0.620117
vt1 0.009995 0.718750
vt1 0.021042 0.729492
vt1 0.021317 0.327393
vt1 0.188477 0.261475
vt1 0.187866 0.324463
vt1 0.048370 0.249512
vt1 0.177979 0.189209
vt1 0.207642 0.195435
vt1 0.801270 0.792480
vt1 0.288574 0.989746
vt1 0.722656 0.949707
vt1 0.009995 0.936523
vt1 0.057678 0.711426
vt1 0.688965 0.589355
vt1 0.430908 0.491455
vt1 0.206421 0.525391
vt1 0.761719 0.214355
vt1 0.748047 0.065430
vt1 0.920410 0.056458
vt1 0.650879 0.175781
vt1 0.559082 0.141113
vt1 0.591309 0.056305
vt1 0.768555 0.608887
vt1 0.886719 0.560547
vt1 0.810547 0.751953
vt1 0.958008 0.689453
vt1 0.930664 0.892090
vt1 0.870117 0.921875
vt1 0.009995 0.204102
vt1 0.332520 0.079590
vt1 0.036346 0.236938
vt1 0.309326 0.048309
vt1 0.650879 0.009995
vt1 0.664062 0.029755
vt1 0.145874 0.441162
vt1 0.570801 0.486816
vt1 0.271729 0.344482
vt1 0.625977 0.431152
vt1 0.770508 0.566406
vt1 0.736328 0.604980
vt1 0.351318 0.229370
vt1 0.379639 0.144043
vt1 0.344971 0.155151
vt1 0.324219 0.199707
vt1 0.315674 0.292725
vt1 0.321777 0.299072
vt1 0.133179 0.051178
vt1 0.009995 0.027542
vt1 0.032928 0.075256
vt1 0.134888 0.089783
vt1 0.259033 0.058685
vt1 0.259766 0.050262
vt1 0.116150 0.369873
vt1 0.009995 0.354980
vt1 0.014580 0.405762
vt1 0.104736 0.412354
vt1 0.219727 0.367188
vt1 0.223267 0.357666
vt1 0.293701 0.327393
vt1 0.244507 0.230713
vt1 0.242065 0.310303
vt1 0.291748 0.252686
vt1 0.261475 0.155029
vt1 0.252930 0.151855
vt1 0.791016 0.332764
vt1 0.876465 0.393311
vt1 0.864746 0.321289
vt1 0.807617 0.398193
vt1 0.869141 0.474609
vt1 0.880859 0.473145
vn 0.118110 -0.094488 0.992126
vn 0.062992 -0.062992 0.992126
vn 0.062992 -0.062992 0.992126
vn 0.125984 -0.102362 0.984252
vn 0.157480 -0.118110 0.984252
vn 0.157480 -0.118110 0.984252
vn -0.047244 -0.007874 1.000000
vn -0.047244 -0.007874 1.000000
vn -0.196850 0.149606 0.968504
vn -0.196850 0.149606 0.968504
vn 0.338583 0.086614 0.937008
vn 0.188976 0.039370 0.984252
vn 0.338583 0.086614 0.937008
vn 0.188976 0.039370 0.984252
vn 0.015748 -0.015748 1.000000
vn 0.015748 -0.015748 1.000000
vn -0.125984 0.228346 0.968504
vn -0.236220 0.370079 0.897638
vn -0.236220 0.370079 0.897638
vn -0.102362 0.196850 0.976378
vn 0.023622 0.031496 1.000000
vn 0.023622 0.031496 1.000000
vn 0.078740 0.086614 -0.992126
vn 0.062992 0.062992 -0.992126
vn 0.078740 0.086614 -0.992126
vn 0.062992 0.070866 -0.992126
vn 0.031496 0.039370 -1.000000
vn 0.031496 0.039370 -1.000000
vn -0.275591 0.062992 0.960630
vn 0.299213 -0.110236 0.944882
vn 0.299213 -0.110236 0.944882
vn -0.275591 0.062992 0.960630
vn -0.228346 0.055118 0.976378
vn -0.220472 0.047244 0.976378
vn -0.102362 0.015748 0.992126
vn -0.102362 0.015748 0.992126
vn -0.055118 0.141732 -0.992126
vn -0.047244 0.110236 -0.992126
vn -0.055118 0.141732 -0.992126
vn -0.039370 0.102362 -0.992126
vn -0.023622 0.062992 -1.000000
vn -0.023622 0.062992 -1.000000
vn 0.055118 0.173228 -0.984252
vn 0.055118 0.173228 -0.984252
vn 0.039370 0.133858 -0.992126
vn 0.039370 0.125984 -0.992126
vn 0.023622 0.078740 -1.000000
vn 0.023622 0.078740 -1.000000
vn 0.070866 0.125984 -0.992126
vn 0.070866 0.125984 -0.992126
vn 0.070866 0.125984 -0.992126
vn 0.070866 0.125984 -0.992126
vn -0.047244 -0.118110 -0.992126
vn -0.047244 -0.118110 -0.992126
vn -0.259843 0.141732 0.952756
vn -0.181102 0.094488 0.976378
vn -0.259843 0.141732 0.952756
vn -0.181102 0.094488 0.976378
vn -0.094488 0.047244 0.992126
vn -0.094488 0.047244 0.992126
vn 0.118110 -0.031496 0.992126
vn 0.236220 -0.062992 0.968504
vn 0.236220 -0.062992 0.968504
vn 0.141732 -0.039370 0.992126
vn 0.000000 0.000000 1.000000
vn 0.000000 0.000000 1.000000
vn 0.023622 -0.267717 0.960630
vn 0.015748 -0.448819 0.889764
vn 0.015748 -0.448819 0.889764
vn 0.023622 -0.259843 0.968504
vn 0.031496 -0.039370 1.000000
vn 0.031496 -0.039370 1.000000
vn 0.031496 -0.023622 1.000000
vn 0.062992 -0.039370 1.000000
vn 0.062992 -0.039370 1.000000
vn 0.031496 -0.015748 1.000000
vn 0.000000 0.000000 1.000000
vn 0.000000 0.000000 1.000000
vn -0.086614 0.062992 0.992126
vn -0.047244 0.031496 1.000000
vn -0.086614 0.062992 0.992126
vn -0.047244 0.039370 1.000000
vn 0.000000 0.000000 1.000000
vn 0.000000 0.000000 1.000000
vn 0.330709 -0.047244 0.944882
vn 0.173228 -0.023622 0.984252
vn 0.330709 -0.047244 0.944882
vn 0.196850 -0.031496 0.984252
vn 0.000000 0.000000 1.000000
vn 0.000000 0.000000 1.000000
tan 0.781202 -0.609337 -0.151032 1.000000
tan 0.781698 -0.608841 -0.088288 1.000000
tan 0.781698 -0.608841 -0.088288 1.000000
tan 0.775002 -0.612251 -0.162874 1.000000
tan 0.774072 -0.605741 -0.196540 1.000000
tan 0.774072 -0.605741 -0.196540 1.000000
tan 0.787712 -0.616033 0.032364 1.000000
tan 0.787712 -0.616033 0.032364 1.000000
tan 0.762601 -0.594829 0.246884 1.000000
tan 0.762601 -0.594829 0.246884 1.000000
tan 0.908178 0.218674 -0.348379 1.000000
tan 0.952942 0.233988 -0.192324 1.000000
tan 0.908178 0.218674 -0.348379 1.000000
tan 0.952942 0.233988 -0.192324 1.000000
tan 0.968752 0.236468 -0.011532 1.000000
tan 0.968752 0.236468 -0.011532 1.000000
tan -0.506913 0.829252 -0.261455 1.000000
tan -0.463575 0.765206 -0.437473 1.000000
tan -0.463575 0.765206 -0.437473 1.000000
tan -0.510509 0.836382 -0.222146 1.000000
tan -0.520925 0.859198 -0.014756 1.000000
tan -0.520925 0.851324 -0.014508 1.000000
tan 0.721123 -0.696757 -0.003596 1.000000
tan 0.716845 -0.693409 0.001488 1.000000
tan 0.721123 -0.696757 -0.003596 1.000000
tan 0.717589 -0.693409 -0.003968 1.000000
tan 0.718705 -0.694649 -0.004712 1.000000
tan 0.718705 -0.694649 -0.004712 1.000000
tan -0.929878 0.236654 -0.282287 1.000000
tan -0.919462 0.218860 0.316697 1.000000
tan -0.919462 0.218860 0.316697 1.000000
tan -0.930374 0.226920 -0.281791 1.000000
tan -0.945626 0.230640 -0.234174 1.000000
tan -0.945626 0.230640 -0.224688 1.000000
tan -0.960754 0.235166 -0.102858 1.000000
tan -0.960754 0.235166 -0.102858 1.000000
tan 0.911774 0.414471 0.008556 1.000000
tan 0.911402 0.411805 0.002356 1.000000
tan 0.911774 0.414471 0.008556 1.000000
tan 0.909666 0.410565 0.006262 1.000000
tan 0.909480 0.410937 0.004402 1.000000
tan 0.909480 0.410937 0.004402 1.000000
tan -0.843760 0.536549 0.047182 1.000000
tan -0.843760 0.536549 0.047182 1.000000
tan -0.845992 0.536487 0.038812 1.000000
tan -0.843946 0.536177 0.034596 1.000000
tan -0.848720 0.537293 0.022258 1.000000
tan -0.848720 0.537293 0.022258 1.000000
tan -0.893794 0.463699 -0.004960 1.000000
tan -0.893794 0.463699 -0.004960 1.000000
tan -0.893794 0.463699 -0.004960 1.000000
tan -0.893794 0.463699 -0.004960 1.000000
tan -0.889826 0.459049 -0.012276 1.000000
tan -0.889826 0.459049 -0.012276 1.000000
tan -0.864964 0.401017 -0.295555 1.000000
tan -0.884866 0.413727 -0.204166 1.000000
tan -0.864964 0.401017 -0.295555 1.000000
tan -0.884866 0.413727 -0.204166 1.000000
tan -0.898382 0.414037 -0.105276 1.000000
tan -0.898382 0.414037 -0.105276 1.000000
tan 0.630541 -0.766136 -0.099386 1.000000
tan 0.624031 -0.757951 -0.201500 1.000000
tan 0.624031 -0.757951 -0.201500 1.000000
tan 0.629673 -0.768926 -0.120466 1.000000
tan 0.629921 -0.779528 0.000000 1.000000
tan 0.629921 -0.779528 0.000000 1.000000
tan 0.050840 -0.960816 -0.269019 1.000000
tan 0.045570 -0.889640 -0.449563 1.000000
tan 0.045570 -0.889640 -0.449563 1.000000
tan 0.051336 -0.968690 -0.261145 1.000000
tan 0.053878 -1.000992 -0.041106 1.000000
tan 0.053878 -1.000992 -0.041106 1.000000
tan 0.645297 -0.764276 -0.038378 1.000000
tan 0.644739 -0.765268 -0.070742 1.000000
tan 0.644739 -0.765268 -0.070742 1.000000
tan 0.645545 -0.764028 -0.032364 1.000000
tan 0.645669 -0.763780 0.000000 1.000000
tan 0.645669 -0.763780 0.000000 1.000000
tan -0.741645 0.656891 -0.106454 1.000000
tan -0.747783 0.661789 -0.056172 1.000000
tan -0.741645 0.656891 -0.106454 1.000000
tan -0.747721 0.661789 -0.061380 1.000000
tan -0.748031 0.661417 0.000000 1.000000
tan -0.748031 0.661417 0.000000 1.000000
tan 0.921446 -0.201252 -0.332569 1.000000
tan 0.960816 -0.202864 -0.173972 1.000000
tan 0.921446 -0.193812 -0.332197 1.000000
tan 0.960506 -0.204600 -0.198648 1.000000
tan 0.976378 -0.204724 0.000000 1.000000
tan 0.976378 -0.204724 0.000000 1.000000
f 3/3/3 2/2/2 1/1/1
f 4/4/4 1/1/1 2/2/2
f 1/1/1 4/4/4 5/5/5
f 4/4/4 6/6/6 5/5/5
f 5/5/5 6/6/6 7/7/7
f 8/8/8 7/7/7 6/6/6
f 7/7/7 8/8/8 9/9/9
f 10/10/10 9/9/9 8/8/8
f 13/13/13 12/12/12 11/11/11
f 14/14/14 11/11/11 12/12/12
f 12/12/12 15/15/15 14/14/14
f 16/16/16 14/14/14 15/15/15
f 19/19/19 18/18/18 17/17/17
f 20/20/20 17/17/17 18/18/18
f 20/20/20 21/21/21 17/17/17
f 21/21/21 20/20/20 22/22/22
f 25/25/25 24/24/24 23/23/23
f 26/26/26 23/23/23 24/24/24
f 26/26/26 24/24/24 27/27/27
f 28/28/28 27/27/27 24/24/24
f 31/31/31 30/30/30 29/29/29
f 30/30/30 32/32/32 29/29/29
f 33/33/33 29/29/29 32/32/32
f 33/33/33 34/34/34 29/29/29
f 34/34/34 33/33/33 35/35/35
f 36/36/36 35/35/35 33/33/33
f 39/39/39 38/38/38 37/37/37
f 40/40/40 37/37/37 38/38/38
f 40/40/40 38/38/38 41/41/41
f 42/42/42 41/41/41 38/38/38
f 45/45/45 44/44/44 43/43/43
f 45/45/45 46/46/46 44/44/44
f 47/47/47 46/46/46 45/45/45
f 48/48/48 47/47/47 45/45/45
f 51/51/51 50/50/50 49/49/49
f 52/52/52 49/49/49 50/50/50
f 52/52/52 50/50/50 53/53/53
f 53/53/53 50/50/50 54/54/54
f 57/57/57 56/56/56 55/55/55
f 58/58/58 56/56/56 57/57/57
f 58/58/58 59/59/59 56/56/56
f 60/60/60 56/56/56 59/59/59
f 63/63/63 62/62/62 61/61/61
f 64/64/64 63/63/63 61/61/61
f 64/64/64 61/61/61 65/65/65
f 66/66/66 65/65/65 61/61/61
f 69/69/69 68/68/68 67/67/67
f 67/67/67 70/70/70 69/69/69
f 70/70/70 67/67/67 71/71/71
f 72/72/72 71/71/71 67/67/67
f 75/75/75 74/74/74 73/73/73
f 76/76/76 75/75/75 73/73/73
f 76/76/76 73/73/73 77/77/77
f 78/78/78 77/77/77 73/73/73
f 81/81/81 80/80/80 79/79/79
f 80/80/80 82/82/82 79/79/79
f 80/80/80 83/83/83 82/82/82
f 84/84/84 83/83/83 80/80/80
f 87/87/87 86/86/86 85/85/85
f 88/88/88 85/85/85 86/86/86
f 86/86/86 89/89/89 88/88/88
f 89/89/89 86/86/86 90/90/90
