mtllib SM_Acacia_02_LOD2.mtl
g SM_Acacia_02_LOD2
#Vertices 91
#Indices 243
#Section 0 Offset 0 NumIndices 243 MaterialIndex 0 MI_Acacia_01
v -0.054399 -0.001578 0.197154 1.000000 1.000000 0.000000 1.000000
v -0.075120 0.119254 0.180767 1.000000 1.000000 0.000000 1.000000
v -0.000559 0.027169 0.114218 0.000000 1.000000 0.000000 1.000000
v 0.129677 -0.043158 0.505811 1.000000 0.478431 0.000000 1.000000
v 0.006409 0.041839 0.219958 0.000000 0.478431 0.000000 1.000000
v 0.128398 0.166469 0.496182 1.000000 0.478431 0.000000 1.000000
v 0.005192 0.097046 0.215520 0.000000 0.478431 0.000000 1.000000
v -0.057363 0.061209 0.240569 0.000000 0.788235 0.000000 1.000000
v 0.066775 0.102494 0.422133 1.000000 0.788235 0.000000 1.000000
v 0.014329 0.072526 0.254127 0.000000 0.788235 0.000000 1.000000
v -0.125917 0.082403 0.481091 1.000000 0.788235 0.000000 1.000000
v -0.012440 0.029716 0.216723 0.000000 0.000000 0.000000 1.000000
v 0.063095 0.051883 0.202444 0.000000 0.000000 0.000000 1.000000
v 0.038172 0.081573 0.275006 0.000000 0.000000 0.000000 1.000000
v 0.004483 0.068279 0.275006 0.000000 0.000000 0.000000 1.000000
v 0.008023 0.064657 0.242882 0.000000 0.000000 0.000000 1.000000
v -0.051594 0.068990 0.477806 0.000000 0.000000 0.000000 1.000000
v 0.005687 0.074723 0.242239 0.000000 0.000000 0.000000 1.000000
v -0.019162 -0.030501 0.438581 0.000000 0.000000 0.000000 1.000000
v -0.053154 0.003953 0.564841 0.000000 0.000000 0.000000 1.000000
v -0.002221 0.077776 0.266892 0.000000 0.000000 0.000000 1.000000
v 0.032307 0.137291 0.437325 0.000000 0.000000 0.000000 1.000000
v 0.012304 0.072752 0.267148 0.000000 0.000000 0.000000 1.000000
v 0.155933 0.097858 0.450264 0.000000 0.000000 0.000000 1.000000
v -0.021362 0.201478 0.579967 0.000000 0.000000 0.000000 1.000000
v 0.025553 -0.089050 0.228042 1.000000 0.788235 0.000000 1.000000
v -0.005284 0.033345 0.114130 0.000000 0.788235 0.000000 1.000000
v 0.007238 0.008638 0.102905 0.000000 0.788235 0.000000 1.000000
v -0.040799 0.061529 0.237419 1.000000 0.788235 0.000000 1.000000
v -0.028731 -0.000936 0.340338 1.000000 0.788235 0.000000 1.000000
v -0.121568 0.222613 0.263560 1.000000 0.788235 0.000000 1.000000
v 0.003987 0.040884 0.162189 0.000000 0.788235 0.000000 1.000000
v -0.039780 0.064543 0.121952 0.000000 0.788235 0.000000 1.000000
v 0.003664 0.105170 0.272785 1.000000 0.788235 0.000000 1.000000
v -0.041370 0.188517 0.370099 1.000000 0.788235 0.000000 1.000000
v 0.060542 0.085751 0.175892 0.000000 0.345098 0.000000 1.000000
v 0.199622 0.126613 0.293830 1.000000 0.345098 0.000000 1.000000
v -0.002003 0.056914 0.207459 0.000000 0.345098 0.000000 1.000000
v -0.031691 0.023976 0.379252 1.000000 0.345098 0.000000 1.000000
v 0.072179 0.050657 0.549180 1.000000 0.345098 0.000000 1.000000
v 0.017524 0.089197 0.265466 0.000000 0.000000 0.000000 1.000000
v 0.028690 0.134524 0.526975 0.000000 0.000000 0.000000 1.000000
v 0.004306 0.069311 0.269734 0.000000 0.000000 0.000000 1.000000
v -0.033577 0.039513 0.534291 0.000000 0.000000 0.000000 1.000000
v -0.041314 0.037235 0.642272 0.000000 0.000000 0.000000 1.000000
v 0.004054 0.035192 0.079874 0.000000 0.788235 0.000000 1.000000
v 0.112731 0.072904 0.187146 1.000000 0.788235 0.000000 1.000000
v -0.004481 0.007156 0.085735 0.000000 0.788235 0.000000 1.000000
v 0.040216 -0.074949 0.180172 1.000000 0.788235 0.000000 1.000000
v 0.111489 -0.050260 0.277052 1.000000 0.788235 0.000000 1.000000
v -0.043376 0.030071 0.358189 1.000000 0.788235 0.000000 1.000000
v 0.009317 0.068125 0.205990 0.000000 0.788235 0.000000 1.000000
v -0.006904 0.043440 0.210547 0.000000 0.788235 0.000000 1.000000
v 0.045399 0.157413 0.302770 1.000000 0.788235 0.000000 1.000000
v 0.021367 0.149098 0.427112 1.000000 0.788235 0.000000 1.000000
v -0.002073 0.013237 0.060961 1.000000 0.478431 0.000000 1.000000
v -0.006434 0.001064 -0.000357 1.000000 0.478431 0.000000 1.000000
v -0.000944 0.006411 -0.000818 1.000000 0.478431 0.000000 1.000000
v -0.007789 0.009569 0.062444 1.000000 0.478431 0.000000 1.000000
v -0.000477 0.032962 0.114574 1.000000 0.478431 0.000000 1.000000
v -0.003033 -0.005754 0.000596 1.000000 0.478431 0.000000 1.000000
v -0.006133 0.030382 0.115589 1.000000 0.478431 0.000000 1.000000
v 0.000405 0.052068 0.166595 1.000000 0.478431 0.000000 1.000000
v -0.005794 0.003335 0.064786 1.000000 0.478431 0.000000 1.000000
v -0.004957 0.050690 0.167803 1.000000 0.478431 0.000000 1.000000
v 0.007504 0.068502 0.218326 1.000000 0.478431 0.000000 1.000000
v -0.005244 0.024554 0.117810 1.000000 0.478431 0.000000 1.000000
v 0.002734 0.067276 0.219401 1.000000 0.478431 0.000000 1.000000
v 0.010245 0.079180 0.275690 1.000000 0.478431 0.000000 1.000000
v 0.005867 0.079137 0.275850 1.000000 0.478431 0.000000 1.000000
v -0.005025 0.045309 0.169577 1.000000 0.478431 0.000000 1.000000
v 0.002674 0.062489 0.220979 1.000000 0.478431 0.000000 1.000000
v 0.004586 0.075041 0.276727 1.000000 0.478431 0.000000 1.000000
v 0.000961 0.023533 0.118167 1.000000 0.478431 0.000000 1.000000
v 0.007407 0.060757 0.220880 1.000000 0.478431 0.000000 1.000000
v 0.008171 0.072553 0.277108 1.000000 0.478431 0.000000 1.000000
v 0.011668 0.075111 0.276467 1.000000 0.478431 0.000000 1.000000
v 0.000295 0.043361 0.169465 1.000000 0.478431 0.000000 1.000000
v 0.010392 0.064473 0.219240 1.000000 0.478431 0.000000 1.000000
v 0.010245 0.079180 0.275690 1.000000 0.478431 0.000000 1.000000
v 0.007504 0.068502 0.218326 1.000000 0.478431 0.000000 1.000000
v 0.000405 0.052068 0.166595 1.000000 0.478431 0.000000 1.000000
v 0.003651 0.047539 0.167622 1.000000 0.478431 0.000000 1.000000
v -0.000477 0.032962 0.114574 1.000000 0.478431 0.000000 1.000000
v 0.003907 0.028729 0.116167 1.000000 0.478431 0.000000 1.000000
v 0.001155 0.003150 0.064751 1.000000 0.478431 0.000000 1.000000
v 0.004560 -0.004620 0.000723 1.000000 0.478431 0.000000 1.000000
v 0.003455 0.009270 0.062387 1.000000 0.478431 0.000000 1.000000
v -0.002073 0.013237 0.060961 1.000000 0.478431 0.000000 1.000000
v 0.005851 0.002898 -0.000151 1.000000 0.478431 0.000000 1.000000
v -0.000944 0.006411 -0.000818 1.000000 0.478431 0.000000 1.000000
vt 0.401855 0.570801
vt 0.340088 0.573975
vt 0.383057 0.522461
vt 0.310547 0.967102
vt 0.360840 0.812622
vt 0.415527 0.966705
vt 0.388428 0.812378
vt 0.322266 0.469238
vt 0.245483 0.551025
vt 0.285400 0.469727
vt 0.338379 0.591309
vt 0.234985 0.201660
vt 0.242920 0.240723
vt 0.202271 0.234375
vt 0.202271 0.216309
vt 0.766602 0.404297
vt 0.764648 0.525635
vt 0.761719 0.404297
vt 0.815918 0.502930
vt 0.798340 0.568359
vt 0.799805 0.233887
vt 0.792969 0.325684
vt 0.791992 0.234375
vt 0.728027 0.332520
vt 0.829102 0.400391
vt 0.820801 0.930054
vt 0.780273 0.857300
vt 0.795410 0.857178
vt 0.740723 0.911987
vt 0.757812 0.972229
vt 0.348877 0.348145
vt 0.287598 0.248535
vt 0.319580 0.248535
vt 0.270752 0.312988
vt 0.288086 0.379883
vt 0.096313 0.412109
vt 0.143066 0.485352
vt 0.058472 0.412109
vt 0.009636 0.490234
vt 0.038666 0.587646
vt 0.981445 0.406250
vt 0.986816 0.538330
vt 0.969238 0.406250
vt 0.930176 0.536133
vt 0.921387 0.589600
vt 0.795410 0.857178
vt 0.820801 0.930054
vt 0.780273 0.857300
vt 0.740723 0.911987
vt 0.757812 0.972229
vt 0.820801 0.930054
vt 0.780273 0.857300
vt 0.795410 0.857178
vt 0.740723 0.911987
vt 0.757812 0.972229
vt 0.750000 0.037598
vt 0.773438 0.038086
vt 0.773438 0.039551
vt 0.750000 0.036133
vt 0.729492 0.037598
vt 0.773926 0.036621
vt 0.729492 0.036133
vt 0.709473 0.037598
vt 0.750000 0.034668
vt 0.709473 0.036133
vt 0.691406 0.039551
vt 0.729492 0.034668
vt 0.691406 0.038086
vt 0.672363 0.041504
vt 0.671875 0.040039
vt 0.709473 0.034668
vt 0.691406 0.036621
vt 0.671875 0.038574
vt 0.729492 0.033203
vt 0.690918 0.035156
vt 0.671875 0.037109
vt 0.671875 0.035645
vt 0.709473 0.033203
vt 0.690918 0.033691
vt 0.671875 0.034180
vt 0.690918 0.032227
vt 0.708984 0.030273
vt 0.708984 0.031738
vt 0.729492 0.030273
vt 0.729492 0.031738
vt 0.750000 0.032715
vt 0.773926 0.035156
vt 0.750000 0.031250
vt 0.750000 0.030273
vt 0.773926 0.033691
vt 0.774414 0.032227
vt1 0.489990 0.278564
vt1 0.541504 0.451660
vt1 0.640625 0.279297
vt1 0.055267 0.319824
vt1 0.500488 0.164307
vt1 0.047729 0.012993
vt1 0.501953 0.083313
vt1 0.710938 0.228394
vt1 0.807129 0.541016
vt1 0.805664 0.280029
vt1 0.511230 0.536133
vt1 0.249146 0.810059
vt1 0.250000 0.693359
vt1 0.136719 0.733887
vt1 0.146851 0.785645
vt1 0.960938 0.033234
vt1 0.978027 0.387207
vt1 0.976074 0.032684
vt1 0.827148 0.324707
vt1 0.882812 0.514160
vt1 0.010796 0.337158
vt1 0.075989 0.597656
vt1 0.032990 0.333496
vt1 0.266113 0.583984
vt1 0.010468 0.830566
vt1 0.423340 0.236450
vt1 0.481934 0.478027
vt1 0.516113 0.450928
vt1 0.293701 0.439697
vt1 0.205566 0.286133
vt1 0.615723 0.894531
vt1 0.298340 0.735352
vt1 0.290039 0.828613
vt1 0.478271 0.684082
vt1 0.675781 0.702148
vt1 0.722168 0.978516
vt1 0.989258 0.918457
vt1 0.653809 0.891602
vt1 0.715820 0.639648
vt1 0.967285 0.487305
vt1 0.583496 0.947754
vt1 0.214600 0.826660
vt1 0.572266 0.981445
vt1 0.179199 0.989258
vt1 0.021576 0.974609
vt1 0.782227 0.044769
vt1 0.552246 0.039703
vt1 0.793945 0.086914
vt1 0.679688 0.244263
vt1 0.500488 0.256592
vt1 0.341553 0.688965
vt1 0.272461 0.457031
vt1 0.242554 0.488770
vt1 0.470215 0.484863
vt1 0.560059 0.647461
vt1 0.053436 0.931641
vt1 0.020248 0.841309
vt1 0.020248 0.841309
vt1 0.053864 0.932617
vt1 0.018723 0.852051
vt1 0.020020 0.840332
vt1 0.018692 0.852051
vt1 0.044922 0.933105
vt1 0.054260 0.933594
vt1 0.045288 0.934082
vt1 0.020096 0.852539
vt1 0.018524 0.852539
vt1 0.020844 0.853027
vt1 0.109070 0.841797
vt1 0.108765 0.841797
vt1 0.045593 0.933594
vt1 0.021286 0.853027
vt1 0.108704 0.842285
vt1 0.018539 0.852539
vt1 0.020920 0.852539
vt1 0.108887 0.842285
vt1 0.109131 0.842285
vt1 0.045105 0.933105
vt1 0.020187 0.852539
vt1 0.109070 0.841797
vt1 0.020096 0.852539
vt1 0.044922 0.933105
vt1 0.044861 0.932617
vt1 0.018723 0.852051
vt1 0.018692 0.852539
vt1 0.054260 0.933594
vt1 0.020142 0.839844
vt1 0.053955 0.932129
vt1 0.053436 0.931641
vt1 0.020218 0.840820
vt1 0.020248 0.841309
vn 0.787402 0.212598 0.582677
vn 0.787402 0.212598 0.582677
vn 0.787402 0.212598 0.582677
vn -0.913386 0.015748 0.401575
vn -0.913386 0.015748 0.401575
vn -0.913386 0.015748 0.401575
vn -0.913386 0.015748 0.401575
vn 0.141732 -0.984252 0.125984
vn 0.141732 -0.984252 0.125984
vn 0.141732 -0.984252 0.125984
vn 0.141732 -0.984252 0.125984
vn -0.330709 0.826772 -0.448819
vn -0.330709 0.826772 -0.448819
vn -0.330709 0.826772 -0.448819
vn -0.330709 0.826772 -0.448819
vn 0.944882 0.220472 0.236220
vn 0.944882 0.220472 0.236220
vn 0.944882 0.220472 0.236220
vn 0.944882 0.220472 0.236220
vn 0.952756 0.236220 0.188976
vn -0.314961 -0.874016 0.370079
vn -0.314961 -0.874016 0.370079
vn -0.314961 -0.874016 0.370079
vn -0.314961 -0.874016 0.370079
vn -0.314961 -0.905512 0.283465
vn 0.905512 0.393701 0.157480
vn 0.905512 0.385827 0.173228
vn 0.905512 0.385827 0.173228
vn 0.905512 0.393701 0.149606
vn 0.913386 0.393701 0.133858
vn -0.653543 -0.661417 0.370079
vn -0.653543 -0.661417 0.370079
vn -0.653543 -0.661417 0.370079
vn -0.653543 -0.661417 0.370079
vn -0.669291 -0.692913 0.283465
vn -0.370079 0.921260 0.110236
vn -0.370079 0.921260 0.110236
vn -0.370079 0.921260 0.110236
vn -0.370079 0.921260 0.110236
vn -0.377953 0.921260 0.086614
vn -0.834646 0.543307 -0.055118
vn -0.834646 0.543307 -0.055118
vn -0.834646 0.543307 -0.055118
vn -0.834646 0.543307 -0.055118
vn -0.834646 0.543307 -0.047244
vn -0.716535 0.322835 0.614173
vn -0.755906 0.346457 0.559055
vn -0.716535 0.322835 0.614173
vn -0.755906 0.346457 0.559055
vn -0.795276 0.362205 0.488189
vn 0.842520 -0.519685 0.149606
vn 0.842520 -0.519685 0.165354
vn 0.842520 -0.519685 0.165354
vn 0.842520 -0.519685 0.141732
vn 0.842520 -0.527559 0.125984
vn 0.000000 0.976378 -0.228346
vn -0.968504 0.236220 -0.055118
vn -0.070866 0.992126 -0.110236
vn -0.960630 0.267717 -0.078740
vn 0.173228 0.921260 -0.346457
vn -0.527559 -0.842520 0.094488
vn -0.881890 0.440945 -0.149606
vn 0.259843 0.905512 -0.330709
vn -0.590551 -0.787402 0.196850
vn -0.826772 0.551181 -0.125984
vn 0.393701 0.881890 -0.259843
vn -0.716535 -0.645669 0.267717
vn -0.740157 0.669291 -0.094488
vn 0.456693 0.874016 -0.181102
vn -0.708661 0.700787 -0.110236
vn -0.803150 -0.535433 0.259843
vn -0.850394 -0.472441 0.212598
vn -0.889764 -0.433071 0.125984
vn 0.448819 -0.834646 0.322835
vn 0.251969 -0.937008 0.236220
vn 0.157480 -0.968504 0.204724
vn 0.984252 -0.157480 0.007874
vn 0.314961 -0.897638 0.307087
vn 0.992126 -0.070866 -0.062992
vn 0.456693 0.874016 -0.181102
vn 0.393701 0.881890 -0.259843
vn 0.259843 0.905512 -0.330709
vn 1.000000 0.015748 -0.070866
vn 0.173228 0.921260 -0.346457
vn 0.992126 0.133858 -0.047244
vn 0.543307 -0.803150 0.220472
vn 0.645669 -0.755906 0.125984
vn 0.968504 0.251969 -0.039370
vn 0.000000 0.976378 -0.228346
vn 0.921260 0.385827 0.000000
vn -0.070866 0.992126 -0.110236
tan 0.605741 -0.058404 -0.797260 1.000000
tan 0.605741 -0.058404 -0.797260 1.000000
tan 0.605741 -0.058404 -0.797260 1.000000
tan -0.402195 -0.039122 -0.913262 1.000000
tan -0.402567 -0.063860 -0.913138 1.000000
tan -0.402319 -0.046314 -0.913262 1.000000
tan -0.402691 -0.071052 -0.913138 1.000000
tan 0.159340 -0.102920 -0.983322 1.000000
tan 0.143840 -0.105152 -0.983322 1.000000
tan 0.190340 -0.097464 -0.975572 1.000000
tan 0.136090 -0.107260 -0.991072 1.000000
tan -0.922934 -0.368467 0.001302 1.000000
tan -0.922934 -0.368467 0.001302 1.000000
tan -0.922934 -0.368467 0.001302 1.000000
tan -0.922934 -0.368467 0.001302 1.000000
tan 0.244529 -0.011160 -0.967698 1.000000
tan 0.241056 0.005580 -0.969434 1.000000
tan 0.246265 -0.018600 -0.967698 1.000000
tan 0.241056 0.005580 -0.969434 1.000000
tan 0.194184 -0.001860 -0.976688 1.000000
tan -0.118420 -0.352161 -0.932482 1.000000
tan -0.125302 -0.346767 -0.925600 1.000000
tan -0.118420 -0.352161 -0.932482 1.000000
tan -0.125302 -0.346767 -0.925600 1.000000
tan -0.093744 -0.267841 -0.959762 1.000000
tan 0.027900 0.315271 -0.948602 1.000000
tan 0.025792 0.358857 -0.934094 1.000000
tan 0.003472 0.401637 -0.912704 1.000000
tan 0.024180 0.304855 -0.948602 1.000000
tan 0.011594 0.300391 -0.962614 1.000000
tan 0.121396 -0.575299 -0.813814 1.000000
tan 0.201996 -0.623163 -0.757021 1.000000
tan 0.272181 -0.660735 -0.700229 1.000000
tan 0.091822 -0.554715 -0.829252 1.000000
tan 0.142848 -0.492157 -0.865770 1.000000
tan -0.418873 -0.059520 -0.908798 1.000000
tan -0.325439 -0.017298 -0.947982 1.000000
tan -0.347201 -0.027776 -0.933474 1.000000
tan -0.303677 -0.008556 -0.947982 1.000000
tan -0.294563 -0.031434 -0.951020 1.000000
tan -0.044702 -0.167958 -0.978672 1.000000
tan -0.010044 -0.115382 -0.985244 1.000000
tan -0.035712 -0.154814 -0.985244 1.000000
tan -0.009610 -0.115382 -0.991816 1.000000
tan -0.016182 -0.111104 -0.991816 1.000000
tan -0.636245 0.045136 -0.766012 1.000000
tan -0.572943 0.073346 -0.820138 1.000000
tan -0.631161 0.070928 -0.773638 1.000000
tan -0.572943 0.073346 -0.820138 1.000000
tan -0.507781 0.046314 -0.861554 1.000000
tan 0.059396 -0.187426 -0.985554 1.000000
tan 0.063054 -0.207948 -0.974828 1.000000
tan 0.050778 -0.227850 -0.974828 1.000000
tan 0.052824 -0.183148 -0.985554 1.000000
tan 0.042842 -0.167958 -0.989832 1.000000
tan -0.997768 0.016182 0.069192 1.000000
tan -0.243102 -0.937132 0.255379 1.000000
tan -0.989522 -0.056730 0.125550 1.000000
tan -0.279249 -0.914626 0.297105 1.000000
tan -0.983260 0.167772 -0.045508 1.000000
tan 0.835328 -0.496807 0.234050 1.000000
tan -0.466179 -0.822804 0.322897 1.000000
tan -0.960444 0.248682 -0.073718 1.000000
tan 0.807552 -0.550251 0.221650 1.000000
tan -0.561845 -0.781760 0.266911 1.000000
tan -0.918780 0.382293 -0.094612 1.000000
tan 0.696881 -0.669973 0.249365 1.000000
tan -0.675863 -0.724781 0.160394 1.000000
tan -0.893298 0.440201 -0.128216 1.000000
tan -0.711761 -0.703949 0.100502 1.000000
tan 0.583669 -0.787526 0.181288 1.000000
tan 0.501457 -0.858764 0.097464 1.000000
tan 0.445099 -0.884680 0.102424 1.000000
tan 0.892430 0.417013 -0.162564 1.000000
tan 0.950462 0.199020 -0.224378 1.000000
tan 0.981524 0.134788 -0.117366 1.000000
tan 0.153388 0.945192 -0.269701 1.000000
tan 0.942836 0.261207 -0.203484 1.000000
tan 0.045074 0.934590 -0.341497 1.000000
tan -0.894724 0.438775 -0.138694 1.000000
tan -0.920826 0.378201 -0.111600 1.000000
tan -0.960444 0.248682 -0.073718 1.000000
tan -0.041850 0.925166 -0.384959 1.000000
tan -0.983260 0.162316 -0.060016 1.000000
tan -0.142166 0.929630 -0.351541 1.000000
tan 0.832786 0.546097 -0.062868 1.000000
tan 0.747970 0.655341 0.098704 1.000000
tan -0.254511 0.952942 -0.162130 1.000000
tan -0.997768 0.014384 0.061504 1.000000
tan -0.385827 0.921260 0.045384 1.000000
tan -0.989522 -0.053258 0.156798 1.000000
f 3/3/3 2/2/2 1/1/1
f 6/6/6 5/5/5 4/4/4
f 5/5/5 6/6/6 7/7/7
f 10/10/10 9/9/9 8/8/8
f 11/11/11 8/8/8 9/9/9
f 14/14/14 13/13/13 12/12/12
f 15/15/15 14/14/14 12/12/12
f 18/18/18 17/17/17 16/16/16
f 19/19/19 16/16/16 17/17/17
f 20/20/20 19/19/19 17/17/17
f 23/23/23 22/22/22 21/21/21
f 22/22/22 23/23/23 24/24/24
f 25/25/25 22/22/22 24/24/24
f 28/28/28 27/27/27 26/26/26
f 29/29/29 26/26/26 27/27/27
f 29/29/29 30/30/30 26/26/26
f 33/33/33 32/32/32 31/31/31
f 34/34/34 31/31/31 32/32/32
f 35/35/35 31/31/31 34/34/34
f 38/38/38 37/37/37 36/36/36
f 38/38/38 39/39/39 37/37/37
f 40/40/40 37/37/37 39/39/39
f 43/43/43 42/42/42 41/41/41
f 42/42/42 43/43/43 44/44/44
f 45/45/45 42/42/42 44/44/44
f 48/48/48 47/47/47 46/46/46
f 47/47/47 48/48/48 49/49/49
f 49/49/49 50/50/50 47/47/47
f 53/53/53 52/52/52 51/51/51
f 52/52/52 54/54/54 51/51/51
f 54/54/54 55/55/55 51/51/51
f 58/58/58 57/57/57 56/56/56
f 56/56/56 57/57/57 59/59/59
f 56/56/56 59/59/59 60/60/60
f 61/61/61 59/59/59 57/57/57
f 62/62/62 60/60/60 59/59/59
f 60/60/60 62/62/62 63/63/63
f 59/59/59 61/61/61 64/64/64
f 63/63/63 62/62/62 65/65/65
f 63/63/63 65/65/65 66/66/66
f 67/67/67 62/62/62 59/59/59
f 59/59/59 64/64/64 67/67/67
f 68/68/68 66/66/66 65/65/65
f 66/66/66 68/68/68 69/69/69
f 69/69/69 68/68/68 70/70/70
f 65/65/65 62/62/62 71/71/71
f 65/65/65 71/71/71 68/68/68
f 67/67/67 71/71/71 62/62/62
f 72/72/72 70/70/70 68/68/68
f 72/72/72 68/68/68 71/71/71
f 70/70/70 72/72/72 73/73/73
f 74/74/74 71/71/71 67/67/67
f 75/75/75 73/73/73 72/72/72
f 76/76/76 73/73/73 75/75/75
f 76/76/76 75/75/75 77/77/77
f 71/71/71 78/78/78 72/72/72
f 75/75/75 72/72/72 78/78/78
f 78/78/78 71/71/71 74/74/74
f 79/79/79 77/77/77 75/75/75
f 79/79/79 75/75/75 78/78/78
f 77/77/77 79/79/79 80/80/80
f 81/81/81 80/80/80 79/79/79
f 81/81/81 79/79/79 82/82/82
f 78/78/78 83/83/83 79/79/79
f 83/83/83 82/82/82 79/79/79
f 78/78/78 74/74/74 83/83/83
f 82/82/82 83/83/83 84/84/84
f 85/85/85 83/83/83 74/74/74
f 84/84/84 83/83/83 85/85/85
f 85/85/85 74/74/74 86/86/86
f 74/74/74 67/67/67 86/86/86
f 64/64/64 86/86/86 67/67/67
f 64/64/64 61/61/61 86/86/86
f 87/87/87 86/86/86 61/61/61
f 85/85/85 88/88/88 84/84/84
f 86/86/86 88/88/88 85/85/85
f 86/86/86 87/87/87 88/88/88
f 89/89/89 84/84/84 88/88/88
f 90/90/90 88/88/88 87/87/87
f 88/88/88 90/90/90 89/89/89
f 91/91/91 89/89/89 90/90/90
