mtllib SM_Lightswitch_and_Wires_Cylinder_02_LOD3.mtl
g SM_Lightswitch_and_Wires_Cylinder_02_LOD3
#Vertices 84
#Indices 255
#Section 0 Offset 0 NumIndices 255 MaterialIndex 0 MI_OldLightSwitch
v -0.006592 -0.389757 -0.004408
v 0.016846 -0.383842 -0.000033
v -0.008803 -0.380618 -0.001412
v 0.016846 -0.383842 -0.000033
v -0.006592 -0.389757 -0.004408
v 0.012872 -0.386077 0.010515
v 0.012872 -0.386077 0.010515
v -0.008803 -0.380618 -0.001412
v 0.016846 -0.383842 -0.000033
v -0.008803 -0.380618 -0.001412
v 0.012872 -0.386077 0.010515
v -0.006592 -0.389757 -0.004408
v -0.026613 -0.380003 0.025545
v -0.021651 -0.389674 0.027226
v -0.021090 -0.382153 0.031298
v -0.000544 -0.384554 -0.040212
v -0.027149 -0.383452 -0.048147
v -0.000845 -0.408446 -0.036222
v -0.026606 -0.415690 -0.031199
v 0.000095 -0.417299 0.000722
v -0.026428 -0.420732 0.007083
v -0.002529 -0.403459 0.021242
v -0.028424 -0.387075 0.032392
v -0.028815 -0.356531 0.021678
v -0.000293 -0.385436 0.023468
v 0.000185 -0.355660 0.009348
v -0.026907 -0.348461 -0.017269
v -0.000692 -0.358612 -0.031673
v -0.027149 -0.383452 -0.048147
v -0.000544 -0.384554 -0.040212
v -0.035494 -0.358987 -0.041834
v -0.026907 -0.348461 -0.017269
v -0.028815 -0.356531 0.021678
v -0.027149 -0.383452 -0.048147
v -0.035723 -0.399727 -0.047601
v -0.026606 -0.415690 -0.031199
v -0.034705 -0.427305 -0.010102
v -0.026428 -0.420732 0.007083
v -0.028424 -0.387075 0.032392
v -0.026152 -0.389846 1.180533
v -0.029157 -0.386471 0.903967
v -0.029679 -0.386255 1.180565
v -0.026291 -0.389500 0.904207
v -0.029798 -0.396024 0.681813
v -0.020781 -0.388019 0.903901
v -0.021080 -0.387812 1.180540
v -0.025091 -0.399431 0.674850
v -0.020788 -0.382083 1.180563
v -0.024481 -0.400525 0.466410
v -0.029383 -0.396862 0.466418
v -0.029635 -0.387175 0.245076
v -0.020837 -0.397244 0.667391
v -0.020906 -0.382456 0.902047
v -0.024852 -0.380545 0.903967
v -0.026595 -0.380667 1.180540
v -0.021108 -0.392094 0.679562
v -0.020395 -0.395653 0.466138
v -0.028750 -0.382475 0.902233
v -0.029679 -0.386255 1.180565
v -0.029157 -0.386471 0.903967
v -0.029798 -0.396024 0.681813
v -0.027371 -0.390249 0.686900
v -0.029066 -0.392852 0.466867
v -0.029383 -0.396862 0.466418
v -0.029635 -0.387175 0.245076
v -0.023861 -0.390685 0.466127
v -0.028755 -0.382145 0.247340
v -0.029652 -0.386783 0.027244
v -0.026613 -0.380003 0.025545
v -0.024852 -0.380545 0.250042
v -0.021090 -0.382153 0.031298
v -0.019883 -0.384149 0.250788
v -0.021651 -0.389674 0.027226
v -0.022997 -0.389546 0.251755
v -0.029652 -0.386783 0.027244
v 0.000095 -0.417299 0.000722
v -0.002529 -0.403459 0.021242
v -0.000293 -0.385436 0.023468
v -0.008779 -0.388180 -0.010498
v -0.000845 -0.408446 -0.036222
v -0.000544 -0.384554 -0.040212
v -0.005909 -0.380620 -0.010475
v 0.000185 -0.355660 0.009348
v -0.000692 -0.358612 -0.031673
vt 0.543457 0.570312
vt 0.532715 0.636719
vt 0.521973 0.577637
vt 0.758301 0.805420
vt 0.730957 0.864624
vt 0.734375 0.798706
vt 0.691895 0.914307
vt 0.678223 0.847656
vt 0.718750 0.905701
vt 0.524414 0.697754
vt 0.538086 0.633057
vt 0.547852 0.698486
vt 0.572266 0.889832
vt 0.581543 0.847412
vt 0.588867 0.868408
vt 0.682617 0.585205
vt 0.610840 0.617188
vt 0.662598 0.522705
vt 0.582520 0.518066
vt 0.638184 0.415527
vt 0.565430 0.411133
vt 0.624512 0.346680
vt 0.554688 0.297363
vt 0.561523 0.219727
vt 0.631836 0.296387
vt 0.639160 0.205566
vt 0.581055 0.125977
vt 0.656738 0.101562
vt 0.610840 0.010254
vt 0.680176 0.034668
vt 0.291992 0.350098
vt 0.316650 0.429199
vt 0.368652 0.519043
vt 0.362061 0.314941
vt 0.398438 0.272949
vt 0.458984 0.314941
vt 0.528809 0.336426
vt 0.518066 0.399902
vt 0.480469 0.508057
vt 0.039825 0.000488
vt 0.037079 0.081543
vt 0.037354 0.000488
vt 0.039185 0.081543
vt 0.035828 0.175781
vt 0.042023 0.081543
vt 0.042542 0.000488
vt 0.038727 0.178711
vt 0.045380 0.000488
vt 0.039368 0.257812
vt 0.036224 0.257812
vt 0.036835 0.342285
vt 0.041107 0.181641
vt 0.044769 0.082520
vt 0.046967 0.081543
vt 0.048340 0.000488
vt 0.043701 0.176758
vt 0.042603 0.257812
vt 0.049194 0.082520
vt 0.051636 0.000488
vt 0.051239 0.082031
vt 0.050079 0.175781
vt 0.046936 0.173340
vt 0.048553 0.257812
vt 0.050598 0.257812
vt 0.051483 0.342285
vt 0.045715 0.257812
vt 0.048859 0.341309
vt 0.051971 0.424805
vt 0.048218 0.425293
vt 0.046722 0.340332
vt 0.045349 0.423340
vt 0.043549 0.340332
vt 0.041656 0.424805
vt 0.040436 0.339844
vt 0.037445 0.424805
vt 0.738770 0.665771
vt 0.752930 0.732666
vt 0.720703 0.771484
vt 0.659180 0.702393
vt 0.649902 0.612793
vt 0.595703 0.649902
vt 0.646973 0.714844
vt 0.635742 0.801636
vt 0.562012 0.716797
vt1 0.247437 0.903320
vt1 0.230469 0.796387
vt1 0.212524 0.891602
vt1 0.236694 0.564453
vt1 0.280518 0.469727
vt1 0.275146 0.575684
vt1 0.260498 0.243652
vt1 0.367676 0.265381
vt1 0.274414 0.200195
vt1 0.216919 0.698242
vt1 0.238647 0.802246
vt1 0.254150 0.697266
vt1 0.342773 0.175171
vt1 0.410645 0.159790
vt1 0.376953 0.148193
vt1 0.206055 0.046143
vt1 0.090759 -0.005154
vt1 0.173828 0.146606
vt1 0.045044 0.154053
vt1 0.134766 0.318848
vt1 0.017731 0.325928
vt1 0.112793 0.428955
vt1 0.000436 0.508301
vt1 0.011299 0.632812
vt1 0.124329 0.509766
vt1 0.136353 0.655762
vt1 0.042480 0.783691
vt1 0.164307 0.822266
vt1 0.090454 0.969238
vt1 0.201904 0.930176
vt1 0.190430 0.290771
vt1 0.228394 0.167969
vt1 0.308838 0.029236
vt1 0.298584 0.345215
vt1 0.354980 0.409668
vt1 0.448730 0.344971
vt1 0.556641 0.312012
vt1 0.540039 0.213989
vt1 0.481689 0.046234
vt1 0.952637 0.991699
vt1 0.946289 0.802246
vt1 0.946777 0.991699
vt1 0.951172 0.802246
vt1 0.943359 0.583496
vt1 0.957520 0.802246
vt1 0.958984 0.991699
vt1 0.949707 0.577148
vt1 0.965332 0.991211
vt1 0.951660 0.392578
vt1 0.944336 0.392334
vt1 0.945801 0.195801
vt1 0.955566 0.570312
vt1 0.963867 0.800781
vt1 0.969238 0.802246
vt1 0.972168 0.991211
vt1 0.961426 0.581543
vt1 0.958984 0.392090
vt1 0.974121 0.800781
vt1 0.979980 0.991211
vt1 0.979004 0.801758
vt1 0.976562 0.583008
vt1 0.969238 0.588379
vt1 0.972656 0.392822
vt1 0.977539 0.392578
vt1 0.979492 0.195923
vt1 0.966309 0.392090
vt1 0.973633 0.197754
vt1 0.980957 0.004128
vt1 0.972168 0.002556
vt1 0.968750 0.200073
vt1 0.965332 0.007587
vt1 0.961426 0.200806
vt1 0.957031 0.003971
vt1 0.954102 0.201782
vt1 0.946777 0.003826
vt1 0.892090 0.239746
vt1 0.915527 0.132080
vt1 0.863770 0.069763
vt1 0.765137 0.180664
vt1 0.750000 0.324707
vt1 0.663086 0.264893
vt1 0.745117 0.160645
vt1 0.727051 0.021301
vt1 0.608887 0.157471
vn 0.692913 -0.669291 -0.267717
vn 0.716535 0.236220 -0.661417
vn 0.220472 0.960630 -0.165354
vn 0.590551 -0.480315 -0.645669
vn 0.354331 -0.913386 0.204724
vn -0.307087 -0.559055 0.771654
vn -0.204724 0.496063 0.842520
vn 0.118110 0.740157 0.661417
vn 0.448819 0.472441 -0.755906
vn 0.094488 0.874016 0.480315
vn -0.141732 -0.204724 0.968504
vn 0.157480 -0.850394 0.503937
vn -0.244094 0.897638 0.370079
vn 0.692913 -0.464567 0.551181
vn 0.566929 0.385827 0.732283
vn 0.094488 0.007874 -0.992126
vn 0.456693 0.094488 -0.881890
vn 0.110236 -0.637795 -0.763780
vn 0.535433 -0.677165 -0.503937
vn -0.039370 -0.968504 0.236220
vn 0.606299 -0.740157 0.299213
vn 0.000000 -0.503937 0.858268
vn 0.629921 -0.023622 0.771654
vn 0.440945 0.614173 0.653543
vn 0.133858 0.007874 0.992126
vn 0.102362 0.866142 0.496063
vn 0.440945 0.866142 -0.220472
vn 0.102362 0.755906 -0.645669
vn 0.480315 0.039370 -0.874016
vn 0.086614 0.039370 -0.992126
vn 0.007874 0.622047 -0.787402
vn 0.645669 0.748031 -0.181102
vn 0.370079 0.700787 0.606299
vn 0.629921 0.047244 -0.771654
vn 0.000000 -0.346457 -0.937008
vn 0.629921 -0.622047 -0.472441
vn 0.007874 -1.000000 -0.078740
vn 0.645669 -0.700787 0.307087
vn 0.385827 -0.086614 0.921260
vn -0.259843 -0.968504 0.000000
vn -0.952756 -0.307087 0.007874
vn -0.976378 -0.220472 0.000000
vn -0.314961 -0.952756 0.015748
vn -0.937008 -0.354331 0.031496
vn 0.811024 -0.582677 0.007874
vn 0.811024 -0.590551 0.000000
vn 0.000000 -1.000000 0.062992
vn 0.803150 0.590551 0.000000
vn 0.110236 -0.992126 -0.023622
vn -0.952756 -0.314961 -0.007874
vn -0.858268 -0.511811 0.000000
vn 0.874016 -0.488189 0.031496
vn 0.826772 0.559055 -0.015748
vn 0.000000 1.000000 -0.015748
vn -0.370079 0.929134 0.000000
vn 0.803150 0.590551 -0.039370
vn 1.000000 -0.047244 0.000000
vn -0.826772 0.559055 -0.015748
vn -0.984252 -0.181102 0.000000
vn -0.952756 -0.307087 0.007874
vn -0.952756 -0.314961 0.023622
vn -0.456693 0.889764 -0.055118
vn -0.834646 0.543307 0.007874
vn -0.952756 -0.314961 -0.007874
vn -0.889764 -0.448819 -0.007874
vn 0.251969 0.968504 0.023622
vn -0.803150 0.590551 0.015748
vn -0.566929 -0.244094 0.787402
vn -0.251969 0.566929 0.779528
vn 0.000000 1.000000 0.023622
vn 0.503937 0.401575 0.763780
vn 0.976378 0.204724 0.007874
vn 0.370079 -0.590551 0.716535
vn 0.393701 -0.921260 -0.023622
vn -0.614173 -0.196850 0.763780
vn 1.000000 0.055118 -0.031496
vn 0.488189 -0.472441 0.732283
vn 0.984252 0.000000 -0.196850
vn 0.874016 0.480315 0.086614
vn 0.984252 -0.149606 -0.055118
vn 1.000000 0.015748 0.023622
vn 0.866142 -0.503937 -0.031496
vn 0.992126 -0.023622 0.102362
vn 0.960630 0.244094 -0.118110
tan -0.699857 -0.621365 -0.257983 1.000000
tan -0.690433 0.057288 -0.727509 1.000000
tan -0.543307 -0.011718 -0.792486 1.000000
tan 0.742514 0.100068 0.604687 1.000000
tan 0.634509 0.393825 0.658875 1.000000
tan 0.159650 0.755843 0.611135 1.000000
tan -0.281357 0.797694 -0.538037 1.000000
tan -0.228160 0.670345 -0.709405 1.000000
tan -0.757393 -0.210180 -0.581065 1.000000
tan 0.860934 0.017422 -0.201066 1.000000
tan 0.960878 0.114390 0.164796 1.000000
tan 0.785666 -0.095232 -0.406225 1.000000
tan 0.824478 0.066588 0.382293 1.000000
tan -0.307149 -0.823858 -0.308265 1.000000
tan 0.680823 -0.593713 -0.214272 1.000000
tan 0.242172 -0.960878 0.015438 1.000000
tan 0.756898 -0.451361 0.343605 1.000000
tan 0.017050 -0.762911 0.639531 1.000000
tan 0.067952 -0.552545 0.814682 1.000000
tan 0.061008 0.233740 0.968504 1.000000
tan 0.636121 0.673817 0.377829 1.000000
tan -0.011904 0.858268 0.503937 1.000000
tan -0.197904 0.810714 0.186372 1.000000
tan -0.034968 0.712691 -0.646165 1.000000
tan -0.007812 0.992126 -0.006820 1.000000
tan -0.047740 0.501705 -0.866142 1.000000
tan -0.344473 -0.029512 -0.804886 1.000000
tan -0.007688 -0.643251 -0.754294 1.000000
tan -0.769855 -0.424267 -0.442185 1.000000
tan -0.249985 -0.960878 -0.059954 1.000000
tan -0.147188 -0.774630 -0.613429 1.000000
tan 0.680761 -0.665509 -0.321781 1.000000
tan 0.722053 0.124682 -0.584847 1.000000
tan -0.773886 -0.000620 -0.631781 1.000000
tan -0.932358 -0.110670 0.040920 1.000000
tan -0.739103 -0.541881 -0.271995 1.000000
tan -0.472441 0.065720 -0.881890 1.000000
tan -0.545167 -0.703825 -0.459917 1.000000
tan 0.862546 -0.322215 -0.391531 1.000000
tan -0.030504 0.008184 0.970550 1.000000
tan -0.009052 0.052762 0.962428 1.000000
tan -0.005208 0.023064 0.976378 1.000000
tan -0.037262 0.028148 0.957716 1.000000
tan -0.076012 0.280861 0.898320 1.000000
tan 0.010912 0.028210 0.963606 1.000000
tan -0.041850 -0.057474 0.959886 1.000000
tan -0.023622 0.062992 1.000000 1.000000
tan 0.037200 -0.050592 0.954182 1.000000
tan 0.015624 -0.021886 0.992126 1.000000
tan 0.002046 -0.030318 0.965156 1.000000
tan 0.060450 -0.101370 0.949408 1.000000
tan 0.003100 0.063178 0.893236 1.000000
tan 0.010850 0.010230 0.932792 1.000000
tan 0.023622 0.015748 1.000000 1.000000
tan 0.036580 0.014570 0.937876 1.000000
tan -0.145080 0.255626 0.874760 1.000000
tan -0.001488 -0.031496 1.000000 1.000000
tan 0.046376 0.094860 0.932792 1.000000
tan -0.002852 0.015500 0.985678 1.000000
tan -0.006634 0.045260 0.962428 1.000000
tan -0.016244 0.120032 0.945254 1.000000
tan 0.440139 0.277017 0.824974 1.000000
tan -0.039370 -0.073842 0.921880 1.000000
tan 0.007006 -0.045322 0.965156 1.000000
tan 0.016864 -0.049228 0.900366 1.000000
tan -0.000186 -0.023622 0.970488 1.000000
tan -0.041044 -0.081344 0.957158 1.000000
tan 0.789324 0.026536 0.576539 1.000000
tan 0.178002 -0.761114 0.611073 1.000000
tan 0.000000 -0.023622 1.000000 1.000000
tan -0.607415 -0.463079 0.644243 1.000000
tan 0.000186 -0.038440 0.976378 1.000000
tan -0.299027 0.654473 0.693843 1.000000
tan -0.021018 -0.032922 0.933660 1.000000
tan 0.756216 0.113088 0.637237 1.000000
tan 0.034658 -0.889764 -0.456693 1.000000
tan 0.422221 -0.595821 -0.665881 1.000000
tan -0.178250 -0.418501 -0.891252 1.000000
tan 0.459669 -0.757022 -0.440449 1.000000
tan -0.140182 -0.651001 -0.736251 1.000000
tan 0.028148 -0.440945 -0.897638 1.000000
tan -0.483105 -0.811582 -0.300081 1.000000
tan 0.037696 -0.820262 -0.554653 1.000000
tan 0.073098 -0.637237 -0.722425 1.000000
f 3/3/3 2/2/2 1/1/1
f 6/6/6 5/5/5 4/4/4
f 9/9/9 8/8/8 7/7/7
f 12/12/12 11/11/11 10/10/10
f 15/15/15 14/14/14 13/13/13
f 18/18/18 17/17/17 16/16/16
f 18/18/18 19/19/19 17/17/17
f 19/19/19 18/18/18 20/20/20
f 21/21/21 19/19/19 20/20/20
f 20/20/20 22/22/22 21/21/21
f 23/23/23 21/21/21 22/22/22
f 24/24/24 23/23/23 22/22/22
f 25/25/25 24/24/24 22/22/22
f 26/26/26 24/24/24 25/25/25
f 24/24/24 26/26/26 27/27/27
f 28/28/28 27/27/27 26/26/26
f 27/27/27 28/28/28 29/29/29
f 30/30/30 29/29/29 28/28/28
f 33/33/33 32/32/32 31/31/31
f 34/34/34 31/31/31 32/32/32
f 35/35/35 31/31/31 34/34/34
f 34/34/34 36/36/36 35/35/35
f 37/37/37 35/35/35 36/36/36
f 36/36/36 38/38/38 37/37/37
f 39/39/39 37/37/37 38/38/38
f 42/42/42 41/41/41 40/40/40
f 43/43/43 40/40/40 41/41/41
f 43/43/43 41/41/41 44/44/44
f 45/45/45 40/40/40 43/43/43
f 46/46/46 40/40/40 45/45/45
f 47/47/47 43/43/43 44/44/44
f 43/43/43 47/47/47 45/45/45
f 46/46/46 45/45/45 48/48/48
f 44/44/44 49/49/49 47/47/47
f 49/49/49 44/44/44 50/50/50
f 49/49/49 50/50/50 51/51/51
f 52/52/52 45/45/45 47/47/47
f 52/52/52 47/47/47 49/49/49
f 53/53/53 48/48/48 45/45/45
f 45/45/45 52/52/52 53/53/53
f 54/54/54 48/48/48 53/53/53
f 55/55/55 48/48/48 54/54/54
f 56/56/56 53/53/53 52/52/52
f 53/53/53 56/56/56 54/54/54
f 49/49/49 57/57/57 52/52/52
f 56/56/56 52/52/52 57/57/57
f 58/58/58 55/55/55 54/54/54
f 59/59/59 55/55/55 58/58/58
f 60/60/60 59/59/59 58/58/58
f 60/60/60 58/58/58 61/61/61
f 58/58/58 54/54/54 62/62/62
f 61/61/61 58/58/58 62/62/62
f 62/62/62 54/54/54 56/56/56
f 62/62/62 63/63/63 61/61/61
f 64/64/64 61/61/61 63/63/63
f 64/64/64 63/63/63 65/65/65
f 62/62/62 56/56/56 66/66/66
f 63/63/63 62/62/62 66/66/66
f 57/57/57 66/66/66 56/56/56
f 65/65/65 63/63/63 67/67/67
f 63/63/63 66/66/66 67/67/67
f 65/65/65 67/67/67 68/68/68
f 68/68/68 67/67/67 69/69/69
f 70/70/70 69/69/69 67/67/67
f 67/67/67 66/66/66 70/70/70
f 69/69/69 70/70/70 71/71/71
f 70/70/70 66/66/66 72/72/72
f 72/72/72 71/71/71 70/70/70
f 57/57/57 72/72/72 66/66/66
f 71/71/71 72/72/72 73/73/73
f 72/72/72 57/57/57 74/74/74
f 72/72/72 74/74/74 73/73/73
f 49/49/49 74/74/74 57/57/57
f 74/74/74 49/49/49 51/51/51
f 74/74/74 51/51/51 73/73/73
f 73/73/73 51/51/51 75/75/75
f 78/78/78 77/77/77 76/76/76
f 76/76/76 79/79/79 78/78/78
f 79/79/79 76/76/76 80/80/80
f 80/80/80 81/81/81 79/79/79
f 82/82/82 78/78/78 79/79/79
f 79/79/79 81/81/81 82/82/82
f 78/78/78 82/82/82 83/83/83
f 84/84/84 82/82/82 81/81/81
f 83/83/83 82/82/82 84/84/84
