mtllib SM_SidewalkVegetation_01.mtl
g SM_SidewalkVegetation_01
#Vertices 111
#Indices 222
#Section 0 Offset 0 NumIndices 222 MaterialIndex 0 MI_SidewalkVegetation
v 0.052116 0.044975 -0.001304 0.000000 0.372549 0.000000 1.000000
v 0.040846 -0.011301 0.004952 0.000000 0.372549 0.000000 1.000000
v -0.008425 0.043360 0.001661 0.000000 0.372549 0.000000 1.000000
v 0.001556 -0.010208 0.006657 0.000000 0.372549 0.000000 1.000000
v -0.003224 0.008607 0.006688 0.000000 1.000000 0.000000 1.000000
v 0.009051 0.002710 -0.000196 0.000000 1.000000 0.000000 1.000000
v 0.002503 -0.001116 0.001120 0.000000 1.000000 0.000000 1.000000
v 0.009206 0.011790 0.003060 0.000000 1.000000 0.000000 1.000000
v 0.011309 -0.016392 0.003415 0.000000 1.000000 0.000000 1.000000
v 0.007249 -0.007193 0.000521 0.000000 1.000000 0.000000 1.000000
v 0.023978 -0.008848 0.003005 0.000000 1.000000 0.000000 1.000000
v 0.012668 -0.000678 -0.000324 0.000000 1.000000 0.000000 1.000000
v 0.022279 -0.028401 0.017337 1.000000 0.000000 0.000000 1.000000
v -0.012314 -0.019611 0.014862 0.000000 0.619608 0.000000 1.000000
v 0.020573 -0.004096 0.000251 0.000000 0.619608 0.000000 1.000000
v -0.011430 0.004521 -0.002383 0.000000 0.619608 0.000000 1.000000
v -0.019113 0.008594 0.001061 0.000000 0.494118 0.000000 1.000000
v -0.022872 -0.032652 0.007418 0.000000 0.494118 0.000000 1.000000
v -0.039546 -0.016294 0.007198 0.000000 0.494118 0.000000 1.000000
v 0.005135 -0.012080 0.000937 0.000000 0.494118 0.000000 1.000000
v -0.014373 0.015406 -0.004770 0.000000 1.000000 0.000000 1.000000
v 0.000674 -0.015705 0.020474 1.000000 0.000000 0.000000 1.000000
v -0.021269 0.004303 0.016379 0.000000 1.000000 0.000000 1.000000
v 0.005802 -0.003337 -0.000559 0.000000 1.000000 0.000000 1.000000
v 0.022901 -0.012236 0.017448 1.000000 0.000000 0.000000 1.000000
v 0.003108 0.021834 -0.004929 0.000000 1.000000 0.000000 1.000000
v 0.032047 0.007845 0.009782 0.000000 1.000000 0.000000 1.000000
v -0.007320 -0.006089 0.006337 0.000000 1.000000 0.000000 1.000000
v -0.010158 -0.052269 0.008702 0.000000 1.000000 0.000000 1.000000
v -0.057706 -0.035099 0.008780 0.000000 1.000000 0.000000 1.000000
v -0.050207 -0.022085 0.006169 0.000000 1.000000 0.000000 1.000000
v -0.004174 -0.037244 0.005851 0.000000 1.000000 0.000000 1.000000
v -0.014860 0.007991 -0.000972 0.000000 1.000000 0.000000 1.000000
v -0.002844 0.003141 -0.000907 0.000000 1.000000 0.000000 1.000000
v 0.001759 -0.000094 0.009743 0.000000 0.725490 0.000000 1.000000
v 0.002882 0.014618 0.004122 0.000000 0.725490 0.000000 1.000000
v 0.009233 0.002193 0.009286 0.000000 0.725490 0.000000 1.000000
v -0.025459 0.011674 0.003764 0.000000 0.725490 0.000000 1.000000
v -0.015190 0.052269 0.000531 0.000000 0.725490 0.000000 1.000000
v -0.035009 0.040101 0.001936 0.000000 0.725490 0.000000 1.000000
v -0.044259 0.023107 0.002203 0.000000 0.854902 0.000000 1.000000
v -0.038359 -0.015024 0.007191 0.000000 0.854902 0.000000 1.000000
v -0.061064 0.000446 0.003018 0.000000 0.854902 0.000000 1.000000
v -0.020082 0.012158 0.005309 0.000000 0.854902 0.000000 1.000000
v -0.012075 -0.011248 0.004657 0.000000 0.854902 0.000000 1.000000
v -0.008831 -0.006140 0.004308 0.000000 0.854902 0.000000 1.000000
v -0.007648 -0.044024 0.008796 0.000000 0.854902 0.000000 1.000000
v 0.023309 -0.032662 0.005424 0.000000 0.854902 0.000000 1.000000
v 0.011373 -0.048765 0.008745 0.000000 0.854902 0.000000 1.000000
v -0.021051 -0.026000 0.006300 0.000000 0.854902 0.000000 1.000000
v 0.024403 -0.009854 0.001441 0.000000 0.854902 0.000000 1.000000
v -0.015809 -0.003158 0.002123 0.000000 0.854902 0.000000 1.000000
v 0.033400 0.009328 0.002129 0.000000 1.000000 0.000000 1.000000
v 0.010196 0.022512 0.001678 0.000000 1.000000 0.000000 1.000000
v 0.026507 0.023524 0.002444 0.000000 1.000000 0.000000 1.000000
v 0.029033 -0.008312 0.001166 0.000000 1.000000 0.000000 1.000000
v -0.004700 0.011325 0.000531 0.000000 1.000000 0.000000 1.000000
v 0.011963 -0.016958 0.000033 0.000000 1.000000 0.000000 1.000000
v -0.050329 -0.028595 -0.000343 0.529412 0.364706 0.000000 1.000000
v -0.032775 -0.014317 0.009265 0.529412 0.364706 0.000000 1.000000
v -0.043887 -0.032519 -0.000350 0.529412 0.364706 0.000000 1.000000
v -0.030093 -0.022625 0.006622 0.529412 0.364706 0.000000 1.000000
v -0.021834 -0.015097 0.007672 0.529412 0.364706 0.000000 1.000000
v -0.021291 -0.018882 0.006696 0.529412 0.364706 0.000000 1.000000
v -0.010840 -0.014066 0.004023 0.529412 0.364706 0.000000 1.000000
v -0.011969 -0.010303 0.005202 0.529412 0.364706 0.000000 1.000000
v 0.017144 0.031784 0.004265 0.000000 0.854902 0.000000 1.000000
v 0.010270 -0.008424 -0.000157 0.000000 0.854902 0.000000 1.000000
v 0.003211 -0.000970 -0.000051 0.000000 0.854902 0.000000 1.000000
v 0.058040 0.003647 0.002227 0.000000 0.854902 0.000000 1.000000
v 0.061729 0.017493 0.005890 0.000000 0.854902 0.000000 1.000000
v 0.030293 0.042687 0.008443 0.000000 0.854902 0.000000 1.000000
v -0.035365 0.004839 0.008654 0.000000 0.854902 0.000000 1.000000
v -0.016540 -0.012623 0.007795 0.000000 0.854902 0.000000 1.000000
v -0.031779 -0.009798 0.010579 0.000000 0.854902 0.000000 1.000000
v -0.027894 0.020050 0.004224 0.000000 0.854902 0.000000 1.000000
v -0.010464 0.024068 -0.000299 0.000000 0.854902 0.000000 1.000000
v -0.000619 -0.005768 0.003075 0.000000 0.854902 0.000000 1.000000
v 0.038558 0.002352 0.004784 0.529412 0.364706 0.000000 1.000000
v 0.028812 -0.001642 0.009713 0.529412 0.364706 0.000000 1.000000
v 0.035629 0.005037 0.003770 0.529412 0.364706 0.000000 1.000000
v 0.031206 -0.004513 0.010977 0.529412 0.364706 0.000000 1.000000
v 0.025298 -0.011349 0.014117 0.529412 0.364706 0.000000 1.000000
v 0.018657 -0.005489 0.011935 0.529412 0.364706 0.000000 1.000000
v 0.011760 -0.028966 0.014302 0.529412 0.364706 0.000000 1.000000
v 0.019162 -0.028571 0.015703 0.529412 0.364706 0.000000 1.000000
v -0.033078 -0.019753 0.024697 1.000000 0.000000 0.000000 1.000000
v -0.039320 -0.000748 0.019592 1.000000 0.000000 0.000000 1.000000
v -0.016875 -0.001852 0.014877 0.000000 0.494118 0.000000 1.000000
v -0.018207 0.002239 0.013652 0.000000 0.494118 0.000000 1.000000
v -0.001928 0.005689 -0.000100 0.000000 0.494118 0.000000 1.000000
v -0.000067 0.001068 0.001055 0.000000 0.494118 0.000000 1.000000
v 0.027513 0.012459 0.001855 0.000000 1.000000 0.000000 1.000000
v 0.032103 -0.030167 0.001855 0.000000 1.000000 0.000000 1.000000
v 0.001248 -0.029641 0.001855 0.000000 1.000000 0.000000 1.000000
v -0.006078 0.002608 0.001855 0.000000 1.000000 0.000000 1.000000
v -0.029070 -0.030920 0.001855 0.000000 1.000000 0.000000 1.000000
v 0.004184 0.050697 0.001855 0.000000 1.000000 0.000000 1.000000
v -0.058865 -0.019586 0.001855 0.000000 1.000000 0.000000 1.000000
v -0.021739 0.034831 0.001855 0.000000 1.000000 0.000000 1.000000
v -0.061729 -0.000344 0.001855 0.000000 1.000000 0.000000 1.000000
v -0.015220 0.005717 0.010026 0.000000 0.372549 0.000000 1.000000
v -0.006175 0.017364 0.009384 0.000000 0.372549 0.000000 1.000000
v 0.015886 0.013504 0.001021 0.000000 0.372549 0.000000 1.000000
v -0.028415 0.020308 0.014750 1.000000 0.000000 0.000000 1.000000
v -0.001282 0.040290 0.009495 0.000000 0.372549 0.000000 1.000000
v 0.036569 -0.002224 0.002538 0.000000 0.725490 0.000000 1.000000
v 0.030589 -0.017456 0.004414 0.000000 0.725490 0.000000 1.000000
v 0.004631 -0.020643 0.003604 0.000000 0.725490 0.000000 1.000000
v 0.056754 -0.016544 0.002449 0.000000 0.725490 0.000000 1.000000
v 0.030094 -0.043105 0.005286 0.000000 0.725490 0.000000 1.000000
vt 0.409180 0.098633
vt 0.391357 0.011719
vt 0.316406 0.095703
vt 0.331299 0.013672
vt 0.686035 0.041992
vt 0.672852 0.022949
vt 0.685547 0.020020
vt 0.660156 0.039062
vt 0.660156 0.039062
vt 0.672852 0.022949
vt 0.686035 0.041992
vt 0.685547 0.020020
vt 0.757324 0.074707
vt 0.711426 0.074707
vt 0.745605 0.038574
vt 0.703125 0.037598
vt 0.457764 0.598877
vt 0.494873 0.651123
vt 0.459229 0.649170
vt 0.506348 0.598389
vt 0.703125 0.037598
vt 0.757324 0.074707
vt 0.711426 0.074707
vt 0.745605 0.038574
vt 0.459229 0.649170
vt 0.506348 0.598389
vt 0.494873 0.651123
vt 0.457764 0.598877
vt 0.656250 0.098633
vt 0.579102 0.099609
vt 0.583008 0.076660
vt 0.656738 0.073730
vt 0.617676 0.013672
vt 0.637207 0.014160
vt 0.951660 0.018066
vt 0.945312 0.041504
vt 0.939453 0.020020
vt 0.988281 0.049805
vt 0.947266 0.105469
vt 0.982910 0.106445
vt 0.509766 0.652832
vt 0.555664 0.614990
vt 0.552734 0.658691
vt 0.505859 0.613037
vt 0.529297 0.583496
vt 0.520020 0.583740
vt 0.415527 0.652832
vt 0.459229 0.627197
vt 0.445312 0.655029
vt 0.390625 0.628906
vt 0.454834 0.592041
vt 0.392578 0.592529
vt 0.415527 0.652832
vt 0.459229 0.627197
vt 0.445312 0.655029
vt 0.390625 0.628906
vt 0.454834 0.592041
vt 0.392578 0.592529
vt 0.021210 0.710938
vt 0.015625 0.651855
vt 0.039978 0.706543
vt 0.038483 0.656006
vt 0.028946 0.628174
vt 0.038849 0.629883
vt 0.034485 0.598389
vt 0.024231 0.600342
vt 0.580566 0.078613
vt 0.563477 0.018555
vt 0.577637 0.025879
vt 0.504883 0.074219
vt 0.512207 0.102539
vt 0.573730 0.104004
vt 0.415527 0.652832
vt 0.459229 0.627197
vt 0.445312 0.655029
vt 0.390625 0.628906
vt 0.392578 0.592529
vt 0.454834 0.592041
vt 0.034485 0.598389
vt 0.028946 0.628174
vt 0.024231 0.600342
vt 0.038849 0.629883
vt 0.038483 0.656006
vt 0.015625 0.651855
vt 0.021210 0.710938
vt 0.039978 0.706543
vt 0.404541 0.259277
vt 0.366211 0.256836
vt 0.380859 0.216309
vt 0.372559 0.215820
vt 0.370850 0.175293
vt 0.380371 0.174805
vt 0.302734 0.392090
vt 0.289062 0.456055
vt 0.244629 0.440430
vt 0.249390 0.390137
vt 0.199951 0.428223
vt 0.287109 0.325195
vt 0.162109 0.397461
vt 0.241943 0.335938
vt 0.167114 0.368164
vt 0.704590 0.048340
vt 0.683594 0.056641
vt 0.656250 0.032715
vt 0.710449 0.078613
vt 0.659180 0.083008
vt 0.704590 0.048340
vt 0.683594 0.056641
vt 0.656250 0.032715
vt 0.710449 0.078613
vt 0.659180 0.083008
vt1 0.239624 0.624023
vt1 0.200928 0.428467
vt1 0.029999 0.617188
vt1 0.064880 0.431396
vt1 0.922363 0.624023
vt1 0.962402 0.590332
vt1 0.936523 0.583008
vt1 0.968262 0.623047
vt1 0.887695 0.924805
vt1 0.893555 0.960938
vt1 0.938477 0.923340
vt1 0.921387 0.969727
vt1 0.670898 0.522949
vt1 0.546875 0.523926
vt1 0.641113 0.621582
vt1 0.525879 0.624023
vt1 0.528320 0.170410
vt1 0.645508 0.255371
vt1 0.641602 0.174683
vt1 0.525879 0.280518
vt1 0.848633 0.799805
vt1 0.969727 0.714844
vt1 0.866211 0.715820
vt1 0.944824 0.797363
vt1 0.859375 0.515137
vt1 0.747070 0.624023
vt1 0.865723 0.595703
vt1 0.746094 0.514160
vt1 0.590820 0.968262
vt1 0.592285 0.793457
vt1 0.540527 0.802246
vt1 0.534180 0.969727
vt1 0.398193 0.880859
vt1 0.399414 0.925293
vt1 0.034729 0.081238
vt1 0.081421 0.052917
vt1 0.029999 0.054596
vt1 0.118225 0.144409
vt1 0.221191 0.049377
vt1 0.216187 0.129517
vt1 0.825195 0.869629
vt1 0.735352 0.969727
vt1 0.831055 0.966797
vt1 0.733398 0.856445
vt1 0.667480 0.908691
vt1 0.667969 0.887695
vt1 0.392090 0.622559
vt1 0.295898 0.560059
vt1 0.324219 0.624023
vt1 0.450928 0.571289
vt1 0.309326 0.480957
vt1 0.450195 0.488770
vt1 0.744629 0.798828
vt1 0.667480 0.748047
vt1 0.689941 0.799805
vt1 0.791992 0.757324
vt1 0.678711 0.684082
vt1 0.791992 0.690918
vt1 0.860352 0.157837
vt1 0.789062 0.136475
vt1 0.850098 0.179565
vt1 0.796387 0.167236
vt1 0.759277 0.159058
vt1 0.764160 0.171631
vt1 0.724121 0.179077
vt1 0.720703 0.165283
vt1 0.153320 0.372070
vt1 0.029999 0.301758
vt1 0.034393 0.337158
vt1 0.167480 0.200684
vt1 0.213623 0.221680
vt1 0.212646 0.361328
vt1 0.571777 0.338135
vt1 0.645996 0.386963
vt1 0.624023 0.336914
vt1 0.525879 0.377930
vt1 0.525879 0.441650
vt1 0.635254 0.448242
vt1 0.857422 0.239746
vt1 0.822266 0.258789
vt1 0.860840 0.253418
vt1 0.817383 0.246094
vt1 0.785156 0.249756
vt1 0.791504 0.280518
vt1 0.720703 0.257568
vt1 0.731445 0.235962
vt1 0.849609 0.448242
vt1 0.848145 0.376709
vt1 0.772461 0.401611
vt1 0.771973 0.385986
vt1 0.703125 0.381836
vt1 0.702148 0.399658
vt1 0.341797 0.829102
vt1 0.340576 0.680664
vt1 0.234741 0.694824
vt1 0.222412 0.808594
vt1 0.130005 0.702637
vt1 0.276855 0.969727
vt1 0.032135 0.753418
vt1 0.181519 0.925781
vt1 0.029999 0.820801
vt1 0.404053 0.168579
vt1 0.355957 0.151489
vt1 0.295898 0.208252
vt1 0.416748 0.100403
vt1 0.298828 0.094849
vt1 0.417725 0.367676
vt1 0.364746 0.346924
vt1 0.295898 0.405762
vt1 0.428955 0.283447
vt1 0.298340 0.288574
vn 0.047244 0.102362 0.992126
vn 0.047244 0.102362 0.992126
vn 0.047244 0.102362 0.992126
vn 0.047244 0.102362 0.992126
vn 0.346457 -0.314961 0.881890
vn 0.346457 -0.314961 0.881890
vn 0.346457 -0.314961 0.881890
vn 0.346457 -0.314961 0.881890
vn -0.118110 0.236220 0.960630
vn -0.118110 0.236220 0.960630
vn -0.118110 0.236220 0.960630
vn -0.118110 0.236220 0.960630
vn 0.086614 0.574803 0.811024
vn 0.086614 0.574803 0.811024
vn 0.086614 0.574803 0.811024
vn 0.086614 0.574803 0.811024
vn 0.125984 0.141732 0.984252
vn 0.125984 0.141732 0.984252
vn 0.125984 0.141732 0.984252
vn 0.125984 0.141732 0.984252
vn 0.519685 0.677165 0.527559
vn 0.519685 0.677165 0.527559
vn 0.519685 0.677165 0.527559
vn 0.519685 0.677165 0.527559
vn -0.228346 0.433071 0.866142
vn -0.228346 0.433071 0.866142
vn -0.228346 0.433071 0.866142
vn -0.228346 0.433071 0.866142
vn 0.062992 0.165354 0.984252
vn 0.062992 0.165354 0.984252
vn 0.062992 0.165354 0.984252
vn 0.062992 0.165354 0.984252
vn 0.062992 0.165354 0.984252
vn 0.062992 0.165354 0.984252
vn -0.047244 0.362205 0.929134
vn -0.031496 0.251969 0.968504
vn -0.047244 0.362205 0.929134
vn -0.015748 0.149606 0.992126
vn 0.000000 0.078740 1.000000
vn 0.000000 0.078740 1.000000
vn -0.086614 0.118110 0.992126
vn -0.023622 0.078740 1.000000
vn -0.086614 0.118110 0.992126
vn -0.007874 0.062992 1.000000
vn 0.094488 0.007874 0.992126
vn 0.094488 0.007874 0.992126
vn 0.047244 0.173228 0.984252
vn 0.047244 0.173228 0.984252
vn 0.047244 0.173228 0.984252
vn 0.047244 0.173228 0.984252
vn 0.047244 0.173228 0.984252
vn 0.047244 0.173228 0.984252
vn -0.047244 -0.047244 1.000000
vn -0.047244 -0.047244 1.000000
vn -0.047244 -0.047244 1.000000
vn -0.047244 -0.047244 1.000000
vn -0.047244 -0.047244 1.000000
vn -0.047244 -0.047244 1.000000
vn -0.212598 -0.354331 0.913386
vn -0.047244 -0.307087 0.952756
vn -0.212598 -0.354331 0.913386
vn -0.070866 -0.314961 0.944882
vn 0.220472 -0.228346 0.952756
vn 0.204724 -0.228346 0.952756
vn 0.322835 -0.188976 0.929134
vn 0.322835 -0.188976 0.929134
vn -0.070866 -0.165354 0.984252
vn -0.031496 -0.102362 0.992126
vn -0.031496 -0.102362 0.992126
vn -0.078740 -0.181102 0.984252
vn -0.110236 -0.228346 0.968504
vn -0.110236 -0.228346 0.968504
vn 0.204724 0.181102 0.960630
vn 0.204724 0.181102 0.960630
vn 0.204724 0.181102 0.960630
vn 0.204724 0.181102 0.960630
vn 0.204724 0.181102 0.960630
vn 0.204724 0.181102 0.960630
vn 0.196850 0.527559 0.826772
vn 0.118110 0.464567 0.874016
vn 0.196850 0.527559 0.826772
vn 0.110236 0.456693 0.881890
vn -0.094488 0.267717 0.960630
vn -0.070866 0.283465 0.952756
vn -0.188976 0.157480 0.968504
vn -0.188976 0.157480 0.968504
vn 0.212598 0.322835 0.921260
vn 0.212598 0.322835 0.921260
vn 0.354331 0.362205 0.866142
vn 0.385827 0.370079 0.850394
vn 0.543307 0.401575 0.740157
vn 0.543307 0.401575 0.740157
vn 0.000000 0.000000 1.000000
vn 0.000000 0.000000 1.000000
vn 0.000000 0.000000 1.000000
vn 0.000000 0.000000 1.000000
vn 0.000000 0.000000 1.000000
vn 0.000000 0.000000 1.000000
vn 0.000000 0.000000 1.000000
vn 0.000000 0.000000 1.000000
vn 0.000000 0.000000 1.000000
vn 0.251969 -0.141732 0.960630
vn 0.283465 -0.118110 0.952756
vn 0.330709 -0.118110 0.937008
vn 0.220472 -0.086614 0.968504
vn 0.291339 -0.062992 0.952756
vn 0.031496 0.110236 0.992126
vn 0.007874 0.078740 1.000000
vn -0.039370 0.070866 1.000000
vn 0.070866 0.062992 0.992126
vn 0.015748 0.031496 1.000000
tan 0.004836 -0.994358 0.102362 1.000000
tan 0.004836 -0.994358 0.102362 1.000000
tan 0.004836 -0.994358 0.102362 1.000000
tan 0.004836 -0.994358 0.102362 1.000000
tan 0.224192 -0.887346 -0.404985 1.000000
tan 0.224192 -0.887346 -0.404985 1.000000
tan 0.191456 -0.899746 -0.396553 1.000000
tan 0.247504 -0.877674 -0.410689 1.000000
tan -0.610577 0.749892 -0.259471 1.000000
tan -0.603013 0.749892 -0.258541 1.000000
tan -0.603013 0.749892 -0.258541 1.000000
tan -0.603013 0.749892 -0.258541 1.000000
tan 0.245086 0.779342 -0.578523 1.000000
tan 0.245086 0.779342 -0.578523 1.000000
tan 0.245086 0.779342 -0.578523 1.000000
tan 0.245086 0.779342 -0.578523 1.000000
tan 0.643251 0.744002 -0.189472 1.000000
tan 0.643251 0.744002 -0.189472 1.000000
tan 0.643251 0.744002 -0.189472 1.000000
tan 0.643251 0.744002 -0.189472 1.000000
tan 0.449067 0.312667 -0.843698 1.000000
tan 0.449067 0.312667 -0.843698 1.000000
tan 0.449067 0.312667 -0.843698 1.000000
tan 0.449067 0.312667 -0.843698 1.000000
tan -0.907062 0.214148 -0.346209 1.000000
tan -0.907062 0.214148 -0.346209 1.000000
tan -0.907062 0.214148 -0.346209 1.000000
tan -0.907062 0.214148 -0.346209 1.000000
tan 0.341001 0.922252 -0.176762 1.000000
tan 0.341001 0.922252 -0.176762 1.000000
tan 0.341001 0.922252 -0.176762 1.000000
tan 0.341001 0.922252 -0.176762 1.000000
tan 0.341001 0.922252 -0.176762 1.000000
tan 0.341001 0.922252 -0.176762 1.000000
tan 0.208940 -0.905698 0.363693 1.000000
tan 0.261579 -0.936760 0.252217 1.000000
tan 0.131688 -0.921818 0.366049 1.000000
tan 0.357431 -0.929010 0.145762 1.000000
tan 0.427677 -0.905512 0.071300 1.000000
tan 0.546407 -0.842520 0.066340 1.000000
tan 0.858020 -0.495195 0.133858 1.000000
tan 0.862608 -0.510509 0.060574 1.000000
tan 0.873644 -0.479571 0.133362 1.000000
tan 0.853866 -0.527125 0.039928 1.000000
tan 0.836320 -0.536425 -0.075392 1.000000
tan 0.828508 -0.552049 -0.074524 1.000000
tan 0.167772 0.969496 -0.178684 1.000000
tan 0.167772 0.969496 -0.178684 1.000000
tan 0.167772 0.969496 -0.178684 1.000000
tan 0.167772 0.969496 -0.178684 1.000000
tan 0.167772 0.969496 -0.178684 1.000000
tan 0.167772 0.969496 -0.178684 1.000000
tan -0.866886 -0.495319 -0.064356 1.000000
tan -0.866886 -0.495319 -0.064356 1.000000
tan -0.866886 -0.495319 -0.064356 1.000000
tan -0.866886 -0.495319 -0.064356 1.000000
tan -0.866886 -0.495319 -0.064356 1.000000
tan -0.866886 -0.495319 -0.064356 1.000000
tan 0.661975 0.639903 0.402319 1.000000
tan 0.872590 0.453221 0.189348 1.000000
tan 0.706305 0.591729 0.393949 1.000000
tan 0.900242 0.383347 0.195300 1.000000
tan 0.929258 0.364313 -0.127720 1.000000
tan 0.934962 0.335607 -0.120466 1.000000
tan 0.932854 0.220348 -0.279311 1.000000
tan 0.944510 0.178684 -0.291835 1.000000
tan -0.539959 -0.827020 -0.177816 1.000000
tan -0.431273 -0.897886 -0.106330 1.000000
tan -0.304669 -0.945254 -0.107198 1.000000
tan -0.524955 -0.834522 -0.195548 1.000000
tan -0.535185 -0.804018 -0.250481 1.000000
tan -0.599789 -0.756525 -0.246636 1.000000
tan 0.927646 0.272429 -0.249054 1.000000
tan 0.927646 0.272429 -0.249054 1.000000
tan 0.927646 0.272429 -0.249054 1.000000
tan 0.927646 0.272429 -0.249054 1.000000
tan 0.927646 0.272429 -0.249054 1.000000
tan 0.927646 0.272429 -0.249054 1.000000
tan 0.765082 0.445781 -0.466613 1.000000
tan 0.660301 0.619009 -0.418253 1.000000
tan 0.786410 0.416641 -0.453097 1.000000
tan 0.673941 0.611941 -0.401141 1.000000
tan 0.525885 0.829438 -0.179428 1.000000
tan 0.540393 0.810280 -0.200880 1.000000
tan 0.286379 0.949160 -0.098456 1.000000
tan 0.178374 0.978176 -0.124248 1.000000
tan 0.900676 0.285139 -0.307769 1.000000
tan 0.907930 0.285139 -0.309443 1.000000
tan 0.869862 0.223200 -0.449191 1.000000
tan 0.857462 0.203484 -0.477587 1.000000
tan 0.768244 0.117986 -0.627937 1.000000
tan 0.777234 0.107880 -0.629053 1.000000
tan -0.314961 0.952756 0.000000 1.000000
tan -0.314961 0.952756 0.000000 1.000000
tan -0.314961 0.952756 0.000000 1.000000
tan -0.314961 0.952756 0.000000 1.000000
tan -0.314961 0.952756 0.000000 1.000000
tan -0.314961 0.952756 0.000000 1.000000
tan -0.314961 0.952756 0.000000 1.000000
tan -0.314961 0.952756 0.000000 1.000000
tan -0.314961 0.952756 0.000000 1.000000
tan 0.470457 -0.854610 -0.249488 1.000000
tan 0.465311 -0.848782 -0.243660 1.000000
tan 0.459979 -0.850208 -0.269515 1.000000
tan 0.482733 -0.848968 -0.185814 1.000000
tan 0.481741 -0.849650 -0.203484 1.000000
tan -0.714365 0.698493 -0.054932 1.000000
tan -0.705747 0.717031 -0.050902 1.000000
tan -0.718209 0.691983 -0.077314 1.000000
tan -0.662161 0.741025 0.000248 1.000000
tan -0.678157 0.732780 -0.012400 1.000000
f 3/3/3 2/2/2 1/1/1
f 4/4/4 2/2/2 3/3/3
f 7/7/7 6/6/6 5/5/5
f 6/6/6 8/8/8 5/5/5
f 11/11/11 10/10/10 9/9/9
f 11/11/11 12/12/12 10/10/10
f 15/15/15 14/14/14 13/13/13
f 14/14/14 15/15/15 16/16/16
f 19/19/19 18/18/18 17/17/17
f 20/20/20 17/17/17 18/18/18
f 23/23/23 22/22/22 21/21/21
f 24/24/24 21/21/21 22/22/22
f 27/27/27 26/26/26 25/25/25
f 28/28/28 25/25/25 26/26/26
f 31/31/31 30/30/30 29/29/29
f 29/29/29 32/32/32 31/31/31
f 31/31/31 32/32/32 33/33/33
f 34/34/34 33/33/33 32/32/32
f 37/37/37 36/36/36 35/35/35
f 35/35/35 36/36/36 38/38/38
f 36/36/36 39/39/39 38/38/38
f 40/40/40 38/38/38 39/39/39
f 43/43/43 42/42/42 41/41/41
f 44/44/44 41/41/41 42/42/42
f 42/42/42 45/45/45 44/44/44
f 46/46/46 44/44/44 45/45/45
f 49/49/49 48/48/48 47/47/47
f 47/47/47 48/48/48 50/50/50
f 48/48/48 51/51/51 50/50/50
f 52/52/52 50/50/50 51/51/51
f 55/55/55 54/54/54 53/53/53
f 53/53/53 54/54/54 56/56/56
f 54/54/54 57/57/57 56/56/56
f 58/58/58 56/56/56 57/57/57
f 61/61/61 60/60/60 59/59/59
f 62/62/62 60/60/60 61/61/61
f 62/62/62 63/63/63 60/60/60
f 62/62/62 64/64/64 63/63/63
f 64/64/64 65/65/65 63/63/63
f 66/66/66 63/63/63 65/65/65
f 69/69/69 68/68/68 67/67/67
f 70/70/70 67/67/67 68/68/68
f 70/70/70 71/71/71 67/67/67
f 72/72/72 67/67/67 71/71/71
f 75/75/75 74/74/74 73/73/73
f 73/73/73 74/74/74 76/76/76
f 76/76/76 74/74/74 77/77/77
f 78/78/78 77/77/77 74/74/74
f 81/81/81 80/80/80 79/79/79
f 82/82/82 79/79/79 80/80/80
f 82/82/82 80/80/80 83/83/83
f 80/80/80 84/84/84 83/83/83
f 84/84/84 85/85/85 83/83/83
f 86/86/86 83/83/83 85/85/85
f 89/89/89 88/88/88 87/87/87
f 89/89/89 90/90/90 88/88/88
f 90/90/90 89/89/89 91/91/91
f 92/92/92 91/91/91 89/89/89
f 95/95/95 94/94/94 93/93/93
f 95/95/95 93/93/93 96/96/96
f 95/95/95 96/96/96 97/97/97
f 96/96/96 93/93/93 98/98/98
f 96/96/96 99/99/99 97/97/97
f 98/98/98 100/100/100 96/96/96
f 101/101/101 99/99/99 96/96/96
f 96/96/96 100/100/100 101/101/101
f 104/104/104 103/103/103 102/102/102
f 103/103/103 105/105/105 102/102/102
f 103/103/103 104/104/104 106/106/106
f 106/106/106 105/105/105 103/103/103
f 109/109/109 108/108/108 107/107/107
f 108/108/108 110/110/110 107/107/107
f 108/108/108 109/109/109 111/111/111
f 111/111/111 110/110/110 108/108/108
