mtllib SM_SwampGrass_08_LOD3.mtl
g SM_SwampGrass_08_LOD3
#Vertices 96
#Indices 186
#Section 0 Offset 0 NumIndices 186 MaterialIndex 0 MI_SwampGrass
v 0.051823 -0.062928 0.429751 1.000000 0.000000 0.000000 1.000000
v 0.049885 -0.061971 0.430823 1.000000 0.000000 0.000000 1.000000
v 0.016521 -0.016636 0.354273 1.000000 0.000000 0.000000 1.000000
v 0.022795 -0.020277 0.352491 1.000000 0.000000 0.000000 1.000000
v 0.005939 -0.044310 0.470582 1.000000 0.000000 0.000000 1.000000
v 0.007706 -0.044163 0.471801 1.000000 0.000000 0.000000 1.000000
v 0.033488 -0.021908 0.394207 1.000000 0.000000 0.000000 1.000000
v 0.026997 -0.023339 0.394629 1.000000 0.000000 0.000000 1.000000
v 0.050375 -0.032399 0.507414 1.000000 0.000000 0.000000 1.000000
v 0.049516 -0.033970 0.507991 1.000000 0.000000 0.000000 1.000000
v 0.028829 -0.028383 0.438372 1.000000 0.000000 0.000000 1.000000
v 0.032207 -0.023641 0.438262 1.000000 0.000000 0.000000 1.000000
v 0.027017 -0.032643 0.544413 1.000000 0.000000 0.000000 1.000000
v 0.026828 -0.031045 0.544495 1.000000 0.000000 0.000000 1.000000
v 0.032419 -0.023094 0.482387 1.000000 0.000000 0.000000 1.000000
v 0.033017 -0.028023 0.481931 1.000000 0.000000 0.000000 1.000000
v 0.045327 -0.053620 0.576417 1.000000 0.000000 0.000000 1.000000
v 0.046203 -0.054256 0.575690 1.000000 0.000000 0.000000 1.000000
v 0.037478 -0.035290 0.530799 1.000000 0.000000 0.000000 1.000000
v 0.034453 -0.032754 0.531637 1.000000 0.000000 0.000000 1.000000
v -0.003190 -0.000024 0.005867 0.078431 0.917647 0.000000 1.000000
v 0.003120 -0.000028 0.006305 0.078431 0.917647 0.000000 1.000000
v 0.004528 -0.001452 0.090415 0.388235 0.607843 0.000000 1.000000
v -0.002103 -0.001444 0.090064 0.376471 0.619608 0.000000 1.000000
v 0.011116 -0.012508 0.285926 0.988235 0.007843 0.000000 1.000000
v 0.007622 -0.012509 0.286164 0.988235 0.007843 0.000000 1.000000
v 0.033225 -0.029738 0.508092 1.000000 0.000000 0.000000 1.000000
v 0.031751 -0.029761 0.508369 1.000000 0.000000 0.000000 1.000000
v 0.055645 -0.071351 0.638222 1.000000 0.000000 0.000000 1.000000
v 0.055133 -0.071512 0.638571 1.000000 0.000000 0.000000 1.000000
v 0.002080 -0.000789 0.022866 0.078431 0.917647 0.000000 1.000000
v -0.008558 -0.000551 0.023390 0.078431 0.917647 0.000000 1.000000
v -0.003352 0.037900 0.132688 0.756863 0.239216 0.000000 1.000000
v 0.021260 0.041351 0.133997 0.780392 0.215686 0.000000 1.000000
v -0.004945 0.027434 0.234499 0.952941 0.043137 0.000000 1.000000
v 0.013983 0.029996 0.237834 0.956863 0.039216 0.000000 1.000000
v -0.005100 -0.004591 0.047672 0.078431 0.917647 0.000000 1.000000
v 0.000489 0.000701 0.047315 0.078431 0.917647 0.000000 1.000000
v 0.065649 0.003626 0.155397 0.882353 0.113725 0.000000 1.000000
v 0.063019 0.000480 0.156405 0.882353 0.113725 0.000000 1.000000
v 0.110996 0.015280 0.234086 0.976471 0.019608 0.000000 1.000000
v 0.107935 0.011228 0.236139 0.976471 0.019608 0.000000 1.000000
v 0.002244 0.005123 0.075318 0.227451 0.768628 0.000000 1.000000
v 0.001677 -0.002246 0.074948 0.219608 0.776471 0.000000 1.000000
v -0.058012 -0.075639 0.138146 0.886275 0.109804 0.000000 1.000000
v -0.060563 -0.076238 0.141240 0.894118 0.101961 0.000000 1.000000
v -0.031882 -0.155610 0.109007 0.929412 0.066667 0.000000 1.000000
v -0.035240 -0.156752 0.112894 0.933333 0.062745 0.000000 1.000000
v 0.005339 -0.006822 0.099770 0.498039 0.498039 0.000000 1.000000
v 0.000946 -0.001218 0.100004 0.494118 0.501961 0.000000 1.000000
v -0.027841 0.015063 0.212319 0.933333 0.062745 0.000000 1.000000
v -0.025785 0.012465 0.214386 0.933333 0.062745 0.000000 1.000000
v -0.097867 0.047310 0.249463 0.984314 0.011765 0.000000 1.000000
v -0.095690 0.044531 0.253096 0.984314 0.011765 0.000000 1.000000
v -0.002090 -0.001616 0.124412 0.674510 0.321569 0.000000 1.000000
v 0.004640 -0.002816 0.123838 0.674510 0.321569 0.000000 1.000000
v -0.031188 -0.050317 0.222963 0.949020 0.047059 0.000000 1.000000
v -0.034804 -0.049345 0.222626 0.949020 0.047059 0.000000 1.000000
v -0.048299 -0.097069 0.286155 0.996078 0.000000 0.000000 1.000000
v -0.052456 -0.094992 0.284674 0.996078 0.000000 0.000000 1.000000
v 0.010370 -0.003342 0.147049 0.792157 0.203922 0.000000 1.000000
v 0.004803 -0.006889 0.147088 0.788235 0.207843 0.000000 1.000000
v 0.004654 0.014317 0.256325 0.972549 0.023529 0.000000 1.000000
v 0.007726 0.016228 0.256315 0.972549 0.023529 0.000000 1.000000
v 0.034665 -0.017155 0.315434 0.996078 0.000000 0.000000 1.000000
v 0.037078 -0.013637 0.313477 0.996078 0.000000 0.000000 1.000000
v 0.006144 -0.009732 0.172344 0.882353 0.113725 0.000000 1.000000
v 0.008530 -0.001702 0.173404 0.886275 0.109804 0.000000 1.000000
v 0.070510 -0.041428 0.230892 0.964706 0.031373 0.000000 1.000000
v 0.069688 -0.061049 0.228961 0.968628 0.027451 0.000000 1.000000
v 0.142274 -0.037104 0.268947 0.996078 0.000000 0.000000 1.000000
v 0.146684 -0.051819 0.269882 0.996078 0.000000 0.000000 1.000000
v 0.007293 -0.011858 0.228746 0.949020 0.047059 0.000000 1.000000
v 0.003134 -0.010316 0.229136 0.949020 0.047059 0.000000 1.000000
v 0.035001 0.035659 0.287868 0.992157 0.003922 0.000000 1.000000
v 0.039956 0.034653 0.287177 0.992157 0.003922 0.000000 1.000000
v 0.045104 0.105754 0.333520 1.000000 0.000000 0.000000 1.000000
v 0.047753 0.105723 0.333491 1.000000 0.000000 0.000000 1.000000
v 0.005983 -0.012445 0.260047 0.972549 0.023529 0.000000 1.000000
v 0.009846 -0.010860 0.259766 0.972549 0.023529 0.000000 1.000000
v 0.008134 -0.046037 0.331385 1.000000 0.000000 0.000000 1.000000
v 0.003598 -0.047397 0.330618 1.000000 0.000000 0.000000 1.000000
v 0.007373 -0.083583 0.400915 1.000000 0.000000 0.000000 1.000000
v 0.005013 -0.084076 0.400290 1.000000 0.000000 0.000000 1.000000
v 0.012099 -0.010776 0.289699 0.992157 0.003922 0.000000 1.000000
v 0.010441 -0.014323 0.289987 0.992157 0.003922 0.000000 1.000000
v 0.008653 0.015685 0.357973 1.000000 0.000000 0.000000 1.000000
v 0.010598 0.019639 0.357062 1.000000 0.000000 0.000000 1.000000
v 0.003379 0.038730 0.428985 1.000000 0.000000 0.000000 1.000000
v 0.004401 0.040725 0.428325 1.000000 0.000000 0.000000 1.000000
v 0.015377 -0.015899 0.317818 0.996078 0.000000 0.000000 1.000000
v 0.014369 -0.012422 0.318480 1.000000 0.000000 0.000000 1.000000
v 0.024940 -0.022737 0.384337 1.000000 0.000000 0.000000 1.000000
v 0.025750 -0.026801 0.385122 1.000000 0.000000 0.000000 1.000000
v 0.003020 -0.008250 0.448989 1.000000 0.000000 0.000000 1.000000
v 0.003277 -0.010238 0.449869 1.000000 0.000000 0.000000 1.000000
vt 0.250732 0.976791
vt 0.237549 0.976059
vt 0.224976 0.460449
vt 0.265869 0.460938
vt 0.250732 0.976791
vt 0.237549 0.976059
vt 0.224976 0.460449
vt 0.265869 0.460938
vt 0.250732 0.976791
vt 0.237549 0.976059
vt 0.224976 0.460449
vt 0.265869 0.460938
vt 0.250732 0.976791
vt 0.237549 0.976059
vt 0.224976 0.460449
vt 0.265869 0.460938
vt 0.250732 0.976791
vt 0.237549 0.976059
vt 0.224976 0.460449
vt 0.265869 0.460938
vt 0.150024 0.035645
vt 0.159058 0.036621
vt 0.149536 0.157227
vt 0.139404 0.156250
vt 0.134033 0.438965
vt 0.127563 0.438477
vt 0.142212 0.760986
vt 0.137451 0.761230
vt 0.162109 0.961548
vt 0.157715 0.961975
vt 0.832520 0.299805
vt 0.864258 0.298828
vt 0.856445 0.659912
vt 0.783691 0.672852
vt 0.903320 0.959442
vt 0.849121 0.978455
vt 0.568848 0.283691
vt 0.592285 0.284180
vt 0.557129 0.682373
vt 0.544434 0.681885
vt 0.585938 0.961548
vt 0.569336 0.961945
vt 0.568848 0.283691
vt 0.592285 0.284180
vt 0.557129 0.682373
vt 0.544434 0.681885
vt 0.585938 0.961548
vt 0.569336 0.961945
vt 0.568848 0.283691
vt 0.592285 0.284180
vt 0.557129 0.682373
vt 0.544434 0.681885
vt 0.585938 0.961548
vt 0.569336 0.961945
vt 0.568848 0.283691
vt 0.592285 0.284180
vt 0.557129 0.682373
vt 0.544434 0.681885
vt 0.585938 0.961548
vt 0.569336 0.961945
vt 0.568848 0.283691
vt 0.592285 0.284180
vt 0.557129 0.682373
vt 0.544434 0.681885
vt 0.585938 0.961548
vt 0.569336 0.961945
vt 0.832520 0.299805
vt 0.864258 0.298828
vt 0.856445 0.659912
vt 0.783691 0.672852
vt 0.903320 0.959442
vt 0.849121 0.978455
vt 0.466309 0.257812
vt 0.484619 0.257812
vt 0.481934 0.610107
vt 0.460693 0.610352
vt 0.479248 0.962311
vt 0.468262 0.962677
vt 0.466309 0.257812
vt 0.484619 0.257812
vt 0.481934 0.610107
vt 0.460693 0.610352
vt 0.479248 0.962311
vt 0.468262 0.962677
vt 0.466309 0.257812
vt 0.484619 0.257812
vt 0.481934 0.610107
vt 0.460693 0.610352
vt 0.479248 0.962311
vt 0.468262 0.962677
vt 0.466309 0.257812
vt 0.484619 0.257812
vt 0.481934 0.610107
vt 0.460693 0.610352
vt 0.479248 0.962311
vt 0.468262 0.962677
vt1 0.763672 0.697266
vt1 0.762695 0.683594
vt1 0.214844 0.669922
vt1 0.215088 0.713379
vt1 0.557617 0.032288
vt1 0.556641 0.018250
vt1 0.008957 0.004997
vt1 0.009262 0.048462
vt1 0.016876 0.048889
vt1 0.017639 0.062927
vt1 0.565430 0.076172
vt1 0.565430 0.032715
vt1 0.557617 0.111450
vt1 0.556641 0.097412
vt1 0.008957 0.084167
vt1 0.009262 0.127686
vt1 0.016876 0.128052
vt1 0.017639 0.142090
vt1 0.565430 0.155396
vt1 0.565430 0.111877
vt1 0.993164 0.970703
vt1 0.992676 0.961426
vt1 0.864258 0.971191
vt1 0.865234 0.982422
vt1 0.564941 0.987793
vt1 0.564941 0.994629
vt1 0.222656 0.979004
vt1 0.222290 0.984375
vt1 0.009415 0.958008
vt1 0.008957 0.962891
vt1 0.959473 0.741211
vt1 0.958496 0.707520
vt1 0.575684 0.742676
vt1 0.567383 0.820312
vt1 0.254639 0.714844
vt1 0.238647 0.773926
vt1 0.967285 0.921387
vt1 0.967285 0.895996
vt1 0.543457 0.933594
vt1 0.543945 0.947266
vt1 0.246948 0.902832
vt1 0.246460 0.920898
vt1 0.919922 0.857910
vt1 0.919434 0.832520
vt1 0.496094 0.870117
vt1 0.496826 0.883789
vt1 0.199463 0.839355
vt1 0.198975 0.857422
vt1 0.943359 0.889648
vt1 0.943359 0.864258
vt1 0.520020 0.901855
vt1 0.520508 0.915527
vt1 0.223145 0.871094
vt1 0.222778 0.889160
vt1 0.935547 0.822266
vt1 0.935547 0.796875
vt1 0.511719 0.834473
vt1 0.512695 0.848145
vt1 0.215332 0.803711
vt1 0.214844 0.821777
vt1 0.991211 0.952637
vt1 0.990723 0.927734
vt1 0.567383 0.965332
vt1 0.567871 0.979004
vt1 0.270752 0.934570
vt1 0.270264 0.952148
vt1 0.133545 0.210693
vt1 0.100037 0.211670
vt1 0.134888 0.594238
vt1 0.212891 0.602051
vt1 0.107178 0.915039
vt1 0.166138 0.931152
vt1 0.082031 0.923340
vt1 0.101685 0.923340
vt1 0.098755 0.548828
vt1 0.076233 0.548828
vt1 0.095825 0.174561
vt1 0.084167 0.174194
vt1 0.058319 0.931152
vt1 0.077942 0.931152
vt1 0.075012 0.556641
vt1 0.052521 0.556641
vt1 0.072083 0.182495
vt1 0.060425 0.182129
vt1 0.034546 0.939453
vt1 0.054199 0.939453
vt1 0.051270 0.564941
vt1 0.028748 0.564453
vt1 0.048340 0.190430
vt1 0.036652 0.190063
vt1 0.010796 0.947266
vt1 0.030441 0.947266
vt1 0.027512 0.572754
vt1 0.004997 0.572266
vt1 0.024582 0.198364
vt1 0.012901 0.197998
vn 0.535433 0.811024 0.244094
vn 0.535433 0.811024 0.244094
vn 0.535433 0.811024 0.244094
vn 0.535433 0.811024 0.244094
vn 0.220472 -0.952756 -0.204724
vn 0.220472 -0.952756 -0.204724
vn 0.196850 -0.960630 -0.212598
vn 0.196850 -0.960630 -0.212598
vn -0.795276 0.535433 0.275591
vn -0.795276 0.535433 0.283465
vn -0.779528 0.559055 0.275591
vn -0.779528 0.559055 0.275591
vn 0.992126 0.110236 0.102362
vn 0.992126 0.110236 0.102362
vn 0.992126 0.110236 0.102362
vn 0.992126 0.110236 0.102362
vn -0.669291 -0.724409 -0.173228
vn -0.669291 -0.724409 -0.173228
vn -0.661417 -0.732283 -0.181102
vn -0.661417 -0.732283 -0.181102
vn 0.000000 1.000000 0.015748
vn 0.000000 1.000000 0.015748
vn 0.000000 1.000000 0.039370
vn 0.000000 1.000000 0.039370
vn 0.007874 1.000000 0.062992
vn 0.007874 1.000000 0.062992
vn 0.015748 0.984252 0.188976
vn 0.023622 0.984252 0.188976
vn -0.078740 0.944882 0.314961
vn -0.078740 0.944882 0.314961
vn 0.007874 -0.944882 0.330709
vn -0.007874 -0.944882 0.330709
vn 0.125984 -0.984252 0.133858
vn 0.133858 -0.984252 0.102362
vn 0.149606 -0.984252 -0.094488
vn 0.149606 -0.984252 -0.094488
vn -0.629921 0.685039 0.362205
vn -0.629921 0.685039 0.362205
vn -0.669291 0.669291 0.330709
vn -0.661417 0.661417 0.338583
vn -0.685039 0.669291 0.299213
vn -0.685039 0.669291 0.299213
vn 0.771654 -0.094488 0.622047
vn 0.771654 -0.094488 0.622047
vn 0.771654 -0.047244 0.629921
vn 0.771654 -0.015748 0.637795
vn 0.755906 0.007874 0.653543
vn 0.755906 0.007874 0.653543
vn -0.779528 -0.614173 -0.110236
vn -0.787402 -0.606299 -0.110236
vn -0.653543 -0.716535 -0.251969
vn -0.661417 -0.708661 -0.228346
vn -0.527559 -0.795276 -0.299213
vn -0.527559 -0.795276 -0.291339
vn 0.196850 0.858268 0.480315
vn 0.196850 0.858268 0.480315
vn 0.173228 0.818898 0.543307
vn 0.165354 0.818898 0.551181
vn 0.165354 0.771654 0.614173
vn 0.165354 0.771654 0.614173
vn 0.527559 -0.834646 0.165354
vn 0.527559 -0.834646 0.165354
vn 0.519685 -0.834646 -0.196850
vn 0.511811 -0.818898 -0.251969
vn 0.472441 -0.653543 -0.590551
vn 0.480315 -0.653543 -0.590551
vn -0.653543 0.078740 0.755906
vn -0.645669 0.094488 0.755906
vn -0.582677 -0.055118 0.811024
vn -0.566929 -0.055118 0.818898
vn -0.456693 -0.078740 0.881890
vn -0.456693 -0.078740 0.881890
vn -0.196850 -0.716535 0.669291
vn -0.204724 -0.716535 0.669291
vn -0.031496 -0.661417 0.748031
vn -0.031496 -0.661417 0.748031
vn 0.000000 -0.543307 0.834646
vn 0.000000 -0.543307 0.834646
vn -0.322835 0.850394 0.409449
vn -0.322835 0.850394 0.409449
vn -0.322835 0.842520 0.425197
vn -0.322835 0.842520 0.425197
vn -0.299213 0.842520 0.448819
vn -0.291339 0.842520 0.448819
vn 0.889764 -0.401575 0.196850
vn 0.889764 -0.401575 0.196850
vn 0.897638 -0.393701 0.196850
vn 0.897638 -0.393701 0.196850
vn 0.897638 -0.393701 0.196850
vn 0.897638 -0.393701 0.196850
vn -0.952756 -0.291339 0.110236
vn -0.952756 -0.299213 0.102362
vn -0.976378 -0.204724 -0.055118
vn -0.976378 -0.212598 -0.094488
vn -0.937008 -0.236220 -0.267717
vn -0.937008 -0.236220 -0.267717
tan -0.297291 0.451299 -0.847356 1.000000
tan -0.305599 0.453593 -0.836754 1.000000
tan -0.087110 0.340567 -0.940480 1.000000
tan -0.078802 0.336351 -0.944696 1.000000
tan 0.549755 0.296237 -0.786596 1.000000
tan 0.566371 0.296485 -0.769855 1.000000
tan -0.083018 0.199826 -0.979788 1.000000
tan -0.098146 0.196726 -0.979788 1.000000
tan -0.409139 -0.147746 -0.893608 1.000000
tan -0.424081 -0.159030 -0.889392 1.000000
tan -0.243288 0.133858 -0.959700 1.000000
tan -0.238886 0.139996 -0.959700 1.000000
tan 0.089466 0.114452 -0.990390 1.000000
tan 0.089466 0.114452 -0.990390 1.000000
tan 0.089466 0.113646 -0.989522 1.000000
tan 0.089466 0.113646 -0.989522 1.000000
tan -0.269329 0.452043 -0.849774 1.000000
tan -0.282101 0.461219 -0.838800 1.000000
tan -0.035836 0.270879 -0.964412 1.000000
tan -0.035836 0.270879 -0.964412 1.000000
tan 0.007874 0.015748 -1.000000 1.000000
tan 0.007874 0.015748 -1.000000 1.000000
tan -0.031496 0.039370 -1.000000 1.000000
tan -0.031496 0.039370 -1.000000 1.000000
tan -0.102362 0.063302 -0.992126 1.000000
tan -0.102362 0.063302 -0.992126 1.000000
tan -0.035774 0.189596 -0.984500 1.000000
tan -0.035774 0.189906 -0.984624 1.000000
tan -0.151280 0.300701 -0.939922 1.000000
tan -0.151280 0.300701 -0.939922 1.000000
tan -0.089652 -0.328787 -0.937256 1.000000
tan -0.092256 -0.327423 -0.937690 1.000000
tan -0.093744 -0.145638 -0.982640 1.000000
tan -0.104160 -0.116560 -0.984562 1.000000
tan -0.162874 0.069874 -0.985740 1.000000
tan -0.170624 0.068696 -0.985740 1.000000
tan -0.294129 0.219852 -0.927336 1.000000
tan -0.288735 0.227664 -0.932730 1.000000
tan -0.426561 0.021328 -0.906442 1.000000
tan -0.435551 0.023002 -0.895778 1.000000
tan -0.458615 -0.070742 -0.891748 1.000000
tan -0.458615 -0.073098 -0.886478 1.000000
tan 0.623845 0.020398 -0.770786 1.000000
tan 0.622357 -0.001550 -0.772273 1.000000
tan -0.068076 0.986174 0.157356 1.000000
tan -0.103602 0.985058 0.149668 1.000000
tan -0.134478 0.976316 0.143778 1.000000
tan -0.134478 0.976316 0.143778 1.000000
tan 0.081964 0.073842 -0.991010 1.000000
tan 0.072478 0.086304 -0.992374 1.000000
tan 0.561597 -0.231260 -0.798996 1.000000
tan 0.550995 -0.259905 -0.789386 1.000000
tan 0.724595 -0.235414 -0.651869 1.000000
tan 0.717899 -0.238948 -0.647715 1.000000
tan 0.008866 0.489801 -0.878852 1.000000
tan 0.002108 0.491351 -0.878852 1.000000
tan 0.173476 0.516647 -0.834026 1.000000
tan 0.186124 0.523405 -0.833468 1.000000
tan 0.502945 0.471511 -0.727819 1.000000
tan 0.515097 0.464071 -0.721743 1.000000
tan 0.095108 -0.135160 -0.985678 1.000000
tan 0.095108 -0.135160 -0.985678 1.000000
tan -0.076012 0.183768 -0.979850 1.000000
tan -0.111600 0.226362 -0.962366 1.000000
tan -0.714489 0.109740 -0.693037 1.000000
tan -0.724781 0.084940 -0.683489 1.000000
tan -0.701841 0.323145 -0.640461 1.000000
tan -0.694153 0.328725 -0.634013 1.000000
tan -0.795896 0.256990 -0.554343 1.000000
tan -0.803088 0.238080 -0.539959 1.000000
tan -0.883626 0.092008 -0.449377 1.000000
tan -0.883006 0.067580 -0.451237 1.000000
tan -0.299585 -0.608531 -0.739599 1.000000
tan -0.293943 -0.604129 -0.736685 1.000000
tan -0.246884 -0.720007 -0.647033 1.000000
tan -0.246884 -0.720007 -0.647033 1.000000
tan -0.056544 -0.834646 -0.543307 1.000000
tan -0.049972 -0.834646 -0.543307 1.000000
tan -0.201624 0.362639 -0.912146 1.000000
tan -0.208320 0.356873 -0.905450 1.000000
tan 0.018786 0.455143 -0.887594 1.000000
tan 0.028768 0.457685 -0.885052 1.000000
tan 0.150908 0.506541 -0.850270 1.000000
tan 0.157542 0.506665 -0.848844 1.000000
tan 0.146630 -0.153760 -0.976440 1.000000
tan 0.146630 -0.153760 -0.976440 1.000000
tan 0.088350 -0.276087 -0.955050 1.000000
tan 0.088350 -0.276087 -0.955050 1.000000
tan 0.044950 -0.362453 -0.929878 1.000000
tan 0.041850 -0.369521 -0.929878 1.000000
tan -0.154628 0.135532 -0.978238 1.000000
tan -0.150908 0.144336 -0.982702 1.000000
tan 0.088846 -0.158286 -0.985926 1.000000
tan 0.130014 -0.158224 -0.987476 1.000000
tan 0.332197 -0.303553 -0.894848 1.000000
tan 0.334057 -0.313039 -0.892988 1.000000
f 3/3/3 2/2/2 1/1/1
f 1/1/1 4/4/4 3/3/3
f 7/7/7 6/6/6 5/5/5
f 5/5/5 8/8/8 7/7/7
f 11/11/11 10/10/10 9/9/9
f 9/9/9 12/12/12 11/11/11
f 15/15/15 14/14/14 13/13/13
f 13/13/13 16/16/16 15/15/15
f 19/19/19 18/18/18 17/17/17
f 17/17/17 20/20/20 19/19/19
f 23/23/23 22/22/22 21/21/21
f 21/21/21 24/24/24 23/23/23
f 25/25/25 23/23/23 24/24/24
f 24/24/24 26/26/26 25/25/25
f 27/27/27 25/25/25 26/26/26
f 26/26/26 28/28/28 27/27/27
f 29/29/29 27/27/27 28/28/28
f 28/28/28 30/30/30 29/29/29
f 33/33/33 32/32/32 31/31/31
f 31/31/31 34/34/34 33/33/33
f 35/35/35 33/33/33 34/34/34
f 34/34/34 36/36/36 35/35/35
f 39/39/39 38/38/38 37/37/37
f 37/37/37 40/40/40 39/39/39
f 41/41/41 39/39/39 40/40/40
f 40/40/40 42/42/42 41/41/41
f 45/45/45 44/44/44 43/43/43
f 43/43/43 46/46/46 45/45/45
f 47/47/47 45/45/45 46/46/46
f 46/46/46 48/48/48 47/47/47
f 51/51/51 50/50/50 49/49/49
f 49/49/49 52/52/52 51/51/51
f 53/53/53 51/51/51 52/52/52
f 52/52/52 54/54/54 53/53/53
f 57/57/57 56/56/56 55/55/55
f 55/55/55 58/58/58 57/57/57
f 59/59/59 57/57/57 58/58/58
f 58/58/58 60/60/60 59/59/59
f 63/63/63 62/62/62 61/61/61
f 61/61/61 64/64/64 63/63/63
f 65/65/65 63/63/63 64/64/64
f 64/64/64 66/66/66 65/65/65
f 69/69/69 68/68/68 67/67/67
f 67/67/67 70/70/70 69/69/69
f 71/71/71 69/69/69 70/70/70
f 70/70/70 72/72/72 71/71/71
f 75/75/75 74/74/74 73/73/73
f 73/73/73 76/76/76 75/75/75
f 77/77/77 75/75/75 76/76/76
f 76/76/76 78/78/78 77/77/77
f 81/81/81 80/80/80 79/79/79
f 79/79/79 82/82/82 81/81/81
f 83/83/83 81/81/81 82/82/82
f 82/82/82 84/84/84 83/83/83
f 87/87/87 86/86/86 85/85/85
f 85/85/85 88/88/88 87/87/87
f 89/89/89 87/87/87 88/88/88
f 88/88/88 90/90/90 89/89/89
f 93/93/93 92/92/92 91/91/91
f 91/91/91 94/94/94 93/93/93
f 95/95/95 93/93/93 94/94/94
f 94/94/94 96/96/96 95/95/95
