mtllib SM_SwampGrass_07_LOD4.mtl
g SM_SwampGrass_07_LOD4
#Vertices 6
#Indices 12
#Section 0 Offset 0 NumIndices 12 MaterialIndex 1 MI_SwampGrassBillboard
v -0.024699 -0.000000 0.758767 0.996078 0.000000 0.000000 1.000000
v -0.088262 -0.000000 0.758767 0.996078 0.000000 0.000000 1.000000
v -0.238790 0.000000 0.068525 0.847059 0.145098 0.000000 1.000000
v 0.097536 -0.000000 0.307890 0.996078 0.000000 0.000000 1.000000
v -0.026861 -0.000000 0.004126 0.000000 1.000000 0.000000 1.000000
v 0.020368 -0.000000 0.004126 0.000000 1.000000 0.000000 1.000000
vt 0.350586 0.962402
vt 0.316406 0.962402
vt 0.235596 0.591309
vt 0.416504 0.719971
vt 0.349609 0.556641
vt 0.375000 0.556641
vt1 0.092468 0.003998
vt1 0.009003 0.021744
vt1 0.003998 0.970215
vt1 0.378906 0.562012
vt1 0.300293 0.995605
vt1 0.362305 0.982422
vn 0.000000 1.000000 0.000000
vn 0.000000 1.000000 0.000000
vn 0.000000 1.000000 0.000000
vn 0.000000 1.000000 0.000000
vn 0.000000 1.000000 0.000000
vn 0.000000 1.000000 0.000000
tan 0.000000 0.000000 -1.000000 1.000000
tan 0.000000 0.000000 -1.000000 1.000000
tan 0.000000 0.000000 -1.000000 1.000000
tan 0.000000 0.000000 -1.000000 1.000000
tan 0.000000 0.000000 -1.000000 1.000000
tan 0.000000 0.000000 -1.000000 1.000000
f 3/3/3 2/2/2 1/1/1
f 1/1/1 4/4/4 3/3/3
f 5/5/5 3/3/3 4/4/4
f 4/4/4 6/6/6 5/5/5
