mtllib SM_SwampGrass_10_LOD3.mtl
g SM_SwampGrass_10_LOD3
#Vertices 64
#Indices 132
#Section 0 Offset 0 NumIndices 132 MaterialIndex 0 MI_SwampGrass
v -0.001915 0.000002 0.003334 0.000000 1.000000 0.000000 1.000000
v 0.001732 0.000002 0.003722 0.000000 1.000000 0.000000 1.000000
v -0.005652 0.002911 0.051942 0.427451 0.568627 0.000000 1.000000
v -0.009427 0.002890 0.051178 0.439216 0.556863 0.000000 1.000000
v -0.017164 0.019261 0.163662 0.992157 0.003922 0.000000 1.000000
v -0.019193 0.019310 0.163759 0.992157 0.003922 0.000000 1.000000
v -0.005992 0.005143 0.290349 1.000000 0.000000 0.000000 1.000000
v -0.006853 0.005143 0.290475 1.000000 0.000000 0.000000 1.000000
v -0.010151 -0.052441 0.345237 1.000000 0.000000 0.000000 1.000000
v -0.010479 -0.052597 0.345322 1.000000 0.000000 0.000000 1.000000
v -0.004068 -0.000724 0.023130 0.000000 1.000000 0.000000 1.000000
v 0.001610 0.004451 0.024647 0.000000 1.000000 0.000000 1.000000
v 0.041189 -0.025739 0.092033 0.909804 0.086275 0.000000 1.000000
v 0.040516 -0.041297 0.101754 0.933333 0.062745 0.000000 1.000000
v 0.111765 -0.000360 0.099726 0.984314 0.011765 0.000000 1.000000
v 0.116837 -0.010949 0.107839 0.992157 0.003922 0.000000 1.000000
v -0.004664 0.002145 0.035557 0.105882 0.890196 0.000000 1.000000
v -0.005740 -0.005296 0.036612 0.129412 0.866667 0.000000 1.000000
v -0.028726 0.041732 0.106692 0.929412 0.066667 0.000000 1.000000
v -0.022895 0.056117 0.098199 0.925490 0.070588 0.000000 1.000000
v -0.035855 0.054577 0.170992 1.000000 0.000000 0.000000 1.000000
v -0.031895 0.066863 0.175962 1.000000 0.000000 0.000000 1.000000
v -0.006109 0.000819 0.047244 0.333333 0.662745 0.000000 1.000000
v -0.010341 0.006744 0.046087 0.345098 0.650980 0.000000 1.000000
v -0.020308 0.024927 0.126417 0.949020 0.047059 0.000000 1.000000
v -0.011444 0.013527 0.135838 0.956863 0.039216 0.000000 1.000000
v -0.026872 0.084330 0.158454 1.000000 0.000000 0.000000 1.000000
v -0.021205 0.081956 0.170397 1.000000 0.000000 0.000000 1.000000
v -0.009527 0.004776 0.059410 0.592157 0.403922 0.000000 1.000000
v -0.002654 0.003419 0.060707 0.588235 0.407843 0.000000 1.000000
v -0.005268 -0.043169 0.121083 0.949020 0.047059 0.000000 1.000000
v -0.019918 -0.047900 0.127410 0.964706 0.031373 0.000000 1.000000
v 0.027295 -0.099711 0.138256 0.996078 0.000000 0.000000 1.000000
v 0.016366 -0.104235 0.143603 1.000000 0.000000 0.000000 1.000000
v -0.008286 0.007052 0.072627 0.713726 0.282353 0.000000 1.000000
v -0.014223 0.003604 0.072911 0.729412 0.266667 0.000000 1.000000
v -0.038587 0.033245 0.140228 0.976471 0.019608 0.000000 1.000000
v -0.026940 0.043643 0.143951 0.980392 0.015686 0.000000 1.000000
v -0.048926 0.066974 0.192066 1.000000 0.000000 0.000000 1.000000
v -0.037723 0.071442 0.188705 1.000000 0.000000 0.000000 1.000000
v -0.011202 0.013297 0.115205 0.925490 0.070588 0.000000 1.000000
v -0.015292 0.014825 0.114462 0.925490 0.070588 0.000000 1.000000
v -0.025796 0.024837 0.181492 1.000000 0.000000 0.000000 1.000000
v -0.020992 0.023274 0.181030 1.000000 0.000000 0.000000 1.000000
v -0.021672 0.020969 0.218594 1.000000 0.000000 0.000000 1.000000
v -0.019344 0.020231 0.218579 1.000000 0.000000 0.000000 1.000000
v -0.011350 0.021293 0.233781 1.000000 0.000000 0.000000 1.000000
v -0.010180 0.022831 0.233813 1.000000 0.000000 0.000000 1.000000
v -0.007034 0.010039 0.272569 1.000000 0.000000 0.000000 1.000000
v -0.008390 0.008000 0.272734 1.000000 0.000000 0.000000 1.000000
v 0.004518 0.023992 0.308696 1.000000 0.000000 0.000000 1.000000
v 0.004089 0.023152 0.309191 1.000000 0.000000 0.000000 1.000000
v -0.008191 0.017464 0.261153 1.000000 0.000000 0.000000 1.000000
v -0.007967 0.014386 0.260246 1.000000 0.000000 0.000000 1.000000
v -0.011590 -0.003770 0.290790 1.000000 0.000000 0.000000 1.000000
v -0.012821 -0.000303 0.297358 1.000000 0.000000 0.000000 1.000000
v -0.022727 -0.031581 0.297630 1.000000 0.000000 0.000000 1.000000
v -0.024623 -0.032228 0.303158 1.000000 0.000000 0.000000 1.000000
v -0.008501 -0.008296 0.310655 1.000000 0.000000 0.000000 1.000000
v -0.006397 -0.008558 0.310933 1.000000 0.000000 0.000000 1.000000
v -0.011910 -0.026884 0.326060 1.000000 0.000000 0.000000 1.000000
v -0.016896 -0.026753 0.325765 1.000000 0.000000 0.000000 1.000000
v -0.014376 -0.046345 0.331527 1.000000 0.000000 0.000000 1.000000
v -0.018261 -0.046350 0.331280 1.000000 0.000000 0.000000 1.000000
vt 0.150024 0.035645
vt 0.159058 0.036621
vt 0.149536 0.157227
vt 0.139404 0.156250
vt 0.134033 0.438965
vt 0.127563 0.438477
vt 0.142212 0.760986
vt 0.137451 0.761230
vt 0.162109 0.961548
vt 0.157715 0.961975
vt 0.832520 0.299805
vt 0.864258 0.298828
vt 0.856445 0.659912
vt 0.783691 0.672852
vt 0.903320 0.959442
vt 0.849121 0.978455
vt 0.832520 0.299805
vt 0.864258 0.298828
vt 0.856445 0.659912
vt 0.783691 0.672852
vt 0.903320 0.959442
vt 0.849121 0.978455
vt 0.832520 0.299805
vt 0.864258 0.298828
vt 0.856445 0.659912
vt 0.783691 0.672852
vt 0.903320 0.959442
vt 0.849121 0.978455
vt 0.832520 0.299805
vt 0.864258 0.298828
vt 0.856445 0.659912
vt 0.783691 0.672852
vt 0.903320 0.959442
vt 0.849121 0.978455
vt 0.832520 0.299805
vt 0.864258 0.298828
vt 0.856445 0.659912
vt 0.783691 0.672852
vt 0.903320 0.959442
vt 0.849121 0.978455
vt 0.470215 0.021973
vt 0.493408 0.020996
vt 0.539551 0.378906
vt 0.513184 0.379395
vt 0.518555 0.579102
vt 0.505859 0.577881
vt 0.418701 0.273438
vt 0.435059 0.273438
vt 0.433105 0.621582
vt 0.412354 0.621582
vt 0.432617 0.970078
vt 0.423584 0.969666
vt 0.832520 0.299805
vt 0.864258 0.298828
vt 0.856445 0.659912
vt 0.783691 0.672852
vt 0.903320 0.959442
vt 0.849121 0.978455
vt 0.832520 0.299805
vt 0.864258 0.298828
vt 0.856445 0.659912
vt 0.783691 0.672852
vt 0.903320 0.959442
vt 0.849121 0.978455
vt1 0.028870 0.990723
vt1 0.038544 0.990234
vt1 0.028351 0.861328
vt1 0.017593 0.862305
vt1 0.011948 0.561523
vt1 0.004997 0.562012
vt1 0.020630 0.218994
vt1 0.015579 0.218628
vt1 0.041748 0.005459
vt1 0.037109 0.004997
vt1 0.536621 0.974121
vt1 0.570312 0.973145
vt1 0.535156 0.589844
vt1 0.457275 0.581543
vt1 0.562988 0.268555
vt1 0.503906 0.252441
vt1 0.449463 0.969727
vt1 0.483154 0.968750
vt1 0.448242 0.585938
vt1 0.370117 0.577637
vt1 0.475830 0.264404
vt1 0.416748 0.248291
vt1 0.101013 0.961426
vt1 0.134521 0.960449
vt1 0.099609 0.577637
vt1 0.021591 0.569336
vt1 0.127319 0.256104
vt1 0.068359 0.239990
vt1 0.188110 0.961426
vt1 0.221680 0.960449
vt1 0.186768 0.577637
vt1 0.108704 0.569336
vt1 0.214478 0.256104
vt1 0.155518 0.239990
vt1 0.275146 0.961426
vt1 0.308838 0.960449
vt1 0.273926 0.577637
vt1 0.195801 0.569336
vt1 0.301514 0.256104
vt1 0.242676 0.239990
vt1 0.687012 0.304443
vt1 0.662109 0.305176
vt1 0.639648 0.688477
vt1 0.667969 0.686523
vt1 0.677246 0.899414
vt1 0.690430 0.896973
vt1 0.050690 0.977539
vt1 0.050629 0.994629
vt1 0.421387 0.992676
vt1 0.421143 0.970703
vt1 0.791992 0.992188
vt1 0.791504 0.982910
vt1 0.362305 0.961426
vt1 0.395996 0.960449
vt1 0.361084 0.577637
vt1 0.282959 0.569336
vt1 0.388672 0.256104
vt1 0.329590 0.239990
vt1 0.623535 0.974121
vt1 0.657227 0.973145
vt1 0.622559 0.589844
vt1 0.544434 0.581543
vt1 0.649902 0.268555
vt1 0.590820 0.252441
vn 0.007874 1.000000 -0.062992
vn 0.007874 1.000000 -0.062992
vn 0.015748 0.992126 -0.102362
vn 0.015748 0.992126 -0.102362
vn 0.023622 1.000000 -0.023622
vn 0.023622 1.000000 -0.015748
vn 0.062992 0.905512 0.425197
vn 0.070866 0.881890 0.464567
vn -0.141732 0.685039 0.716535
vn -0.141732 0.685039 0.716535
vn -0.629921 0.496063 0.598425
vn -0.622047 0.511811 0.590551
vn -0.519685 0.472441 0.708661
vn -0.433071 0.488189 0.755906
vn -0.267717 0.503937 0.818898
vn -0.267717 0.503937 0.818898
vn 0.929134 -0.086614 0.362205
vn 0.929134 -0.086614 0.362205
vn 0.937008 -0.220472 0.259843
vn 0.937008 -0.212598 0.291339
vn 0.921260 -0.354331 0.157480
vn 0.921260 -0.362205 0.157480
vn -0.811024 -0.582677 0.031496
vn -0.818898 -0.574803 0.031496
vn -0.850394 -0.464567 0.236220
vn -0.850394 -0.464567 0.228346
vn -0.881890 -0.307087 0.362205
vn -0.881890 -0.307087 0.354331
vn 0.039370 0.787402 0.614173
vn 0.039370 0.787402 0.614173
vn 0.118110 0.645669 0.755906
vn 0.157480 0.582677 0.795276
vn 0.251969 0.417323 0.874016
vn 0.251969 0.417323 0.874016
vn 0.456693 -0.740157 0.496063
vn 0.456693 -0.740157 0.488189
vn 0.472441 -0.716535 0.519685
vn 0.464567 -0.708661 0.527559
vn 0.448819 -0.708661 0.551181
vn 0.448819 -0.708661 0.551181
vn -0.362205 -0.929134 0.086614
vn -0.362205 -0.929134 0.078740
vn -0.307087 -0.952756 0.007874
vn -0.307087 -0.952756 0.023622
vn -0.299213 -0.952756 -0.062992
vn -0.299213 -0.952756 -0.062992
vn -0.771654 0.582677 0.251969
vn -0.771654 0.582677 0.251969
vn -0.818898 0.559055 0.149606
vn -0.818898 0.551181 0.157480
vn -0.866142 0.496063 0.086614
vn -0.866142 0.496063 0.086614
vn 0.992126 0.031496 0.141732
vn 0.992126 0.031496 0.133858
vn 0.968504 -0.094488 0.236220
vn 0.952756 -0.149606 0.251969
vn 0.913386 -0.283465 0.283465
vn 0.913386 -0.291339 0.283465
vn -0.023622 0.637795 0.763780
vn -0.023622 0.637795 0.771654
vn -0.039370 0.480315 0.874016
vn -0.039370 0.448819 0.889764
vn -0.062992 0.275591 0.960630
vn -0.062992 0.275591 0.960630
tan 0.047244 -0.063364 -1.000000 1.000000
tan 0.039370 -0.063302 -1.000000 1.000000
tan 0.109368 -0.103292 -0.984314 1.000000
tan 0.117180 -0.103416 -0.984314 1.000000
tan -0.079298 -0.021762 -1.000558 1.000000
tan -0.079112 -0.013888 -1.000558 1.000000
tan 0.012524 0.426189 -0.909480 1.000000
tan 0.015376 0.465683 -0.886354 1.000000
tan 0.002418 0.725401 -0.693037 1.000000
tan 0.002418 0.725401 -0.693037 1.000000
tan -0.336537 0.518569 -0.784116 1.000000
tan -0.263811 0.569595 -0.771530 1.000000
tan -0.831422 -0.110484 -0.536053 1.000000
tan -0.885362 -0.091512 -0.448137 1.000000
tan -0.958274 -0.132680 -0.231632 1.000000
tan -0.962242 -0.160580 -0.215760 1.000000
tan 0.328849 -0.270445 -0.908240 1.000000
tan 0.338645 -0.217992 -0.920826 1.000000
tan 0.060078 -0.641329 -0.760804 1.000000
tan 0.097402 -0.632153 -0.774568 1.000000
tan 0.126790 -0.107818 -0.984314 1.000000
tan 0.149172 -0.049786 -0.987166 1.000000
tan 0.061876 -0.139438 -0.986298 1.000000
tan 0.042346 -0.114824 -0.994544 1.000000
tan 0.013516 -0.470953 -0.877550 1.000000
tan 0.037634 -0.493645 -0.864158 1.000000
tan 0.024118 -0.791990 -0.612747 1.000000
tan 0.049104 -0.813194 -0.582553 1.000000
tan 0.225556 0.593465 -0.775312 1.000000
tan 0.297973 0.576787 -0.758572 1.000000
tan -0.302065 0.747721 -0.591481 1.000000
tan -0.299585 0.798562 -0.525761 1.000000
tan -0.200260 0.905202 -0.374481 1.000000
tan -0.193378 0.905202 -0.376465 1.000000
tan 0.205282 -0.454833 -0.867630 1.000000
tan 0.185876 -0.459049 -0.869862 1.000000
tan 0.368963 -0.376465 -0.854486 1.000000
tan 0.342303 -0.406411 -0.847356 1.000000
tan -0.100440 -0.652985 -0.757766 1.000000
tan -0.209560 -0.678839 -0.702151 1.000000
tan 0.079732 -0.123256 -0.988778 1.000000
tan 0.097092 -0.121644 -0.988778 1.000000
tan -0.092442 0.021576 -0.994544 1.000000
tan -0.097278 0.006696 -0.994544 1.000000
tan 0.079360 0.041168 -0.999628 1.000000
tan 0.094364 0.035960 -0.992126 1.000000
tan -0.191208 0.164920 -0.966954 1.000000
tan -0.191208 0.164920 -0.966954 1.000000
tan -0.164486 0.024428 -0.991630 1.000000
tan -0.174840 0.022320 -0.987290 1.000000
tan -0.312915 -0.395561 -0.863662 1.000000
tan -0.316821 -0.403063 -0.859756 1.000000
tan 0.124000 0.323641 -0.939922 1.000000
tan 0.121954 0.250605 -0.962862 1.000000
tan 0.217620 0.792362 -0.575299 1.000000
tan 0.266167 0.804452 -0.528799 1.000000
tan 0.345961 0.913882 -0.200880 1.000000
tan 0.344473 0.923306 -0.161014 1.000000
tan 0.214706 0.749457 -0.619195 1.000000
tan 0.215884 0.757145 -0.619195 1.000000
tan 0.219480 0.858950 -0.462149 1.000000
tan 0.224750 0.874326 -0.431087 1.000000
tan 0.311365 0.916610 -0.242544 1.000000
tan 0.328663 0.917106 -0.241552 1.000000
f 3/3/3 2/2/2 1/1/1
f 1/1/1 4/4/4 3/3/3
f 5/5/5 3/3/3 4/4/4
f 4/4/4 6/6/6 5/5/5
f 7/7/7 5/5/5 6/6/6
f 6/6/6 8/8/8 7/7/7
f 9/9/9 7/7/7 8/8/8
f 8/8/8 10/10/10 9/9/9
f 13/13/13 12/12/12 11/11/11
f 11/11/11 14/14/14 13/13/13
f 15/15/15 13/13/13 14/14/14
f 14/14/14 16/16/16 15/15/15
f 19/19/19 18/18/18 17/17/17
f 17/17/17 20/20/20 19/19/19
f 21/21/21 19/19/19 20/20/20
f 20/20/20 22/22/22 21/21/21
f 25/25/25 24/24/24 23/23/23
f 23/23/23 26/26/26 25/25/25
f 27/27/27 25/25/25 26/26/26
f 26/26/26 28/28/28 27/27/27
f 31/31/31 30/30/30 29/29/29
f 29/29/29 32/32/32 31/31/31
f 33/33/33 31/31/31 32/32/32
f 32/32/32 34/34/34 33/33/33
f 37/37/37 36/36/36 35/35/35
f 35/35/35 38/38/38 37/37/37
f 39/39/39 37/37/37 38/38/38
f 38/38/38 40/40/40 39/39/39
f 43/43/43 42/42/42 41/41/41
f 41/41/41 44/44/44 43/43/43
f 45/45/45 43/43/43 44/44/44
f 44/44/44 46/46/46 45/45/45
f 49/49/49 48/48/48 47/47/47
f 47/47/47 50/50/50 49/49/49
f 51/51/51 49/49/49 50/50/50
f 50/50/50 52/52/52 51/51/51
f 55/55/55 54/54/54 53/53/53
f 53/53/53 56/56/56 55/55/55
f 57/57/57 55/55/55 56/56/56
f 56/56/56 58/58/58 57/57/57
f 61/61/61 60/60/60 59/59/59
f 59/59/59 62/62/62 61/61/61
f 63/63/63 61/61/61 62/62/62
f 62/62/62 64/64/64 63/63/63
