mtllib SM_SwampGrass_05_LOD4.mtl
g SM_SwampGrass_05_LOD4
#Vertices 4
#Indices 6
#Section 0 Offset 0 NumIndices 6 MaterialIndex 1 MI_SwampGrassBillboard
v -0.152626 -0.000000 -0.034225 0.000000 1.000000 0.000000 1.000000
v 0.227761 -0.000000 -0.034225 0.000000 1.000000 0.000000 1.000000
v 0.218488 -0.000000 0.389439 1.000000 0.000000 0.000000 1.000000
v -0.096491 -0.000000 0.490105 1.000000 0.000000 0.000000 1.000000
vt 0.578613 0.020996
vt 0.781738 0.020996
vt 0.776855 0.246582
vt 0.608887 0.300293
vt1 0.003998 0.995605
vt1 0.723633 0.995605
vt1 0.706055 0.194336
vt1 0.110168 0.003998
vn 0.000000 1.000000 0.000000
vn 0.000000 1.000000 0.000000
vn 0.000000 1.000000 0.000000
vn 0.000000 1.000000 0.000000
tan 0.000000 0.000000 -1.000000 1.000000
tan 0.000000 0.000000 -1.000000 1.000000
tan 0.000000 0.000000 -1.000000 1.000000
tan 0.000000 0.000000 -1.000000 1.000000
f 3/3/3 2/2/2 1/1/1
f 1/1/1 4/4/4 3/3/3
