mtllib SM_SwampGrass_09_LOD4.mtl
g SM_SwampGrass_09_LOD4
#Vertices 8
#Indices 18
#Section 0 Offset 0 NumIndices 18 MaterialIndex 1 MI_SwampGrassBillboard
v 0.059170 -0.000000 0.511242 1.000000 0.000000 0.000000 1.000000
v 0.041663 -0.000000 0.511242 1.000000 0.000000 0.000000 1.000000
v -0.098661 -0.000000 0.341825 1.000000 0.000000 0.000000 1.000000
v 0.085254 -0.000000 0.380526 1.000000 0.000000 0.000000 1.000000
v -0.115927 -0.000000 0.169038 1.000000 0.000000 0.000000 1.000000
v 0.124466 0.000000 0.145122 1.000000 0.000000 0.000000 1.000000
v -0.010346 -0.000000 0.002265 0.000000 1.000000 0.000000 1.000000
v 0.012180 -0.000000 0.002265 0.000000 1.000000 0.000000 1.000000
vt 0.570801 0.823242
vt 0.559082 0.823242
vt 0.464111 0.708496
vt 0.588867 0.734619
vt 0.452393 0.591309
vt 0.615234 0.575195
vt 0.523926 0.478516
vt 0.539062 0.478516
vt1 0.995605 0.868652
vt1 0.995605 0.834473
vt1 0.665527 0.561035
vt1 0.741211 0.919434
vt1 0.328857 0.527344
vt1 0.282227 0.995605
vt1 0.003998 0.732910
vt1 0.003998 0.776855
vn 0.000000 1.000000 0.000000
vn 0.000000 1.000000 0.000000
vn 0.000000 1.000000 0.000000
vn 0.000000 1.000000 0.000000
vn 0.000000 1.000000 0.000000
vn 0.000000 1.000000 0.000000
vn 0.000000 1.000000 0.000000
vn 0.000000 1.000000 0.000000
tan 0.000000 0.000000 -1.000000 1.000000
tan 0.000000 0.000000 -1.000000 1.000000
tan 0.000000 0.000000 -1.000000 1.000000
tan 0.000000 0.000000 -1.000000 1.000000
tan 0.000000 0.000000 -1.000000 1.000000
tan 0.000000 0.000000 -1.000000 1.000000
tan 0.000000 0.000000 -1.000000 1.000000
tan 0.000000 0.000000 -1.000000 1.000000
f 3/3/3 2/2/2 1/1/1
f 1/1/1 4/4/4 3/3/3
f 5/5/5 3/3/3 4/4/4
f 4/4/4 6/6/6 5/5/5
f 7/7/7 5/5/5 6/6/6
f 6/6/6 8/8/8 7/7/7
