mtllib SM_MirrorFrame.mtl
g SM_MirrorFrame
#Vertices 68
#Indices 132
#Section 0 Offset 0 NumIndices 132 MaterialIndex 0 MI_Door
v 0.023085 0.215585 1.825011
v 0.023085 0.215585 0.032436
v 0.023085 -0.230005 0.032436
v 0.023085 -0.230005 1.825011
v 0.042761 0.252988 -0.004967
v 0.042761 0.252988 1.862414
v 0.002242 0.252988 1.862414
v 0.002242 0.252988 -0.004967
v 0.042761 -0.267408 -0.004967
v 0.042761 0.252988 -0.004967
v 0.002242 0.252988 -0.004967
v 0.002242 -0.267408 -0.004967
v 0.042761 0.252988 1.862414
v 0.002242 -0.267408 1.862414
v 0.002242 0.252988 1.862414
v 0.042761 -0.267408 1.862414
v 0.042761 -0.267408 1.862414
v 0.042761 -0.267408 -0.004967
v 0.002242 -0.267408 -0.004967
v 0.002242 -0.267408 1.862414
v 0.042761 -0.267408 1.862414
v 0.042761 0.252988 1.862414
v 0.047325 0.248425 1.857850
v 0.047325 -0.262844 1.857850
v 0.042761 0.252988 1.862414
v 0.042761 0.252988 -0.004967
v 0.047325 0.248425 -0.000403
v 0.047325 0.248425 1.857850
v 0.002242 -0.267408 1.862414
v 0.002242 -0.267408 -0.004967
v 0.002242 0.252988 1.862414
v 0.002242 0.252988 -0.004967
v 0.047325 -0.262844 1.857850
v 0.047325 0.248425 1.857850
v 0.047325 0.220149 1.829575
v 0.047325 -0.234569 1.829575
v 0.042761 0.215585 1.825011
v 0.042761 -0.230005 1.825011
v 0.023085 0.215585 1.825011
v 0.023085 -0.230005 1.825011
v 0.023085 -0.230005 1.825011
v 0.023085 -0.230005 0.032436
v 0.042761 -0.230005 0.032436
v 0.042761 -0.230005 1.825011
v 0.047325 -0.234569 0.027872
v 0.047325 -0.234569 1.829575
v 0.047325 -0.262844 -0.000403
v 0.047325 -0.262844 1.857850
v 0.042761 -0.267408 1.862414
v 0.042761 -0.267408 -0.004967
v 0.042761 0.215585 0.032436
v 0.023085 -0.230005 0.032436
v 0.023085 0.215585 0.032436
v 0.042761 -0.230005 0.032436
v 0.047325 0.220149 0.027872
v 0.047325 -0.234569 0.027872
v 0.047325 0.248425 -0.000403
v 0.047325 -0.262844 -0.000403
v 0.042761 -0.267408 -0.004967
v 0.042761 0.252988 -0.004967
v 0.047325 0.248425 -0.000403
v 0.047325 0.220149 1.829575
v 0.047325 0.248425 1.857850
v 0.047325 0.220149 0.027872
v 0.042761 0.215585 1.825011
v 0.042761 0.215585 0.032436
v 0.023085 0.215585 0.032436
v 0.023085 0.215585 1.825011
vt 0.909180 0.007324
vt 0.909180 0.919006
vt 0.682617 0.919006
vt 0.682617 0.007324
vt 0.602051 0.751709
vt 0.602051 0.004395
vt 0.618164 0.004395
vt 0.618164 0.751709
vt 0.651367 0.264648
vt 0.651367 0.004395
vt 0.671387 0.004395
vt 0.671387 0.264648
vt 0.651367 0.525391
vt 0.671387 0.265137
vt 0.671387 0.525391
vt 0.651367 0.265137
vt 0.959961 0.919006
vt 0.959961 0.171875
vt 0.976562 0.171875
vt 0.976562 0.919006
vt 0.651367 0.265137
vt 0.651367 0.525391
vt 0.646484 0.523193
vt 0.646484 0.268555
vt 0.602051 0.004395
vt 0.602051 0.751709
vt 0.589355 0.750000
vt 0.589355 0.013672
vt 0.551270 0.004395
vt 0.551270 0.954376
vt 0.286621 0.004395
vt 0.286621 0.954376
vt 0.646484 0.268555
vt 0.646484 0.523193
vt 0.632324 0.509033
vt 0.632324 0.282715
vt 0.628418 0.506836
vt 0.628418 0.285156
vt 0.618652 0.506836
vt 0.618652 0.285156
vt 0.910156 0.904541
vt 0.909668 0.202637
vt 0.921875 0.202637
vt 0.922363 0.904480
vt 0.934570 0.193848
vt 0.934570 0.906128
vt 0.947266 0.181152
vt 0.947266 0.917297
vt 0.959961 0.919006
vt 0.959961 0.171875
vt 0.628418 0.024414
vt 0.618652 0.246094
vt 0.618652 0.024414
vt 0.628418 0.246094
vt 0.632324 0.021973
vt 0.632324 0.248535
vt 0.646484 0.007812
vt 0.646484 0.262695
vt 0.651367 0.264648
vt 0.651367 0.004395
vt 0.589355 0.750000
vt 0.576660 0.026367
vt 0.589355 0.013672
vt 0.576660 0.738770
vt 0.563965 0.035156
vt 0.564453 0.737061
vt 0.552246 0.737305
vt 0.551758 0.035156
vt1 0.542480 0.991699
vt1 0.542480 0.008064
vt1 0.298340 0.008064
vt1 0.298340 0.991699
vt1 0.638672 0.008064
vt1 0.638672 0.991699
vt1 0.660156 0.991699
vt1 0.660156 0.008064
vt1 0.855469 0.008064
vt1 0.855469 0.488525
vt1 0.891602 0.488525
vt1 0.891602 0.008064
vt1 0.855469 0.507812
vt1 0.891602 0.988281
vt1 0.891602 0.507812
vt1 0.855469 0.988281
vt1 0.751465 0.008064
vt1 0.751465 0.991699
vt1 0.772949 0.991699
vt1 0.772949 0.008064
vt1 0.855469 0.988281
vt1 0.855469 0.507812
vt1 0.847656 0.512207
vt1 0.847656 0.982422
vt1 0.638672 0.991699
vt1 0.638672 0.008064
vt1 0.621582 0.010300
vt1 0.621582 0.979492
vt1 0.282227 0.991699
vt1 0.282227 0.008064
vt1 0.008064 0.991699
vt1 0.008064 0.008064
vt1 0.847656 0.982422
vt1 0.847656 0.512207
vt1 0.822754 0.538086
vt1 0.822754 0.956543
vt1 0.815430 0.541992
vt1 0.815430 0.951172
vt1 0.798340 0.541992
vt1 0.798340 0.951172
vt1 0.685547 0.027115
vt1 0.685059 0.951172
vt1 0.701172 0.951172
vt1 0.701660 0.027206
vt1 0.717773 0.962891
vt1 0.717773 0.024979
vt1 0.734375 0.979492
vt1 0.734375 0.010300
vt1 0.751465 0.008064
vt1 0.751465 0.991699
vt1 0.815430 0.451416
vt1 0.798340 0.042389
vt1 0.798340 0.451416
vt1 0.815430 0.042389
vt1 0.822754 0.456543
vt1 0.822754 0.038239
vt1 0.847656 0.482422
vt1 0.847656 0.012222
vt1 0.855469 0.008064
vt1 0.855469 0.488525
vt1 0.621582 0.010300
vt1 0.604980 0.962891
vt1 0.621582 0.979492
vt1 0.604980 0.024979
vt1 0.588379 0.951172
vt1 0.588867 0.027191
vt1 0.572754 0.027100
vt1 0.572266 0.951172
vn 0.574803 -0.574803 -0.574803
vn 0.574803 -0.574803 0.574803
vn 0.574803 0.574803 0.574803
vn 0.574803 0.574803 -0.574803
vn 0.000000 1.000000 0.000000
vn 0.000000 1.000000 0.000000
vn 0.000000 1.000000 0.000000
vn 0.000000 1.000000 0.000000
vn 0.000000 0.000000 -1.000000
vn 0.000000 0.000000 -1.000000
vn 0.000000 0.000000 -1.000000
vn 0.000000 0.000000 -1.000000
vn 0.000000 0.000000 1.000000
vn 0.000000 0.000000 1.000000
vn 0.000000 0.000000 1.000000
vn 0.000000 0.000000 1.000000
vn 0.000000 -1.000000 0.000000
vn 0.000000 -1.000000 0.000000
vn 0.000000 -1.000000 0.000000
vn 0.000000 -1.000000 0.000000
vn 0.708661 0.000000 0.708661
vn 0.708661 0.000000 0.708661
vn 0.708661 0.000000 0.708661
vn 0.708661 0.000000 0.708661
vn 0.708661 0.708661 0.000000
vn 0.708661 0.708661 0.000000
vn 0.708661 0.708661 0.000000
vn 0.708661 0.708661 0.000000
vn -1.000000 0.000000 0.000000
vn -1.000000 0.000000 0.000000
vn -1.000000 0.000000 0.000000
vn -1.000000 0.000000 0.000000
vn 0.905512 -0.299213 0.299213
vn 0.905512 0.299213 0.299213
vn 0.984252 -0.110236 -0.110236
vn 0.984252 0.110236 -0.110236
vn 0.574803 -0.582677 -0.582677
vn 0.574803 0.582677 -0.582677
vn 0.574803 -0.574803 -0.574803
vn 0.574803 0.574803 -0.574803
vn 0.574803 0.574803 -0.574803
vn 0.574803 0.574803 0.574803
vn 0.574803 0.582677 0.582677
vn 0.574803 0.582677 -0.582677
vn 0.984252 0.110236 0.110236
vn 0.984252 0.110236 -0.110236
vn 0.905512 -0.299213 -0.299213
vn 0.905512 -0.299213 0.299213
vn 0.393701 -0.653543 0.653543
vn 0.393701 -0.653543 -0.653543
vn 0.574803 -0.582677 0.582677
vn 0.574803 0.574803 0.574803
vn 0.574803 -0.574803 0.574803
vn 0.574803 0.582677 0.582677
vn 0.984252 -0.110236 0.110236
vn 0.984252 0.110236 0.110236
vn 0.905512 0.299213 -0.299213
vn 0.905512 -0.299213 -0.299213
vn 0.393701 -0.653543 -0.653543
vn 0.393701 0.653543 -0.653543
vn 0.905512 0.299213 -0.299213
vn 0.984252 -0.110236 -0.110236
vn 0.905512 0.299213 0.299213
vn 0.984252 -0.110236 0.110236
vn 0.574803 -0.582677 -0.582677
vn 0.574803 -0.582677 0.582677
vn 0.574803 -0.574803 0.574803
vn 0.574803 -0.574803 -0.574803
tan 0.706057 0.000000 0.706057 1.000000
tan -0.706057 0.000000 0.706057 1.000000
tan -0.706057 0.000000 0.706057 1.000000
tan 0.706057 0.000000 0.706057 1.000000
tan 0.000000 -0.000000 1.000000 1.000000
tan 0.000000 -0.000000 1.000000 1.000000
tan 0.000000 -0.000000 1.000000 1.000000
tan 0.000000 -0.000000 1.000000 1.000000
tan 0.000000 1.000000 0.000000 1.000000
tan 0.000000 1.000000 0.000000 1.000000
tan 0.000000 1.000000 0.000000 1.000000
tan 0.000000 1.000000 0.000000 1.000000
tan 0.000000 -1.000000 0.000000 1.000000
tan 0.000000 -1.000000 0.000000 1.000000
tan 0.000000 -1.000000 0.000000 1.000000
tan 0.000000 -1.000000 0.000000 1.000000
tan -0.000000 -0.000000 -1.000000 1.000000
tan -0.000000 -0.000000 -1.000000 1.000000
tan -0.000000 -0.000000 -1.000000 1.000000
tan -0.000000 -0.000000 -1.000000 1.000000
tan -0.189720 -0.965342 0.189720 1.000000
tan -0.005580 -1.004402 0.005580 1.000000
tan -0.005580 -1.004402 0.005580 1.000000
tan -0.195300 -0.959762 0.195300 1.000000
tan -0.669601 0.669601 0.334801 1.000000
tan -0.033480 0.033480 1.004402 1.000000
tan -0.033480 0.033480 1.004402 1.000000
tan -0.669601 0.669601 0.323641 1.000000
tan 0.000000 0.000000 1.000000 1.000000
tan 0.000000 0.000000 1.000000 1.000000
tan 0.000000 0.000000 1.000000 1.000000
tan 0.000000 0.000000 1.000000 1.000000
tan -0.313349 -0.947548 0.000744 1.000000
tan 0.313349 -0.947548 -0.000744 1.000000
tan -0.107632 -0.988654 0.027652 1.000000
tan 0.113708 -0.988654 0.026598 1.000000
tan -0.279869 -0.807180 0.531093 1.000000
tan 0.348689 -0.815984 -0.472007 1.000000
tan 0.000000 -0.706057 0.706057 1.000000
tan 0.000000 -0.706057 -0.706057 1.000000
tan 0.009052 -0.710583 -0.701531 1.000000
tan 0.009052 0.701531 -0.710583 1.000000
tan 0.766198 -0.115320 -0.640523 1.000000
tan -0.256929 -0.549259 -0.802716 1.000000
tan 0.144956 -0.381425 -0.912828 1.000000
tan -0.105896 -0.043152 -0.988654 1.000000
tan -0.419369 -0.738979 -0.530163 1.000000
tan 0.245024 -0.203484 -0.945006 1.000000
tan 0.442557 -0.492839 -0.759439 1.000000
tan -0.926282 -0.260463 -0.297539 1.000000
tan 0.348689 0.815984 0.472007 1.000000
tan 0.000000 0.706057 -0.706057 1.000000
tan 0.000000 0.706057 0.706057 1.000000
tan -0.279869 0.807180 -0.531093 1.000000
tan 0.113708 0.988654 -0.026598 1.000000
tan -0.107632 0.988654 -0.027652 1.000000
tan -0.322773 0.945192 -0.031620 1.000000
tan 0.254449 0.949780 -0.179738 1.000000
tan 0.468287 0.755347 -0.473247 1.000000
tan -0.617521 0.714303 0.342303 1.000000
tan 0.310993 0.006386 0.947548 1.000000
tan 0.144956 0.381425 0.912828 1.000000
tan -0.346333 0.119474 0.928638 1.000000
tan -0.105896 0.043152 0.988654 1.000000
tan 0.766198 0.110732 0.645111 1.000000
tan -0.266105 0.544733 0.807242 1.000000
tan 0.009052 0.710583 0.701531 1.000000
tan 0.009052 -0.701531 0.710583 1.000000
f 3/3/3 2/2/2 1/1/1
f 4/4/4 3/3/3 1/1/1
f 7/7/7 6/6/6 5/5/5
f 5/5/5 8/8/8 7/7/7
f 11/11/11 10/10/10 9/9/9
f 9/9/9 12/12/12 11/11/11
f 15/15/15 14/14/14 13/13/13
f 16/16/16 13/13/13 14/14/14
f 19/19/19 18/18/18 17/17/17
f 17/17/17 20/20/20 19/19/19
f 23/23/23 22/22/22 21/21/21
f 24/24/24 23/23/23 21/21/21
f 27/27/27 26/26/26 25/25/25
f 28/28/28 27/27/27 25/25/25
f 31/31/31 30/30/30 29/29/29
f 30/30/30 31/31/31 32/32/32
f 35/35/35 34/34/34 33/33/33
f 36/36/36 35/35/35 33/33/33
f 37/37/37 35/35/35 36/36/36
f 38/38/38 37/37/37 36/36/36
f 39/39/39 37/37/37 38/38/38
f 38/38/38 40/40/40 39/39/39
f 43/43/43 42/42/42 41/41/41
f 41/41/41 44/44/44 43/43/43
f 43/43/43 44/44/44 45/45/45
f 44/44/44 46/46/46 45/45/45
f 47/47/47 45/45/45 46/46/46
f 48/48/48 47/47/47 46/46/46
f 48/48/48 49/49/49 47/47/47
f 50/50/50 47/47/47 49/49/49
f 53/53/53 52/52/52 51/51/51
f 54/54/54 51/51/51 52/52/52
f 51/51/51 54/54/54 55/55/55
f 54/54/54 56/56/56 55/55/55
f 55/55/55 56/56/56 57/57/57
f 56/56/56 58/58/58 57/57/57
f 58/58/58 59/59/59 57/57/57
f 60/60/60 57/57/57 59/59/59
f 63/63/63 62/62/62 61/61/61
f 64/64/64 61/61/61 62/62/62
f 62/62/62 65/65/65 64/64/64
f 66/66/66 64/64/64 65/65/65
f 67/67/67 66/66/66 65/65/65
f 65/65/65 68/68/68 67/67/67
