mtllib SM_PaperChunk3.mtl
g SM_PaperChunk3
#Vertices 20
#Indices 30
#Section 0 Offset 0 NumIndices 12 MaterialIndex 0 MI_Debris_03
#Section 1 Offset 12 NumIndices 6 MaterialIndex 1 MI_Debris_02
#Section 2 Offset 18 NumIndices 12 MaterialIndex 2 MI_Debris_01
v 0.290212 0.146544 0.003081
v 0.146536 -0.290228 0.001558
v -0.146536 0.290228 -0.001558
v -0.290212 -0.146544 -0.003081
v -0.687317 -0.056267 0.014036
v -1.129408 0.069171 0.029404
v -0.561195 0.385205 0.038757
v -1.003286 0.510643 0.054126
v -0.131000 0.104416 -0.002297
v -0.131000 -0.217306 -0.002297
v -0.452721 0.104416 -0.002297
v -0.452721 -0.217306 -0.002297
v -0.245576 -0.204515 0.033909
v -0.596715 -0.198339 0.019711
v -0.239637 0.146863 0.039896
v -0.590776 0.153040 0.025698
v -1.519548 0.581735 0.020247
v -1.170547 0.542558 0.006049
v -1.558510 0.232472 0.026232
v -1.209509 0.193295 0.012034
vt 1.000000 0.000000
vt 1.000000 1.000000
vt 0.000000 0.000000
vt 0.000000 1.000000
vt 1.000000 0.000000
vt 1.000000 1.000000
vt 0.000000 0.000000
vt 0.000000 1.000000
vt 1.000000 0.000000
vt 1.000000 1.000000
vt 0.000000 0.000000
vt 0.000000 1.000000
vt 1.000000 0.000000
vt 1.000000 1.000000
vt 0.000000 0.000000
vt 0.000000 1.000000
vt 1.000000 0.000000
vt 1.000000 1.000000
vt 0.000000 0.000000
vt 0.000000 1.000000
vt1 0.882324 0.438232
vt1 0.882324 0.003967
vt1 0.448242 0.438232
vt1 0.448242 0.003967
vt1 0.438232 0.438232
vt1 0.438232 0.003967
vt1 0.003967 0.438232
vt1 0.003967 0.003967
vt1 0.990234 0.751953
vt1 0.990234 0.448242
vt1 0.686035 0.751953
vt1 0.686035 0.448242
vt1 0.335938 0.780273
vt1 0.335938 0.448242
vt1 0.003967 0.780273
vt1 0.003967 0.448242
vt1 0.676758 0.780273
vt1 0.676758 0.448242
vt1 0.345215 0.780273
vt1 0.345215 0.448242
vn -0.007874 0.000000 1.000000
vn -0.007874 0.000000 1.000000
vn -0.007874 0.000000 1.000000
vn -0.007874 0.000000 1.000000
vn 0.015748 -0.062992 1.000000
vn 0.015748 -0.062992 1.000000
vn 0.015748 -0.062992 1.000000
vn 0.015748 -0.062992 1.000000
vn 0.000000 0.000000 1.000000
vn 0.000000 0.000000 1.000000
vn 0.000000 0.000000 1.000000
vn 0.000000 0.000000 1.000000
vn -0.039370 -0.015748 1.000000
vn -0.039370 -0.015748 1.000000
vn -0.039370 -0.015748 1.000000
vn -0.039370 -0.015748 1.000000
vn 0.039370 0.015748 1.000000
vn 0.039370 0.015748 1.000000
vn 0.039370 0.015748 1.000000
vn 0.039370 0.015748 1.000000
tan 0.314961 0.952818 0.002480 1.000000
tan 0.314961 0.952818 0.002480 1.000000
tan 0.314961 0.952818 0.002480 1.000000
tan 0.314961 0.952818 0.002480 1.000000
tan 0.964102 -0.274723 -0.032488 1.000000
tan 0.964102 -0.274723 -0.032488 1.000000
tan 0.964102 -0.274723 -0.032488 1.000000
tan 0.964102 -0.274723 -0.032488 1.000000
tan 0.000000 1.000000 0.000000 1.000000
tan 0.000000 1.000000 0.000000 1.000000
tan 0.000000 1.000000 0.000000 1.000000
tan 0.000000 1.000000 0.000000 1.000000
tan 1.000248 -0.016368 0.039122 1.000000
tan 1.000248 -0.016368 0.039122 1.000000
tan 1.000248 -0.016368 0.039122 1.000000
tan 1.000248 -0.016368 0.039122 1.000000
tan -0.992374 0.110856 0.037324 1.000000
tan -0.992374 0.110856 0.037324 1.000000
tan -0.992374 0.110856 0.037324 1.000000
tan -0.992374 0.110856 0.037324 1.000000
f 3/3/3 2/2/2 1/1/1
f 4/4/4 2/2/2 3/3/3
f 7/7/7 6/6/6 5/5/5
f 8/8/8 6/6/6 7/7/7
f 11/11/11 10/10/10 9/9/9
f 12/12/12 10/10/10 11/11/11
f 15/15/15 14/14/14 13/13/13
f 16/16/16 14/14/14 15/15/15
f 19/19/19 18/18/18 17/17/17
f 20/20/20 18/18/18 19/19/19
