mtllib SM_PaperChunk4.mtl
g SM_PaperChunk4
#Vertices 20
#Indices 30
#Section 0 Offset 0 NumIndices 6 MaterialIndex 0 MI_Debris_02
#Section 1 Offset 6 NumIndices 12 MaterialIndex 1 MI_BurntCarboard_01
#Section 2 Offset 18 NumIndices 6 MaterialIndex 2 MI_Debris_03
#Section 3 Offset 24 NumIndices 6 MaterialIndex 3 MI_Debris_01
v 0.201130 -0.106298 0.000000
v -0.106298 -0.201130 0.000000
v 0.106298 0.201130 0.000000
v -0.201130 0.106298 0.000000
v 0.430430 -0.428247 0.008589
v 0.074716 -0.294730 -0.000793
v 0.563912 -0.072409 0.011680
v 0.208198 0.061107 0.002297
v 0.888846 0.328684 0.000911
v 0.910620 0.708122 0.001088
v 1.268271 0.306909 0.004003
v 1.290045 0.686347 0.004180
v 0.685574 0.239762 0.005063
v 0.579943 -0.081358 0.003943
v 0.364473 0.345400 0.001653
v 0.258841 0.024280 0.000532
v 0.761322 0.424177 0.000941
v 0.505327 0.183336 0.001189
v 0.520538 0.680120 0.008289
v 0.264542 0.439279 0.008536
vt 1.000000 0.000000
vt 1.000000 1.000000
vt 0.000000 0.000000
vt 0.000000 1.000000
vt 1.000000 0.000000
vt 1.000000 1.000000
vt 0.000000 0.000000
vt 0.000000 1.000000
vt 1.000000 0.000000
vt 1.000000 1.000000
vt 0.000000 0.000000
vt 0.000000 1.000000
vt 1.000000 0.000000
vt 1.000000 1.000000
vt 0.000000 0.000000
vt 0.000000 1.000000
vt 1.000000 0.000000
vt 1.000000 1.000000
vt 0.000000 0.000000
vt 0.000000 1.000000
vt1 0.995117 0.685547
vt1 0.995117 0.376953
vt1 0.686035 0.685547
vt1 0.686035 0.376953
vt1 0.368652 0.368652
vt1 0.368652 0.003967
vt1 0.003967 0.368652
vt1 0.003967 0.003967
vt1 0.741699 0.368652
vt1 0.741699 0.003967
vt1 0.376953 0.368652
vt1 0.376953 0.003967
vt1 0.677246 0.701172
vt1 0.677246 0.376953
vt1 0.353027 0.701172
vt1 0.353027 0.376953
vt1 0.341309 0.714355
vt1 0.341309 0.376953
vt1 0.003967 0.714355
vt1 0.003967 0.376953
vn 0.000000 0.000000 1.000000
vn 0.000000 0.000000 1.000000
vn 0.000000 0.000000 1.000000
vn 0.000000 0.000000 1.000000
vn -0.023622 0.000000 1.000000
vn -0.023622 0.000000 1.000000
vn -0.023622 0.000000 1.000000
vn -0.023622 0.000000 1.000000
vn -0.007874 0.000000 1.000000
vn -0.007874 0.000000 1.000000
vn -0.007874 0.000000 1.000000
vn -0.007874 0.000000 1.000000
vn -0.007874 0.000000 1.000000
vn -0.007874 0.000000 1.000000
vn -0.007874 0.000000 1.000000
vn -0.007874 0.000000 1.000000
vn 0.015748 -0.015748 1.000000
vn 0.015748 -0.015748 1.000000
vn 0.015748 -0.015748 1.000000
vn 0.015748 -0.015748 1.000000
tan 0.952756 0.291339 -0.000000 1.000000
tan 0.952756 0.291339 -0.000000 1.000000
tan 0.952756 0.291339 -0.000000 1.000000
tan 0.952756 0.291339 -0.000000 1.000000
tan 0.937008 -0.354517 0.022134 1.000000
tan 0.937008 -0.354517 0.022134 1.000000
tan 0.937008 -0.354517 0.022134 1.000000
tan 0.937008 -0.354517 0.022134 1.000000
tan -0.055118 -1.000062 -0.000434 1.000000
tan -0.055118 -1.000062 -0.000434 1.000000
tan -0.055118 -1.000062 -0.000434 1.000000
tan -0.055118 -1.000062 -0.000434 1.000000
tan 0.314961 0.952818 0.002480 1.000000
tan 0.314961 0.952818 0.002480 1.000000
tan 0.314961 0.952818 0.002480 1.000000
tan 0.314961 0.952818 0.002480 1.000000
tan 0.724781 0.685411 -0.000620 1.000000
tan 0.724781 0.685411 -0.000620 1.000000
tan 0.724781 0.685411 -0.000620 1.000000
tan 0.724781 0.685411 -0.000620 1.000000
f 3/3/3 2/2/2 1/1/1
f 4/4/4 2/2/2 3/3/3
f 7/7/7 6/6/6 5/5/5
f 8/8/8 6/6/6 7/7/7
f 11/11/11 10/10/10 9/9/9
f 12/12/12 10/10/10 11/11/11
f 15/15/15 14/14/14 13/13/13
f 16/16/16 14/14/14 15/15/15
f 19/19/19 18/18/18 17/17/17
f 20/20/20 18/18/18 19/19/19
