mtllib SM_RustyScrew_LOD2.mtl
g SM_RustyScrew_LOD2
#Vertices 111
#Indices 294
#Section 0 Offset 0 NumIndices 294 MaterialIndex 0 MI_RustyScrew
v 0.045803 0.006688 0.011377
v 0.054617 -0.006776 0.010829
v 0.044803 -0.007296 0.009660
v 0.045803 0.006688 0.011377
v 0.045102 0.012822 -0.000071
v 0.054875 0.012875 -0.000211
v 0.045202 0.006379 -0.011134
v 0.054552 0.006232 -0.011327
v 0.045191 -0.006398 -0.011123
v 0.054279 -0.006784 -0.010856
v 0.044949 -0.012907 0.000057
v 0.054514 -0.012631 -0.000163
v 0.054617 -0.006776 0.010829
v 0.044803 -0.007296 0.009660
v 0.010117 -0.005804 0.002713
v 0.043643 -0.001656 0.006518
v 0.044348 -0.007050 0.000572
v 0.009059 -0.004579 -0.004894
v 0.044475 -0.003254 -0.005960
v 0.008033 0.003442 -0.005976
v 0.044248 0.005114 -0.004365
v 0.043643 -0.001656 0.006518
v 0.044803 -0.007296 0.009660
v 0.044348 -0.007050 0.000572
v 0.044949 -0.012907 0.000057
v 0.044475 -0.003254 -0.005960
v 0.045191 -0.006398 -0.011123
v 0.044248 0.005114 -0.004365
v 0.045202 0.006379 -0.011134
v 0.003220 0.005939 -0.000413
v 0.008033 0.003442 -0.005976
v 0.044248 0.005114 -0.004365
v 0.044340 0.006060 0.001691
v 0.007852 0.001642 0.005891
v 0.043643 -0.001656 0.006518
v 0.010117 -0.005804 0.002713
v 0.002123 -0.003510 0.004119
v 0.045202 0.006379 -0.011134
v 0.045102 0.012822 -0.000071
v 0.044248 0.005114 -0.004365
v 0.044340 0.006060 0.001691
v 0.045803 0.006688 0.011377
v 0.043643 -0.001656 0.006518
v 0.044803 -0.007296 0.009660
v 0.054617 -0.006776 0.010829
v 0.054279 -0.006784 -0.010856
v 0.054514 -0.012631 -0.000163
v 0.054552 0.006232 -0.011327
v 0.054875 0.012875 -0.000211
v 0.045803 0.006688 0.011377
v -0.047576 0.005092 -0.000601
v -0.051427 -0.001365 0.001365
v -0.053315 0.001396 -0.002617
v -0.040764 -0.001508 0.004137
v -0.039465 0.004963 0.001766
v -0.045954 -0.001762 -0.004857
v -0.040515 0.002242 -0.005891
v -0.035337 0.004060 -0.004947
v -0.030711 0.006357 0.000305
v -0.029860 -0.001561 -0.005500
v -0.025131 0.004434 -0.004792
v -0.028652 0.001204 0.005083
v -0.020044 0.004348 -0.004481
v -0.020694 0.000998 0.005196
v -0.027391 -0.004664 0.002619
v -0.025131 0.004434 -0.004792
v -0.023156 -0.004944 -0.002714
v -0.020044 0.004348 -0.004481
v -0.017042 -0.005959 -0.000569
v -0.020694 0.000998 0.005196
v -0.013592 0.000650 -0.006555
v -0.009860 -0.005217 -0.002681
v -0.011089 0.001329 0.005498
v -0.009618 0.004609 -0.004101
v -0.006115 -0.004056 0.003347
v -0.002893 -0.004298 -0.003532
v -0.003829 0.002598 -0.005109
v 0.002123 -0.003510 0.004119
v 0.002778 -0.003508 -0.005668
v 0.003220 0.005939 -0.000413
v 0.010117 -0.005804 0.002713
v 0.008033 0.003442 -0.005976
v 0.009059 -0.004579 -0.004894
v -0.047576 0.005092 -0.000601
v -0.053315 0.001396 -0.002617
v -0.045954 -0.001762 -0.004857
v -0.051427 -0.001365 0.001365
v -0.040764 -0.001508 0.004137
v -0.035801 -0.004968 -0.001450
v -0.028652 0.001204 0.005083
v -0.040515 0.002242 -0.005891
v -0.035337 0.004060 -0.004947
v -0.027391 -0.004664 0.002619
v -0.029860 -0.001561 -0.005500
v -0.023156 -0.004944 -0.002714
v -0.025131 0.004434 -0.004792
v -0.020694 0.000998 0.005196
v 0.003220 0.005939 -0.000413
v 0.007852 0.001642 0.005891
v 0.002123 -0.003510 0.004119
v -0.000704 0.002626 0.004316
v -0.006115 -0.004056 0.003347
v -0.005001 0.005444 0.003251
v -0.003829 0.002598 -0.005109
v -0.011089 0.001329 0.005498
v -0.009618 0.004609 -0.004101
v -0.015340 0.005393 0.002940
v -0.017042 -0.005959 -0.000569
v -0.013592 0.000650 -0.006555
v -0.020694 0.000998 0.005196
v -0.020044 0.004348 -0.004481
vt 0.225220 0.053223
vt 0.086487 0.133789
vt 0.082886 0.034180
vt 0.225220 0.053223
vt 0.352295 0.048340
vt 0.354248 0.146973
vt 0.480713 0.046387
vt 0.484863 0.140625
vt 0.608887 0.043457
vt 0.616211 0.134766
vt 0.737793 0.034668
vt 0.740234 0.130859
vt 0.867188 0.124512
vt 0.848633 0.026367
vt 0.874023 0.549316
vt 0.535156 0.602051
vt 0.527832 0.521484
vt 0.886230 0.471680
vt 0.528809 0.446289
vt 0.898438 0.388672
vt 0.533203 0.359863
vt 0.920410 0.530518
vt 0.973145 0.552246
vt 0.901855 0.614014
vt 0.945801 0.650146
vt 0.830078 0.661865
vt 0.850586 0.717773
vt 0.737793 0.645508
vt 0.728027 0.711182
vt 0.529785 0.501465
vt 0.483887 0.567871
vt 0.114746 0.538818
vt 0.115662 0.477539
vt 0.484619 0.424805
vt 0.124695 0.382324
vt 0.469971 0.342285
vt 0.548340 0.386719
vt 0.031235 0.655762
vt 0.118408 0.569824
vt 0.104065 0.656006
vt 0.163818 0.623779
vt 0.232056 0.557373
vt 0.265869 0.646973
vt 0.336914 0.641846
vt 0.563477 0.617188
vt 0.361816 0.700195
vt 0.438965 0.604736
vt 0.407227 0.823242
vt 0.536621 0.842407
vt 0.680176 0.737549
vt 0.387451 0.269043
vt 0.443848 0.217773
vt 0.464844 0.281738
vt 0.313965 0.182129
vt 0.295654 0.248535
vt 0.380127 0.349609
vt 0.313477 0.328613
vt 0.248413 0.311523
vt 0.193970 0.259766
vt 0.188721 0.360840
vt 0.133423 0.308105
vt 0.167847 0.195801
vt 0.068787 0.303711
vt 0.074402 0.190918
vt 0.148682 0.134277
vt 0.527832 0.344727
vt 0.542480 0.245605
vt 0.591309 0.342285
vt 0.613281 0.220703
vt 0.556641 0.142090
vt 0.669434 0.300293
vt 0.704102 0.231445
vt 0.665527 0.125977
vt 0.720703 0.333008
vt 0.742676 0.169434
vt 0.792969 0.235352
vt 0.789062 0.310059
vt 0.840820 0.151367
vt 0.864746 0.249512
vt 0.870117 0.358887
vt 0.936523 0.158203
vt 0.928711 0.312988
vt 0.935059 0.233398
vt 0.660156 0.942780
vt 0.618164 0.880127
vt 0.711426 0.879578
vt 0.645020 0.828125
vt 0.757324 0.779541
vt 0.826660 0.836914
vt 0.897461 0.742188
vt 0.775879 0.921692
vt 0.835938 0.939880
vt 0.926270 0.796631
vt 0.901855 0.883118
vt 0.975098 0.843628
vt 0.953125 0.942108
vt 0.996582 0.741943
vt 0.083618 0.915894
vt 0.020798 0.848999
vt 0.082581 0.795532
vt 0.121765 0.854858
vt 0.178711 0.780029
vt 0.177979 0.875000
vt 0.177490 0.964630
vt 0.246338 0.830811
vt 0.244995 0.939056
vt 0.304932 0.869019
vt 0.304932 0.742676
vt 0.306641 0.979599
vt 0.357178 0.825562
vt 0.366455 0.929932
vn -0.338583 0.464567 0.818898
vn 0.614173 -0.346457 0.716535
vn -0.598425 -0.464567 0.653543
vn -0.338583 0.464567 0.818898
vn -0.582677 0.818898 0.000000
vn 0.637795 0.771654 0.055118
vn -0.574803 0.401575 -0.716535
vn 0.606299 0.370079 -0.700787
vn -0.574803 -0.401575 -0.716535
vn 0.606299 -0.425197 -0.677165
vn -0.574803 -0.818898 -0.007874
vn 0.629921 -0.779528 -0.015748
vn 0.614173 -0.346457 0.716535
vn -0.598425 -0.464567 0.653543
vn -0.094488 -0.881890 0.456693
vn -0.763780 -0.070866 0.637795
vn -0.818898 -0.566929 0.031496
vn -0.047244 -0.724409 -0.685039
vn -0.811024 -0.244094 -0.527559
vn -0.173228 0.480315 -0.858268
vn -0.795276 0.433071 -0.417323
vn -0.763780 -0.070866 0.637795
vn -0.598425 -0.464567 0.653543
vn -0.818898 -0.566929 0.031496
vn -0.574803 -0.818898 -0.007874
vn -0.811024 -0.244094 -0.527559
vn -0.574803 -0.401575 -0.716535
vn -0.795276 0.433071 -0.417323
vn -0.574803 0.401575 -0.716535
vn -0.086614 1.000000 -0.015748
vn -0.173228 0.480315 -0.858268
vn -0.795276 0.433071 -0.417323
vn -0.787402 0.559055 0.259843
vn -0.181102 0.291339 0.937008
vn -0.763780 -0.070866 0.637795
vn -0.094488 -0.881890 0.456693
vn -0.086614 -0.622047 0.779528
vn -0.574803 0.401575 -0.716535
vn -0.582677 0.818898 0.000000
vn -0.795276 0.433071 -0.417323
vn -0.787402 0.559055 0.259843
vn -0.338583 0.464567 0.818898
vn -0.763780 -0.070866 0.637795
vn -0.598425 -0.464567 0.653543
vn 0.614173 -0.346457 0.716535
vn 0.606299 -0.425197 -0.677165
vn 0.629921 -0.779528 -0.015748
vn 0.606299 0.370079 -0.700787
vn 0.637795 0.771654 0.055118
vn -0.338583 0.464567 0.818898
vn -0.204724 0.976378 0.007874
vn -0.653543 -0.480315 0.582677
vn -0.913386 0.181102 -0.362205
vn -0.196850 -0.401575 0.897638
vn -0.173228 0.866142 0.472441
vn -0.251969 -0.472441 -0.842520
vn -0.220472 0.377953 -0.897638
vn 0.023622 0.559055 -0.834646
vn 0.165354 0.976378 0.149606
vn -0.039370 -0.330709 -0.944882
vn 0.039370 0.732283 -0.677165
vn -0.015748 0.251969 0.968504
vn -0.039370 0.716535 -0.692913
vn 0.133858 0.149606 0.976378
vn -0.031496 -0.866142 0.496063
vn 0.039370 0.732283 -0.677165
vn 0.094488 -0.881890 -0.464567
vn -0.039370 0.716535 -0.692913
vn -0.102362 -0.992126 0.062992
vn 0.133858 0.149606 0.976378
vn 0.000000 0.055118 -1.000000
vn 0.023622 -0.913386 -0.401575
vn -0.133858 0.094488 0.984252
vn -0.023622 0.763780 -0.637795
vn -0.110236 -0.724409 0.677165
vn -0.062992 -0.826772 -0.566929
vn -0.039370 0.409449 -0.913386
vn -0.086614 -0.622047 0.779528
vn -0.118110 -0.551181 -0.826772
vn -0.086614 1.000000 -0.015748
vn -0.094488 -0.881890 0.456693
vn -0.173228 0.480315 -0.858268
vn -0.047244 -0.724409 -0.685039
vn -0.204724 0.976378 0.007874
vn -0.913386 0.181102 -0.362205
vn -0.251969 -0.472441 -0.842520
vn -0.653543 -0.480315 0.582677
vn -0.196850 -0.401575 0.897638
vn -0.070866 -0.976378 -0.188976
vn -0.015748 0.251969 0.968504
vn -0.220472 0.377953 -0.897638
vn 0.023622 0.559055 -0.834646
vn -0.031496 -0.866142 0.496063
vn -0.039370 -0.330709 -0.944882
vn 0.094488 -0.881890 -0.464567
vn 0.039370 0.732283 -0.677165
vn 0.133858 0.149606 0.976378
vn -0.086614 1.000000 -0.015748
vn -0.181102 0.291339 0.937008
vn -0.086614 -0.622047 0.779528
vn 0.212598 0.291339 0.929134
vn -0.110236 -0.724409 0.677165
vn -0.086614 0.826772 0.551181
vn -0.039370 0.409449 -0.913386
vn -0.133858 0.094488 0.984252
vn -0.023622 0.763780 -0.637795
vn -0.047244 0.834646 0.551181
vn -0.102362 -0.992126 0.062992
vn 0.000000 0.055118 -1.000000
vn 0.133858 0.149606 0.976378
vn -0.039370 0.716535 -0.692913
tan -0.929816 -0.017670 -0.374419 1.000000
tan -0.783062 -0.112034 0.617025 1.000000
tan -0.744621 0.026350 -0.663091 1.000000
tan -0.916548 -0.358051 -0.175832 1.000000
tan -0.818898 -0.582677 0.011036 1.000000
tan -0.764275 0.639283 -0.106206 1.000000
tan -0.817348 -0.306591 0.483849 1.000000
tan -0.789944 0.281667 -0.534689 1.000000
tan -0.824788 0.259161 0.516399 1.000000
tan -0.799554 -0.350177 -0.496001 1.000000
tan -0.819084 0.574555 0.039370 1.000000
tan -0.779280 -0.630541 0.040610 1.000000
tan -0.748962 -0.565007 0.368777 1.000000
tan -0.762974 0.578895 -0.287123 1.000000
tan -0.004836 -0.456817 -0.883130 1.000000
tan 0.018972 -0.995164 -0.087854 1.000000
tan 0.014384 -0.075888 -0.992002 1.000000
tan 0.026350 0.685783 -0.727013 1.000000
tan 0.024490 0.888524 -0.448757 1.000000
tan 0.032116 0.873396 0.482299 1.000000
tan -0.001178 0.691363 0.719697 1.000000
tan 0.405109 0.718333 0.564945 1.000000
tan 0.178684 0.716783 0.673135 1.000000
tan -0.323393 0.511129 0.792114 1.000000
tan -0.564263 0.389113 0.723479 1.000000
tan -0.570215 0.148428 0.807924 1.000000
tan -0.803770 0.114576 0.580569 1.000000
tan -0.446215 0.036084 0.887780 1.000000
tan -0.771468 0.041292 0.642011 1.000000
tan 0.006510 0.016430 1.007502 1.000000
tan -0.002480 0.870668 0.487755 1.000000
tan 0.005518 0.697625 0.713435 1.000000
tan 0.016554 -0.401389 0.913758 1.000000
tan 0.067084 -0.949346 0.308141 1.000000
tan 0.003906 -0.995164 -0.105896 1.000000
tan 0.093124 -0.465001 -0.878666 1.000000
tan 0.225556 -0.772708 -0.591543 1.000000
tan 0.370327 0.909418 0.212598 1.000000
tan 0.786658 0.559737 0.283341 1.000000
tan 0.345527 0.895840 0.271189 1.000000
tan 0.613119 0.665633 0.425817 1.000000
tan 0.931366 0.272677 0.230392 1.000000
tan 0.527869 0.500651 0.687767 1.000000
tan 0.489677 0.435675 0.758076 1.000000
tan -0.620993 -0.776180 0.156984 1.000000
tan -0.217868 -0.903900 0.372497 1.000000
tan -0.752620 -0.613429 0.259967 1.000000
tan 0.697253 -0.660363 0.254511 1.000000
tan 0.672701 -0.588753 0.458429 1.000000
tan 0.086490 -0.849960 0.517949 1.000000
tan -0.136772 -0.036642 0.987538 1.000000
tan 0.478331 -0.863848 -0.175584 1.000000
tan -0.335111 0.158968 0.924546 1.000000
tan 0.178932 -0.911898 -0.368715 1.000000
tan 0.162440 -0.446649 0.878418 1.000000
tan 0.213280 0.823858 -0.525761 1.000000
tan -0.244032 0.870730 0.426561 1.000000
tan -0.074648 0.836134 0.557939 1.000000
tan -0.041292 -0.144646 0.989646 1.000000
tan -0.087792 0.939922 -0.325315 1.000000
tan 0.076384 0.675925 0.735383 1.000000
tan -0.078554 -0.969124 0.250852 1.000000
tan 0.022754 0.694463 0.716845 1.000000
tan 0.004650 -0.986608 0.150536 1.000000
tan 0.054560 -0.498047 -0.866142 1.000000
tan 0.057226 -0.679955 -0.731973 1.000000
tan -0.117304 -0.471387 0.870978 1.000000
tan 0.077128 -0.691673 -0.719635 1.000000
tan 0.202244 0.041354 0.979974 1.000000
tan 0.398041 0.892554 -0.191332 1.000000
tan 0.070866 -1.000000 -0.055118 1.000000
tan 0.012648 -0.401575 0.914130 1.000000
tan 0.145886 0.988778 -0.075082 1.000000
tan 0.148490 -0.630355 -0.760370 1.000000
tan 0.084568 0.673569 0.734330 1.000000
tan 0.170004 -0.568913 0.810776 1.000000
tan -0.068944 -0.915866 -0.407589 1.000000
tan 0.121520 0.766570 0.625209 1.000000
tan 0.043400 -0.835142 0.550561 1.000000
tan -0.164114 -0.029822 -0.991072 1.000000
tan 0.197160 0.433257 0.877426 1.000000
tan -0.004278 -0.870668 -0.486391 1.000000
tan 0.006944 -0.686899 0.725897 1.000000
tan -0.309071 -0.057164 -0.947486 1.000000
tan -0.296609 -0.905326 0.295307 1.000000
tan -0.063302 -0.863600 0.503193 1.000000
tan 0.305413 0.537541 0.785666 1.000000
tan 0.222828 0.870730 0.438403 1.000000
tan 0.049600 -0.193440 0.980842 1.000000
tan 0.328849 0.916610 -0.233120 1.000000
tan 0.134292 -0.902350 -0.412921 1.000000
tan -0.028458 -0.834832 -0.559985 1.000000
tan 0.061442 0.494823 0.867878 1.000000
tan 0.020460 -0.946432 0.330399 1.000000
tan 0.103850 -0.456445 0.887594 1.000000
tan 0.273855 -0.659495 -0.697253 1.000000
tan -0.435737 0.894042 -0.077252 1.000000
tan -0.150970 0.002542 0.991754 1.000000
tan -0.030628 -0.955050 0.291029 1.000000
tan -0.027094 -0.778164 -0.623969 1.000000
tan -0.200136 -0.915370 0.332817 1.000000
tan -0.112344 -0.665633 -0.730361 1.000000
tan -0.062930 -0.555707 0.823672 1.000000
tan -0.075888 0.913696 0.412859 1.000000
tan -0.083142 -0.987724 0.083514 1.000000
tan -0.126418 0.630727 0.759998 1.000000
tan -0.174964 -0.550685 0.818898 1.000000
tan -0.108500 -0.052018 -0.995598 1.000000
tan -0.165788 0.984252 0.054250 1.000000
tan 0.264245 -0.953438 0.109864 1.000000
tan -0.260339 0.659123 0.696385 1.000000
f 3/3/3 2/2/2 1/1/1
f 6/6/6 5/5/5 4/4/4
f 6/6/6 7/7/7 5/5/5
f 7/7/7 6/6/6 8/8/8
f 8/8/8 9/9/9 7/7/7
f 9/9/9 8/8/8 10/10/10
f 11/11/11 9/9/9 10/10/10
f 11/11/11 10/10/10 12/12/12
f 11/11/11 12/12/12 13/13/13
f 11/11/11 13/13/13 14/14/14
f 17/17/17 16/16/16 15/15/15
f 15/15/15 18/18/18 17/17/17
f 17/17/17 18/18/18 19/19/19
f 19/19/19 18/18/18 20/20/20
f 20/20/20 21/21/21 19/19/19
f 24/24/24 23/23/23 22/22/22
f 23/23/23 24/24/24 25/25/25
f 26/26/26 25/25/25 24/24/24
f 26/26/26 27/27/27 25/25/25
f 28/28/28 27/27/27 26/26/26
f 28/28/28 29/29/29 27/27/27
f 32/32/32 31/31/31 30/30/30
f 32/32/32 30/30/30 33/33/33
f 30/30/30 34/34/34 33/33/33
f 35/35/35 33/33/33 34/34/34
f 35/35/35 34/34/34 36/36/36
f 36/36/36 34/34/34 37/37/37
f 40/40/40 39/39/39 38/38/38
f 39/39/39 40/40/40 41/41/41
f 42/42/42 39/39/39 41/41/41
f 43/43/43 42/42/42 41/41/41
f 43/43/43 44/44/44 42/42/42
f 47/47/47 46/46/46 45/45/45
f 48/48/48 45/45/45 46/46/46
f 49/49/49 45/45/45 48/48/48
f 49/49/49 50/50/50 45/45/45
f 53/53/53 52/52/52 51/51/51
f 54/54/54 51/51/51 52/52/52
f 54/54/54 55/55/55 51/51/51
f 51/51/51 55/55/55 56/56/56
f 57/57/57 56/56/56 55/55/55
f 55/55/55 58/58/58 57/57/57
f 54/54/54 59/59/59 55/55/55
f 58/58/58 55/55/55 59/59/59
f 58/58/58 59/59/59 60/60/60
f 61/61/61 60/60/60 59/59/59
f 54/54/54 62/62/62 59/59/59
f 62/62/62 61/61/61 59/59/59
f 63/63/63 61/61/61 62/62/62
f 64/64/64 63/63/63 62/62/62
f 62/62/62 65/65/65 64/64/64
f 68/68/68 67/67/67 66/66/66
f 68/68/68 69/69/69 67/67/67
f 69/69/69 70/70/70 67/67/67
f 68/68/68 71/71/71 69/69/69
f 71/71/71 72/72/72 69/69/69
f 69/69/69 72/72/72 73/73/73
f 74/74/74 72/72/72 71/71/71
f 75/75/75 73/73/73 72/72/72
f 76/76/76 72/72/72 74/74/74
f 76/76/76 75/75/75 72/72/72
f 77/77/77 76/76/76 74/74/74
f 75/75/75 76/76/76 78/78/78
f 79/79/79 76/76/76 77/77/77
f 79/79/79 78/78/78 76/76/76
f 79/79/79 77/77/77 80/80/80
f 81/81/81 78/78/78 79/79/79
f 82/82/82 79/79/79 80/80/80
f 81/81/81 79/79/79 83/83/83
f 79/79/79 82/82/82 83/83/83
f 86/86/86 85/85/85 84/84/84
f 85/85/85 86/86/86 87/87/87
f 87/87/87 86/86/86 88/88/88
f 89/89/89 88/88/88 86/86/86
f 90/90/90 88/88/88 89/89/89
f 86/86/86 91/91/91 89/89/89
f 89/89/89 91/91/91 92/92/92
f 89/89/89 93/93/93 90/90/90
f 89/89/89 92/92/92 94/94/94
f 93/93/93 89/89/89 94/94/94
f 93/93/93 94/94/94 95/95/95
f 95/95/95 94/94/94 96/96/96
f 95/95/95 97/97/97 93/93/93
f 100/100/100 99/99/99 98/98/98
f 100/100/100 98/98/98 101/101/101
f 102/102/102 100/100/100 101/101/101
f 103/103/103 101/101/101 98/98/98
f 103/103/103 102/102/102 101/101/101
f 104/104/104 103/103/103 98/98/98
f 103/103/103 105/105/105 102/102/102
f 104/104/104 106/106/106 103/103/103
f 103/103/103 106/106/106 105/105/105
f 106/106/106 107/107/107 105/105/105
f 105/105/105 107/107/107 108/108/108
f 106/106/106 109/109/109 107/107/107
f 110/110/110 108/108/108 107/107/107
f 111/111/111 107/107/107 109/109/109
f 110/110/110 107/107/107 111/111/111
