mtllib SM_HallwayBaseboard.mtl
g SM_HallwayBaseboard
#Vertices 80
#Indices 120
#Section 0 Offset 0 NumIndices 120 MaterialIndex 0 MI_WoodenPanel
v -0.101222 3.970812 0.107168
v -0.144584 3.306230 0.006211
v -0.101222 3.969819 0.006208
v -0.144584 3.304451 0.107165
v -0.101222 3.970812 0.107168
v -0.101222 3.969819 0.006208
v -0.069167 3.970812 0.107168
v -0.069167 3.969819 0.006208
v -0.069167 3.970812 0.107168
v -0.112529 3.264183 0.107014
v -0.144584 3.304451 0.107165
v -0.101222 3.970812 0.107168
v -0.112529 3.264183 0.107014
v -3.352902 3.221757 0.107014
v -0.144584 3.304451 0.107165
v -3.348689 3.273053 0.107165
v -0.144584 3.304451 0.107165
v -3.347470 3.274349 0.006211
v -0.144584 3.306230 0.006211
v -3.348689 3.273053 0.107165
v -3.352902 3.221757 0.107014
v -3.376440 3.275928 0.107483
v -3.348689 3.273053 0.107165
v -3.389946 3.226263 0.107331
v -3.348689 3.273053 0.107165
v -3.375005 3.276979 0.006528
v -3.347470 3.274349 0.006211
v -3.376440 3.275928 0.107483
v -3.389946 3.226263 0.107331
v -3.412642 3.281726 0.107483
v -3.376440 3.275928 0.107483
v -3.433530 3.234687 0.107331
v -3.376440 3.275928 0.107483
v -3.411064 3.282547 0.006528
v -3.375005 3.276979 0.006528
v -3.412642 3.281726 0.107483
v -3.433530 3.234687 0.107331
v -3.431953 3.235508 0.006376
v -3.412642 3.281726 0.107483
v -3.411064 3.282547 0.006528
v -0.105608 4.925307 0.006208
v -0.105608 4.924314 0.107168
v -0.073553 4.925307 0.006208
v -0.073553 4.924314 0.107168
v -0.105608 5.199350 0.107168
v -0.105608 4.925307 0.006208
v -0.105608 5.200343 0.006208
v -0.105608 4.924314 0.107168
v -0.105608 5.199350 0.107168
v -6.000415 5.226206 0.102107
v -0.073176 5.226323 0.107395
v -5.975078 5.199234 0.101544
v -0.105608 5.200343 0.006208
v -5.975078 5.199234 0.101544
v -0.105608 5.199350 0.107168
v -5.975078 5.200228 0.000584
v -5.959334 3.246167 0.005035
v -4.890782 3.250959 0.095218
v -5.959334 3.245174 0.105995
v -4.890782 3.251953 -0.005742
v -0.105608 5.199350 0.107168
v -0.073553 4.924314 0.107168
v -0.105608 4.924314 0.107168
v -0.073176 5.226323 0.107395
v -4.890780 3.228587 0.094867
v -5.959334 3.245174 0.105995
v -4.890782 3.250959 0.095218
v -5.985048 3.222799 0.105740
v -4.890782 3.251953 -0.005742
v -4.890780 3.228587 0.094867
v -4.890782 3.250959 0.095218
v -4.890780 3.229580 -0.006093
v -5.975078 5.199234 0.101544
v -5.985048 3.222799 0.105740
v -6.000415 5.226206 0.102107
v -5.959334 3.245174 0.105995
v -5.975078 5.200228 0.000584
v -5.959334 3.246167 0.005035
v -5.975078 5.199234 0.101544
v -5.959334 3.245174 0.105995
vt 0.271729 0.309570
vt 0.258789 0.392578
vt 0.259033 0.309570
vt 0.271484 0.393066
vt 0.271729 0.309570
vt 0.259033 0.309570
vt 0.271729 0.305664
vt 0.259033 0.305664
vt 0.275635 0.309570
vt 0.275635 0.397949
vt 0.271484 0.393066
vt 0.271729 0.309570
vt 0.155273 0.592285
vt 0.154663 0.200195
vt 0.161987 0.586914
vt 0.161255 0.200195
vt 0.161987 0.586914
vt 0.173706 0.201172
vt 0.174194 0.586914
vt 0.161255 0.200195
vt 0.154663 0.200195
vt 0.161499 0.196777
vt 0.161255 0.200195
vt 0.155151 0.195312
vt 0.161255 0.200195
vt 0.173950 0.197754
vt 0.173706 0.201172
vt 0.161499 0.196777
vt 0.155151 0.195312
vt 0.161865 0.192383
vt 0.161499 0.196777
vt 0.155884 0.189941
vt 0.161499 0.196777
vt 0.174194 0.193359
vt 0.173950 0.197754
vt 0.161865 0.192383
vt 0.232788 0.327637
vt 0.232788 0.340332
vt 0.226318 0.327637
vt 0.226318 0.340332
vt 0.275879 0.397461
vt 0.288574 0.397461
vt 0.275879 0.401367
vt 0.288574 0.401855
vt 0.288574 0.363281
vt 0.275879 0.397461
vt 0.275879 0.363281
vt 0.288574 0.397461
vt 0.124878 0.774048
vt 0.135010 0.189941
vt 0.135010 0.777344
vt 0.124756 0.199219
vt 0.114868 0.774048
vt 0.124756 0.199219
vt 0.124878 0.774048
vt 0.114746 0.199219
vt 0.243286 0.326172
vt 0.255859 0.192871
vt 0.255859 0.326172
vt 0.243164 0.192871
vt 0.288574 0.363281
vt 0.292480 0.397461
vt 0.288574 0.397461
vt 0.292480 0.359863
vt 0.258545 0.192871
vt 0.255859 0.326172
vt 0.255859 0.192871
vt 0.258545 0.329590
vt 0.243164 0.192871
vt 0.255859 0.189941
vt 0.255859 0.192871
vt 0.243286 0.189941
vt 0.204468 0.429199
vt 0.208618 0.189941
vt 0.208618 0.432129
vt 0.204468 0.193359
vt 0.192261 0.429199
vt 0.192261 0.193359
vt 0.204468 0.429199
vt 0.204468 0.193359
vt1 0.516602 0.948730
vt1 0.378906 0.061859
vt1 0.382080 0.948242
vt1 0.513184 0.059021
vt1 0.516602 0.948730
vt1 0.382080 0.948242
vt1 0.516602 0.991699
vt1 0.381836 0.990723
vt1 0.559082 0.951660
vt1 0.559082 0.008064
vt1 0.513184 0.059021
vt1 0.516602 0.948730
vt1 0.815430 0.008064
vt1 0.814453 0.966797
vt1 0.832031 0.020905
vt1 0.830566 0.966309
vt1 0.832031 0.020905
vt1 0.860840 0.964355
vt1 0.861816 0.020920
vt1 0.830566 0.966309
vt1 0.814453 0.966797
vt1 0.830566 0.975098
vt1 0.830566 0.966309
vt1 0.815430 0.978516
vt1 0.830566 0.966309
vt1 0.861328 0.972656
vt1 0.860840 0.964355
vt1 0.830566 0.975098
vt1 0.815430 0.978516
vt1 0.831543 0.985840
vt1 0.830566 0.975098
vt1 0.817383 0.991699
vt1 0.830566 0.975098
vt1 0.861816 0.983398
vt1 0.861328 0.972656
vt1 0.831543 0.985840
vt1 0.270264 0.846680
vt1 0.009499 0.846680
vt1 0.268799 0.979492
vt1 0.008064 0.979492
vt1 0.008949 0.093079
vt1 0.269775 0.090820
vt1 0.008240 0.010300
vt1 0.269043 0.008064
vt1 0.268799 0.801270
vt1 0.008949 0.093079
vt1 0.008064 0.803223
vt1 0.269775 0.090820
vt1 0.895996 0.013580
vt1 0.913086 0.991699
vt1 0.913086 0.008064
vt1 0.895508 0.976074
vt1 0.878906 0.013603
vt1 0.895508 0.976074
vt1 0.895996 0.013580
vt1 0.878906 0.976074
vt1 0.588379 0.031677
vt1 0.677246 0.971191
vt1 0.677246 0.030792
vt1 0.588379 0.972168
vt1 0.268799 0.801270
vt1 0.352539 0.090942
vt1 0.269775 0.090820
vt1 0.352539 0.871094
vt1 0.696777 0.971191
vt1 0.677246 0.030792
vt1 0.677246 0.971191
vt1 0.696777 0.008064
vt1 0.588379 0.972168
vt1 0.677246 0.990723
vt1 0.677246 0.971191
vt1 0.588379 0.991699
vt1 0.767090 0.021469
vt1 0.783691 0.991699
vt1 0.783691 0.008064
vt1 0.767090 0.977051
vt1 0.717773 0.020859
vt1 0.717285 0.976562
vt1 0.767090 0.021469
vt1 0.767090 0.977051
vn -1.000000 0.062992 0.000000
vn -1.000000 0.062992 0.000000
vn -1.000000 0.062992 0.000000
vn -1.000000 0.062992 0.000000
vn 0.000000 1.000000 -0.007874
vn 0.000000 1.000000 -0.007874
vn 0.000000 1.000000 -0.007874
vn 0.000000 1.000000 -0.007874
vn 0.000000 0.000000 1.000000
vn 0.000000 0.000000 1.000000
vn 0.000000 0.000000 1.000000
vn 0.000000 0.000000 1.000000
vn 0.000000 0.000000 1.000000
vn 0.000000 0.000000 1.000000
vn 0.000000 0.000000 1.000000
vn 0.000000 0.000000 1.000000
vn -0.007874 1.000000 0.015748
vn -0.007874 1.000000 0.015748
vn -0.007874 1.000000 0.015748
vn -0.007874 1.000000 0.015748
vn 0.007874 -0.007874 1.000000
vn 0.007874 -0.007874 1.000000
vn 0.007874 -0.007874 1.000000
vn 0.007874 -0.007874 1.000000
vn 0.102362 0.992126 0.015748
vn 0.102362 0.992126 0.015748
vn 0.102362 0.992126 0.015748
vn 0.102362 0.992126 0.015748
vn 0.000000 0.000000 1.000000
vn 0.000000 0.000000 1.000000
vn 0.000000 0.000000 1.000000
vn 0.000000 0.000000 1.000000
vn 0.157480 0.984252 0.007874
vn 0.157480 0.984252 0.007874
vn 0.157480 0.984252 0.007874
vn 0.157480 0.984252 0.007874
vn -0.913386 0.409449 -0.007874
vn -0.913386 0.409449 -0.007874
vn -0.913386 0.409449 -0.007874
vn -0.913386 0.409449 -0.007874
vn 0.000000 -1.000000 -0.007874
vn 0.000000 -1.000000 -0.007874
vn 0.000000 -1.000000 -0.007874
vn 0.000000 -1.000000 -0.007874
vn -1.000000 0.000000 0.000000
vn -1.000000 0.000000 0.000000
vn -1.000000 0.000000 0.000000
vn -1.000000 0.000000 0.000000
vn 0.000000 -0.015748 1.000000
vn 0.000000 -0.015748 1.000000
vn 0.000000 -0.015748 1.000000
vn 0.000000 -0.015748 1.000000
vn 0.000000 -1.000000 -0.007874
vn 0.000000 -1.000000 -0.007874
vn 0.000000 -1.000000 -0.007874
vn 0.000000 -1.000000 -0.007874
vn -0.007874 1.000000 0.007874
vn -0.007874 1.000000 0.007874
vn -0.007874 1.000000 0.007874
vn -0.007874 1.000000 0.007874
vn 0.000000 0.000000 1.000000
vn 0.000000 0.000000 1.000000
vn 0.000000 0.000000 1.000000
vn 0.000000 0.000000 1.000000
vn 0.007874 -0.015748 1.000000
vn 0.007874 -0.015748 1.000000
vn 0.007874 -0.015748 1.000000
vn 0.007874 -0.015748 1.000000
vn 1.000000 0.000000 0.000000
vn 1.000000 0.000000 0.000000
vn 1.000000 0.000000 0.000000
vn 1.000000 0.000000 0.000000
vn 0.007874 0.000000 1.000000
vn 0.007874 0.000000 1.000000
vn 0.007874 0.000000 1.000000
vn 0.007874 0.000000 1.000000
vn 1.000000 0.007874 0.000000
vn 1.000000 0.007874 0.000000
vn 1.000000 0.007874 0.000000
vn 1.000000 0.007874 0.000000
tan 0.062992 1.000000 -0.000000 1.000000
tan 0.062992 1.000000 -0.000000 1.000000
tan 0.062992 1.000000 -0.000000 1.000000
tan 0.062992 1.000000 -0.000000 1.000000
tan 1.000062 0.000062 0.007874 1.000000
tan 1.000062 0.000062 0.007874 1.000000
tan 1.000062 0.000062 0.007874 1.000000
tan 1.000062 0.000062 0.007874 1.000000
tan 0.062992 1.000000 -0.000000 1.000000
tan 0.062992 1.000000 -0.000000 1.000000
tan 0.062992 1.000000 -0.000000 1.000000
tan 0.062992 1.000000 -0.000000 1.000000
tan -0.960630 0.267717 0.000000 1.000000
tan -1.000000 0.039370 0.000000 1.000000
tan -0.960630 0.267717 0.000000 1.000000
tan -1.000000 0.031496 0.000000 1.000000
tan -1.000248 -0.007874 -0.000124 1.000000
tan -1.000248 -0.008494 0.039246 1.000000
tan -1.000248 -0.007874 -0.000124 1.000000
tan -1.000248 -0.008618 0.047120 1.000000
tan -1.000062 0.039308 0.008184 1.000000
tan -1.000062 0.039308 0.008184 1.000000
tan -1.000062 0.039308 0.008184 1.000000
tan -1.000062 0.047182 0.008246 1.000000
tan -0.992374 0.101494 0.056296 1.000000
tan -0.992374 0.101618 0.048484 1.000000
tan -0.992374 0.101742 0.040672 1.000000
tan -0.992374 0.101494 0.056296 1.000000
tan -1.000000 0.047244 0.000000 1.000000
tan -1.000000 0.047244 0.000000 1.000000
tan -1.000000 0.047244 0.000000 1.000000
tan -1.000000 0.047244 0.000000 1.000000
tan -0.984438 0.156984 0.065720 1.000000
tan -0.984438 0.157046 0.057970 1.000000
tan -0.984438 0.157046 0.057970 1.000000
tan -0.984438 0.156984 0.065720 1.000000
tan -0.013640 -0.011160 1.001922 1.000000
tan -0.013640 -0.011160 1.001922 1.000000
tan -0.013640 -0.011160 1.001922 1.000000
tan -0.013640 -0.011160 1.001922 1.000000
tan -1.000062 0.000062 -0.007874 1.000000
tan -1.000062 0.000062 -0.007874 1.000000
tan -1.000062 0.000062 -0.007874 1.000000
tan -1.000062 0.000062 -0.007874 1.000000
tan 0.000000 1.000000 -0.000000 1.000000
tan 0.000000 1.000000 -0.000000 1.000000
tan 0.000000 1.000000 -0.000000 1.000000
tan 0.000000 1.000000 -0.000000 1.000000
tan -1.000248 -0.031496 -0.000496 1.000000
tan -0.362329 0.929134 0.014632 1.000000
tan -1.000248 -0.031496 -0.000496 1.000000
tan -0.354455 0.937008 0.014756 1.000000
tan -1.000062 -0.000000 0.000000 1.000000
tan -1.000062 -0.000000 0.000000 1.000000
tan -1.000062 -0.000000 0.000000 1.000000
tan -1.000062 -0.000000 0.000000 1.000000
tan 1.000062 0.007936 -0.007812 1.000000
tan 1.000062 0.007936 -0.007812 1.000000
tan 1.000062 0.007936 -0.007812 1.000000
tan 1.000062 0.007936 -0.007812 1.000000
tan 0.000000 1.000000 0.000000 1.000000
tan 0.000000 1.000000 0.000000 1.000000
tan 0.000000 1.000000 0.000000 1.000000
tan 0.000000 1.000000 0.000000 1.000000
tan 1.000248 0.007998 -0.007750 1.000000
tan 1.000248 0.007998 -0.007750 1.000000
tan 1.000248 0.007998 -0.007750 1.000000
tan 1.000248 0.007998 -0.007750 1.000000
tan 0.000000 -1.000000 -0.023622 1.000000
tan 0.000000 -1.000000 -0.023622 1.000000
tan 0.000000 -1.000000 -0.023622 1.000000
tan 0.000000 -1.000000 -0.023622 1.000000
tan 0.007874 -1.000062 -0.000062 1.000000
tan -0.259843 -0.968566 0.002046 1.000000
tan 0.015748 -1.000062 -0.000124 1.000000
tan -0.267717 -0.960692 0.002108 1.000000
tan 0.007874 -1.000000 0.000000 1.000000
tan 0.007874 -1.000000 0.000000 1.000000
tan 0.007874 -1.000000 0.000000 1.000000
tan 0.007874 -1.000000 0.000000 1.000000
f 3/3/3 2/2/2 1/1/1
f 4/4/4 1/1/1 2/2/2
f 7/7/7 6/6/6 5/5/5
f 8/8/8 6/6/6 7/7/7
f 11/11/11 10/10/10 9/9/9
f 12/12/12 11/11/11 9/9/9
f 15/15/15 14/14/14 13/13/13
f 14/14/14 15/15/15 16/16/16
f 19/19/19 18/18/18 17/17/17
f 20/20/20 17/17/17 18/18/18
f 23/23/23 22/22/22 21/21/21
f 24/24/24 21/21/21 22/22/22
f 27/27/27 26/26/26 25/25/25
f 28/28/28 25/25/25 26/26/26
f 31/31/31 30/30/30 29/29/29
f 32/32/32 29/29/29 30/30/30
f 35/35/35 34/34/34 33/33/33
f 36/36/36 33/33/33 34/34/34
f 39/39/39 38/38/38 37/37/37
f 38/38/38 39/39/39 40/40/40
f 43/43/43 42/42/42 41/41/41
f 44/44/44 42/42/42 43/43/43
f 47/47/47 46/46/46 45/45/45
f 48/48/48 45/45/45 46/46/46
f 51/51/51 50/50/50 49/49/49
f 52/52/52 49/49/49 50/50/50
f 55/55/55 54/54/54 53/53/53
f 56/56/56 53/53/53 54/54/54
f 59/59/59 58/58/58 57/57/57
f 60/60/60 57/57/57 58/58/58
f 63/63/63 62/62/62 61/61/61
f 64/64/64 61/61/61 62/62/62
f 67/67/67 66/66/66 65/65/65
f 68/68/68 65/65/65 66/66/66
f 71/71/71 70/70/70 69/69/69
f 72/72/72 69/69/69 70/70/70
f 75/75/75 74/74/74 73/73/73
f 76/76/76 73/73/73 74/74/74
f 79/79/79 78/78/78 77/77/77
f 80/80/80 78/78/78 79/79/79
