mtllib SM_FiberboardBox_LOD2.mtl
g SM_FiberboardBox_LOD2
#Vertices 122
#Indices 396
#Section 0 Offset 0 NumIndices 396 MaterialIndex 0 MI_FiberboardBox
v 0.073849 0.053527 0.001577
v 0.062740 0.052062 -0.004279
v 0.074060 0.054598 -0.007399
v -0.066387 0.054026 0.001868
v -0.074817 0.051604 -0.006501
v -0.065991 0.051625 -0.009695
v -0.056818 0.051706 0.003047
v 0.062740 0.052062 -0.004279
v 0.080486 0.049535 -0.013250
v 0.074060 0.054598 -0.007399
v 0.049976 0.050920 -0.011443
v 0.072563 -0.054224 0.013868
v 0.105007 -0.031790 0.013502
v 0.103170 -0.054429 0.012678
v 0.077519 -0.013133 0.011681
v 0.041935 -0.054580 0.014269
v 0.105467 0.008235 0.012343
v 0.011660 -0.054575 0.012805
v 0.058817 0.017159 0.010715
v 0.103835 0.052403 0.012474
v -0.008114 -0.013964 0.011119
v -0.043103 -0.055514 0.012370
v 0.028235 0.053426 0.012245
v 0.061249 0.052992 0.008317
v -0.054231 -0.002222 0.010600
v -0.078242 -0.055325 0.012721
v -0.040323 0.054021 0.012269
v 0.002303 0.054122 0.012271
v -0.101632 0.052387 0.013075
v -0.103501 -0.005962 0.012560
v -0.102839 -0.053756 0.012676
v -0.104604 0.006309 0.009798
v -0.105170 -0.025491 0.010884
v -0.100866 0.049619 -0.011811
v -0.074817 0.051604 -0.006501
v -0.102313 0.051947 0.009716
v -0.075984 0.053124 0.008565
v -0.101632 0.052387 0.013075
v -0.066387 0.054026 0.001868
v -0.040323 0.054021 0.012269
v -0.056818 0.051706 0.003047
v -0.005991 0.052297 0.007418
v 0.002303 0.054122 0.012271
v 0.028235 0.053426 0.012245
v -0.008712 0.050915 -0.010157
v -0.065991 0.051625 -0.009695
v 0.049976 0.050920 -0.011443
v 0.061249 0.052992 0.008317
v 0.062740 0.052062 -0.004279
v 0.073849 0.053527 0.001577
v 0.103835 0.052403 0.012474
v 0.103001 0.052011 0.006323
v 0.102235 0.051043 -0.011205
v 0.080486 0.049535 -0.013250
v 0.074060 0.054598 -0.007399
v -0.101632 0.052387 0.013075
v -0.104604 0.006309 0.009798
v -0.102313 0.051947 0.009716
v -0.101940 0.023535 0.008434
v -0.100866 0.049619 -0.011811
v -0.100988 0.025078 -0.012061
v -0.105170 -0.025491 0.010884
v -0.101229 -0.052873 -0.011304
v -0.102400 -0.028769 0.007291
v -0.102839 -0.053756 0.012676
v -0.102167 -0.052493 0.007220
v 0.102268 -0.052457 0.008382
v 0.103170 -0.054429 0.012678
v 0.105007 -0.031790 0.013502
v 0.102609 -0.027875 0.006516
v 0.103053 -0.052517 -0.010666
v 0.105467 0.008235 0.012343
v 0.102951 -0.007668 -0.010615
v 0.102588 0.013084 0.006710
v 0.103835 0.052403 0.012474
v 0.103001 0.052011 0.006323
v 0.102235 0.051043 -0.011205
v -0.078242 -0.055325 0.012721
v -0.102167 -0.052493 0.007220
v -0.102839 -0.053756 0.012676
v -0.043103 -0.055514 0.012370
v -0.048257 -0.052924 0.006936
v -0.083552 -0.053820 -0.000706
v -0.101229 -0.052873 -0.011304
v -0.055557 -0.052854 -0.011280
v -0.002518 -0.052963 -0.010885
v 0.011354 -0.053403 0.008404
v 0.011660 -0.054575 0.012805
v 0.041935 -0.054580 0.014269
v 0.026282 -0.053358 -0.007983
v 0.061717 -0.052640 -0.010523
v 0.058983 -0.053544 0.008704
v 0.072563 -0.054224 0.013868
v 0.103170 -0.054429 0.012678
v 0.102268 -0.052457 0.008382
v 0.069475 -0.054521 0.000791
v 0.103053 -0.052517 -0.010666
v -0.074817 0.051604 -0.006501
v -0.100866 0.049619 -0.011811
v -0.065991 0.051625 -0.009695
v -0.023927 0.046505 -0.012600
v -0.008712 0.050915 -0.010157
v 0.049976 0.050920 -0.011443
v -0.095647 -0.002490 -0.013044
v -0.100988 0.025078 -0.012061
v -0.101229 -0.052873 -0.011304
v 0.045265 0.037232 -0.014160
v 0.080486 0.049535 -0.013250
v -0.044297 0.028724 -0.013507
v -0.085430 -0.024754 -0.014201
v 0.088772 0.008650 -0.013599
v 0.102235 0.051043 -0.011205
v 0.102951 -0.007668 -0.010615
v 0.103053 -0.052517 -0.010666
v 0.025193 0.010002 -0.012930
v 0.062715 -0.036311 -0.013584
v 0.061717 -0.052640 -0.010523
v -0.062083 0.003318 -0.012734
v -0.001435 -0.044162 -0.013206
v -0.002518 -0.052963 -0.010885
v -0.056667 -0.043241 -0.014249
v -0.055557 -0.052854 -0.011280
vt 0.763672 0.026855
vt 0.799805 0.046387
vt 0.761719 0.056152
vt 0.772461 0.203613
vt 0.799316 0.230957
vt 0.768555 0.240234
vt 0.741699 0.197266
vt 0.753906 0.165527
vt 0.812500 0.144531
vt 0.792480 0.171387
vt 0.723145 0.134277
vt 0.136353 0.033691
vt 0.032349 0.104980
vt 0.038147 0.032227
vt 0.120056 0.165527
vt 0.234619 0.032715
vt 0.030258 0.233398
vt 0.331787 0.033203
vt 0.179565 0.262695
vt 0.034851 0.375000
vt 0.394287 0.164062
vt 0.507324 0.031738
vt 0.276855 0.379395
vt 0.171021 0.390137
vt 0.541504 0.202637
vt 0.620117 0.032715
vt 0.496582 0.382324
vt 0.359863 0.382324
vt 0.692871 0.378418
vt 0.699707 0.191406
vt 0.698242 0.039062
vt 0.708008 0.230957
vt 0.708496 0.128906
vt 0.699707 0.869019
vt 0.615723 0.853027
vt 0.703125 0.799805
vt 0.618652 0.803467
vt 0.701172 0.788452
vt 0.587891 0.825562
vt 0.504883 0.788452
vt 0.556152 0.821045
vt 0.394287 0.800171
vt 0.368408 0.782471
vt 0.285156 0.780273
vt 0.400635 0.856812
vt 0.583496 0.863037
vt 0.213013 0.853882
vt 0.179077 0.788818
vt 0.172729 0.829468
vt 0.137085 0.808960
vt 0.043335 0.765747
vt 0.045074 0.786377
vt 0.042603 0.842407
vt 0.111084 0.856445
vt 0.134033 0.837280
vt 0.398926 0.966217
vt 0.250488 0.959351
vt 0.396729 0.953430
vt 0.305664 0.950165
vt 0.388916 0.884460
vt 0.310303 0.884460
vt 0.147827 0.961121
vt 0.061279 0.886169
vt 0.137817 0.946625
vt 0.056396 0.962280
vt 0.061371 0.944550
vt 0.965332 0.938171
vt 0.972168 0.951874
vt 0.899902 0.960419
vt 0.885742 0.937775
vt 0.960449 0.877747
vt 0.771484 0.965973
vt 0.817871 0.887146
vt 0.754883 0.946533
vt 0.630371 0.972260
vt 0.630371 0.953094
vt 0.629883 0.896912
vt 0.848633 0.611816
vt 0.868164 0.688721
vt 0.850098 0.691162
vt 0.851074 0.499023
vt 0.870117 0.515625
vt 0.894043 0.628906
vt 0.927246 0.685547
vt 0.928711 0.539307
vt 0.928223 0.369629
vt 0.866699 0.324707
vt 0.849609 0.323242
vt 0.846680 0.226074
vt 0.919922 0.277344
vt 0.929688 0.164062
vt 0.867188 0.171875
vt 0.848633 0.127930
vt 0.855957 0.029785
vt 0.870605 0.033203
vt 0.893555 0.138184
vt 0.931152 0.030762
vt 0.731934 0.404297
vt 0.814453 0.421387
vt 0.703125 0.412598
vt 0.568359 0.430176
vt 0.520020 0.413574
vt 0.331787 0.414551
vt 0.797852 0.587891
vt 0.815918 0.499512
vt 0.816406 0.749512
vt 0.346680 0.459473
vt 0.233765 0.419922
vt 0.633301 0.487305
vt 0.765137 0.659180
vt 0.207153 0.550781
vt 0.163696 0.415039
vt 0.160645 0.603027
vt 0.161011 0.746582
vt 0.410889 0.546875
vt 0.290283 0.695068
vt 0.293213 0.748291
vt 0.690430 0.569092
vt 0.495850 0.720703
vt 0.499023 0.750000
vt 0.672852 0.718262
vt 0.668945 0.750244
vn 0.023622 1.000000 0.031496
vn -0.062992 0.984252 -0.149606
vn 0.102362 0.929134 -0.346457
vn 0.086614 0.992126 0.047244
vn -0.070866 0.992126 -0.133858
vn 0.023622 0.858268 -0.503937
vn 0.055118 0.992126 -0.118110
vn -0.062992 0.984252 -0.149606
vn 0.047244 0.574803 -0.818898
vn 0.102362 0.929134 -0.346457
vn -0.015748 0.748031 -0.669291
vn 0.000000 -0.724409 0.685039
vn 0.811024 -0.015748 0.582677
vn 0.606299 -0.700787 0.385827
vn -0.023622 0.039370 1.000000
vn -0.023622 -0.732283 0.677165
vn 0.842520 0.023622 0.535433
vn 0.000000 -0.779528 0.622047
vn -0.007874 -0.007874 1.000000
vn 0.614173 0.574803 0.535433
vn -0.007874 0.015748 1.000000
vn 0.000000 -0.842520 0.543307
vn 0.000000 0.732283 0.677165
vn -0.007874 1.000000 -0.031496
vn 0.015748 0.000000 1.000000
vn 0.000000 -0.834646 0.543307
vn 0.007874 0.787402 0.614173
vn 0.015748 0.826772 0.566929
vn -0.503937 0.622047 0.606299
vn -0.488189 0.023622 0.874016
vn -0.614173 -0.622047 0.488189
vn -0.929134 0.000000 -0.377953
vn -1.000000 -0.015748 0.078740
vn -0.582677 0.535433 -0.614173
vn -0.070866 0.992126 -0.133858
vn -0.748031 0.661417 -0.039370
vn -0.039370 1.000000 -0.031496
vn -0.503937 0.622047 0.606299
vn 0.086614 0.992126 0.047244
vn 0.007874 0.787402 0.614173
vn 0.055118 0.992126 -0.118110
vn -0.007874 0.976378 -0.212598
vn 0.015748 0.826772 0.566929
vn 0.000000 0.732283 0.677165
vn -0.015748 0.858268 -0.519685
vn 0.023622 0.858268 -0.503937
vn -0.015748 0.748031 -0.669291
vn -0.007874 1.000000 -0.031496
vn -0.062992 0.984252 -0.149606
vn 0.023622 1.000000 0.031496
vn 0.614173 0.574803 0.535433
vn 0.708661 0.700787 -0.094488
vn 0.590551 0.559055 -0.574803
vn 0.047244 0.574803 -0.818898
vn 0.102362 0.929134 -0.346457
vn -0.503937 0.622047 0.606299
vn -0.929134 0.000000 -0.377953
vn -0.748031 0.661417 -0.039370
vn -0.881890 0.015748 -0.472441
vn -0.582677 0.535433 -0.614173
vn -0.732283 0.007874 -0.677165
vn -1.000000 -0.015748 0.078740
vn -0.582677 -0.590551 -0.559055
vn -0.944882 -0.031496 -0.314961
vn -0.614173 -0.622047 0.488189
vn -0.740157 -0.661417 -0.141732
vn 0.716535 -0.661417 -0.228346
vn 0.606299 -0.700787 0.385827
vn 0.811024 -0.015748 0.582677
vn 0.984252 -0.015748 -0.157480
vn 0.614173 -0.574803 -0.543307
vn 0.842520 0.023622 0.535433
vn 0.787402 0.000000 -0.622047
vn 0.976378 0.007874 -0.204724
vn 0.614173 0.574803 0.535433
vn 0.708661 0.700787 -0.094488
vn 0.590551 0.559055 -0.574803
vn 0.000000 -0.834646 0.543307
vn -0.740157 -0.661417 -0.141732
vn -0.614173 -0.622047 0.488189
vn 0.000000 -0.842520 0.543307
vn 0.000000 -0.976378 -0.212598
vn -0.007874 -1.000000 0.031496
vn -0.582677 -0.590551 -0.559055
vn 0.007874 -0.795276 -0.606299
vn 0.000000 -0.787402 -0.614173
vn 0.000000 -0.992126 -0.141732
vn 0.000000 -0.779528 0.622047
vn -0.023622 -0.732283 0.677165
vn 0.000000 -0.992126 -0.102362
vn -0.007874 -0.740157 -0.669291
vn -0.007874 -1.000000 -0.086614
vn 0.000000 -0.724409 0.685039
vn 0.606299 -0.700787 0.385827
vn 0.716535 -0.661417 -0.228346
vn -0.023622 -1.000000 -0.007874
vn 0.614173 -0.574803 -0.543307
vn -0.070866 0.992126 -0.133858
vn -0.582677 0.535433 -0.614173
vn 0.023622 0.858268 -0.503937
vn -0.007874 0.283465 -0.960630
vn -0.015748 0.858268 -0.519685
vn -0.015748 0.748031 -0.669291
vn -0.118110 0.007874 -0.992126
vn -0.732283 0.007874 -0.677165
vn -0.582677 -0.590551 -0.559055
vn -0.007874 0.070866 -1.000000
vn 0.047244 0.574803 -0.818898
vn -0.062992 0.086614 -0.992126
vn -0.062992 -0.007874 -1.000000
vn 0.094488 -0.007874 -0.992126
vn 0.590551 0.559055 -0.574803
vn 0.787402 0.000000 -0.622047
vn 0.614173 -0.574803 -0.543307
vn 0.000000 -0.015748 -1.000000
vn 0.015748 -0.086614 -1.000000
vn -0.007874 -0.740157 -0.669291
vn 0.007874 0.000000 -1.000000
vn 0.015748 -0.212598 -0.976378
vn 0.000000 -0.787402 -0.614173
vn 0.000000 -0.133858 -0.992126
vn 0.007874 -0.795276 -0.606299
tan 0.022878 -0.032054 1.000558 1.000000
tan -0.009424 0.149606 0.988220 1.000000
tan -0.053196 0.352595 0.929878 1.000000
tan 0.050592 -0.051646 0.991816 1.000000
tan 0.013950 0.135532 0.997148 1.000000
tan 0.064356 0.502821 0.859384 1.000000
tan 0.116808 0.111104 0.987786 1.000000
tan -0.181288 -0.159154 -0.970736 1.000000
tan -0.121272 -0.810962 -0.576229 1.000000
tan -0.277637 -0.306715 -0.904582 1.000000
tan -0.163370 -0.660859 -0.734763 1.000000
tan -0.000000 -0.685039 -0.724409 1.000000
tan 0.005580 -0.997272 -0.034720 1.000000
tan -0.028768 -0.502573 -0.867630 1.000000
tan 0.006944 -1.000558 0.039556 1.000000
tan 0.028830 -0.678095 -0.732283 1.000000
tan 0.007254 -0.996528 0.032550 1.000000
tan 0.011036 -0.622047 -0.779528 1.000000
tan 0.007936 -1.000062 -0.007812 1.000000
tan -0.013392 -0.673073 0.737926 1.000000
tan 0.007750 -1.000062 0.015810 1.000000
tan -0.000000 -0.543307 -0.842520 1.000000
tan 0.011098 -0.677165 0.732283 1.000000
tan 0.015500 0.031620 1.000062 1.000000
tan 0.007874 -1.000248 -0.000124 1.000000
tan -0.010850 -0.543307 -0.834646 1.000000
tan 0.007564 -0.614297 0.787464 1.000000
tan 0.004092 -0.567177 0.827020 1.000000
tan 0.004092 -0.699733 0.721309 1.000000
tan -0.004650 -1.002232 0.024490 1.000000
tan 0.026846 -0.631037 -0.770290 1.000000
tan -0.014880 -1.006138 0.036580 1.000000
tan 0.010044 -0.998326 -0.072106 1.000000
tan -0.050344 0.727509 0.682001 1.000000
tan -0.017298 0.133300 0.997148 1.000000
tan -0.008618 0.049910 1.002232 1.000000
tan 0.006634 0.031806 1.001550 1.000000
tan 0.033108 -0.687829 0.733213 1.000000
tan 0.003720 -0.047554 0.991816 1.000000
tan 0.018600 -0.614359 0.787402 1.000000
tan 0.029946 0.116808 0.995164 1.000000
tan 0.038440 0.212908 0.976378 1.000000
tan 0.004092 -0.567177 0.827020 1.000000
tan 0.027962 -0.677165 0.732283 1.000000
tan 0.031124 0.520181 0.858144 1.000000
tan 0.040114 0.503379 0.859198 1.000000
tan 0.023560 0.669787 0.748031 1.000000
tan 0.039122 0.031806 1.000062 1.000000
tan 0.030504 0.152086 0.987724 1.000000
tan 0.054374 -0.032798 1.000558 1.000000
tan 0.030318 -0.697253 0.713745 1.000000
tan 0.072478 0.060636 0.993304 1.000000
tan 0.091326 0.661603 0.737305 1.000000
tan 0.099324 0.811706 0.575485 1.000000
tan 0.252961 0.311861 0.911092 1.000000
tan -0.737119 0.062620 -0.676917 1.000000
tan 0.377953 -0.024924 -0.929134 1.000000
tan 0.065906 0.015190 -0.997024 1.000000
tan 0.472689 0.010168 -0.882014 1.000000
tan 0.732469 0.016368 -0.680637 1.000000
tan 0.677227 0.000434 -0.732345 1.000000
tan -0.078616 -0.009114 -1.000248 1.000000
tan 0.699857 -0.009858 -0.719015 1.000000
tan 0.315457 -0.007440 -0.945626 1.000000
tan -0.605865 -0.023560 -0.792238 1.000000
tan 0.204972 -0.019220 -0.980718 1.000000
tan -0.353091 -0.059024 -0.937008 1.000000
tan 0.455515 -0.094612 -0.887656 1.000000
tan 0.581933 -0.065844 -0.811768 1.000000
tan -0.158596 -0.069750 -0.984252 1.000000
tan -0.689317 -0.047244 -0.729245 1.000000
tan 0.536177 -0.026536 -0.842520 1.000000
tan -0.622047 -0.050592 -0.787402 1.000000
tan -0.204290 -0.057040 -0.976502 1.000000
tan 0.678343 -0.041292 -0.733771 1.000000
tan -0.066960 -0.066216 -0.993304 1.000000
tan -0.668919 -0.053382 -0.739165 1.000000
tan 0.991816 0.000000 0.000000 1.000000
tan 0.674437 -0.734081 -0.096348 1.000000
tan 0.621241 -0.760617 -0.187612 1.000000
tan 1.005022 0.008556 0.013268 1.000000
tan 0.998512 -0.001674 0.007688 1.000000
tan 1.000992 -0.007874 0.000248 1.000000
tan 0.717155 -0.697439 -0.010726 1.000000
tan 1.000062 0.006262 0.004774 1.000000
tan 0.997210 -0.004836 0.006200 1.000000
tan 1.004402 -0.001116 0.007812 1.000000
tan 0.994606 0.004898 0.006138 1.000000
tan 0.994792 -0.022630 0.010230 1.000000
tan 0.994792 -0.001612 0.015624 1.000000
tan 0.995784 -0.021638 0.012214 1.000000
tan 1.007502 -0.009238 0.015066 1.000000
tan 0.994048 0.016182 0.017112 1.000000
tan 0.622171 0.719573 0.329283 1.000000
tan 0.698307 0.700911 0.161014 1.000000
tan 1.000062 -0.023684 0.007688 1.000000
tan 0.693657 0.717961 0.024552 1.000000
tan 0.030628 0.136648 0.996590 1.000000
tan 0.013020 0.764462 0.654101 1.000000
tan -0.005580 0.504309 0.858640 1.000000
tan 0.002232 0.960692 0.283465 1.000000
tan 0.009424 0.519933 0.858392 1.000000
tan 0.017670 0.669663 0.748031 1.000000
tan 0.000930 0.998264 0.007812 1.000000
tan -0.020894 0.994792 0.034162 1.000000
tan -0.053754 0.714923 -0.699175 1.000000
tan 0.000558 1.000062 0.070866 1.000000
tan -0.025234 0.821502 0.575175 1.000000
tan 0.005456 0.996094 0.086614 1.000000
tan -0.000496 1.003968 -0.007874 1.000000
tan 0.000744 0.993242 -0.007812 1.000000
tan -0.069378 0.745304 0.653605 1.000000
tan 0.000000 1.006944 0.000000 1.000000
tan 0.048856 0.713125 -0.699237 1.000000
tan 0.000000 1.000000 -0.015748 1.000000
tan 0.001364 1.000248 -0.086614 1.000000
tan 0.010540 0.669291 -0.740281 1.000000
tan 0.000000 1.000062 0.000000 1.000000
tan 0.003348 0.976626 -0.212598 1.000000
tan 0.011036 0.614173 -0.787402 1.000000
tan 0.000000 0.992126 -0.133858 1.000000
tan 0.001488 0.606361 -0.795338 1.000000
f 3/3/3 2/2/2 1/1/1
f 6/6/6 5/5/5 4/4/4
f 6/6/6 4/4/4 7/7/7
f 10/10/10 9/9/9 8/8/8
f 8/8/8 9/9/9 11/11/11
f 14/14/14 13/13/13 12/12/12
f 15/15/15 12/12/12 13/13/13
f 15/15/15 16/16/16 12/12/12
f 17/17/17 15/15/15 13/13/13
f 16/16/16 15/15/15 18/18/18
f 15/15/15 17/17/17 19/19/19
f 19/19/19 17/17/17 20/20/20
f 15/15/15 21/21/21 18/18/18
f 15/15/15 19/19/19 21/21/21
f 18/18/18 21/21/21 22/22/22
f 23/23/23 19/19/19 20/20/20
f 19/19/19 23/23/23 21/21/21
f 20/20/20 24/24/24 23/23/23
f 25/25/25 22/22/22 21/21/21
f 21/21/21 23/23/23 25/25/25
f 26/26/26 22/22/22 25/25/25
f 23/23/23 28/28/28 27/27/27
f 25/25/25 23/23/23 27/27/27
f 25/25/25 27/27/27 29/29/29
f 25/25/25 30/30/30 26/26/26
f 25/25/25 29/29/29 30/30/30
f 30/30/30 31/31/31 26/26/26
f 29/29/29 32/32/32 30/30/30
f 30/30/30 33/33/33 31/31/31
f 30/30/30 32/32/32 33/33/33
f 36/36/36 35/35/35 34/34/34
f 35/35/35 36/36/36 37/37/37
f 38/38/38 37/37/37 36/36/36
f 39/39/39 35/35/35 37/37/37
f 40/40/40 37/37/37 38/38/38
f 37/37/37 41/41/41 39/39/39
f 41/41/41 37/37/37 40/40/40
f 40/40/40 42/42/42 41/41/41
f 40/40/40 43/43/43 42/42/42
f 43/43/43 44/44/44 42/42/42
f 41/41/41 42/42/42 45/45/45
f 44/44/44 45/45/45 42/42/42
f 46/46/46 41/41/41 45/45/45
f 45/45/45 44/44/44 47/47/47
f 44/44/44 48/48/48 47/47/47
f 49/49/49 47/47/47 48/48/48
f 48/48/48 50/50/50 49/49/49
f 52/52/52 48/48/48 51/51/51
f 52/52/52 50/50/50 48/48/48
f 53/53/53 50/50/50 52/52/52
f 54/54/54 50/50/50 53/53/53
f 55/55/55 50/50/50 54/54/54
f 58/58/58 57/57/57 56/56/56
f 59/59/59 57/57/57 58/58/58
f 58/58/58 60/60/60 59/59/59
f 60/60/60 61/61/61 59/59/59
f 59/59/59 62/62/62 57/57/57
f 59/59/59 61/61/61 63/63/63
f 64/64/64 62/62/62 59/59/59
f 63/63/63 64/64/64 59/59/59
f 65/65/65 62/62/62 64/64/64
f 64/64/64 63/63/63 66/66/66
f 65/65/65 64/64/64 66/66/66
f 69/69/69 68/68/68 67/67/67
f 67/67/67 70/70/70 69/69/69
f 71/71/71 70/70/70 67/67/67
f 70/70/70 72/72/72 69/69/69
f 71/71/71 73/73/73 70/70/70
f 70/70/70 74/74/74 72/72/72
f 70/70/70 73/73/73 74/74/74
f 74/74/74 75/75/75 72/72/72
f 74/74/74 76/76/76 75/75/75
f 73/73/73 76/76/76 74/74/74
f 77/77/77 76/76/76 73/73/73
f 80/80/80 79/79/79 78/78/78
f 78/78/78 79/79/79 81/81/81
f 81/81/81 79/79/79 82/82/82
f 82/82/82 79/79/79 83/83/83
f 83/83/83 79/79/79 84/84/84
f 84/84/84 85/85/85 83/83/83
f 83/83/83 85/85/85 82/82/82
f 82/82/82 85/85/85 86/86/86
f 81/81/81 82/82/82 87/87/87
f 87/87/87 82/82/82 86/86/86
f 88/88/88 81/81/81 87/87/87
f 89/89/89 88/88/88 87/87/87
f 86/86/86 90/90/90 87/87/87
f 86/86/86 91/91/91 90/90/90
f 92/92/92 89/89/89 87/87/87
f 90/90/90 92/92/92 87/87/87
f 92/92/92 90/90/90 91/91/91
f 92/92/92 93/93/93 89/89/89
f 92/92/92 94/94/94 93/93/93
f 92/92/92 95/95/95 94/94/94
f 96/96/96 92/92/92 91/91/91
f 95/95/95 92/92/92 96/96/96
f 91/91/91 97/97/97 96/96/96
f 97/97/97 95/95/95 96/96/96
f 100/100/100 99/99/99 98/98/98
f 99/99/99 100/100/100 101/101/101
f 101/101/101 100/100/100 102/102/102
f 101/101/101 102/102/102 103/103/103
f 101/101/101 104/104/104 99/99/99
f 99/99/99 104/104/104 105/105/105
f 104/104/104 106/106/106 105/105/105
f 101/101/101 103/103/103 107/107/107
f 103/103/103 108/108/108 107/107/107
f 104/104/104 101/101/101 109/109/109
f 109/109/109 101/101/101 107/107/107
f 104/104/104 110/110/110 106/106/106
f 108/108/108 111/111/111 107/107/107
f 112/112/112 111/111/111 108/108/108
f 111/111/111 112/112/112 113/113/113
f 114/114/114 111/111/111 113/113/113
f 111/111/111 115/115/115 107/107/107
f 115/115/115 109/109/109 107/107/107
f 111/111/111 114/114/114 116/116/116
f 115/115/115 111/111/111 116/116/116
f 116/116/116 114/114/114 117/117/117
f 109/109/109 115/115/115 118/118/118
f 118/118/118 104/104/104 109/109/109
f 104/104/104 118/118/118 110/110/110
f 116/116/116 117/117/117 119/119/119
f 117/117/117 120/120/120 119/119/119
f 118/118/118 121/121/121 110/110/110
f 121/121/121 118/118/118 115/115/115
f 121/121/121 115/115/115 116/116/116
f 121/121/121 116/116/116 119/119/119
f 121/121/121 119/119/119 120/120/120
f 110/110/110 121/121/121 106/106/106
f 121/121/121 120/120/120 122/122/122
f 121/121/121 122/122/122 106/106/106
