mtllib SM_OldTinContainer02_LOD2.mtl
g SM_OldTinContainer02_LOD2
#Vertices 38
#Indices 84
#Section 0 Offset 0 NumIndices 84 MaterialIndex 0 MI_OldTinContainer02
v -0.103755 -0.110236 -0.043192
v -0.103473 0.108747 -0.042680
v -0.105050 0.110348 0.043117
v -0.104714 -0.111997 0.043826
v -0.103223 -0.010309 0.044884
v 0.103195 0.109224 -0.043821
v 0.102363 -0.110164 -0.043775
v 0.104260 -0.111098 0.042599
v 0.104748 0.031133 0.042081
v 0.102821 0.111039 0.042370
v -0.105050 0.110348 0.043117
v -0.103473 0.108747 -0.042680
v 0.007555 0.110711 -0.043769
v 0.001573 0.111928 0.043099
v 0.102821 0.111039 0.042370
v 0.103195 0.109224 -0.043821
v -0.008256 -0.111690 -0.044180
v -0.103755 -0.110236 -0.043192
v -0.104714 -0.111997 0.043826
v -0.003782 -0.112601 0.044133
v 0.104260 -0.111098 0.042599
v 0.102363 -0.110164 -0.043775
v 0.103195 0.109224 -0.043821
v 0.007555 0.110711 -0.043769
v 0.102363 -0.110164 -0.043775
v -0.008256 -0.111690 -0.044180
v -0.067362 0.057298 -0.045222
v -0.103473 0.108747 -0.042680
v -0.103755 -0.110236 -0.043192
v 0.102821 0.111039 0.042370
v 0.104748 0.031133 0.042081
v 0.001573 0.111928 0.043099
v 0.104260 -0.111098 0.042599
v -0.024952 0.026107 0.043420
v -0.105050 0.110348 0.043117
v -0.003782 -0.112601 0.044133
v -0.103223 -0.010309 0.044884
v -0.104714 -0.111997 0.043826
vt 0.963867 0.921021
vt 0.505859 0.921021
vt 0.501953 0.741455
vt 0.967285 0.739014
vt 0.754395 0.736816
vt 0.504883 0.527588
vt 0.963867 0.529053
vt 0.964844 0.709961
vt 0.667480 0.708008
vt 0.500000 0.707031
vt 0.032562 0.670898
vt 0.038055 0.491211
vt 0.270020 0.491699
vt 0.255615 0.673340
vt 0.467285 0.674072
vt 0.470215 0.493652
vt 0.268311 0.703125
vt 0.468018 0.705322
vt 0.469727 0.887451
vt 0.258545 0.887512
vt 0.032593 0.883972
vt 0.037109 0.703125
vt 0.490479 0.029297
vt 0.493896 0.229004
vt 0.031891 0.030762
vt 0.028610 0.262207
vt 0.381836 0.385742
vt 0.489502 0.461426
vt 0.031464 0.461914
vt 0.959473 0.030273
vt 0.964355 0.197266
vt 0.747559 0.029297
vt 0.964355 0.494629
vt 0.692871 0.208984
vt 0.524414 0.033203
vt 0.738281 0.499023
vt 0.529785 0.285645
vt 0.527344 0.498535
vn -0.582677 -0.566929 -0.582677
vn -0.582677 0.574803 -0.574803
vn -0.582677 0.582677 0.566929
vn -0.582677 -0.582677 0.566929
vn -0.330709 0.000000 0.944882
vn 0.582677 0.566929 -0.582677
vn 0.574803 -0.574803 -0.582677
vn 0.590551 -0.574803 0.566929
vn 0.716535 0.000000 0.692913
vn 0.574803 0.582677 0.574803
vn -0.582677 0.582677 0.566929
vn -0.582677 0.574803 -0.574803
vn 0.000000 0.708661 -0.708661
vn 0.000000 0.716535 0.700787
vn 0.574803 0.582677 0.574803
vn 0.582677 0.566929 -0.582677
vn 0.000000 -0.708661 -0.708661
vn -0.582677 -0.566929 -0.582677
vn -0.582677 -0.582677 0.566929
vn 0.007874 -0.708661 0.708661
vn 0.590551 -0.574803 0.566929
vn 0.574803 -0.574803 -0.582677
vn 0.582677 0.566929 -0.582677
vn 0.000000 0.708661 -0.708661
vn 0.574803 -0.574803 -0.582677
vn 0.000000 -0.708661 -0.708661
vn -0.023622 0.007874 -1.000000
vn -0.582677 0.574803 -0.574803
vn -0.582677 -0.566929 -0.582677
vn 0.574803 0.582677 0.574803
vn 0.716535 0.000000 0.692913
vn 0.000000 0.716535 0.700787
vn 0.590551 -0.574803 0.566929
vn 0.007874 0.007874 1.000000
vn -0.582677 0.582677 0.566929
vn 0.007874 -0.708661 0.708661
vn -0.330709 0.000000 0.944882
vn -0.582677 -0.582677 0.566929
tan -0.704817 0.000000 0.704817 1.000000
tan -0.701531 0.001364 0.712505 1.000000
tan 0.693781 -0.002604 0.715729 1.000000
tan 0.698369 -0.001984 0.715729 1.000000
tan 0.944882 0.000000 0.330709 1.000000
tan -0.709405 0.000000 -0.709405 1.000000
tan -0.707979 0.003162 -0.701531 1.000000
tan 0.695083 0.000558 -0.723479 1.000000
tan 0.692913 0.005456 -0.716535 1.000000
tan 0.695579 0.022630 -0.718519 1.000000
tan -0.016120 0.689193 -0.724905 1.000000
tan 0.004526 -0.704755 -0.709343 1.000000
tan -0.005580 -0.708661 -0.708661 1.000000
tan -0.011160 0.700787 -0.716535 1.000000
tan 0.001364 0.701531 -0.712505 1.000000
tan -0.015500 -0.706553 -0.702957 1.000000
tan 0.000000 0.708661 -0.708661 1.000000
tan 0.015500 0.706553 -0.702957 1.000000
tan -0.002604 -0.693781 -0.715729 1.000000
tan 0.005580 -0.708661 -0.708723 1.000000
tan 0.014694 -0.696943 -0.721929 1.000000
tan -0.007750 0.707979 -0.706057 1.000000
tan 0.709405 0.000000 0.709405 1.000000
tan 1.004402 -0.000000 0.000000 1.000000
tan 0.712505 0.001364 0.701531 1.000000
tan 1.004402 0.000000 0.000000 1.000000
tan 1.000062 0.000186 -0.023622 1.000000
tan 0.710583 0.016864 -0.703453 1.000000
tan 0.709281 -0.009176 -0.700353 1.000000
tan 0.001364 0.701531 -0.712505 1.000000
tan 0.005456 0.993552 -0.005642 1.000000
tan 0.000000 0.700787 -0.716535 1.000000
tan 0.012276 0.710893 0.707979 1.000000
tan 0.007812 1.000062 -0.007936 1.000000
tan 0.001984 0.698369 -0.715729 1.000000
tan 0.005580 0.708723 0.708661 1.000000
tan 0.007440 1.002170 0.002604 1.000000
tan 0.002604 0.693781 0.715729 1.000000
f 3/3/3 2/2/2 1/1/1
f 3/3/3 1/1/1 4/4/4
f 5/5/5 3/3/3 4/4/4
f 8/8/8 7/7/7 6/6/6
f 6/6/6 9/9/9 8/8/8
f 10/10/10 9/9/9 6/6/6
f 13/13/13 12/12/12 11/11/11
f 14/14/14 13/13/13 11/11/11
f 15/15/15 13/13/13 14/14/14
f 13/13/13 15/15/15 16/16/16
f 19/19/19 18/18/18 17/17/17
f 19/19/19 17/17/17 20/20/20
f 20/20/20 17/17/17 21/21/21
f 17/17/17 22/22/22 21/21/21
f 25/25/25 24/24/24 23/23/23
f 24/24/24 25/25/25 26/26/26
f 26/26/26 27/27/27 24/24/24
f 24/24/24 27/27/27 28/28/28
f 29/29/29 27/27/27 26/26/26
f 28/28/28 27/27/27 29/29/29
f 32/32/32 31/31/31 30/30/30
f 32/32/32 33/33/33 31/31/31
f 32/32/32 34/34/34 33/33/33
f 35/35/35 34/34/34 32/32/32
f 33/33/33 34/34/34 36/36/36
f 35/35/35 37/37/37 34/34/34
f 36/36/36 34/34/34 38/38/38
f 34/34/34 37/37/37 38/38/38
