mtllib SM_OldTinContainer02_LOD3.mtl
g SM_OldTinContainer02_LOD3
#Vertices 24
#Indices 36
#Section 0 Offset 0 NumIndices 36 MaterialIndex 0 MI_OldTinContainer02
v -0.104793 0.110810 0.044649
v -0.103217 0.108654 -0.044038
v 0.103118 0.111188 -0.044102
v 0.103642 0.110902 0.041443
v 0.103118 0.111188 -0.044102
v 0.102363 -0.110164 -0.043775
v 0.104260 -0.111098 0.042599
v 0.103642 0.110902 0.041443
v -0.103647 -0.111683 -0.043865
v -0.103217 0.108654 -0.044038
v -0.104793 0.110810 0.044649
v -0.104516 -0.112400 0.043666
v -0.104516 -0.112400 0.043666
v -0.104793 0.110810 0.044649
v 0.104260 -0.111098 0.042599
v 0.103642 0.110902 0.041443
v -0.103647 -0.111683 -0.043865
v 0.102363 -0.110164 -0.043775
v 0.103118 0.111188 -0.044102
v -0.103217 0.108654 -0.044038
v 0.104260 -0.111098 0.042599
v -0.103647 -0.111683 -0.043865
v -0.104516 -0.112400 0.043666
v 0.102363 -0.110164 -0.043775
vt 0.033203 0.674072
vt 0.038635 0.488281
vt 0.469971 0.493652
vt 0.468994 0.672119
vt 0.500977 0.526855
vt 0.963867 0.529053
vt 0.964844 0.709961
vt 0.500488 0.705811
vt 0.966797 0.922424
vt 0.505859 0.923889
vt 0.500977 0.738281
vt 0.968262 0.739502
vt 0.527832 0.499512
vt 0.525391 0.032227
vt 0.964355 0.494629
vt 0.961426 0.030273
vt 0.028488 0.461426
vt 0.031891 0.030762
vt 0.494873 0.029297
vt 0.489258 0.460938
vt 0.032593 0.883972
vt 0.467773 0.704102
vt 0.469238 0.886963
vt 0.037109 0.703125
vn -0.582677 0.582677 0.574803
vn -0.574803 0.566929 -0.590551
vn 0.574803 0.582677 -0.582677
vn 0.582677 0.582677 0.566929
vn 0.574803 0.582677 -0.582677
vn 0.574803 -0.574803 -0.582677
vn 0.590551 -0.574803 0.566929
vn 0.582677 0.582677 0.566929
vn -0.574803 -0.574803 -0.582677
vn -0.574803 0.566929 -0.590551
vn -0.582677 0.582677 0.574803
vn -0.574803 -0.582677 0.574803
vn -0.574803 -0.582677 0.574803
vn -0.582677 0.582677 0.574803
vn 0.590551 -0.574803 0.566929
vn 0.582677 0.582677 0.566929
vn -0.574803 -0.574803 -0.582677
vn 0.574803 -0.574803 -0.582677
vn 0.574803 0.582677 -0.582677
vn -0.574803 0.566929 -0.590551
vn 0.590551 -0.574803 0.566929
vn -0.574803 -0.574803 -0.582677
vn -0.574803 -0.582677 0.574803
vn 0.574803 -0.574803 -0.582677
tan -0.015004 0.695579 -0.720317 1.000000
tan 0.000558 -0.723479 -0.695083 1.000000
tan -0.004588 -0.707979 -0.712505 1.000000
tan -0.011036 0.702957 -0.711141 1.000000
tan -0.715729 -0.003224 -0.709281 1.000000
tan -0.712505 -0.001364 -0.701531 1.000000
tan 0.695083 0.000558 -0.723479 1.000000
tan 0.698245 0.002604 -0.720317 1.000000
tan -0.712505 -0.003224 0.706057 1.000000
tan -0.720379 -0.002852 0.698431 1.000000
tan 0.700167 -0.005890 0.715729 1.000000
tan 0.704755 0.000000 0.704755 1.000000
tan 0.005890 0.701531 0.717031 1.000000
tan -0.005890 0.700167 -0.715729 1.000000
tan 0.007750 0.706243 0.707979 1.000000
tan -0.011036 0.702957 -0.711141 1.000000
tan 0.712505 -0.001364 -0.701531 1.000000
tan 0.712505 0.001364 0.701531 1.000000
tan 0.715729 0.003224 0.709281 1.000000
tan 0.715915 -0.001674 -0.698431 1.000000
tan 0.010230 -0.696943 -0.717279 1.000000
tan -0.001364 0.712505 -0.701531 1.000000
tan 0.003224 -0.706057 -0.712505 1.000000
tan 0.001364 0.712505 -0.701531 1.000000
f 3/3/3 2/2/2 1/1/1
f 4/4/4 3/3/3 1/1/1
f 7/7/7 6/6/6 5/5/5
f 5/5/5 8/8/8 7/7/7
f 11/11/11 10/10/10 9/9/9
f 11/11/11 9/9/9 12/12/12
f 15/15/15 14/14/14 13/13/13
f 14/14/14 15/15/15 16/16/16
f 19/19/19 18/18/18 17/17/17
f 17/17/17 20/20/20 19/19/19
f 23/23/23 22/22/22 21/21/21
f 22/22/22 24/24/24 21/21/21
