mtllib SM_OldTinContainer01_LOD2.mtl
g SM_OldTinContainer01_LOD2
#Vertices 89
#Indices 282
#Section 0 Offset 0 NumIndices 282 MaterialIndex 0 MI_OldTinContainer01
v -0.041958 0.070778 0.038348
v -0.119832 0.067757 0.042321
v -0.117613 0.068769 0.031538
v -0.050620 0.066789 0.023721
v -0.103911 0.066931 0.029723
v -0.118990 0.067939 -0.037923
v -0.058353 0.069619 -0.016402
v -0.039754 0.066789 0.019423
v -0.027453 0.068084 -0.033967
v -0.010854 0.067038 -0.039279
v -0.118643 -0.073431 0.041563
v -0.119413 -0.074083 0.032564
v -0.119832 0.067757 0.042321
v -0.120863 0.005645 -0.012456
v -0.117613 0.068769 0.031538
v -0.118546 -0.071523 0.011323
v -0.118990 0.067939 -0.037923
v -0.119084 -0.071145 -0.037520
v -0.119487 -0.018061 -0.039050
v -0.010709 0.071897 0.037191
v -0.006254 0.068629 0.027282
v 0.019015 0.067860 0.038671
v 0.118715 0.068074 0.039092
v 0.119648 0.066939 0.026775
v 0.042836 0.068046 -0.000972
v -0.039754 0.066789 0.019423
v 0.119055 0.067853 -0.038350
v -0.027453 0.068084 -0.033967
v -0.010854 0.067038 -0.039279
v 0.118466 -0.074268 0.038189
v 0.120348 0.007678 0.038855
v 0.119964 -0.075686 0.029682
v 0.118560 -0.070464 0.026945
v 0.118715 0.068074 0.039092
v 0.119648 0.066939 0.026775
v 0.120686 -0.004686 -0.010428
v 0.118886 -0.071812 -0.038866
v 0.119055 0.067853 -0.038350
v 0.118850 -0.001806 -0.039366
v -0.010709 0.071897 0.037191
v 0.019015 0.067860 0.038671
v -0.041958 0.070778 0.038348
v -0.025315 0.017276 0.037029
v -0.119832 0.067757 0.042321
v 0.059868 -0.012575 0.036763
v 0.118715 0.068074 0.039092
v 0.120348 0.007678 0.038855
v 0.118466 -0.074268 0.038189
v 0.027962 -0.074118 0.037860
v -0.077244 -0.011842 0.038075
v -0.118643 -0.073431 0.041563
v 0.027962 -0.074118 0.037860
v 0.118466 -0.074268 0.038189
v 0.119964 -0.075686 0.029682
v -0.018737 -0.075199 0.029571
v -0.118643 -0.073431 0.041563
v -0.119413 -0.074083 0.032564
v 0.039187 -0.070918 0.025832
v 0.118560 -0.070464 0.026945
v 0.118886 -0.071812 -0.038866
v -0.011162 -0.071470 -0.038553
v -0.081742 -0.071918 0.028363
v -0.118546 -0.071523 0.011323
v -0.077850 -0.072801 -0.003171
v -0.119084 -0.071145 -0.037520
v -0.076023 -0.071021 -0.038623
v -0.010709 0.071897 0.037191
v -0.012058 0.075616 0.022844
v -0.006254 0.068629 0.027282
v -0.041958 0.070778 0.038348
v -0.039754 0.066789 0.019423
v -0.046627 0.075416 0.023719
v -0.050620 0.066789 0.023721
v -0.076023 -0.071021 -0.038623
v -0.106378 -0.056525 -0.040931
v -0.119084 -0.071145 -0.037520
v -0.119487 -0.018061 -0.039050
v -0.032444 -0.024308 -0.039647
v 0.025620 -0.013986 -0.040040
v -0.011162 -0.071470 -0.038553
v 0.118886 -0.071812 -0.038866
v 0.104324 -0.056781 -0.041599
v 0.118850 -0.001806 -0.039366
v 0.105104 0.051424 -0.041227
v 0.119055 0.067853 -0.038350
v -0.010854 0.067038 -0.039279
v -0.036509 0.019167 -0.040056
v -0.111342 0.050314 -0.040157
v -0.118990 0.067939 -0.037923
vt 0.630859 0.676514
vt 0.806152 0.652832
vt 0.802734 0.678467
vt 0.653320 0.708252
vt 0.771973 0.686035
vt 0.817383 0.835449
vt 0.677246 0.797729
vt 0.629395 0.719971
vt 0.610840 0.842773
vt 0.574219 0.857300
vt 0.635742 0.419434
vt 0.634277 0.398438
vt 0.953613 0.418457
vt 0.812988 0.296387
vt 0.956055 0.394043
vt 0.639160 0.350586
vt 0.952637 0.237793
vt 0.640137 0.240234
vt 0.759277 0.236328
vt 0.660156 0.204590
vt 0.669922 0.182129
vt 0.727539 0.207520
vt 0.951660 0.206055
vt 0.953613 0.176758
vt 0.779785 0.117188
vt 0.593750 0.164551
vt 0.950195 0.030273
vt 0.621094 0.044434
vt 0.658203 0.032227
vt 0.967285 0.626709
vt 0.783203 0.625244
vt 0.971191 0.607178
vt 0.959473 0.600098
vt 0.647461 0.625977
vt 0.649902 0.596680
vt 0.812012 0.514648
vt 0.963867 0.452148
vt 0.649414 0.450195
vt 0.806152 0.449219
vt 0.304688 0.241699
vt 0.371826 0.250000
vt 0.234375 0.246094
vt 0.274170 0.365723
vt 0.058960 0.256348
vt 0.467041 0.429688
vt 0.596191 0.245605
vt 0.602539 0.381348
vt 0.601562 0.565918
vt 0.397949 0.569336
vt 0.158447 0.433594
vt 0.067627 0.573975
vt 0.233765 0.211426
vt 0.029968 0.216797
vt 0.026749 0.198242
vt 0.338623 0.191406
vt 0.563477 0.214844
vt 0.564941 0.193848
vt 0.208008 0.181152
vt 0.029282 0.185547
vt 0.027008 0.037109
vt 0.319824 0.035156
vt 0.480469 0.183594
vt 0.562988 0.145020
vt 0.470947 0.113281
vt 0.562500 0.034668
vt 0.465820 0.033203
vt 0.867188 0.658936
vt 0.874023 0.689209
vt 0.854004 0.686768
vt 0.942871 0.656250
vt 0.936035 0.713379
vt 0.947754 0.690674
vt 0.964355 0.697266
vt 0.140625 0.601318
vt 0.072205 0.634033
vt 0.042694 0.600830
vt 0.042419 0.720459
vt 0.238525 0.707031
vt 0.369141 0.730713
vt 0.286865 0.600830
vt 0.579590 0.601074
vt 0.546875 0.635010
vt 0.579102 0.758911
vt 0.547363 0.878662
vt 0.578613 0.916382
vt 0.286377 0.912964
vt 0.229004 0.804932
vt 0.060242 0.874268
vt 0.042084 0.914124
vn -0.086614 0.637795 0.763780
vn -0.598425 0.543307 0.582677
vn -0.598425 0.795276 -0.086614
vn -0.244094 0.952756 -0.181102
vn -0.031496 0.771654 -0.637795
vn -0.590551 0.606299 -0.535433
vn 0.000000 1.000000 0.007874
vn -0.039370 0.874016 -0.488189
vn 0.015748 1.000000 -0.086614
vn 0.015748 0.685039 -0.732283
vn -0.543307 -0.551181 0.637795
vn -0.685039 -0.724409 -0.007874
vn -0.598425 0.543307 0.582677
vn -1.000000 0.007874 -0.015748
vn -0.598425 0.795276 -0.086614
vn -0.700787 -0.708661 -0.047244
vn -0.590551 0.606299 -0.535433
vn -0.598425 -0.598425 -0.527559
vn -0.692913 -0.007874 -0.716535
vn 0.133858 0.834646 0.527559
vn 0.251969 0.944882 -0.212598
vn 0.007874 0.669291 0.740157
vn 0.543307 0.606299 0.582677
vn 0.724409 0.692913 -0.007874
vn 0.000000 1.000000 -0.007874
vn -0.039370 0.874016 -0.488189
vn 0.590551 0.606299 -0.543307
vn 0.015748 1.000000 -0.086614
vn 0.015748 0.685039 -0.732283
vn 0.511811 -0.535433 0.669291
vn 0.692913 -0.007874 0.716535
vn 0.645669 -0.692913 -0.330709
vn 0.763780 -0.440945 -0.480315
vn 0.543307 0.606299 0.582677
vn 0.724409 0.692913 -0.007874
vn 1.000000 -0.007874 -0.023622
vn 0.574803 -0.606299 -0.551181
vn 0.590551 0.606299 -0.543307
vn 0.692913 0.000000 -0.716535
vn 0.133858 0.834646 0.527559
vn 0.007874 0.669291 0.740157
vn -0.086614 0.637795 0.763780
vn 0.015748 -0.007874 1.000000
vn -0.598425 0.543307 0.582677
vn -0.007874 0.000000 1.000000
vn 0.543307 0.606299 0.582677
vn 0.692913 -0.007874 0.716535
vn 0.511811 -0.535433 0.669291
vn 0.000000 -0.645669 0.763780
vn 0.047244 0.000000 1.000000
vn -0.543307 -0.551181 0.637795
vn 0.000000 -0.645669 0.763780
vn 0.511811 -0.535433 0.669291
vn 0.645669 -0.692913 -0.330709
vn -0.007874 -0.913386 -0.409449
vn -0.543307 -0.551181 0.637795
vn -0.685039 -0.724409 -0.007874
vn 0.000000 -0.905512 -0.417323
vn 0.763780 -0.440945 -0.480315
vn 0.574803 -0.606299 -0.551181
vn 0.000000 -0.716535 -0.700787
vn -0.007874 -0.944882 -0.338583
vn -0.700787 -0.708661 -0.047244
vn 0.000000 -1.000000 0.000000
vn -0.598425 -0.598425 -0.527559
vn 0.000000 -0.582677 -0.811024
vn 0.133858 0.834646 0.527559
vn 0.433071 0.645669 -0.629921
vn 0.251969 0.944882 -0.212598
vn -0.086614 0.637795 0.763780
vn -0.039370 0.874016 -0.488189
vn -0.535433 0.787402 -0.314961
vn -0.244094 0.952756 -0.181102
vn 0.000000 -0.582677 -0.811024
vn -0.039370 -0.039370 -1.000000
vn -0.598425 -0.598425 -0.527559
vn -0.692913 -0.007874 -0.716535
vn -0.007874 -0.007874 -1.000000
vn -0.007874 -0.007874 -1.000000
vn 0.000000 -0.716535 -0.700787
vn 0.574803 -0.606299 -0.551181
vn -0.039370 -0.173228 -0.984252
vn 0.692913 0.000000 -0.716535
vn 0.070866 0.055118 -1.000000
vn 0.590551 0.606299 -0.543307
vn 0.015748 0.685039 -0.732283
vn 0.000000 0.000000 -1.000000
vn -0.110236 0.039370 -0.992126
vn -0.590551 0.606299 -0.535433
tan -0.031186 -0.765268 0.635501 1.000000
tan -0.032178 -0.741398 0.658255 1.000000
tan -0.096348 0.035898 0.995288 1.000000
tan -0.075640 0.167710 0.984252 1.000000
tan -0.114948 0.630541 0.768553 1.000000
tan -0.060884 0.625333 0.775250 1.000000
tan -0.078740 -0.007874 1.000000 1.000000
tan -0.040672 0.487569 0.876186 1.000000
tan -0.078058 0.087854 1.000124 1.000000
tan -0.060822 0.733151 0.684543 1.000000
tan -0.762354 -0.004278 -0.653109 1.000000
tan 0.005394 0.005704 -0.994048 1.000000
tan -0.657449 0.073036 -0.743320 1.000000
tan 0.015810 0.007750 -1.000062 1.000000
tan 0.127658 -0.011656 -0.989026 1.000000
tan 0.061008 0.005890 -0.993304 1.000000
tan 0.664517 -0.012028 -0.746544 1.000000
tan 0.649885 0.018910 -0.758633 1.000000
tan 0.716535 0.005642 -0.692975 1.000000
tan 0.083080 0.519251 -0.842582 1.000000
tan 0.000186 -0.219790 -0.976626 1.000000
tan 0.011656 0.740157 -0.669415 1.000000
tan 0.023746 0.683427 -0.733275 1.000000
tan 0.010664 -0.022506 -0.999442 1.000000
tan 0.015748 -0.007874 -1.000000 1.000000
tan 0.016182 -0.488499 -0.875876 1.000000
tan 0.008184 -0.677785 -0.747473 1.000000
tan 0.006510 -0.086738 -1.000248 1.000000
tan -0.017298 -0.732283 -0.685411 1.000000
tan 0.787340 -0.007750 -0.608283 1.000000
tan 0.716597 0.005456 -0.692913 1.000000
tan -0.441441 0.017608 -0.898754 1.000000
tan -0.531837 0.007130 -0.852254 1.000000
tan 0.725959 0.017050 -0.694649 1.000000
tan -0.011160 0.000310 -0.999442 1.000000
tan -0.023560 0.008060 -1.000062 1.000000
tan -0.677041 0.025420 -0.734019 1.000000
tan -0.680327 -0.002046 -0.741769 1.000000
tan -0.716535 0.011098 -0.692913 1.000000
tan 0.003162 0.532891 -0.843884 1.000000
tan 0.016926 0.740095 -0.669415 1.000000
tan -0.001922 0.769236 -0.642569 1.000000
tan 0.015872 1.000248 0.007626 1.000000
tan -0.025606 0.717713 -0.695517 1.000000
tan 0.015748 1.000062 0.000124 1.000000
tan 0.023746 0.683427 -0.733275 1.000000
tan 0.022382 0.993552 -0.010726 1.000000
tan 0.004216 0.779962 0.620745 1.000000
tan 0.022196 0.763780 0.645669 1.000000
tan 0.015748 1.002232 -0.000744 1.000000
tan 0.047120 0.738421 0.678281 1.000000
tan -0.022196 -0.763780 -0.645669 1.000000
tan -0.017918 -0.788022 -0.616715 1.000000
tan -0.015252 0.420361 -0.910534 1.000000
tan -0.014384 0.409573 -0.913386 1.000000
tan -0.019034 -0.751256 -0.665447 1.000000
tan -0.006014 0.016492 -0.994048 1.000000
tan -0.017546 0.417323 -0.905512 1.000000
tan -0.017608 0.725091 -0.693657 1.000000
tan -0.009548 0.668609 -0.745427 1.000000
tan -0.011160 0.700787 -0.716535 1.000000
tan -0.012214 0.338707 -0.944944 1.000000
tan -0.000372 0.066960 -0.998884 1.000000
tan -0.007874 -0.000000 -1.000000 1.000000
tan 0.005332 0.655155 -0.749210 1.000000
tan -0.006386 0.811024 -0.582677 1.000000
tan -0.229772 -0.489925 0.833406 1.000000
tan 0.191208 0.616901 0.763780 1.000000
tan -0.227664 0.270631 0.932978 1.000000
tan 0.279807 -0.717465 0.630851 1.000000
tan -0.033790 0.487879 0.876186 1.000000
tan -0.037200 0.349681 0.937442 1.000000
tan 0.102610 0.210490 0.969062 1.000000
tan -0.004588 -0.811024 0.582677 1.000000
tan 0.001550 -1.001550 0.039370 1.000000
tan 0.074462 -0.697563 0.706801 1.000000
tan -0.000186 -0.993552 0.011098 1.000000
tan 0.000062 -1.000062 0.007874 1.000000
tan 0.000062 -1.000062 0.007874 1.000000
tan -0.005642 -0.700787 0.716535 1.000000
tan -0.022568 -0.686713 0.731849 1.000000
tan -0.000930 -0.985802 0.173538 1.000000
tan -0.005642 -0.993552 -0.005456 1.000000
tan -0.004402 -1.004464 -0.055676 1.000000
tan 0.053444 -0.701035 -0.724223 1.000000
tan -0.006138 -0.732407 -0.685287 1.000000
tan -0.007874 -1.000000 -0.000000 1.000000
tan -0.004340 -0.996466 -0.039060 1.000000
tan -0.047554 -0.689999 -0.728873 1.000000
f 3/3/3 2/2/2 1/1/1
f 1/1/1 4/4/4 3/3/3
f 5/5/5 3/3/3 4/4/4
f 5/5/5 6/6/6 3/3/3
f 4/4/4 6/6/6 5/5/5
f 6/6/6 4/4/4 7/7/7
f 8/8/8 7/7/7 4/4/4
f 8/8/8 9/9/9 7/7/7
f 6/6/6 7/7/7 9/9/9
f 9/9/9 10/10/10 6/6/6
f 13/13/13 12/12/12 11/11/11
f 14/14/14 12/12/12 13/13/13
f 14/14/14 13/13/13 15/15/15
f 14/14/14 16/16/16 12/12/12
f 15/15/15 17/17/17 14/14/14
f 14/14/14 18/18/18 16/16/16
f 19/19/19 14/14/14 17/17/17
f 14/14/14 19/19/19 18/18/18
f 22/22/22 21/21/21 20/20/20
f 22/22/22 23/23/23 21/21/21
f 23/23/23 24/24/24 21/21/21
f 24/24/24 25/25/25 21/21/21
f 25/25/25 26/26/26 21/21/21
f 24/24/24 27/27/27 25/25/25
f 25/25/25 28/28/28 26/26/26
f 27/27/27 29/29/29 25/25/25
f 25/25/25 29/29/29 28/28/28
f 32/32/32 31/31/31 30/30/30
f 31/31/31 32/32/32 33/33/33
f 31/31/31 35/35/35 34/34/34
f 31/31/31 33/33/33 36/36/36
f 35/35/35 31/31/31 36/36/36
f 33/33/33 37/37/37 36/36/36
f 36/36/36 38/38/38 35/35/35
f 36/36/36 37/37/37 39/39/39
f 36/36/36 39/39/39 38/38/38
f 42/42/42 41/41/41 40/40/40
f 43/43/43 41/41/41 42/42/42
f 42/42/42 44/44/44 43/43/43
f 41/41/41 43/43/43 45/45/45
f 41/41/41 45/45/45 46/46/46
f 45/45/45 47/47/47 46/46/46
f 47/47/47 45/45/45 48/48/48
f 45/45/45 49/49/49 48/48/48
f 44/44/44 50/50/50 43/43/43
f 50/50/50 45/45/45 43/43/43
f 49/49/49 45/45/45 50/50/50
f 50/50/50 44/44/44 51/51/51
f 50/50/50 51/51/51 49/49/49
f 54/54/54 53/53/53 52/52/52
f 55/55/55 54/54/54 52/52/52
f 55/55/55 52/52/52 56/56/56
f 56/56/56 57/57/57 55/55/55
f 58/58/58 54/54/54 55/55/55
f 59/59/59 54/54/54 58/58/58
f 59/59/59 58/58/58 60/60/60
f 61/61/61 60/60/60 58/58/58
f 55/55/55 57/57/57 62/62/62
f 58/58/58 55/55/55 62/62/62
f 58/58/58 62/62/62 61/61/61
f 57/57/57 63/63/63 62/62/62
f 63/63/63 64/64/64 62/62/62
f 64/64/64 61/61/61 62/62/62
f 65/65/65 64/64/64 63/63/63
f 65/65/65 61/61/61 64/64/64
f 66/66/66 61/61/61 65/65/65
f 69/69/69 68/68/68 67/67/67
f 70/70/70 67/67/67 68/68/68
f 68/68/68 69/69/69 71/71/71
f 70/70/70 68/68/68 72/72/72
f 68/68/68 71/71/71 72/72/72
f 72/72/72 73/73/73 70/70/70
f 72/72/72 71/71/71 73/73/73
f 76/76/76 75/75/75 74/74/74
f 76/76/76 77/77/77 75/75/75
f 75/75/75 77/77/77 74/74/74
f 74/74/74 77/77/77 78/78/78
f 78/78/78 79/79/79 74/74/74
f 77/77/77 79/79/79 78/78/78
f 79/79/79 80/80/80 74/74/74
f 79/79/79 81/81/81 80/80/80
f 81/81/81 79/79/79 82/82/82
f 82/82/82 83/83/83 81/81/81
f 82/82/82 79/79/79 83/83/83
f 83/83/83 79/79/79 84/84/84
f 84/84/84 85/85/85 83/83/83
f 84/84/84 86/86/86 85/85/85
f 86/86/86 84/84/84 79/79/79
f 87/87/87 86/86/86 79/79/79
f 87/87/87 79/79/79 77/77/77
f 86/86/86 87/87/87 88/88/88
f 77/77/77 88/88/88 87/87/87
f 86/86/86 88/88/88 89/89/89
f 88/88/88 77/77/77 89/89/89
